<svg id="Layer_1" data-name="Layer 1" xmlns="http://www.w3.org/2000/svg" xmlns:xlink="http://www.w3.org/1999/xlink" viewBox="0 0 89 38"><defs><style>.cls-1{fill:none;}.cls-2{clip-path:url(#clip-path);}.cls-3{fill:#09528f;}.cls-4{fill:#be1e2d;}.cls-5{fill:#f9a11b;}</style><clipPath id="clip-path"><rect id="SVGID" class="cls-1" x="1.04" y="1.04" width="86.93" height="35.92"/></clipPath></defs><title>ACL_logo</title><g class="cls-2"><path class="cls-3" d="M20.09,3.63a2.54,2.54,0,1,1-2.54-2.54,2.54,2.54,0,0,1,2.54,2.54"/><path class="cls-3" d="M26.74,2.46a0,0,0,0,1,0,0c-1.88,4.37-5.15,10.22-9.19,10.37-4-.15-7.31-6-9.2-10.37a0,0,0,0,1,0,0c-.06-.15-.44-1.16-.15-1.3,0,0,.34-.22.82.41H9c3,4.11,5.93,5.6,8.51,5.6h0c2.58,0,5.47-1.49,8.51-5.6h0c.48-.63.82-.41.82-.41.29.14-.08,1.15-.15,1.3"/><path class="cls-4" d="M7.59,17.89a2.54,2.54,0,1,1,0,3.59,2.54,2.54,0,0,1,0-3.59"/><path class="cls-4" d="M2.07,14h0c4.43-1.75,10.88-3.55,13.83-.79,2.75,3,.9,9.42-.87,13.83v0c-.06.15-.51,1.13-.82,1,0,0-.4-.09-.29-.87h0c.77-5.06-.21-8.16-2-10l0,0c-1.82-1.83-4.91-2.83-10-2.09h0c-.78.1-.87-.29-.87-.29-.11-.31.88-.75,1-.81"/></g><path class="cls-5" d="M27.48,17.89a2.54,2.54,0,1,0,0,3.59,2.54,2.54,0,0,0,0-3.59"/><path class="cls-5" d="M33,14h0c-4.43-1.75-10.88-3.55-13.83-.79-2.75,3-.9,9.42.87,13.83v0c.06.15.51,1.13.82,1,0,0,.4-.09.29-.87h0c-.77-5.06.21-8.16,2-10l0,0c1.82-1.83,4.91-2.83,10-2.09h0c.78.1.87-.29.87-.29.11-.31-.88-.75-1-.81"/><path class="cls-3" d="M42.8,1.18,30.81,28h3l2.69-6h13l2.78,6H55.4L42.8,1.18M37.59,19.46l.3-.69,4.9-11.12L48,18.77l.33.69Z"/><path class="cls-3" d="M67.05,25.46c-6.5-.27-10.48-4.33-10.64-10.87a10.63,10.63,0,0,1,3-7.69,11.19,11.19,0,0,1,8-3.31,11.41,11.41,0,0,1,6.54,2.16l-.05-3A14.8,14.8,0,0,0,67.14,1H66.9A13.63,13.63,0,0,0,53.56,14.51C53.56,22.38,59,28,66.79,28.05h.12a16.4,16.4,0,0,0,6.92-1.68V23.16a11.3,11.3,0,0,1-6.32,2.31h-.46"/><polyline class="cls-3" points="79.81 25.17 79.81 1.15 76.92 1.15 76.92 28.07 87.97 28.07 87.97 25.17 79.81 25.17"/><path class="cls-3" d="M2.26,34.13,1.72,35.4H1.18l2.06-4.67,2,4.67H4.69l-.53-1.27H2.26m1-2.25-.76,1.79H4Z"/><path class="cls-3" d="M7.79,35h0a1.19,1.19,0,0,1-1,.46,1.47,1.47,0,0,1,0-2.93,1.2,1.2,0,0,1,1,.47h0v-2.5h.47V35.4H7.79V35M6,34A1,1,0,0,0,6.88,35,1,1,0,0,0,7.81,34a.93.93,0,0,0-.93-1A.94.94,0,0,0,6,34Z"/><path class="cls-3" d="M9.37,32.92h0a.79.79,0,0,1,.67-.38.85.85,0,0,1,.77.46.92.92,0,0,1,.83-.46c.71,0,.89.58.89,1.17V35.4h-.47V33.79c0-.36,0-.8-.51-.8s-.6.53-.6.95V35.4h-.47V33.82c0-.34,0-.84-.5-.84s-.61.56-.61,1V35.4H8.9V32.62h.47v.3"/><path class="cls-3" d="M13.75,31.57a.34.34,0,1,1-.67,0,.34.34,0,0,1,.67,0m-.57,1h.47V35.4h-.47Z"/><path class="cls-3" d="M14.75,33h0a.93.93,0,0,1,.79-.41c.77,0,.95.56.95,1.21V35.4H16V33.83c0-.45,0-.85-.59-.85s-.69.6-.69,1.1V35.4h-.47V32.62h.47V33"/><path class="cls-3" d="M17.71,31.57a.34.34,0,1,1-.34-.34.34.34,0,0,1,.34.34m-.57,1h.47V35.4h-.47Z"/><path class="cls-3" d="M19.36,33.27A.44.44,0,0,0,19,33a.34.34,0,0,0-.34.31c0,.25.32.35.64.49a.85.85,0,0,1,.64.8.91.91,0,0,1-.94.91,1,1,0,0,1-1-.7l.42-.18c.12.26.25.44.57.44a.42.42,0,0,0,.45-.43c0-.62-1.25-.41-1.25-1.28a.79.79,0,0,1,.83-.79.84.84,0,0,1,.74.51l-.4.21"/><polyline class="cls-3" points="20.98 35.4 20.5 35.4 20.5 33.06 20.21 33.06 20.21 32.62 20.5 32.62 20.5 31.62 20.98 31.62 20.98 32.62 21.48 32.62 21.48 33.06 20.98 33.06 20.98 35.4"/><path class="cls-3" d="M22.47,32.92h0a.72.72,0,0,1,.61-.38.84.84,0,0,1,.43.13l-.23.43A.46.46,0,0,0,23,33c-.52,0-.54.67-.54,1V35.4H22V32.62h.47v.3"/><path class="cls-3" d="M26.3,35.4h-.47V35h0a1.17,1.17,0,0,1-1,.46,1.47,1.47,0,0,1,0-2.93,1.2,1.2,0,0,1,1,.47h0v-.4h.47V35.4M24,34A1,1,0,0,0,24.92,35,1,1,0,0,0,25.85,34a.93.93,0,0,0-.93-1A.94.94,0,0,0,24,34Z"/><polyline class="cls-3" points="27.55 35.4 27.08 35.4 27.08 33.06 26.79 33.06 26.79 32.62 27.08 32.62 27.08 31.62 27.55 31.62 27.55 32.62 28.05 32.62 28.05 33.06 27.55 33.06 27.55 35.4"/><path class="cls-3" d="M29.14,31.57a.34.34,0,1,1-.67,0,.34.34,0,0,1,.67,0m-.57,1H29V35.4h-.47Z"/><path class="cls-3" d="M29.54,34A1.46,1.46,0,1,1,31,35.48,1.46,1.46,0,0,1,29.54,34M30,34a1,1,0,1,0,1-1A1,1,0,0,0,30,34Z"/><path class="cls-3" d="M33.35,33h0a.93.93,0,0,1,.79-.41c.77,0,.95.56.95,1.21V35.4h-.47V33.83c0-.45,0-.85-.59-.85s-.69.6-.69,1.1V35.4h-.47V32.62h.47V33"/><path class="cls-3" d="M38.33,35.4h-.47V33.06H37.6v-.44h.26V31.51a1.43,1.43,0,0,1,.12-.72.81.81,0,0,1,.72-.35,1.13,1.13,0,0,1,.34.06V31a1,1,0,0,0-.32-.07c-.38,0-.38.27-.38.76v.94H39v.44h-.7V35.4"/><path class="cls-3" d="M39.07,34a1.46,1.46,0,1,1,1.46,1.46A1.46,1.46,0,0,1,39.07,34m.47,0a1,1,0,1,0,1-1A1,1,0,0,0,39.54,34Z"/><path class="cls-3" d="M42.86,32.92h0a.72.72,0,0,1,.61-.38.84.84,0,0,1,.43.13l-.22.43A.46.46,0,0,0,43.4,33c-.52,0-.54.67-.54,1V35.4h-.47V32.62h.47v.3"/><path class="cls-3" d="M49.61,31.92a1.91,1.91,0,0,0-1.36-.59,1.85,1.85,0,0,0,0,3.69,2,2,0,0,0,1.35-.59V35a2.3,2.3,0,0,1-1.33.44,2.31,2.31,0,1,1,0-4.61,2.15,2.15,0,0,1,1.33.44v.61"/><path class="cls-3" d="M50,34a1.46,1.46,0,1,1,1.46,1.46A1.46,1.46,0,0,1,50,34m.47,0a1,1,0,1,0,1-1A1,1,0,0,0,50.43,34Z"/><path class="cls-3" d="M53.77,32.92h0a.78.78,0,0,1,.67-.38.85.85,0,0,1,.77.46.93.93,0,0,1,.83-.46c.71,0,.89.58.89,1.17V35.4h-.47V33.79c0-.36,0-.8-.51-.8s-.6.53-.6.95V35.4h-.47V33.82c0-.34,0-.84-.5-.84s-.61.56-.61,1V35.4H53.3V32.62h.47v.3"/><path class="cls-3" d="M58,32.92h0a.78.78,0,0,1,.67-.38.85.85,0,0,1,.77.46.92.92,0,0,1,.83-.46c.71,0,.89.58.89,1.17V35.4h-.47V33.79c0-.36,0-.8-.51-.8s-.6.53-.6.95V35.4h-.47V33.82c0-.34,0-.84-.5-.84s-.61.56-.61,1V35.4h-.47V32.62H58v.3"/><path class="cls-3" d="M62.11,34.17c0,.47.05.87.63.87s.63-.4.63-.87V32.62h.47v1.6c0,.74-.28,1.25-1.1,1.25s-1.1-.51-1.1-1.25v-1.6h.47v1.55"/><path class="cls-3" d="M64.81,33h0a.93.93,0,0,1,.79-.41c.77,0,.95.56.95,1.21V35.4h-.47V33.83c0-.45,0-.85-.59-.85s-.69.6-.69,1.1V35.4h-.47V32.62h.47V33"/><path class="cls-3" d="M67.77,31.57a.34.34,0,1,1-.67,0,.34.34,0,0,1,.67,0m-.57,1h.47V35.4H67.2Z"/><polyline class="cls-3" points="69.73 32.62 70.28 32.62 71.27 34.61 72.17 32.62 72.7 32.62 70.65 36.96 70.11 36.96 71.01 35.14 69.73 32.62"/><polyline class="cls-3" points="75.46 34.94 76.69 34.94 76.69 35.4 74.96 35.4 74.96 30.94 75.46 30.94 75.46 34.94"/><path class="cls-3" d="M77.72,31.57a.34.34,0,1,1-.67,0,.34.34,0,0,1,.67,0m-.57,1h.47V35.4h-.47Z"/><polyline class="cls-3" points="79.53 34.49 80.36 32.62 80.89 32.62 79.53 35.58 78.17 32.62 78.7 32.62 79.53 34.49"/><path class="cls-3" d="M81.89,31.57a.34.34,0,1,1-.34-.34.34.34,0,0,1,.34.34m-.57,1h.47V35.4h-.47Z"/><path class="cls-3" d="M82.89,33h0a.93.93,0,0,1,.79-.41c.77,0,.95.56.95,1.21V35.4h-.47V33.83c0-.45,0-.85-.59-.85s-.69.6-.69,1.1V35.4h-.47V32.62h.47V33"/><path class="cls-3" d="M87.93,35.26a1.77,1.77,0,0,1-.28,1.19,1.35,1.35,0,0,1-1.08.49,1.27,1.27,0,0,1-1.37-1.28h.47a.83.83,0,0,0,.89.84c.73,0,.89-.54.89-1.17V35h0a1.23,1.23,0,0,1-1,.46A1.36,1.36,0,0,1,85.16,34a1.39,1.39,0,0,1,1.34-1.48,1.16,1.16,0,0,1,.95.47h0v-.4h.47v2.64M85.64,34A1,1,0,0,0,86.55,35,1,1,0,0,0,87.48,34a.93.93,0,0,0-.93-1A.94.94,0,0,0,85.64,34Z"/><polyline class="cls-3" points="69.53 32.62 69.53 33.06 69.04 33.06 69.04 35.4 68.56 35.4 68.56 33.06 68.06 33.06 68.06 32.62 68.56 32.62 68.56 31.62 69.04 31.62 69.04 32.62 69.53 32.62"/></svg>