<svg id="Layer_1" data-name="Layer 1" xmlns="http://www.w3.org/2000/svg" xmlns:xlink="http://www.w3.org/1999/xlink" viewBox="0 0 207 65"><defs><style>.cls-1,.cls-5{fill:none;}.cls-2{clip-path:url(#clip-path);}.cls-3{fill:#7fa2bf;}.cls-4,.cls-7{fill:#fff;}.cls-4{opacity:0.3;}.cls-5{stroke:#b2c7d8;stroke-miterlimit:10;}.cls-6{fill:#c94726;}</style><clipPath id="clip-path"><rect class="cls-1" x="0.5" y="0.5" width="206" height="64"/></clipPath></defs><title>CCD_btn</title><g class="cls-2"><rect class="cls-3" x="0.5" y="0.5" width="206" height="64"/><path class="cls-4" d="M102.18,1.22V-17c.85,1,2.11,2.16,3.59,2.08,1.76-.1,2.47-1.85,4.21-2.62,1.34-.6,3.41-.66,6.63,1.68v9.13C113.39-9.07,111.32-9,110-8.41c-1.74.77-2.45,2.52-4.21,2.62a3.33,3.33,0,0,1-2.06-.66V1.22l36.41,31V40.5L102.94,10.2,65.77,40.5V32.23ZM23.86,166v5.51H186.63V166Zm48.33-79H11.86V18.73H78.78L63.93,31.39v13l3.54-2.89,4.87-3.73-.15,3.73Zm-26-11.41V66.82a1.35,1.35,0,0,0-1.35-1.35h-10a1.35,1.35,0,0,0-1.35,1.35v8.85A1.35,1.35,0,0,0,34.85,77h10A1.35,1.35,0,0,0,46.22,75.67ZM34.76,44.16V35.32A1.34,1.34,0,0,0,33.41,34h-10A1.34,1.34,0,0,0,22,35.32v8.84a1.35,1.35,0,0,0,1.35,1.36h10A1.35,1.35,0,0,0,34.76,44.16ZM66.58,75.67V66.82a1.36,1.36,0,0,0-1.36-1.35h-10a1.35,1.35,0,0,0-1.35,1.35v8.85A1.35,1.35,0,0,0,55.2,77h10A1.36,1.36,0,0,0,66.58,75.67ZM55.11,44.16V35.32A1.34,1.34,0,0,0,53.76,34h-10a1.34,1.34,0,0,0-1.35,1.35v8.84a1.35,1.35,0,0,0,1.35,1.36h10A1.35,1.35,0,0,0,55.11,44.16ZM142,31.39,127.1,18.73H194V87.08H133.69V41.47l-.15-3.73,4.87,3.73L142,44.36ZM152,75.67V66.82a1.35,1.35,0,0,0-1.35-1.35h-10a1.35,1.35,0,0,0-1.35,1.35v8.85A1.35,1.35,0,0,0,140.66,77h10A1.35,1.35,0,0,0,152,75.67Zm19.09-40.35v8.84a1.36,1.36,0,0,0,1.35,1.36h10a1.36,1.36,0,0,0,1.36-1.36V35.32A1.35,1.35,0,0,0,182.49,34h-10A1.35,1.35,0,0,0,171.12,35.32Zm-11.46,31.5v8.85A1.35,1.35,0,0,0,161,77h10a1.35,1.35,0,0,0,1.35-1.35V66.82A1.35,1.35,0,0,0,171,65.47H161A1.35,1.35,0,0,0,159.66,66.82Zm3.83-22.66V35.32A1.34,1.34,0,0,0,162.14,34h-10a1.34,1.34,0,0,0-1.35,1.35v8.84a1.35,1.35,0,0,0,1.35,1.36h10A1.35,1.35,0,0,0,163.49,44.16Zm-31.64-7.34V87.08H117.93V55.17H88V87.08H74V36.82L102.94,12.6Zm-24.12-6.25a4.79,4.79,0,1,0-4.79,4.79A4.79,4.79,0,0,0,107.73,30.57Z"/><rect class="cls-1" x="0.5" y="0.5" width="206" height="64"/><rect class="cls-1" x="0.5" y="0.5" width="206" height="64"/></g><rect class="cls-5" x="0.5" y="0.5" width="206" height="64"/><rect class="cls-6" y="38.55" width="207" height="18.95"/><path class="cls-7" d="M54.4,51.39a2.51,2.51,0,0,1-1,.39,6.06,6.06,0,0,1-1.21.12,4.27,4.27,0,0,1-1.44-.24,2.94,2.94,0,0,1-1.19-.75,3.72,3.72,0,0,1-.82-1.36,6.6,6.6,0,0,1,0-4.09,3.78,3.78,0,0,1,.89-1.34,3.28,3.28,0,0,1,1.22-.74,4.47,4.47,0,0,1,1.34-.22,6.06,6.06,0,0,1,1.22.1,3.92,3.92,0,0,1,.82.23L54,44.88a2.24,2.24,0,0,0-.66-.19,5.84,5.84,0,0,0-.91-.06,2,2,0,0,0-1.6.7,3.33,3.33,0,0,0-.61,2.21,4.83,4.83,0,0,0,.14,1.18,2.66,2.66,0,0,0,.44.91,2,2,0,0,0,.73.59,2.35,2.35,0,0,0,1,.21,3.42,3.42,0,0,0,.91-.1,3.26,3.26,0,0,0,.65-.28Z"/><path class="cls-7" d="M54.67,48.73a3.41,3.41,0,0,1,.74-2.35,2.7,2.7,0,0,1,2.09-.82,3.17,3.17,0,0,1,1.25.23,2.35,2.35,0,0,1,.87.64,2.74,2.74,0,0,1,.53,1,4.87,4.87,0,0,1,.17,1.3,3.41,3.41,0,0,1-.74,2.35,2.67,2.67,0,0,1-2.08.82,3.17,3.17,0,0,1-1.25-.23,2.47,2.47,0,0,1-.88-.64,2.74,2.74,0,0,1-.53-1A4.87,4.87,0,0,1,54.67,48.73Zm1.61,0a3.35,3.35,0,0,0,.07.73,2.27,2.27,0,0,0,.21.59,1.09,1.09,0,0,0,.38.39,1.11,1.11,0,0,0,.56.14,1,1,0,0,0,.91-.45,2.53,2.53,0,0,0,.3-1.4,2.87,2.87,0,0,0-.27-1.34,1,1,0,0,0-.94-.51,1.09,1.09,0,0,0-.9.43A2.38,2.38,0,0,0,56.28,48.73Z"/><path class="cls-7" d="M64.81,51.73V48.47a3.2,3.2,0,0,0-.16-1.18.64.64,0,0,0-.65-.35,1,1,0,0,0-.66.22,1.43,1.43,0,0,0-.38.57v4H61.4v-6h1.21l.18.79h.05a2.8,2.8,0,0,1,.7-.67,2,2,0,0,1,1.1-.29,1.68,1.68,0,0,1,.94.24,1.45,1.45,0,0,1,.57.78,2.1,2.1,0,0,1,.71-.74,1.86,1.86,0,0,1,1-.28,2.7,2.7,0,0,1,.86.12,1.17,1.17,0,0,1,.58.42,2.18,2.18,0,0,1,.33.78,6.25,6.25,0,0,1,.1,1.25v3.6H68.21V48.36a2.64,2.64,0,0,0-.15-1.06.64.64,0,0,0-.66-.36,1,1,0,0,0-.67.23,1.4,1.4,0,0,0-.36.62v3.94Z"/><path class="cls-7" d="M74.47,51.73V48.47a3,3,0,0,0-.16-1.18.64.64,0,0,0-.65-.35,1,1,0,0,0-.66.22,1.43,1.43,0,0,0-.38.57v4H71.06v-6h1.21l.18.79h0a2.8,2.8,0,0,1,.7-.67,2,2,0,0,1,1.1-.29,1.68,1.68,0,0,1,.94.24,1.45,1.45,0,0,1,.57.78,2.19,2.19,0,0,1,.71-.74,1.86,1.86,0,0,1,1-.28,2.7,2.7,0,0,1,.86.12,1.17,1.17,0,0,1,.58.42,2.18,2.18,0,0,1,.33.78,6.25,6.25,0,0,1,.1,1.25v3.6H77.88V48.36a2.61,2.61,0,0,0-.16-1.06.64.64,0,0,0-.66-.36,1,1,0,0,0-.67.23,1.4,1.4,0,0,0-.36.62v3.94Z"/><path class="cls-7" d="M80.43,48.73a3.41,3.41,0,0,1,.74-2.35,2.72,2.72,0,0,1,2.09-.82,3.17,3.17,0,0,1,1.25.23,2.39,2.39,0,0,1,.88.64,2.88,2.88,0,0,1,.52,1,4.49,4.49,0,0,1,.17,1.3,3.36,3.36,0,0,1-.74,2.35,2.67,2.67,0,0,1-2.08.82A3.12,3.12,0,0,1,82,51.67a2.42,2.42,0,0,1-.89-.64,2.72,2.72,0,0,1-.52-1A4.49,4.49,0,0,1,80.43,48.73Zm1.61,0a3.35,3.35,0,0,0,.07.73,2,2,0,0,0,.22.59,1,1,0,0,0,.38.39,1.07,1.07,0,0,0,.55.14,1,1,0,0,0,.91-.45,2.44,2.44,0,0,0,.31-1.4,2.87,2.87,0,0,0-.28-1.34,1,1,0,0,0-.94-.51,1.09,1.09,0,0,0-.9.43A2.46,2.46,0,0,0,82,48.73Z"/><path class="cls-7" d="M90.83,51.73V48.32a2,2,0,0,0-.21-1,.77.77,0,0,0-.71-.33,1.12,1.12,0,0,0-.75.26,1.5,1.5,0,0,0-.44.64v3.89H87.16v-6H88.4l.18.79h0a2.5,2.5,0,0,1,.73-.67,2.16,2.16,0,0,1,1.17-.29,2.49,2.49,0,0,1,.8.12,1.29,1.29,0,0,1,.58.4,1.75,1.75,0,0,1,.36.75A4.78,4.78,0,0,1,92.39,48v3.73Z"/><path class="cls-7" d="M102.31,51.39a2.65,2.65,0,0,1-1,.39,6.16,6.16,0,0,1-1.22.12,4.25,4.25,0,0,1-1.43-.24,3,3,0,0,1-1.2-.75,3.72,3.72,0,0,1-.82-1.36,6,6,0,0,1-.31-2,5.46,5.46,0,0,1,.35-2.07,3.64,3.64,0,0,1,.88-1.34,3.37,3.37,0,0,1,1.22-.74,4.54,4.54,0,0,1,1.35-.22,6,6,0,0,1,1.21.1,4,4,0,0,1,.83.23l-.33,1.39a2.27,2.27,0,0,0-.65-.19,6,6,0,0,0-.92-.06,2,2,0,0,0-1.6.7,3.33,3.33,0,0,0-.61,2.21,4.38,4.38,0,0,0,.15,1.18,2.48,2.48,0,0,0,.43.91,1.94,1.94,0,0,0,.74.59,2.31,2.31,0,0,0,1,.21,3.42,3.42,0,0,0,.91-.1,3,3,0,0,0,.65-.28Z"/><path class="cls-7" d="M102.57,48.73a3.41,3.41,0,0,1,.74-2.35,2.72,2.72,0,0,1,2.09-.82,3.17,3.17,0,0,1,1.25.23,2.47,2.47,0,0,1,.88.64,2.88,2.88,0,0,1,.52,1,4.49,4.49,0,0,1,.17,1.3,3.36,3.36,0,0,1-.74,2.35,2.67,2.67,0,0,1-2.08.82,3.12,3.12,0,0,1-1.24-.23,2.42,2.42,0,0,1-.89-.64,2.72,2.72,0,0,1-.52-1A4.49,4.49,0,0,1,102.57,48.73Zm1.61,0a3.35,3.35,0,0,0,.07.73,2,2,0,0,0,.22.59,1,1,0,0,0,.37.39,1.13,1.13,0,0,0,.56.14,1,1,0,0,0,.91-.45,2.52,2.52,0,0,0,.31-1.4,2.87,2.87,0,0,0-.28-1.34,1,1,0,0,0-.94-.51,1.09,1.09,0,0,0-.9.43A2.46,2.46,0,0,0,104.18,48.73Z"/><path class="cls-7" d="M112.61,47.19a2.19,2.19,0,0,0-.67-.13,1.15,1.15,0,0,0-.7.22,1.11,1.11,0,0,0-.38.57v3.88H109.3v-6h1.21l.18.79h0a1.71,1.71,0,0,1,.55-.68,1.44,1.44,0,0,1,.82-.24,2.24,2.24,0,0,1,.71.13Z"/><path class="cls-7" d="M118.31,51.21a2.84,2.84,0,0,1-1,.49,4.39,4.39,0,0,1-1.32.2,2.53,2.53,0,0,1-2.12-.85,3.62,3.62,0,0,1-.67-2.32,3.35,3.35,0,0,1,.75-2.38,2.84,2.84,0,0,1,2.13-.79,3.22,3.22,0,0,1,.88.12,2,2,0,0,1,.77.4,1.8,1.8,0,0,1,.54.74,2.85,2.85,0,0,1,.21,1.17q0,.24,0,.54t-.09.6H114.8a1.73,1.73,0,0,0,.39,1.14,1.49,1.49,0,0,0,1.14.38,2.42,2.42,0,0,0,.88-.15,2.27,2.27,0,0,0,.59-.31Zm-2.22-4.4a1.06,1.06,0,0,0-.9.37,1.77,1.77,0,0,0-.36,1h2.22a1.47,1.47,0,0,0-.19-1A.89.89,0,0,0,116.09,46.81Z"/><path class="cls-7" d="M122.36,48.73a3.41,3.41,0,0,1,.74-2.35,2.7,2.7,0,0,1,2.09-.82,3.17,3.17,0,0,1,1.25.23,2.35,2.35,0,0,1,.87.64,2.74,2.74,0,0,1,.53,1,4.87,4.87,0,0,1,.17,1.3,3.41,3.41,0,0,1-.74,2.35,2.67,2.67,0,0,1-2.08.82,3.17,3.17,0,0,1-1.25-.23,2.47,2.47,0,0,1-.88-.64,2.74,2.74,0,0,1-.53-1A4.87,4.87,0,0,1,122.36,48.73Zm1.61,0a3.35,3.35,0,0,0,.07.73,2.27,2.27,0,0,0,.21.59,1.09,1.09,0,0,0,.38.39,1.11,1.11,0,0,0,.56.14,1,1,0,0,0,.91-.45,2.53,2.53,0,0,0,.3-1.4,2.87,2.87,0,0,0-.27-1.34,1,1,0,0,0-.94-.51,1.09,1.09,0,0,0-.9.43A2.38,2.38,0,0,0,124,48.73Z"/><path class="cls-7" d="M128.39,45.73h.83v-.34a2.36,2.36,0,0,1,.48-1.65,1.83,1.83,0,0,1,1.39-.51,4.84,4.84,0,0,1,1.6.23l-.3,1.25a2.48,2.48,0,0,0-.92-.16.8.8,0,0,0-.38.08.45.45,0,0,0-.21.22,1.2,1.2,0,0,0-.08.37c0,.15,0,.32,0,.51h1.32v1.32h-1.32v4.68h-1.56V47.05h-.83Z"/><path class="cls-7" d="M135.87,43.33l.57-.06.65,0h1.23a5.2,5.2,0,0,1,1.91.31,3.29,3.29,0,0,1,1.28.88,3.4,3.4,0,0,1,.72,1.34,6.17,6.17,0,0,1,.23,1.72,6,6,0,0,1-.22,1.64,3.63,3.63,0,0,1-.72,1.41,3.71,3.71,0,0,1-1.32,1,4.93,4.93,0,0,1-2,.37h-.51l-.66,0-.65,0a3.73,3.73,0,0,1-.47,0Zm2.58,1.34-.53,0a3.32,3.32,0,0,0-.41,0v5.63l.17,0h.67a2.37,2.37,0,0,0,1.16-.25,1.92,1.92,0,0,0,.73-.65,2.62,2.62,0,0,0,.38-.94,5.78,5.78,0,0,0,.11-1.1,4.75,4.75,0,0,0-.1-1,2.52,2.52,0,0,0-.35-.9,2,2,0,0,0-.7-.64A2.25,2.25,0,0,0,138.45,44.67Z"/><path class="cls-7" d="M143.56,46.08a4.66,4.66,0,0,1,1.14-.34,6.88,6.88,0,0,1,1.38-.13,3.15,3.15,0,0,1,1,.15,1.53,1.53,0,0,1,1,1.09,3.22,3.22,0,0,1,.1.86c0,.35,0,.71,0,1.06s0,.71-.05,1,0,.68,0,1a4.41,4.41,0,0,0,.18.92H147.1l-.25-.83h-.06a2.09,2.09,0,0,1-.67.65,2,2,0,0,1-1.09.27,2.24,2.24,0,0,1-.76-.13,1.58,1.58,0,0,1-.58-.36,1.72,1.72,0,0,1-.37-.55,1.81,1.81,0,0,1-.13-.72,1.66,1.66,0,0,1,.25-.93,1.83,1.83,0,0,1,.7-.61,3.73,3.73,0,0,1,1.11-.32,8.11,8.11,0,0,1,1.43-.06,1.52,1.52,0,0,0-.09-1q-.18-.3-.81-.3a5.93,5.93,0,0,0-1,.1,3.7,3.7,0,0,0-.86.25Zm2,4.46a1.23,1.23,0,0,0,.75-.21,1.38,1.38,0,0,0,.4-.45V49.1a4.22,4.22,0,0,0-.71,0,2.66,2.66,0,0,0-.61.11,1,1,0,0,0-.42.24.53.53,0,0,0-.15.39.67.67,0,0,0,.2.53A.77.77,0,0,0,145.54,50.54Z"/><path class="cls-7" d="M148.92,45.73h.83V44.6l1.56-.44v1.57h1.47v1.32h-1.47v2.3a2.37,2.37,0,0,0,.13.9.47.47,0,0,0,.47.27,1.73,1.73,0,0,0,.42-.05l.39-.14.27,1.2a3.85,3.85,0,0,1-.75.26,3.72,3.72,0,0,1-.88.11,1.6,1.6,0,0,1-1.22-.43,2,2,0,0,1-.39-1.4v-3h-.83Z"/><path class="cls-7" d="M153.7,46.08a4.66,4.66,0,0,1,1.14-.34,6.88,6.88,0,0,1,1.38-.13,3.15,3.15,0,0,1,1.05.15,1.53,1.53,0,0,1,1,1.09,3.22,3.22,0,0,1,.1.86c0,.35,0,.71,0,1.06s0,.71,0,1,0,.68,0,1a4.41,4.41,0,0,0,.18.92h-1.27l-.25-.83h-.06a2.09,2.09,0,0,1-.67.65,2,2,0,0,1-1.09.27,2.24,2.24,0,0,1-.76-.13,1.58,1.58,0,0,1-.58-.36,1.72,1.72,0,0,1-.37-.55,1.81,1.81,0,0,1-.13-.72,1.66,1.66,0,0,1,.25-.93,1.83,1.83,0,0,1,.7-.61,3.73,3.73,0,0,1,1.11-.32,8.11,8.11,0,0,1,1.43-.06,1.52,1.52,0,0,0-.09-1q-.18-.3-.81-.3a5.93,5.93,0,0,0-1,.1,3.7,3.7,0,0,0-.86.25Zm2,4.46a1.23,1.23,0,0,0,.75-.21,1.38,1.38,0,0,0,.4-.45V49.1a4.22,4.22,0,0,0-.71,0,2.66,2.66,0,0,0-.61.11,1,1,0,0,0-.42.24.53.53,0,0,0-.15.39.67.67,0,0,0,.2.53A.77.77,0,0,0,155.68,50.54Z"/></svg>