<?xml version="1.0" encoding="UTF-8" standalone="no"?>
<!-- Created with Inkscape (http://www.inkscape.org/) -->
<svg
   xmlns:dc="http://purl.org/dc/elements/1.1/"
   xmlns:cc="http://creativecommons.org/ns#"
   xmlns:rdf="http://www.w3.org/1999/02/22-rdf-syntax-ns#"
   xmlns:svg="http://www.w3.org/2000/svg"
   xmlns="http://www.w3.org/2000/svg"
   xmlns:sodipodi="http://sodipodi.sourceforge.net/DTD/sodipodi-0.dtd"
   xmlns:inkscape="http://www.inkscape.org/namespaces/inkscape"
   id="svg2403"
   sodipodi:version="0.32"
   inkscape:version="0.46"
   width="144.5"
   height="128.89"
   xml:space="preserve"
   sodipodi:docname="Wounded_Warrior_Project_logo.svg"
   version="1.0"
   inkscape:output_extension="org.inkscape.output.svg.inkscape"><metadata
     id="metadata2408"><rdf:RDF><cc:Work
         rdf:about=""><dc:format>image/svg+xml</dc:format><dc:type
           rdf:resource="http://purl.org/dc/dcmitype/StillImage" /></cc:Work></rdf:RDF></metadata><defs
     id="defs2406"><inkscape:perspective
       sodipodi:type="inkscape:persp3d"
       inkscape:vp_x="0 : 526.18109 : 1"
       inkscape:vp_y="0 : 1000 : 0"
       inkscape:vp_z="744.09448 : 526.18109 : 1"
       inkscape:persp3d-origin="372.04724 : 350.78739 : 1"
       id="perspective2410" /><clipPath
       clipPathUnits="userSpaceOnUse"
       id="clipPath2420"><path
         d="M 0,0 L 648,0 L 648,720 L 0,720 L 0,0 z"
         id="path2422" /></clipPath></defs><sodipodi:namedview
     inkscape:window-height="667"
     inkscape:window-width="1051"
     inkscape:pageshadow="2"
     inkscape:pageopacity="0.0"
     guidetolerance="10.0"
     gridtolerance="10.0"
     objecttolerance="10.0"
     borderopacity="1.0"
     bordercolor="#666666"
     pagecolor="#ffffff"
     id="base"
     showgrid="false"
     inkscape:zoom="3.6408804"
     inkscape:cx="71.24894"
     inkscape:cy="63.446194"
     inkscape:window-x="132"
     inkscape:window-y="132"
     inkscape:current-layer="g2412" /><g
     id="g2412"
     inkscape:groupmode="layer"
     inkscape:label="WWP_2006-2007_Annual_Report_final"
     transform="matrix(1.25,0,0,-1.25,-331.24937,821.25001)"><g
       id="g2881"
       transform="matrix(1.0000009,0,0,0.999997,0.7997703,-0.7964251)"><g
         transform="translate(268.7255,567.0327)"
         id="g2552"><path
           id="path2554"
           style="fill:#000000;fill-opacity:1;fill-rule:nonzero;stroke:none"
           d="M 0,0 L -1.28,0 L -3.198,7.01 C -3.251,7.215 -3.272,7.29 -3.466,7.375 C -3.629,7.451 -3.726,7.503 -3.726,7.699 C -3.726,8.055 -3.284,8.055 -3.035,8.055 L -0.538,8.055 C -0.302,8.055 0.075,8.087 0.075,7.744 C 0.075,7.375 -0.407,7.472 -0.407,7.075 C -0.407,6.977 -0.386,6.912 -0.354,6.805 L 0.712,2.853 L 0,0 z M 2.491,8.055 L 3.899,2.68 L 3.222,0 L 1.94,0 L 0.54,5.189 L 1.273,8.055 L 2.491,8.055 z M 3.815,4.769 L 4.224,6.45 C 4.257,6.601 4.299,6.73 4.299,6.893 C 4.299,7.451 3.62,7.367 3.62,7.765 C 3.62,8.011 3.847,8.055 4.04,8.055 L 5.431,8.055 C 5.635,8.055 5.871,8.032 5.871,7.752 C 5.871,7.591 5.786,7.549 5.645,7.483 C 5.107,7.248 4.968,6.87 4.825,6.333 L 4.138,3.595 L 4.115,3.606 L 3.815,4.769 z" /></g><g
         transform="translate(278.0234,574.624)"
         id="g2556"><path
           id="path2558"
           style="fill:#000000;fill-opacity:1;fill-rule:nonzero;stroke:none"
           d="M 0,0 C -0.508,-0.183 -0.551,-0.506 -0.551,-0.773 L -0.551,-6.355 C -0.551,-6.623 -0.508,-6.946 0,-7.13 L 0,-7.755 C -2.285,-7.549 -3.351,-5.707 -3.351,-3.564 C -3.351,-1.422 -2.285,0.42 0,0.625 L 0,0 z M 0.482,-7.13 C 0.989,-6.946 1.032,-6.623 1.032,-6.355 L 1.032,-0.773 C 1.032,-0.506 0.989,-0.183 0.482,0 L 0.482,0.625 C 2.766,0.42 3.834,-1.422 3.834,-3.564 C 3.834,-5.707 2.766,-7.549 0.482,-7.755 L 0.482,-7.13 z" /></g><g
         transform="translate(286.5195,566.8691)"
         id="g2560"><path
           id="path2562"
           style="fill:#000000;fill-opacity:1;fill-rule:nonzero;stroke:none"
           d="M 0,0 C -0.852,0 -1.507,0.01 -2.25,0.418 C -3.219,0.958 -3.349,1.367 -3.349,1.907 L -3.349,7.013 C -3.349,7.411 -3.338,7.476 -3.715,7.592 C -3.857,7.636 -3.951,7.732 -3.951,7.885 C -3.951,8.196 -3.598,8.219 -3.553,8.219 L -0.506,8.219 C -0.463,8.219 -0.107,8.196 -0.107,7.885 C -0.107,7.732 -0.205,7.636 -0.345,7.592 C -0.721,7.476 -0.711,7.411 -0.711,7.013 L -0.711,1.829 C -0.711,1.723 -0.807,0.874 0,0.635 L 0,0 z M 1.928,6.516 C 1.756,7.862 1.066,7.443 1.066,7.907 C 1.066,8.24 1.508,8.219 1.627,8.219 L 2.854,8.219 C 2.975,8.219 3.416,8.24 3.416,7.907 C 3.416,7.443 2.727,7.862 2.553,6.516 L 2.553,2.455 C 2.467,0.678 1.186,0.032 0.484,0.021 L 0.484,0.657 C 1.477,0.958 1.863,1.519 1.928,2.476 L 1.928,6.516 z" /></g><g
         transform="translate(291.5156,573.0625)"
         id="g2564"><path
           id="path2566"
           style="fill:#000000;fill-opacity:1;fill-rule:nonzero;stroke:none"
           d="M 0,0 L 0.023,0 L 0.627,-1.077 L 0.627,-4.33 C 0.799,-5.677 1.488,-5.256 1.488,-5.719 C 1.488,-6.053 1.048,-6.03 0.928,-6.03 L -0.299,-6.03 C -0.42,-6.03 -0.859,-6.053 -0.859,-5.719 C -0.859,-5.256 -0.17,-5.677 0,-4.33 L 0,0 z M 5.614,-3.425 L 5.614,-6.03 L 4.008,-6.03 L 0.067,0.765 C -0.107,1.066 -0.159,1.227 -0.516,1.346 C -0.697,1.412 -0.838,1.453 -0.838,1.691 C -0.838,2.014 -0.516,2.014 -0.288,2.025 L 2.479,2.025 L 5.614,-3.425 z M 4.988,0.076 C 4.988,1.615 4.104,1.206 4.104,1.702 C 4.104,2.002 4.462,2.025 4.569,2.025 L 6.034,2.025 C 6.141,2.025 6.496,2.002 6.496,1.702 C 6.496,1.206 5.614,1.615 5.614,0.076 L 5.614,-2.543 L 5.592,-2.543 L 4.988,-1.454 L 4.988,0.076 z" /></g><g
         transform="translate(301.9121,567.0327)"
         id="g2568"><path
           id="path2570"
           style="fill:#000000;fill-opacity:1;fill-rule:nonzero;stroke:none"
           d="M 0,0 L -2.736,0 C -2.975,0 -3.242,0.02 -3.242,0.332 C -3.242,0.483 -3.146,0.579 -3.006,0.623 C -2.629,0.74 -2.64,0.805 -2.64,1.204 L -2.64,6.849 C -2.64,7.01 -2.619,7.301 -2.823,7.367 C -3.037,7.441 -3.242,7.472 -3.242,7.744 C -3.242,8.024 -2.975,8.055 -2.759,8.055 L 0,8.055 L 0,0 z M 0.484,8.055 C 2.316,8.077 3.846,6.805 3.973,4.027 C 4.092,1.496 2.272,0 0.484,0 L 0.484,0.623 C 1.141,0.71 1.174,1.323 1.174,1.733 L 1.174,6.322 C 1.174,6.73 1.141,7.345 0.484,7.428 L 0.484,8.055 z" /></g><g
         transform="translate(307.0166,575.0879)"
         id="g2572"><path
           id="path2574"
           style="fill:#000000;fill-opacity:1;fill-rule:nonzero;stroke:none"
           d="M 0,0 L 2.841,0 L 2.841,-8.055 L 0,-8.055 C -0.042,-8.055 -0.397,-8.036 -0.397,-7.724 C -0.397,-7.572 -0.302,-7.477 -0.161,-7.432 C 0.216,-7.315 0.204,-7.25 0.204,-6.852 L 0.204,-1.206 C 0.204,-0.808 0.216,-0.743 -0.161,-0.627 C -0.302,-0.583 -0.397,-0.486 -0.397,-0.334 C -0.397,-0.023 -0.042,0 0,0 M 3.328,0 L 5.731,0 L 5.731,-2.187 C 5.731,-2.241 5.718,-2.446 5.397,-2.446 C 5.212,-2.446 5.159,-2.34 5.105,-2.175 C 4.825,-1.304 4.275,-0.775 3.328,-0.627 L 3.328,0 z M 3.328,-3.598 C 3.78,-3.479 3.985,-3.061 4.081,-2.649 C 4.136,-2.467 4.2,-2.295 4.427,-2.295 C 4.761,-2.295 4.706,-2.682 4.706,-2.768 L 4.706,-5.095 C 4.706,-5.182 4.761,-5.568 4.427,-5.568 C 4.2,-5.568 4.136,-5.396 4.081,-5.214 C 3.985,-4.805 3.78,-4.386 3.328,-4.267 L 3.328,-3.598 z M 3.328,-7.432 C 4.2,-7.326 4.87,-6.732 5.159,-5.871 C 5.235,-5.709 5.3,-5.536 5.493,-5.536 C 5.836,-5.536 5.806,-5.86 5.806,-5.903 L 5.806,-8.055 L 3.328,-8.055 L 3.328,-7.432 z" /></g><g
         transform="translate(316.8281,567.0327)"
         id="g2576"><path
           id="path2578"
           style="fill:#000000;fill-opacity:1;fill-rule:nonzero;stroke:none"
           d="M 0,0 L -2.736,0 C -2.973,0 -3.242,0.02 -3.242,0.332 C -3.242,0.483 -3.145,0.579 -3.006,0.623 C -2.628,0.74 -2.64,0.805 -2.64,1.204 L -2.64,6.849 C -2.64,7.01 -2.617,7.301 -2.822,7.367 C -3.038,7.441 -3.242,7.472 -3.242,7.744 C -3.242,8.024 -2.973,8.055 -2.758,8.055 L 0,8.055 L 0,0 z M 0.484,8.055 C 2.315,8.077 3.845,6.805 3.975,4.027 C 4.092,1.496 2.274,0 0.484,0 L 0.484,0.623 C 1.142,0.71 1.174,1.323 1.174,1.733 L 1.174,6.322 C 1.174,6.73 1.142,7.345 0.484,7.428 L 0.484,8.055 z" /></g><g
         transform="translate(328.6865,567.0327)"
         id="g2580"><path
           id="path2582"
           style="fill:#000000;fill-opacity:1;fill-rule:nonzero;stroke:none"
           d="M 0,0 L -1.282,0 L -3.198,7.01 C -3.252,7.215 -3.272,7.29 -3.468,7.375 C -3.628,7.451 -3.725,7.503 -3.725,7.699 C -3.725,8.055 -3.286,8.055 -3.037,8.055 L -0.538,8.055 C -0.302,8.055 0.075,8.087 0.075,7.744 C 0.075,7.375 -0.407,7.472 -0.407,7.075 C -0.407,6.977 -0.387,6.912 -0.354,6.805 L 0.71,2.853 L 0,0 z M 2.487,8.055 L 3.899,2.68 L 3.222,0 L 1.938,0 L 0.536,5.189 L 1.271,8.055 L 2.487,8.055 z M 3.813,4.769 L 4.224,6.45 C 4.257,6.601 4.298,6.73 4.298,6.893 C 4.298,7.451 3.618,7.367 3.618,7.765 C 3.618,8.011 3.847,8.055 4.038,8.055 L 5.429,8.055 C 5.634,8.055 5.87,8.032 5.87,7.752 C 5.87,7.591 5.784,7.549 5.645,7.483 C 5.106,7.248 4.966,6.87 4.825,6.333 L 4.136,3.595 L 4.115,3.606 L 3.813,4.769 z" /></g><g
         transform="translate(336.624,572.3633)"
         id="g2584"><path
           id="path2586"
           style="fill:#000000;fill-opacity:1;fill-rule:nonzero;stroke:none"
           d="M 0,0 L -1.011,-3.685 C -1.183,-4.342 -1.032,-4.525 -0.669,-4.686 C -0.495,-4.762 -0.343,-4.826 -0.343,-5.04 C -0.343,-5.344 -0.688,-5.331 -0.903,-5.331 L -2.143,-5.331 C -2.357,-5.331 -2.747,-5.322 -2.747,-5.01 C -2.747,-4.752 -2.563,-4.762 -2.326,-4.643 C -2.099,-4.525 -1.808,-4.278 -1.604,-3.512 L -0.312,1.215 L -0.279,1.215 L 0,0 z M 1.153,-3.242 L -0.419,-3.242 L -0.269,-2.618 L 1.047,-2.618 L -0.042,2.142 L 0.098,2.725 L 2.478,2.725 L 4.095,-4.082 C 4.156,-4.386 4.169,-4.591 4.471,-4.718 C 4.622,-4.782 4.739,-4.859 4.739,-5.053 C 4.739,-5.344 4.353,-5.331 4.147,-5.331 L 1.464,-5.331 C 1.251,-5.331 0.938,-5.311 0.938,-5.031 C 0.938,-4.859 1.002,-4.804 1.142,-4.729 C 1.423,-4.567 1.464,-4.492 1.37,-4.073 L 1.153,-3.242 z" /></g><g
         transform="translate(342.5908,573.8818)"
         id="g2588"><path
           id="path2590"
           style="fill:#000000;fill-opacity:1;fill-rule:nonzero;stroke:none"
           d="M 0,0 C 0,0.398 0.011,0.463 -0.366,0.579 C -0.505,0.623 -0.604,0.72 -0.604,0.872 C -0.604,1.183 -0.248,1.206 -0.204,1.206 L 2.64,1.206 L 2.64,-5.646 C 2.64,-6.044 2.628,-6.109 3.005,-6.226 C 3.146,-6.271 3.243,-6.366 3.243,-6.518 C 3.243,-6.83 2.888,-6.849 2.847,-6.849 L -0.204,-6.849 C -0.248,-6.849 -0.604,-6.83 -0.604,-6.518 C -0.604,-6.366 -0.505,-6.271 -0.366,-6.226 C 0.011,-6.109 0,-6.044 0,-5.646 L 0,0 z M 3.124,1.206 L 3.18,1.206 C 3.878,1.206 4.611,1.228 5.257,0.916 C 5.978,0.56 6.346,-0.031 6.356,-0.851 C 6.377,-2.091 5.56,-2.631 4.46,-2.888 L 4.46,-2.909 C 5.418,-3.05 6.335,-3.331 6.356,-4.471 L 6.356,-5.42 C 6.356,-5.516 6.322,-5.732 6.462,-5.732 C 6.638,-5.732 6.668,-5.42 6.927,-5.42 C 7.067,-5.42 7.241,-5.58 7.241,-5.732 C 7.241,-6.044 6.884,-6.441 6.647,-6.626 C 6.281,-6.929 5.892,-7.013 5.431,-7.013 C 4.966,-7.013 4.546,-6.894 4.214,-6.558 C 3.835,-6.173 3.78,-5.698 3.78,-5.192 L 3.78,-4.46 C 3.78,-3.965 3.772,-3.362 3.124,-3.297 L 3.124,-2.663 C 3.706,-2.607 3.78,-2.252 3.78,-1.725 L 3.78,-0.42 C 3.78,0.119 3.663,0.376 3.124,0.57 L 3.124,1.206 z" /></g><g
         transform="translate(350.8418,573.8818)"
         id="g2592"><path
           id="path2594"
           style="fill:#000000;fill-opacity:1;fill-rule:nonzero;stroke:none"
           d="M 0,0 C 0,0.398 0.012,0.463 -0.365,0.579 C -0.506,0.623 -0.604,0.72 -0.604,0.872 C -0.604,1.183 -0.247,1.206 -0.205,1.206 L 2.64,1.206 L 2.64,-5.646 C 2.64,-6.044 2.628,-6.109 3.006,-6.226 C 3.146,-6.271 3.244,-6.366 3.244,-6.518 C 3.244,-6.83 2.887,-6.849 2.845,-6.849 L -0.205,-6.849 C -0.247,-6.849 -0.604,-6.83 -0.604,-6.518 C -0.604,-6.366 -0.506,-6.271 -0.365,-6.226 C 0.012,-6.109 0,-6.044 0,-5.646 L 0,0 z M 3.123,1.206 L 3.177,1.206 C 3.879,1.206 4.611,1.228 5.257,0.916 C 5.979,0.56 6.344,-0.031 6.355,-0.851 C 6.375,-2.091 5.559,-2.631 4.459,-2.888 L 4.459,-2.909 C 5.418,-3.05 6.334,-3.331 6.355,-4.471 L 6.355,-5.42 C 6.355,-5.516 6.323,-5.732 6.463,-5.732 C 6.636,-5.732 6.668,-5.42 6.926,-5.42 C 7.065,-5.42 7.239,-5.58 7.239,-5.732 C 7.239,-6.044 6.883,-6.441 6.646,-6.626 C 6.279,-6.929 5.893,-7.013 5.43,-7.013 C 4.967,-7.013 4.544,-6.894 4.211,-6.558 C 3.835,-6.173 3.781,-5.698 3.781,-5.192 L 3.781,-4.46 C 3.781,-3.965 3.77,-3.362 3.123,-3.297 L 3.123,-2.663 C 3.706,-2.607 3.781,-2.252 3.781,-1.725 L 3.781,-0.42 C 3.781,0.119 3.662,0.376 3.123,0.57 L 3.123,1.206 z" /></g><g
         transform="translate(361.8711,568.2363)"
         id="g2596"><path
           id="path2598"
           style="fill:#000000;fill-opacity:1;fill-rule:nonzero;stroke:none"
           d="M 0,0 C 0,-0.398 -0.01,-0.464 0.367,-0.581 C 0.506,-0.625 0.604,-0.721 0.604,-0.872 C 0.604,-1.184 0.249,-1.204 0.203,-1.204 L -2.844,-1.204 C -2.885,-1.204 -3.242,-1.184 -3.242,-0.872 C -3.242,-0.721 -3.145,-0.625 -3.004,-0.581 C -2.627,-0.464 -2.638,-0.398 -2.638,0 L -2.638,5.646 C -2.638,6.044 -2.627,6.108 -3.004,6.225 C -3.145,6.269 -3.242,6.365 -3.242,6.518 C -3.242,6.829 -2.885,6.852 -2.844,6.852 L 0.203,6.852 C 0.249,6.852 0.604,6.829 0.604,6.518 C 0.604,6.365 0.506,6.269 0.367,6.225 C -0.01,6.108 0,6.044 0,5.646 L 0,0 z" /></g><g
         transform="translate(366.5459,574.624)"
         id="g2600"><path
           id="path2602"
           style="fill:#000000;fill-opacity:1;fill-rule:nonzero;stroke:none"
           d="M 0,0 C -0.505,-0.183 -0.55,-0.506 -0.55,-0.773 L -0.55,-6.355 C -0.55,-6.623 -0.505,-6.946 0,-7.13 L 0,-7.755 C -2.283,-7.549 -3.349,-5.707 -3.349,-3.564 C -3.349,-1.422 -2.283,0.42 0,0.625 L 0,0 z M 0.485,-7.13 C 0.99,-6.946 1.035,-6.623 1.035,-6.355 L 1.035,-0.773 C 1.035,-0.506 0.99,-0.183 0.485,0 L 0.485,0.625 C 2.769,0.42 3.835,-1.422 3.835,-3.564 C 3.835,-5.707 2.769,-7.549 0.485,-7.755 L 0.485,-7.13 z" /></g><g
         transform="translate(371.7578,573.8818)"
         id="g2604"><path
           id="path2606"
           style="fill:#000000;fill-opacity:1;fill-rule:nonzero;stroke:none"
           d="M 0,0 C 0,0.398 0.013,0.463 -0.365,0.579 C -0.504,0.623 -0.6,0.72 -0.6,0.872 C -0.6,1.183 -0.246,1.206 -0.205,1.206 L 2.641,1.206 L 2.641,-5.646 C 2.641,-6.044 2.631,-6.109 3.007,-6.226 C 3.145,-6.271 3.242,-6.366 3.242,-6.518 C 3.242,-6.83 2.888,-6.849 2.846,-6.849 L -0.205,-6.849 C -0.246,-6.849 -0.6,-6.83 -0.6,-6.518 C -0.6,-6.366 -0.504,-6.271 -0.365,-6.226 C 0.013,-6.109 0,-6.044 0,-5.646 L 0,0 z M 3.123,1.206 L 3.18,1.206 C 3.881,1.206 4.61,1.228 5.258,0.916 C 5.979,0.56 6.346,-0.031 6.355,-0.851 C 6.377,-2.091 5.56,-2.631 4.459,-2.888 L 4.459,-2.909 C 5.42,-3.05 6.333,-3.331 6.355,-4.471 L 6.355,-5.42 C 6.355,-5.516 6.322,-5.732 6.463,-5.732 C 6.637,-5.732 6.67,-5.42 6.928,-5.42 C 7.066,-5.42 7.24,-5.58 7.24,-5.732 C 7.24,-6.044 6.885,-6.441 6.646,-6.626 C 6.281,-6.929 5.892,-7.013 5.43,-7.013 C 4.968,-7.013 4.547,-6.894 4.213,-6.558 C 3.836,-6.173 3.78,-5.698 3.78,-5.192 L 3.78,-4.46 C 3.78,-3.965 3.77,-3.362 3.123,-3.297 L 3.123,-2.663 C 3.707,-2.607 3.78,-2.252 3.78,-1.725 L 3.78,-0.42 C 3.78,0.119 3.664,0.376 3.123,0.57 L 3.123,1.206 z" /></g><g
         transform="translate(312.1992,652.4922)"
         id="g2608"><path
           id="path2610"
           style="fill:#000000;fill-opacity:1;fill-rule:nonzero;stroke:none"
           d="M 0,0 C -1.014,0.011 -0.764,-0.353 -1.072,-0.542 C -1.488,-0.799 -1.953,-0.955 -3.744,-0.955 C -4.754,-0.955 -4.898,-1.561 -5.693,-1.741 C -6.667,-1.969 -6.831,-2.978 -7.938,-3.14 C -7.982,-3.146 -8.272,-3.078 -8.365,-3.084 C -10.904,-3.272 -10.33,-4.723 -11.354,-6.178 C -11.492,-6.373 -11.543,-6.029 -12.535,-5.626 C -13.966,-5.043 -14.645,-4.972 -16.604,-5.35 C -16.936,-5.714 -18.525,-5.892 -19.517,-7.568 C -20.479,-9.191 -21.744,-10.508 -21.023,-13.396 C -20.297,-16.308 -17.887,-17.28 -17.887,-17.28 L -17.08,-18.488 C -17.08,-18.488 -15.674,-17.984 -15.372,-17.081 C -15.072,-16.178 -14.87,-17.28 -15.372,-17.886 C -15.875,-18.488 -17.171,-19.987 -17.396,-20.823 C -18.099,-23.436 -18.629,-25.705 -18.59,-25.962 C -18.375,-27.319 -19.123,-28.69 -19.58,-31.467 C -19.955,-33.756 -17.42,-31.498 -18.727,-34.011 C -19.127,-37.199 -18.504,-37.694 -18.023,-38.379 C -18.139,-38.214 -17.58,-39.229 -16.869,-39.322 C -16.717,-38.531 -17.171,-37.827 -17.171,-37.827 C -17.171,-37.827 -17.282,-36.509 -17.206,-36.232 C -17.094,-35.818 -16.955,-34.832 -16.793,-34.651 C -16.365,-34.173 -16.679,-35.78 -16.303,-35.969 C -16.082,-36.079 -15.847,-35.596 -15.837,-35.441 C -15.799,-34.838 -15.57,-34.876 -15.713,-34.16 C -15.748,-33.972 -16.058,-33.65 -16.039,-33.405 C -16.303,-32.389 -15.709,-32.382 -15.168,-32.318 C -14.867,-32.279 -14.652,-31.111 -14.643,-29.598 C -14.635,-28.702 -12.911,-23.686 -11.254,-22.179 C -9.203,-20.313 -8.997,-19.752 -6.872,-16.998 C -6.316,-16.279 -5.477,-16.634 -6.236,-17.858 C -6.914,-18.949 -9.455,-20.646 -10.852,-22.407 C -11.246,-22.903 -12.678,-26.238 -9.897,-27.832 C -9.157,-28.254 -9.625,-29.533 -10.758,-32.737 C -11.467,-34.739 -11.852,-33.574 -12.132,-34.105 C -12.414,-34.639 -13.203,-37.564 -13.74,-39.216 C -14.252,-40.784 -15.87,-46.042 -15.87,-46.042 L -15.832,-47.307 L -18.514,-55.337 C -18.514,-55.337 -18.277,-56.293 -17.777,-55.387 C -17.166,-54.271 -14.672,-47.124 -14.672,-47.124 L -13.867,-46.979 L -11.455,-40.593 L -10.825,-39.675 L -9.826,-39.648 C -9.826,-39.648 -9.652,-40.338 -9.154,-39.823 C -8.922,-39.583 -9.335,-39.455 -9.07,-39.054 C -8.879,-38.767 -8.609,-39.034 -8.34,-38.729 C -7.837,-38.161 -7.303,-37.201 -7.303,-37.201 L -7.191,-33.414 L -5.715,-35.367 C -5.715,-35.367 -5.174,-35.113 -4.49,-34.771 C -3.658,-34.354 -3.995,-35.803 -4.566,-36.167 C -4.908,-37.926 -4.664,-37.798 -4.27,-38.419 C -4.098,-39.33 -4.472,-39.323 -4.572,-39.726 C -4.673,-40.126 -4.416,-40.898 -4.942,-40.981 C -6.13,-41.168 -5.972,-42.345 -6.066,-42.934 C -6.17,-43.567 -4.646,-43.743 -5.489,-44.291 C -6.168,-44.731 -7.448,-45.17 -7.549,-45.874 C -7.65,-46.575 -7.639,-50.137 -7.639,-50.137 C -7.639,-50.137 -6.738,-50.854 -6.801,-51.105 C -6.863,-51.354 -7.938,-51.845 -7.938,-51.845 L -8.439,-54.258 C -8.439,-54.258 -9.646,-56.368 -10.351,-57.07 C -11.053,-57.772 -11.807,-59.103 -11.807,-59.103 C -11.807,-59.103 -12.659,-59.654 -12.459,-59.855 C -12.318,-59.997 -12.159,-60.259 -12.159,-60.259 L -14.57,-62.495 C -14.57,-62.495 -16.771,-65.306 -15.506,-67.143 C -14.459,-68.663 -13.34,-68.945 -12.738,-68.645 C -12.137,-68.343 -8.844,-66.729 -8.617,-64.988 C -8.432,-63.593 -7.385,-64.028 -7.385,-64.028 L -4.42,-60.988 L -4.119,-59.883 C -4.119,-59.883 -1.613,-58.307 -0.303,-56.768 C 0.947,-55.306 3.57,-51.706 3.672,-49.598 C 3.771,-47.487 5.419,-43.488 5.419,-43.488 C 5.419,-43.488 7.611,-47.342 7.735,-48.528 C 7.844,-49.559 6.933,-57.675 7.435,-58.477 C 7.937,-59.28 8.822,-60.424 8.652,-61.862 C 8.467,-63.422 8.025,-67.478 7.838,-69.128 C 7.77,-69.708 7.027,-71.047 7.729,-71.651 C 8.433,-72.251 11.027,-72.284 11.631,-72.086 C 12.233,-71.883 17.313,-72.526 18.714,-72.214 C 20.303,-71.861 20.08,-70.915 19.692,-69.83 C 19.412,-69.05 16.377,-69.128 16.074,-68.624 C 15.774,-68.121 13.795,-67.234 14.058,-65.036 C 14.258,-63.384 14.066,-61.741 14.568,-60.988 C 15.068,-60.235 16.361,-59.545 16.967,-58.054 C 17.654,-56.354 18.889,-54.376 18.889,-52.648 C 18.889,-51.798 17.973,-49.905 17.445,-48.089 C 17.002,-46.565 16.937,-46.443 16.721,-44.943 C 16.502,-43.418 15.774,-39.949 15.473,-37.879 C 15.225,-36.189 14.229,-34.607 14.229,-34.607 C 14.229,-34.607 17.982,-36.267 19.234,-37.428 C 20.74,-37.52 22.623,-39.236 22.623,-39.236 C 22.623,-39.236 26.494,-45.799 26.523,-46.521 C 26.556,-47.24 27.527,-47.124 27.527,-47.124 C 27.527,-47.124 28.432,-47.827 27.83,-48.833 C 27.227,-49.835 27.07,-52.065 26.27,-52.969 C 25.463,-53.872 24.049,-54.113 24.049,-54.113 C 24.049,-54.113 23.277,-56.285 23.781,-56.585 C 24.284,-56.889 27.486,-56.59 28.333,-56.063 C 29.16,-55.549 31.316,-54.646 31.717,-53.942 C 32.121,-53.239 32.93,-52.071 33.331,-52.272 C 33.732,-52.473 36.892,-50.433 36.591,-49.428 C 36.289,-48.421 34.848,-46.74 34.664,-46.42 C 34.007,-45.29 37.105,-42.643 37.452,-39.815 C 37.523,-39.216 35.428,-39.152 35.428,-39.152 C 35.428,-39.152 33.299,-38.871 32.207,-38.594 C 31.197,-38.336 30.877,-37.522 30.153,-37.126 C 29.463,-36.75 28.502,-33.149 27.404,-31.737 C 26.29,-30.309 25.455,-29.209 24.859,-27.5 C 24.383,-26.13 24.009,-24.559 24.131,-22.92 C 24.236,-21.496 25.858,-21.866 25.646,-20.49 C 25.418,-19.044 25.472,-17.741 24.66,-17.28 C 23.406,-16.575 24.467,-16.492 25.057,-15.75 C 25.701,-14.935 26.512,-13.434 26.611,-12.427 C 26.715,-11.423 25.82,-10.952 25.721,-10.25 C 25.62,-9.545 26.404,-9.563 26.305,-9.062 C 26.205,-8.56 24.813,-6.951 23.504,-6.549 C 22.195,-6.964 21.177,-5.098 20.236,-4.942 C 19.297,-4.785 18.863,-5.091 18.961,-4.589 C 19.011,-4.345 18.107,-3.448 17.871,-2.714 C 18.035,-1.703 18.834,-1.345 19.273,-0.458 C 19.951,0.917 19.436,1.394 18.85,2.097 C 18.17,2.917 15.846,4.668 14.959,4.496 C 13.834,4.277 12.892,3.878 10.691,3.378 C 10.166,3.258 9.543,2.511 8.438,2.611 C 7.332,2.713 6.529,3.214 5.727,2.813 C 4.924,2.412 4.721,1.506 4.221,1.003 C 3.717,0.502 2.756,-0.029 0,0 M -7.852,-33.603 C -7.639,-34.635 -7.723,-36.572 -7.679,-36.916 C -7.639,-37.261 -9.404,-38.726 -9.701,-38.986 C -10.006,-39.243 -10.695,-39.33 -10.695,-38.898 C -10.695,-38.468 -9.831,-36.529 -9.529,-36.057 C -9.231,-35.583 -9.271,-34.55 -9.231,-33.516 C -9.188,-32.482 -8.756,-32.568 -8.195,-32.354 C -7.639,-32.137 -8.066,-32.568 -7.852,-33.603 M 18.027,-4.623 L 16.993,-4.45 C 16.993,-4.45 17.211,-3.891 17.382,-3.718 C 17.556,-3.546 18.027,-4.623 18.027,-4.623 M 12.286,-5.252 C 12.286,-5.252 12.059,-6.871 12.135,-6.287 C 12.212,-5.721 13.396,-4.934 12.986,-6.372 C 12.645,-7.567 11.947,-8.375 11.947,-8.375 C 11.955,-9.556 11.313,-10.574 11.313,-10.574 C 11.146,-10.631 10.982,-9.995 10.862,-9.688 C 10.844,-9.64 11.264,-9.59 11.24,-9.556 C 11.215,-9.52 10.844,-9.425 10.844,-9.425 C 10.844,-9.425 10.74,-8.938 10.787,-8.689 C 10.837,-8.423 10.941,-8.345 11.224,-8.324 C 11.508,-8.306 11.08,-8.209 11.024,-7.965 C 10.969,-7.721 11.128,-7.356 10.939,-6.999 C 10.752,-6.64 10.645,-6.407 10.645,-6.407 L 10.762,-5.382 L 11.051,-5.527 C 11.051,-5.527 10.945,-5.732 10.995,-5.86 C 11.047,-5.989 11.25,-6.04 11.294,-6.086 C 11.378,-6.178 11.404,-6.153 11.527,-6.178 C 11.576,-6.188 11.719,-6.114 11.736,-5.946 C 11.744,-5.854 11.788,-5.674 11.795,-5.576 C 11.801,-5.365 11.648,-5.199 11.648,-5.199 L 12.066,-5.121 L 12.286,-5.252 z M 6.396,1.531 C 6.396,1.531 6.888,1.626 7.115,1.72 C 7.34,1.813 8.887,1.864 9.694,1.682 C 10.952,1.4 11.833,0.713 12.673,-0.024 C 13.443,-0.703 13.871,-1.839 14.141,-2.209 C 14.971,-3.34 14.518,-3.391 14.292,-3.617 C 14.076,-3.832 13.569,-4 13.381,-4.151 C 13.195,-4.303 12.263,-4.472 12.263,-4.472 C 12.326,-4.201 12.203,-4.091 12.112,-3.593 C 11.768,-1.719 11.643,-1.906 11.051,-0.703 C 10.738,-0.064 9.863,0.661 9.469,0.879 C 9.152,1.056 7.98,1.343 7.623,1.363 C 7.266,1.382 6.396,1.531 6.396,1.531 M 1.656,-23.586 C 2.105,-23.059 2.309,-22.217 2.762,-21.827 C 3.465,-21.225 3.289,-22.355 3.289,-22.355 C 3.289,-22.355 3.089,-23.058 3.191,-23.56 C 3.282,-24.023 4.418,-25.333 5.676,-22.816 C 5.877,-22.414 6.443,-22.547 6.618,-23.021 C 7.017,-24.103 6.755,-25.14 6.326,-25.934 C 6.035,-26.471 5.248,-27.087 5.248,-27.087 C 5.773,-26.822 6.023,-25.595 6.188,-25.124 C 6.905,-23.064 5.829,-22.172 5.426,-22.881 C 5.227,-23.229 3.558,-24.414 3.158,-24.439 C 2.756,-24.465 3.021,-22.801 2.82,-22.725 C 2.617,-22.649 1.656,-23.586 1.656,-23.586 M 2.461,-7.408 C 3.738,-7.94 5.189,-8.403 5.552,-9.816 C 5.783,-10.719 5.726,-11.756 5.727,-12.684 C 5.727,-13.441 5.776,-17.834 5.551,-18.939 C 5.45,-17.331 5.369,-11.463 4.898,-10.047 C 4.396,-8.535 3.24,-8.288 1.807,-7.31 L 2.461,-7.408 z" /></g><g
         transform="translate(273.3906,578.3726)"
         id="g2612"><path
           id="path2614"
           style="fill:#000000;fill-opacity:1;fill-rule:nonzero;stroke:none"
           d="M 0,0 L 96.674,0 L 91.25,2.301 L 87.469,2.301 L 84.674,3.124 L 84.181,3.288 L 82.865,2.465 C 82.865,2.465 83.85,3.124 81.056,3.124 C 78.26,3.124 75.465,2.795 75.465,2.795 L 74.479,3.124 L 73.164,3.124 L 72.012,3.124 L 64.779,2.301 C 64.779,2.301 66.094,2.63 65.107,2.958 C 64.123,3.288 61.162,3.288 61.162,3.288 L 60.176,3.288 C 60.176,3.288 58.697,2.795 58.201,2.795 L 49.324,2.795 L 46.57,2.42 L 45.213,1.808 L 44.392,1.808 L 36.336,2.137 C 36.336,2.137 36.826,1.643 34.689,1.643 C 32.555,1.643 30.908,2.137 30.908,2.137 L 20.88,0.987 L 23.184,1.643 L 20.88,1.643 L 17.428,1.315 C 17.428,1.315 17.59,1.15 16.933,1.15 C 16.275,1.15 8.549,0.656 8.549,0.656 L 3.781,1.15 L 0,0 z" /></g><g
         transform="translate(300.1523,556.7793)"
         id="g2616"><path
           id="path2618"
           style="fill:#000000;fill-opacity:1;fill-rule:nonzero;stroke:none"
           d="M 0,0 C 0,-0.326 0.049,-0.387 0.447,-0.483 C 0.628,-0.52 0.725,-0.628 0.725,-0.786 C 0.725,-0.942 0.604,-1.075 0.447,-1.099 C 0.351,-1.123 0.34,-1.123 0.014,-1.123 L -2.632,-1.123 C -2.897,-1.123 -2.908,-1.123 -3.004,-1.099 C -3.15,-1.063 -3.234,-0.954 -3.234,-0.797 C -3.234,-0.652 -3.15,-0.543 -2.993,-0.496 C -2.667,-0.387 -2.632,-0.351 -2.632,-0.048 L -2.632,5.854 C -2.632,6.156 -2.667,6.192 -2.993,6.3 C -3.15,6.349 -3.234,6.458 -3.234,6.602 C -3.234,6.759 -3.15,6.868 -3.004,6.904 C -2.908,6.928 -2.897,6.928 -2.632,6.928 L 0,6.928 L 0,0 z M 0.484,6.928 C 1.002,6.928 1.461,6.892 1.824,6.832 C 2.994,6.614 3.719,5.71 3.719,4.465 C 3.719,3.187 2.971,2.28 1.727,2.052 C 1.376,1.991 0.954,1.967 0.484,1.967 L 0.484,2.596 C 1.002,2.715 1.147,2.933 1.147,3.536 L 1.147,5.432 C 1.147,5.986 0.967,6.216 0.484,6.288 L 0.484,6.928 z" /></g><g
         transform="translate(307.4668,556.7793)"
         id="g2620"><path
           id="path2622"
           style="fill:#000000;fill-opacity:1;fill-rule:nonzero;stroke:none"
           d="M 0,0 C 0,-0.326 0.049,-0.387 0.447,-0.483 C 0.629,-0.52 0.725,-0.628 0.725,-0.786 C 0.725,-0.942 0.605,-1.075 0.447,-1.099 C 0.351,-1.123 0.339,-1.123 0.013,-1.123 L -2.631,-1.123 C -2.896,-1.123 -2.908,-1.123 -3.005,-1.099 C -3.15,-1.063 -3.233,-0.954 -3.233,-0.797 C -3.233,-0.652 -3.15,-0.543 -2.992,-0.496 C -2.666,-0.387 -2.631,-0.351 -2.631,-0.048 L -2.631,5.854 C -2.631,6.156 -2.666,6.192 -2.992,6.3 C -3.15,6.349 -3.233,6.458 -3.233,6.602 C -3.233,6.759 -3.15,6.868 -3.005,6.904 C -2.908,6.928 -2.896,6.928 -2.631,6.928 L 0,6.928 L 0,0 z M 0.459,6.928 C 1.666,6.916 1.992,6.88 2.439,6.699 C 3.283,6.36 3.706,5.745 3.706,4.852 C 3.706,4.248 3.477,3.717 3.055,3.392 C 2.752,3.15 2.487,3.029 1.787,2.824 C 2.451,2.715 2.705,2.644 3.031,2.45 C 3.429,2.222 3.67,1.822 3.67,1.399 L 3.67,0.181 C 3.67,0.048 3.706,0 3.791,0 C 3.852,0 3.875,0.023 3.961,0.12 C 4.057,0.241 4.165,0.313 4.273,0.313 C 4.395,0.313 4.563,0.133 4.563,0 C 4.563,-0.29 4.189,-0.786 3.791,-1.038 C 3.514,-1.208 3.199,-1.28 2.766,-1.28 C 1.727,-1.28 1.111,-0.652 1.111,0.409 L 1.111,1.399 C 1.111,2.076 0.918,2.378 0.459,2.426 L 0.459,3.065 C 0.931,3.126 1.111,3.343 1.111,3.875 L 1.111,5.432 C 1.111,5.927 0.967,6.119 0.459,6.275 L 0.459,6.928 z" /></g><g
         transform="translate(315.4941,563.2246)"
         id="g2624"><path
           id="path2626"
           style="fill:#000000;fill-opacity:1;fill-rule:nonzero;stroke:none"
           d="M 0,0 C -0.398,-0.133 -0.543,-0.351 -0.543,-0.82 L -0.543,-6.095 C -0.543,-6.735 -0.41,-6.977 0,-7.086 L 0,-7.725 C -2.052,-7.556 -3.343,-5.938 -3.343,-3.549 C -3.343,-1.146 -1.991,0.543 0,0.64 L 0,0 z M 0.482,0.64 C 2.476,0.543 3.827,-1.146 3.827,-3.549 C 3.827,-5.938 2.535,-7.556 0.482,-7.725 L 0.482,-7.086 C 0.869,-6.977 1.026,-6.712 1.026,-6.095 L 1.026,-0.82 C 1.026,-0.351 0.881,-0.133 0.482,0 L 0.482,0.64 z" /></g><g
         transform="translate(321.5781,555.5361)"
         id="g2628"><path
           id="path2630"
           style="fill:#000000;fill-opacity:1;fill-rule:nonzero;stroke:none"
           d="M 0,0 C -0.555,0.096 -0.881,0.205 -1.207,0.434 C -1.713,0.784 -2.016,1.315 -2.016,1.858 C -2.016,2.607 -1.461,3.187 -0.76,3.187 C -0.12,3.187 0.41,2.655 0.41,2.016 C 0.41,1.545 0.17,1.207 -0.326,0.953 C -0.386,0.917 -0.434,0.88 -0.434,0.868 C -0.434,0.796 -0.253,0.7 0,0.651 L 0,0 z M 0.507,0.651 C 0.809,0.784 0.918,1.002 0.918,1.472 L 0.918,7.049 C 0.918,7.386 0.881,7.423 0.482,7.519 C 0.289,7.568 0.193,7.677 0.193,7.834 C 0.193,7.99 0.314,8.123 0.471,8.147 C 0.567,8.159 0.58,8.159 0.918,8.171 L 3.549,8.171 C 4.021,8.171 4.153,8.099 4.153,7.845 C 4.153,7.701 4.068,7.592 3.912,7.543 C 3.586,7.436 3.549,7.399 3.549,7.097 L 3.549,2.172 C 3.549,0.772 2.559,-0.05 0.894,-0.05 C 0.785,-0.05 0.689,-0.05 0.507,-0.037 L 0.507,0.651 z" /></g><g
         transform="translate(329.7744,555.6563)"
         id="g2632"><path
           id="path2634"
           style="fill:#000000;fill-opacity:1;fill-rule:nonzero;stroke:none"
           d="M 0,0 L -2.632,0 C -2.897,0 -2.909,0 -3.007,0.024 C -3.15,0.061 -3.235,0.169 -3.235,0.326 C -3.235,0.471 -3.15,0.58 -2.993,0.627 C -2.667,0.736 -2.632,0.772 -2.632,1.075 L -2.632,6.977 C -2.632,7.279 -2.667,7.315 -2.993,7.423 C -3.15,7.472 -3.235,7.581 -3.235,7.725 C -3.235,7.882 -3.15,7.991 -3.007,8.027 C -2.909,8.051 -2.897,8.051 -2.632,8.051 L 0,8.051 L 0,0 z M 2.884,8.051 L 2.884,5.951 C 2.884,5.71 2.8,5.601 2.595,5.601 C 2.414,5.601 2.353,5.648 2.281,5.866 C 1.979,6.796 1.388,7.279 0.495,7.351 L 0.495,8.051 L 2.884,8.051 z M 0.495,4.442 C 0.93,4.635 1.146,4.9 1.229,5.312 C 1.304,5.612 1.388,5.71 1.58,5.71 C 1.811,5.71 1.87,5.601 1.87,5.214 L 1.87,2.97 C 1.87,2.607 1.798,2.487 1.58,2.487 C 1.412,2.487 1.315,2.583 1.254,2.849 C 1.122,3.368 0.868,3.682 0.495,3.754 L 0.495,4.442 z M 0.495,0.64 C 1.362,0.724 2.064,1.316 2.342,2.185 C 2.425,2.438 2.51,2.511 2.667,2.511 C 2.896,2.511 2.969,2.402 2.969,2.076 L 2.969,0 L 0.495,0 L 0.495,0.64 z" /></g><g
         transform="translate(336.8711,563.1523)"
         id="g2636"><path
           id="path2638"
           style="fill:#000000;fill-opacity:1;fill-rule:nonzero;stroke:none"
           d="M 0,0 C -0.459,-0.073 -0.676,-0.411 -0.676,-1.026 L -0.676,-5.903 C -0.676,-6.35 -0.65,-6.458 -0.507,-6.663 C -0.375,-6.844 -0.253,-6.917 0,-6.929 L 0,-7.653 C -2.186,-7.604 -3.488,-6.084 -3.488,-3.609 C -3.488,-2.064 -2.98,-0.846 -2.028,-0.048 C -1.4,0.459 -0.736,0.7 0,0.712 L 0,0 z M 0.471,0.7 C 0.834,0.651 0.967,0.615 1.582,0.386 C 1.811,0.302 1.908,0.277 1.992,0.277 C 2.125,0.277 2.186,0.326 2.318,0.58 C 2.365,0.651 2.463,0.712 2.583,0.712 C 2.787,0.712 2.909,0.58 2.909,0.337 L 2.909,-2.112 C 2.909,-2.391 2.776,-2.559 2.559,-2.559 C 2.379,-2.559 2.27,-2.438 2.197,-2.173 C 1.92,-0.989 1.195,-0.073 0.471,0 L 0.471,0.7 z M 0.483,-6.929 C 1.328,-6.844 2.004,-6.288 2.246,-5.505 C 2.33,-5.251 2.414,-5.155 2.596,-5.155 C 2.776,-5.155 2.92,-5.312 2.92,-5.516 C 2.92,-5.927 2.559,-6.542 2.076,-6.989 C 1.582,-7.436 1.109,-7.629 0.483,-7.653 L 0.483,-6.929 z" /></g><g
         transform="translate(342.0371,563.707)"
         id="g2640"><path
           id="path2642"
           style="fill:#000000;fill-opacity:1;fill-rule:nonzero;stroke:none"
           d="M 0,0 L 0,-0.724 C -0.436,-0.941 -0.7,-1.484 -0.833,-2.45 C -0.868,-2.68 -1.001,-2.824 -1.194,-2.824 C -1.4,-2.824 -1.545,-2.667 -1.545,-2.438 L -1.545,0 L 0,0 z M 3.114,-6.928 C 3.114,-7.254 3.162,-7.314 3.561,-7.411 C 3.742,-7.447 3.838,-7.556 3.838,-7.713 C 3.838,-7.87 3.717,-8.003 3.561,-8.027 C 3.465,-8.051 3.452,-8.051 3.127,-8.051 L 0.483,-8.051 C 0.145,-8.051 0.133,-8.051 0.037,-8.027 C -0.12,-8.003 -0.242,-7.87 -0.242,-7.713 C -0.242,-7.556 -0.145,-7.447 0.037,-7.411 C 0.435,-7.314 0.483,-7.266 0.483,-6.928 L 0.483,0 L 3.114,0 L 3.114,-6.928 z M 5.143,-2.438 C 5.143,-2.667 4.996,-2.824 4.792,-2.824 C 4.635,-2.824 4.516,-2.728 4.455,-2.547 C 4.441,-2.521 4.406,-2.365 4.369,-2.088 C 4.225,-1.376 3.972,-0.905 3.597,-0.724 L 3.597,0 L 5.143,0 L 5.143,-2.438 z" /></g></g></g></svg>