<svg id="Layer_1" data-name="Layer 1" xmlns="http://www.w3.org/2000/svg" xmlns:xlink="http://www.w3.org/1999/xlink" viewBox="0 0 207 65"><defs><style>.cls-1,.cls-6{fill:none;}.cls-2{fill:#7fa2bf;}.cls-3{clip-path:url(#clip-path);}.cls-4{opacity:0.3;}.cls-5{fill:#fff;}.cls-6{stroke:#b2c7d8;stroke-miterlimit:10;}.cls-7{fill:#00467f;}</style><clipPath id="clip-path"><rect class="cls-1" x="0.5" y="0.5" width="206" height="64"/></clipPath></defs><title>ACS_btn_hover</title><rect class="cls-2" x="0.5" y="0.5" width="206" height="64"/><g class="cls-3"><g class="cls-4"><path class="cls-5" d="M1.72-16.58,24,112.19c65,10.56,114.86-41.63,179.83-31.07L181.55-47.65C116.58-58.21,66.69-6,1.72-16.58ZM75.1,10.18c.26-2,.38-2.95.63-4.92l2.15,3.87c1.79-.69,2.68-1,4.46-1.76l-3.13,4.16c.85,1.54,1.27,2.32,2.13,3.87l-4.08-1.32-3.15,4.06c.25-2,.36-2.94.62-4.91-1.65-.55-2.46-.83-4.11-1.41,1.79-.64,2.7-1,4.48-1.64ZM57.76.49c.26-1.91.39-2.87.65-4.81l2.16,4c1.82-.56,2.72-.85,4.53-1.45C63.83-.2,63.19.58,61.91,2.12c.87,1.59,1.29,2.38,2.17,4-1.67-.62-2.49-.94-4.14-1.59C58.66,6,58,6.78,56.72,8.26c.26-1.91.39-2.87.65-4.8-1.66-.68-2.49-1-4.16-1.74C55,1.27,55.94,1,57.76.49Zm4.92,28.43c.25-1.92.38-2.88.64-4.81l2.17,4c1.81-.55,2.71-.84,4.52-1.44-1.27,1.58-1.91,2.36-3.19,3.9.87,1.59,1.29,2.38,2.17,4-1.66-.63-2.49-1-4.14-1.6-1.28,1.53-1.93,2.28-3.22,3.76l.65-4.79c-1.66-.67-2.49-1-4.16-1.74,1.82-.46,2.74-.71,4.56-1.23ZM47,18.19c.27-1.86.41-2.79.67-4.66.88,1.65,1.31,2.48,2.2,4.13,1.83-.37,2.75-.57,4.6-1-1.31,1.45-1.95,2.17-3.25,3.56l2.18,4.1c-1.68-.76-2.52-1.15-4.2-2-1.31,1.37-2,2.05-3.28,3.37.27-1.86.41-2.78.67-4.64-1.69-.84-2.54-1.27-4.23-2.17,1.86-.24,2.79-.38,4.64-.71ZM27.93,5.09c.28-1.78.42-2.66.71-4.43C29.53,2.41,30,3.29,30.87,5c1.9-.07,2.84-.12,4.73-.29-1.35,1.22-2,1.81-3.35,3,.88,1.74,1.33,2.61,2.22,4.34-1.72-1-2.58-1.51-4.3-2.58-1.36,1.12-2,1.66-3.4,2.72.29-1.75.43-2.63.72-4.39C25.76,6.7,24.89,6.14,23.14,5c1.92.09,2.88.12,4.79.12Zm4.91,28.42c.28-1.76.43-2.64.71-4.42.89,1.75,1.33,2.62,2.23,4.37,1.9-.07,2.84-.13,4.73-.29-1.34,1.22-2,1.82-3.35,3l2.22,4.32c-1.72-1-2.58-1.51-4.3-2.57-1.36,1.12-2,1.67-3.39,2.71.28-1.74.43-2.62.71-4.37-1.73-1.11-2.6-1.68-4.35-2.85,1.92.11,2.88.13,4.79.12ZM192,69.5c-57.26-2.66-102.32,38-159.58,35.38L30.69,94.65C88,97.31,133,56.61,190.27,59.27Zm-3.4-19.69c-57.27-2.66-102.32,38-159.59,35.38l-1.69-9.83C84.62,78,129.67,37.32,186.94,40Zm-3.34-19.3C128,27.85,83,68.54,25.72,65.89L24,55.87c57.26,2.65,102.32-38,159.58-35.38ZM181.94,11c-30.12-1.66-54.06,6.86-81.51,18.42L98.56,18.63C126,7.07,150-1.47,180.07.21ZM178.43-9.26c-30.11-1.66-54.06,6.86-81.5,18.42L95.24-.64C122.67-12.2,146.63-20.73,176.74-19ZM175.1-28.52c-30.11-1.67-54,6.86-81.5,18.41l-2-11.8C119-33.48,143-42,173.06-40.33Zm0,0"/></g></g><rect class="cls-6" x="0.5" y="0.5" width="206" height="64"/><rect class="cls-7" y="38.55" width="207" height="18.95"/><path class="cls-5" d="M35.64,49.87H33.06l-.64,1.86H30.78l3-8.46H35l3,8.46H36.31Zm-2.16-1.32h1.8l-.62-1.87-.26-1.32h-.06l-.25,1.33Z"/><path class="cls-5" d="M42.13,51.73V48.47A3.25,3.25,0,0,0,42,47.29a.65.65,0,0,0-.65-.35,1,1,0,0,0-.66.22,1.45,1.45,0,0,0-.39.57v4H38.72v-6h1.22l.18.79h0a2.85,2.85,0,0,1,.71-.67A1.92,1.92,0,0,1,42,45.56a1.72,1.72,0,0,1,.95.24,1.51,1.51,0,0,1,.57.78,2.16,2.16,0,0,1,.7-.74,1.87,1.87,0,0,1,1-.28,2.75,2.75,0,0,1,.86.12,1.19,1.19,0,0,1,.57.42,1.88,1.88,0,0,1,.33.78,6.16,6.16,0,0,1,.11,1.25v3.6H45.54V48.36a2.84,2.84,0,0,0-.15-1.06.64.64,0,0,0-.67-.36.93.93,0,0,0-.66.23,1.32,1.32,0,0,0-.37.62v3.94Z"/><path class="cls-5" d="M53.18,51.21a2.84,2.84,0,0,1-1,.49,4.39,4.39,0,0,1-1.32.2,2.53,2.53,0,0,1-2.12-.85,3.62,3.62,0,0,1-.67-2.32,3.35,3.35,0,0,1,.75-2.38A2.84,2.84,0,0,1,51,45.56a3.22,3.22,0,0,1,.88.12,2,2,0,0,1,.77.4,1.8,1.8,0,0,1,.54.74A2.85,2.85,0,0,1,53.38,48q0,.24,0,.54t-.09.6H49.67a1.73,1.73,0,0,0,.39,1.14,1.49,1.49,0,0,0,1.14.38,2.42,2.42,0,0,0,.88-.15,2.27,2.27,0,0,0,.59-.31ZM51,46.81a1.06,1.06,0,0,0-.9.37,1.77,1.77,0,0,0-.36,1h2.22a1.47,1.47,0,0,0-.19-1A.89.89,0,0,0,51,46.81Z"/><path class="cls-5" d="M57.79,47.19a2.25,2.25,0,0,0-.67-.13,1.15,1.15,0,0,0-.7.22,1.05,1.05,0,0,0-.38.57v3.88H54.48v-6h1.21l.18.79h.05a1.71,1.71,0,0,1,.55-.68,1.41,1.41,0,0,1,.82-.24,2.24,2.24,0,0,1,.71.13Z"/><path class="cls-5" d="M58.6,44a.82.82,0,0,1,.25-.6,1,1,0,0,1,.72-.24,1.12,1.12,0,0,1,.74.24.81.81,0,0,1,.28.6.75.75,0,0,1-.28.58,1.11,1.11,0,0,1-.74.23,1,1,0,0,1-.72-.23A.76.76,0,0,1,58.6,44Zm.22,1.69h1.56v6H58.82Z"/><path class="cls-5" d="M66.17,51.36a2.69,2.69,0,0,1-.87.4,4.09,4.09,0,0,1-1,.14A3,3,0,0,1,63,51.67a2.14,2.14,0,0,1-.81-.64,2.62,2.62,0,0,1-.45-1,5.89,5.89,0,0,1-.14-1.3,3.56,3.56,0,0,1,.69-2.35,2.46,2.46,0,0,1,2-.82,4.3,4.3,0,0,1,1.06.11,3.16,3.16,0,0,1,.73.28l-.38,1.27a3,3,0,0,0-.54-.21,2.86,2.86,0,0,0-.62-.07,1.15,1.15,0,0,0-1,.43,2.16,2.16,0,0,0-.34,1.36,3.15,3.15,0,0,0,.08.71,1.7,1.7,0,0,0,.26.56,1.13,1.13,0,0,0,.43.38,1.39,1.39,0,0,0,.63.14,2.22,2.22,0,0,0,.68-.1,2.51,2.51,0,0,0,.49-.25Z"/><path class="cls-5" d="M67.08,46.08a4.66,4.66,0,0,1,1.14-.34,6.88,6.88,0,0,1,1.38-.13,3.09,3.09,0,0,1,1,.15,1.53,1.53,0,0,1,.67.43,1.61,1.61,0,0,1,.35.66,3.22,3.22,0,0,1,.1.86c0,.35,0,.71,0,1.06s0,.71,0,1,0,.68,0,1a4.41,4.41,0,0,0,.18.92H70.62l-.25-.83h-.06a2.09,2.09,0,0,1-.67.65,2,2,0,0,1-1.1.27,2.18,2.18,0,0,1-.75-.13,1.5,1.5,0,0,1-.58-.36,1.72,1.72,0,0,1-.37-.55,1.81,1.81,0,0,1-.13-.72,1.74,1.74,0,0,1,.24-.93,1.86,1.86,0,0,1,.71-.61,3.73,3.73,0,0,1,1.11-.32,8.07,8.07,0,0,1,1.43-.06,1.51,1.51,0,0,0-.1-1c-.12-.2-.38-.3-.8-.3a5.93,5.93,0,0,0-1,.1,3.7,3.7,0,0,0-.86.25Zm2,4.46a1.18,1.18,0,0,0,.74-.21,1.42,1.42,0,0,0,.41-.45V49.1a4.24,4.24,0,0,0-.71,0,2.66,2.66,0,0,0-.61.11,1,1,0,0,0-.42.24.53.53,0,0,0-.15.39.7.7,0,0,0,.19.53A.81.81,0,0,0,69.06,50.54Z"/><path class="cls-5" d="M76.74,51.73V48.32a2,2,0,0,0-.21-1,.78.78,0,0,0-.71-.33,1.12,1.12,0,0,0-.75.26,1.42,1.42,0,0,0-.44.64v3.89H73.07v-6H74.3l.18.79h0a2.78,2.78,0,0,1,.73-.67,2.22,2.22,0,0,1,1.18-.29,2.39,2.39,0,0,1,.79.12,1.32,1.32,0,0,1,.59.4,1.75,1.75,0,0,1,.36.75A4.78,4.78,0,0,1,78.3,48v3.73Z"/><path class="cls-5" d="M88.21,51.39a2.51,2.51,0,0,1-1,.39A6.06,6.06,0,0,1,86,51.9a4.27,4.27,0,0,1-1.44-.24,2.94,2.94,0,0,1-1.19-.75,3.59,3.59,0,0,1-.82-1.36,5.72,5.72,0,0,1-.31-2,5.47,5.47,0,0,1,.34-2.07,3.78,3.78,0,0,1,.89-1.34,3.28,3.28,0,0,1,1.22-.74,4.47,4.47,0,0,1,1.34-.22,6.06,6.06,0,0,1,1.22.1,3.92,3.92,0,0,1,.82.23l-.32,1.39a2.34,2.34,0,0,0-.66-.19,5.84,5.84,0,0,0-.91-.06,2,2,0,0,0-1.61.7,3.39,3.39,0,0,0-.6,2.21,4.83,4.83,0,0,0,.14,1.18,2.49,2.49,0,0,0,.44.91,2,2,0,0,0,.73.59,2.32,2.32,0,0,0,1,.21,3.42,3.42,0,0,0,.91-.1,3.26,3.26,0,0,0,.65-.28Z"/><path class="cls-5" d="M88.48,48.73a3.36,3.36,0,0,1,.74-2.35,2.7,2.7,0,0,1,2.09-.82,3.2,3.2,0,0,1,1.25.23,2.35,2.35,0,0,1,.87.64,2.72,2.72,0,0,1,.52,1,4.49,4.49,0,0,1,.18,1.3,3.41,3.41,0,0,1-.74,2.35,2.68,2.68,0,0,1-2.08.82,3.17,3.17,0,0,1-1.25-.23,2.39,2.39,0,0,1-.88-.64,2.74,2.74,0,0,1-.53-1A4.49,4.49,0,0,1,88.48,48.73Zm1.6,0a3.33,3.33,0,0,0,.08.73,2,2,0,0,0,.21.59,1,1,0,0,0,.38.39,1.11,1.11,0,0,0,.56.14,1,1,0,0,0,.91-.45,2.53,2.53,0,0,0,.3-1.4,2.75,2.75,0,0,0-.28-1.34,1,1,0,0,0-.93-.51,1.07,1.07,0,0,0-.9.43A2.37,2.37,0,0,0,90.08,48.73Z"/><path class="cls-5" d="M98.62,51.73V48.47a3.2,3.2,0,0,0-.16-1.18.64.64,0,0,0-.65-.35,1,1,0,0,0-.66.22,1.43,1.43,0,0,0-.38.57v4H95.21v-6h1.21l.18.79h.05a2.8,2.8,0,0,1,.7-.67,1.93,1.93,0,0,1,1.1-.29,1.68,1.68,0,0,1,.94.24,1.51,1.51,0,0,1,.57.78,2.1,2.1,0,0,1,.71-.74,1.84,1.84,0,0,1,1-.28,2.7,2.7,0,0,1,.86.12,1.17,1.17,0,0,1,.58.42,2.18,2.18,0,0,1,.33.78,6.25,6.25,0,0,1,.1,1.25v3.6H102V48.36a2.84,2.84,0,0,0-.15-1.06.64.64,0,0,0-.66-.36,1,1,0,0,0-.67.23,1.31,1.31,0,0,0-.36.62v3.94Z"/><path class="cls-5" d="M108.28,51.73V48.47a3.2,3.2,0,0,0-.16-1.18.64.64,0,0,0-.65-.35,1,1,0,0,0-.66.22,1.43,1.43,0,0,0-.38.57v4h-1.56v-6h1.21l.18.79h0a2.8,2.8,0,0,1,.7-.67,1.93,1.93,0,0,1,1.1-.29,1.68,1.68,0,0,1,.94.24,1.51,1.51,0,0,1,.57.78,2.1,2.1,0,0,1,.71-.74,1.84,1.84,0,0,1,1-.28,2.7,2.7,0,0,1,.86.12,1.17,1.17,0,0,1,.58.42,2.18,2.18,0,0,1,.33.78,6.25,6.25,0,0,1,.1,1.25v3.6h-1.56V48.36a2.84,2.84,0,0,0-.15-1.06.64.64,0,0,0-.66-.36,1,1,0,0,0-.67.23,1.4,1.4,0,0,0-.36.62v3.94Z"/><path class="cls-5" d="M116,45.73v3.41a2.41,2.41,0,0,0,.17,1,.7.7,0,0,0,.68.33,1.05,1.05,0,0,0,.74-.27,1.7,1.7,0,0,0,.44-.64V45.73h1.56v4.18c0,.32,0,.65,0,1a6.37,6.37,0,0,0,.15.86h-1.18l-.27-.89h0a2.24,2.24,0,0,1-.77.76,2.2,2.2,0,0,1-1.16.3,2.57,2.57,0,0,1-.82-.12,1.3,1.3,0,0,1-.6-.4,1.9,1.9,0,0,1-.37-.74,4.87,4.87,0,0,1-.12-1.18V45.73Z"/><path class="cls-5" d="M124.66,51.73V48.32a2,2,0,0,0-.21-1,.79.79,0,0,0-.72-.33,1.16,1.16,0,0,0-.75.26,1.5,1.5,0,0,0-.44.64v3.89H121v-6h1.24l.18.79h0a2.63,2.63,0,0,1,.73-.67,2.19,2.19,0,0,1,1.18-.29,2.43,2.43,0,0,1,.79.12,1.32,1.32,0,0,1,.59.4,1.75,1.75,0,0,1,.36.75,4.78,4.78,0,0,1,.12,1.17v3.73Z"/><path class="cls-5" d="M127.43,44a.79.79,0,0,1,.26-.6,1,1,0,0,1,.71-.24,1.12,1.12,0,0,1,.74.24.78.78,0,0,1,.28.6.72.72,0,0,1-.28.58,1.11,1.11,0,0,1-.74.23,1,1,0,0,1-.71-.23A.73.73,0,0,1,127.43,44Zm.23,1.69h1.56v6h-1.56Z"/><path class="cls-5" d="M130.13,45.73H131V44.6l1.56-.44v1.57H134v1.32h-1.46v2.3a2.41,2.41,0,0,0,.12.9.48.48,0,0,0,.48.27,1.64,1.64,0,0,0,.41-.05,2.66,2.66,0,0,0,.39-.14l.28,1.2a4.21,4.21,0,0,1-.76.26,3.72,3.72,0,0,1-.88.11,1.58,1.58,0,0,1-1.21-.43,2,2,0,0,1-.39-1.4v-3h-.83Z"/><path class="cls-5" d="M136.85,49.1l.21.94h.08l.15-.95.91-3.36h1.61L138,51.14c-.16.45-.3.86-.44,1.23a5.49,5.49,0,0,1-.46,1,2.33,2.33,0,0,1-.56.63,1.19,1.19,0,0,1-.73.22,2.15,2.15,0,0,1-1-.2l.29-1.25a.92.92,0,0,0,.36.07.81.81,0,0,0,.53-.23,1.64,1.64,0,0,0,.39-.85l-2.51-6h1.87Z"/><path class="cls-5" d="M146.66,49.47a.77.77,0,0,0-.28-.62,3,3,0,0,0-.71-.44l-.92-.41a4.82,4.82,0,0,1-.92-.51,2.71,2.71,0,0,1-.71-.76,2.2,2.2,0,0,1-.29-1.17A2.47,2.47,0,0,1,143,44.5a2,2,0,0,1,.58-.75,2.37,2.37,0,0,1,.9-.44,4.06,4.06,0,0,1,1.15-.15,6.74,6.74,0,0,1,1.38.13,3.53,3.53,0,0,1,1.07.36L147.6,45a3,3,0,0,0-.79-.3,4.56,4.56,0,0,0-1.14-.14,1.44,1.44,0,0,0-.88.23.7.7,0,0,0-.31.61.75.75,0,0,0,.28.6,3.19,3.19,0,0,0,.71.44c.28.14.59.28.92.42a5,5,0,0,1,.93.53,2.68,2.68,0,0,1,.71.75,2.16,2.16,0,0,1,.28,1.12,2.73,2.73,0,0,1-.23,1.16,2,2,0,0,1-.62.81,2.52,2.52,0,0,1-1,.48,4.5,4.5,0,0,1-1.25.16,6.86,6.86,0,0,1-1.59-.17,4.48,4.48,0,0,1-1-.34l.53-1.4.34.16.48.15a4.44,4.44,0,0,0,.55.12,4.07,4.07,0,0,0,.61,0,2,2,0,0,0,1.12-.25A.82.82,0,0,0,146.66,49.47Z"/><path class="cls-5" d="M150.86,45.73v3.41a2.24,2.24,0,0,0,.18,1,.69.69,0,0,0,.68.33,1,1,0,0,0,.73-.27,1.5,1.5,0,0,0,.44-.64V45.73h1.56v4.18c0,.32,0,.65.05,1a6.44,6.44,0,0,0,.14.86h-1.17l-.28-.89h-.05a2.16,2.16,0,0,1-1.93,1.06,2.55,2.55,0,0,1-.81-.12,1.3,1.3,0,0,1-.6-.4,1.77,1.77,0,0,1-.37-.74,4.82,4.82,0,0,1-.13-1.18V45.73Z"/><path class="cls-5" d="M159.13,47.19a2.25,2.25,0,0,0-.67-.13,1.12,1.12,0,0,0-.7.22,1.05,1.05,0,0,0-.38.57v3.88h-1.56v-6H157l.18.79h0a1.63,1.63,0,0,1,.55-.68,1.39,1.39,0,0,1,.82-.24,2.18,2.18,0,0,1,.7.13Z"/><path class="cls-5" d="M162.11,48.87l.2.93h.06l.17-.95,1-3.12h1.68l-2.51,6.06h-.95l-2.6-6.06H161Z"/><path class="cls-5" d="M170.47,51.21a2.8,2.8,0,0,1-1,.49,4.33,4.33,0,0,1-1.31.2,2.51,2.51,0,0,1-2.12-.85,3.62,3.62,0,0,1-.68-2.32,3.35,3.35,0,0,1,.76-2.38,2.81,2.81,0,0,1,2.12-.79,3.3,3.3,0,0,1,.89.12,2,2,0,0,1,.77.4,2,2,0,0,1,.54.74,2.86,2.86,0,0,1,.2,1.17q0,.24,0,.54t-.09.6H167a1.78,1.78,0,0,0,.38,1.14,1.53,1.53,0,0,0,1.15.38,2.49,2.49,0,0,0,1.47-.46Zm-2.23-4.4a1.08,1.08,0,0,0-.9.37,1.84,1.84,0,0,0-.35,1h2.22a1.47,1.47,0,0,0-.2-1A.88.88,0,0,0,168.24,46.81Z"/><path class="cls-5" d="M173.78,49.1,174,50h.07l.16-.95.91-3.36h1.61l-1.83,5.41c-.15.45-.3.86-.43,1.23a6.28,6.28,0,0,1-.47,1,2,2,0,0,1-.56.63,1.16,1.16,0,0,1-.72.22,2.16,2.16,0,0,1-1-.2l.29-1.25a.92.92,0,0,0,.36.07.79.79,0,0,0,.53-.23,1.57,1.57,0,0,0,.4-.85l-2.51-6h1.87Z"/></svg>