<svg id="Layer_1" data-name="Layer 1" xmlns="http://www.w3.org/2000/svg" viewBox="0 0 56 56"><defs><style>.cls-1{fill:#7fa2bf;}.cls-2{fill:#40749f;}.cls-3{fill:#00467f;}.cls-4{fill:none;stroke:#c94726;stroke-linecap:round;stroke-miterlimit:10;stroke-width:5px;}.cls-5{fill:#c94726;}</style></defs><title>bar-graph-in-circle_icon</title><path class="cls-1" d="M14.94,25.05h4.5a1.32,1.32,0,0,1,1.3,1.3v22.8a1.32,1.32,0,0,1-1.3,1.3h-4.5a1.32,1.32,0,0,1-1.3-1.3V26.35A1.32,1.32,0,0,1,14.94,25.05Z"/><path class="cls-2" d="M24.84,14.45h4.6a1.16,1.16,0,0,1,1.2,1.2v33.9a1.16,1.16,0,0,1-1.2,1.2h-4.6a1.16,1.16,0,0,1-1.2-1.2V15.65A1.1,1.1,0,0,1,24.84,14.45Z"/><path class="cls-3" d="M34.64,21.25h4.8a1.11,1.11,0,0,1,1.1,1.1v25.8a1.11,1.11,0,0,1-1.1,1.1h-4.8a1.11,1.11,0,0,1-1.1-1.1V22.45A1.2,1.2,0,0,1,34.64,21.25Z"/><path class="cls-4" d="M27.14,3.85a24.05,24.05,0,1,0,24.1,24,24.85,24.85,0,0,0-2.8-11.3"/><polygon class="cls-5" points="55.24 13.95 41.34 8.55 43.54 23.25 55.24 13.95"/></svg>