<svg id="Layer_1" data-name="Layer 1" xmlns="http://www.w3.org/2000/svg" viewBox="0 0 111 39.89"><defs><style>.cls-1{fill:#2b60a8;}</style></defs><title>BLS_logo</title><path class="cls-1" d="M11.39,35H18l-4.16,3.12H10.48Zm-5-14.41H36.83l-4.16,3.1H10.5Zm4.79,3.59H32l-2.84,2.05.34,1.07H13.68l.28-1Zm2.37,3.59H29.68l1,3.12h-18ZM12.45,31.4l18.26,0,1,3.1H24.58l-2.89-2.19-3,2.19H11.54ZM25.25,35l4.19,3.12h3.3L31.81,35Zm4.84,3.62h2.78l.86,2.7Zm-19.77,0h2.89l-3.69,2.7Z" transform="translate(-1.5 -2.05)"/><polygon class="cls-1" points="4.19 18.06 0 14.94 15.35 14.94 20.16 0 23.26 9.52 27.5 5.99 29.61 8.4 31.51 6.76 30.91 6.14 33.98 6.14 33.72 9.18 33.12 8.56 29.11 11.92 27.19 9.76 21.36 14.65 20.16 10.49 17.82 18.06 4.19 18.06"/><path class="cls-1" d="M60.12,27.87a10.48,10.48,0,0,1,4.73,1.87A5.48,5.48,0,0,1,67,34.12a6,6,0,0,1-1.44,3.77,8.16,8.16,0,0,1-3.94,2.63,26.07,26.07,0,0,1-7.64.83H39.67v-.72h1.14a3.28,3.28,0,0,0,2.74-1.05,5.36,5.36,0,0,0,.52-2.9v-17q0-2.45-.65-3.09a3.58,3.58,0,0,0-2.6-.86H39.67V15H52.81a29.83,29.83,0,0,1,5.9.47,9.91,9.91,0,0,1,5.13,2.48A5.64,5.64,0,0,1,65.62,22a5.21,5.21,0,0,1-1.39,3.55A8.33,8.33,0,0,1,60.12,27.87ZM48.37,26.82q.83.14,1.9.2t2.34.07a15,15,0,0,0,4.92-.61,5.14,5.14,0,0,0,2.52-1.88,4.75,4.75,0,0,0,.87-2.76,4.82,4.82,0,0,0-2.18-4q-2.17-1.63-6.35-1.63a17.44,17.44,0,0,0-4,.43Zm0,12.61a25.91,25.91,0,0,0,5.14.53,10.26,10.26,0,0,0,6.19-1.59,4.74,4.74,0,0,0,2.13-3.92,5.2,5.2,0,0,0-1-3,6.34,6.34,0,0,0-3.14-2.24,15.42,15.42,0,0,0-5.38-.82q-1.39,0-2.38,0a14.05,14.05,0,0,0-1.59.14Z" transform="translate(-1.5 -2.05)"/><path class="cls-1" d="M91.09,34l.74.14-2.6,7.16H65.68v-.72h1.14a3.25,3.25,0,0,0,2.76-1.09,5.55,5.55,0,0,0,.47-2.88v-17q0-2.47-.63-3.09a3.58,3.58,0,0,0-2.6-.86H65.68V15H79.45v.72a9.58,9.58,0,0,0-3.4.39,2.64,2.64,0,0,0-1.33,1,7.44,7.44,0,0,0-.36,3V36.65a4.75,4.75,0,0,0,.36,2.22,1.57,1.57,0,0,0,.83.6,16.7,16.7,0,0,0,3.5.19h2.22a18.39,18.39,0,0,0,4.91-.45,6.47,6.47,0,0,0,2.58-1.59A12.69,12.69,0,0,0,91.09,34Z" transform="translate(-1.5 -2.05)"/><path class="cls-1" d="M110.48,14.35v9.13h-.83a10.31,10.31,0,0,0-1.45-4.18,7.18,7.18,0,0,0-3-2.47,9.22,9.22,0,0,0-4-.92,5.93,5.93,0,0,0-3.86,1.24A3.58,3.58,0,0,0,95.86,20a3.09,3.09,0,0,0,1,2.2q1.39,1.46,6.62,3.89a47.7,47.7,0,0,1,5.82,3,7.79,7.79,0,0,1,2.4,2.5,5.9,5.9,0,0,1,.84,3,6.47,6.47,0,0,1-2.68,5.17,10.61,10.61,0,0,1-6.9,2.17,16.82,16.82,0,0,1-2.49-.18,28.71,28.71,0,0,1-2.88-.71,14.57,14.57,0,0,0-2.77-.61,1.28,1.28,0,0,0-.89.29,2.15,2.15,0,0,0-.48,1.21h-.83v-9h.83A11.66,11.66,0,0,0,95,37.15a7.27,7.27,0,0,0,3,2.34,10.52,10.52,0,0,0,4.45.93,7,7,0,0,0,4.43-1.28,3.78,3.78,0,0,0,1.63-3,3.71,3.71,0,0,0-.62-2A6.24,6.24,0,0,0,106,32.29q-.87-.58-4.78-2.48a47.85,47.85,0,0,1-5.55-3,8.63,8.63,0,0,1-2.5-2.49,5.54,5.54,0,0,1-.85-3A6.15,6.15,0,0,1,94.8,16.4a9.77,9.77,0,0,1,6.39-2.05,14.48,14.48,0,0,1,5.14,1,5.89,5.89,0,0,0,1.77.49,1.46,1.46,0,0,0,1-.3,2.27,2.27,0,0,0,.59-1.22Z" transform="translate(-1.5 -2.05)"/></svg>