<svg id="Layer_1" data-name="Layer 1" xmlns="http://www.w3.org/2000/svg" viewBox="0 0 32 30"><defs><style>.cls-1{fill:none;stroke:#fff;stroke-miterlimit:10;stroke-width:2px;}.cls-1,.cls-3{fill-rule:evenodd;}.cls-2{fill:#fff;}.cls-3{fill:#003b71;}</style></defs><title>briefcase_icon</title><path class="cls-1" d="M11.85,2.4h8.3a2.38,2.38,0,0,1,2.37,2.37v.8H21.07v-.8a.93.93,0,0,0-.92-.92h-8.3a.92.92,0,0,0-.92.92v.8H9.48v-.8A2.38,2.38,0,0,1,11.85,2.4ZM30.08,14.71v11a1.85,1.85,0,0,1-1.84,1.84H3.76a1.85,1.85,0,0,1-1.84-1.84v-11c.49.28,1.08.58,1.73.9v9.6a.8.8,0,0,0,.8.8H27.56a.8.8,0,0,0,.8-.8v-9.6c.66-.31,1.25-.61,1.73-.9Zm-16.6,1.64a.2.2,0,0,0-.2.2v3.36a.2.2,0,0,0,.2.2h5a.2.2,0,0,0,.2-.2V16.55a.2.2,0,0,0-.2-.2Zm16.6-7.62c0-1.13-.57-2.13-1.84-2.13H3.76c-1.27,0-1.84,1-1.84,2.13V13a70.56,70.56,0,0,0,10.4,4.31V15.74a.38.38,0,0,1,.38-.38H19.3a.38.38,0,0,1,.38.38v1.59A70.67,70.67,0,0,0,30.08,13Z"/><rect class="cls-2" x="2.57" y="12.5" width="26.37" height="14"/><path class="cls-3" d="M11.85,2.4h8.3a2.38,2.38,0,0,1,2.37,2.37v.8H21.07v-.8a.93.93,0,0,0-.92-.92h-8.3a.92.92,0,0,0-.92.92v.8H9.48v-.8A2.38,2.38,0,0,1,11.85,2.4ZM30.08,14.71v11a1.85,1.85,0,0,1-1.84,1.84H3.76a1.85,1.85,0,0,1-1.84-1.84v-11c.49.28,1.08.58,1.73.9v9.6a.8.8,0,0,0,.8.8H27.56a.8.8,0,0,0,.8-.8v-9.6c.66-.31,1.25-.61,1.73-.9Zm-16.6,1.64a.2.2,0,0,0-.2.2v3.36a.2.2,0,0,0,.2.2h5a.2.2,0,0,0,.2-.2V16.55a.2.2,0,0,0-.2-.2Zm16.6-7.62c0-1.13-.57-2.13-1.84-2.13H3.76c-1.27,0-1.84,1-1.84,2.13V13a70.56,70.56,0,0,0,10.4,4.31V15.74a.38.38,0,0,1,.38-.38H19.3a.38.38,0,0,1,.38.38v1.59A70.67,70.67,0,0,0,30.08,13Z"/></svg>