<svg id="Layer_1" data-name="Layer 1" xmlns="http://www.w3.org/2000/svg" xmlns:xlink="http://www.w3.org/1999/xlink" viewBox="0 0 170 88"><defs><style>.cls-1{fill:#c94726;}.cls-2{fill:#00467f;}.cls-3{fill-rule:evenodd;fill:url(#linear-gradient);}</style><linearGradient id="linear-gradient" x1="71.04" y1="87.24" x2="71.04" y2="0.65" gradientUnits="userSpaceOnUse"><stop offset="0" stop-color="#00467f"/><stop offset="0.27" stop-color="#235f90"/><stop offset="0.84" stop-color="#789dbb"/><stop offset="1" stop-color="#7fa2bf"/></linearGradient></defs><title>Check_out_BRFSS_OFF</title><path class="cls-1" d="M146,34.47a2,2,0,0,1-.79.32,5.23,5.23,0,0,1-1,.09,3.6,3.6,0,0,1-1.15-.18,2.58,2.58,0,0,1-1-.61,3.14,3.14,0,0,1-.66-1.09,4.75,4.75,0,0,1-.24-1.61,4.44,4.44,0,0,1,.27-1.66,3,3,0,0,1,.71-1.08,2.68,2.68,0,0,1,1-.59,3.69,3.69,0,0,1,1.08-.17,5.43,5.43,0,0,1,1,.07,3.33,3.33,0,0,1,.66.19l-.26,1.11a1.87,1.87,0,0,0-.52-.15,5.17,5.17,0,0,0-.74-.05,1.59,1.59,0,0,0-1.28.57,2.62,2.62,0,0,0-.49,1.76,3.53,3.53,0,0,0,.12,1,1.84,1.84,0,0,0,.35.73,1.57,1.57,0,0,0,.58.47,1.8,1.8,0,0,0,.82.17,3,3,0,0,0,.73-.08,2.27,2.27,0,0,0,.52-.23Z"/><path class="cls-1" d="M150.63,31.93h-2.46v2.82h-1.32V28h1.32v2.74h2.46V28H152v6.73h-1.32Z"/><path class="cls-1" d="M153.11,28h4v1.17h-2.67v1.57h2.43v1.17h-2.43v1.65h2.72v1.17h-4Z"/><path class="cls-1" d="M162.68,34.47a1.86,1.86,0,0,1-.78.32,5.25,5.25,0,0,1-1,.09,3.58,3.58,0,0,1-1.14-.18,2.58,2.58,0,0,1-1-.61,3,3,0,0,1-.66-1.09,4.75,4.75,0,0,1-.24-1.61,4.44,4.44,0,0,1,.27-1.66,3,3,0,0,1,.71-1.08,2.68,2.68,0,0,1,1-.59,3.62,3.62,0,0,1,1.07-.17,5.48,5.48,0,0,1,1,.07,3.33,3.33,0,0,1,.66.19l-.26,1.11a1.87,1.87,0,0,0-.52-.15,5.17,5.17,0,0,0-.74-.05,1.59,1.59,0,0,0-1.28.57,2.62,2.62,0,0,0-.49,1.76,3.53,3.53,0,0,0,.12,1,1.84,1.84,0,0,0,.35.73,1.57,1.57,0,0,0,.58.47,1.8,1.8,0,0,0,.82.17,3.07,3.07,0,0,0,.73-.08,2.48,2.48,0,0,0,.52-.23Z"/><path class="cls-1" d="M165.17,31.88h-.35v2.87H163.5V28h1.32v3l.31-.13L167,28h1.5l-2,2.83-.52.36.54.38,2.24,3.16h-1.63Z"/><path class="cls-1" d="M132.6,42.92a4,4,0,0,1,.74-2.59,2.55,2.55,0,0,1,2.11-.91,2.92,2.92,0,0,1,1.26.25,2.3,2.3,0,0,1,.89.71,3,3,0,0,1,.53,1.11,5.33,5.33,0,0,1,.18,1.43,4,4,0,0,1-.75,2.59,2.55,2.55,0,0,1-2.11.91,2.94,2.94,0,0,1-1.27-.25,2.38,2.38,0,0,1-.89-.71,3.35,3.35,0,0,1-.52-1.11A5.29,5.29,0,0,1,132.6,42.92Zm1.38,0a4.62,4.62,0,0,0,.09.94,2.41,2.41,0,0,0,.26.73,1.25,1.25,0,0,0,.46.48,1.19,1.19,0,0,0,.66.18,1.27,1.27,0,0,0,1.09-.55,3.25,3.25,0,0,0,.38-1.78,4.34,4.34,0,0,0-.08-.91,2.58,2.58,0,0,0-.25-.74,1.39,1.39,0,0,0-.46-.5,1.33,1.33,0,0,0-1.76.39A3.12,3.12,0,0,0,134,42.92Z"/><path class="cls-1" d="M142.9,39.56h1.25V43.9A3.34,3.34,0,0,1,144,45a2.15,2.15,0,0,1-.48.78,1.93,1.93,0,0,1-.75.46,3.34,3.34,0,0,1-1,.14c-1.71,0-2.56-.78-2.56-2.34v-4.5h1.32V43.8a2.55,2.55,0,0,0,.07.67,1,1,0,0,0,.22.44.8.8,0,0,0,.39.24,1.71,1.71,0,0,0,.54.08,1.06,1.06,0,0,0,.87-.34,1.74,1.74,0,0,0,.27-1.09Z"/><path class="cls-1" d="M150.05,40.73h-2v5.55h-1.31V40.73h-2V39.56h5.24Z"/><path class="cls-1" d="M157.22,40.73h-2v5.55h-1.31V40.73h-2V39.56h5.25Z"/><path class="cls-1" d="M161.67,43.47h-2.46v2.81H157.9V39.56h1.31V42.3h2.46V39.56H163v6.72h-1.32Z"/><path class="cls-1" d="M164.16,39.56h4v1.17h-2.67V42.3h2.43v1.17h-2.43v1.64h2.72v1.17h-4Z"/><path class="cls-2" d="M141.3,53.93a2.46,2.46,0,0,1-.07.6,1.53,1.53,0,0,1-.25.55,1.58,1.58,0,0,1-.45.44,1.86,1.86,0,0,1-.67.28v.07a3,3,0,0,1,.66.2,1.6,1.6,0,0,1,.54.38,1.54,1.54,0,0,1,.36.59,2.23,2.23,0,0,1,.14.82,2.11,2.11,0,0,1-1,1.82,3.16,3.16,0,0,1-1,.42,4.44,4.44,0,0,1-1.16.14h-1.16l-.72-.06a4.17,4.17,0,0,1-.66-.1v-8l.5-.07L137,52l.66,0h.68a8,8,0,0,1,1.1.08,3.18,3.18,0,0,1,1,.31,1.67,1.67,0,0,1,.92,1.6Zm-3.4,1.51h.38a2.86,2.86,0,0,0,.35,0,2.1,2.1,0,0,0,.75-.41,1,1,0,0,0,.2-1.21.81.81,0,0,0-.3-.31,1.23,1.23,0,0,0-.43-.16,2.76,2.76,0,0,0-.51-.05l-.55,0a2.1,2.1,0,0,0-.4,0v2.13Zm.52,3.48a2.6,2.6,0,0,0,.56-.07,1.75,1.75,0,0,0,.48-.21,1.13,1.13,0,0,0,.33-.36,1,1,0,0,0,.13-.52,1,1,0,0,0-.15-.59,1,1,0,0,0-.39-.34,1.54,1.54,0,0,0-.55-.15,5.65,5.65,0,0,0-.59,0h-.85v2.21l.19,0,.27,0h.57Z"/><path class="cls-2" d="M143.08,52.13l.57-.08.61-.07.6,0h.53a5.88,5.88,0,0,1,1.11.1,3,3,0,0,1,1,.36,1.86,1.86,0,0,1,.69.7,2.07,2.07,0,0,1,.26,1.11,2.61,2.61,0,0,1-.46,1.61,2.37,2.37,0,0,1-1.23.87l.56.36,1.85,3.08h-1.82L145.49,57l-.83-.15v3.31h-1.58Zm2.42,1.21-.48,0a1.63,1.63,0,0,0-.36,0v2.34h.67a1.68,1.68,0,0,0,1-.3,1.17,1.17,0,0,0,.39-1,1.05,1.05,0,0,0-.32-.81A1.35,1.35,0,0,0,145.5,53.34Z"/><path class="cls-2" d="M150.42,52.05h4.78v1.41H152v2H155v1.4H152v3.27h-1.58Z"/><path class="cls-2" d="M160.15,58a.74.74,0,0,0-.27-.6,2.93,2.93,0,0,0-.68-.42c-.27-.13-.57-.26-.89-.39a4.84,4.84,0,0,1-.89-.5,2.63,2.63,0,0,1-.68-.73,2.14,2.14,0,0,1-.27-1.12,2.47,2.47,0,0,1,.2-1,1.9,1.9,0,0,1,.56-.72,2.25,2.25,0,0,1,.86-.43,4.19,4.19,0,0,1,1.1-.14,7,7,0,0,1,1.33.12,3.44,3.44,0,0,1,1,.35l-.5,1.33a2.46,2.46,0,0,0-.76-.29,4.25,4.25,0,0,0-1.1-.14,1.42,1.42,0,0,0-.84.22.71.71,0,0,0-.3.59.74.74,0,0,0,.27.58,3.31,3.31,0,0,0,.68.42c.28.14.57.27.89.41a4.54,4.54,0,0,1,.89.5,2.63,2.63,0,0,1,.68.73,2,2,0,0,1,.27,1.08,2.68,2.68,0,0,1-.21,1.11,2.1,2.1,0,0,1-.6.78,2.54,2.54,0,0,1-.93.46,4.61,4.61,0,0,1-1.21.15,6.82,6.82,0,0,1-1.52-.16,4.62,4.62,0,0,1-1-.33l.51-1.35a3.15,3.15,0,0,0,.32.16,4.21,4.21,0,0,0,.46.14,4.28,4.28,0,0,0,.54.12,3.58,3.58,0,0,0,.58.05,2,2,0,0,0,1.08-.24A.79.79,0,0,0,160.15,58Z"/><path class="cls-2" d="M166.66,58a.74.74,0,0,0-.27-.6,2.93,2.93,0,0,0-.68-.42c-.28-.13-.57-.26-.89-.39a4.54,4.54,0,0,1-.89-.5,2.63,2.63,0,0,1-.68-.73A2.14,2.14,0,0,1,163,54.2a2.48,2.48,0,0,1,.19-1,2,2,0,0,1,.56-.72,2.32,2.32,0,0,1,.86-.43,4.21,4.21,0,0,1,1.11-.14A7.07,7.07,0,0,1,167,52a3.47,3.47,0,0,1,1,.35l-.49,1.33a2.57,2.57,0,0,0-.76-.29,4.3,4.3,0,0,0-1.1-.14,1.46,1.46,0,0,0-.85.22.72.72,0,0,0-.29.59.74.74,0,0,0,.27.58,3.31,3.31,0,0,0,.68.42c.27.14.57.27.89.41a4.84,4.84,0,0,1,.89.5,2.63,2.63,0,0,1,.68.73,2,2,0,0,1,.27,1.08A2.68,2.68,0,0,1,168,58.9a2.23,2.23,0,0,1-.61.78,2.39,2.39,0,0,1-.93.46,4.53,4.53,0,0,1-1.2.15,6.91,6.91,0,0,1-1.53-.16,4.84,4.84,0,0,1-1-.33l.51-1.35.33.16a3.63,3.63,0,0,0,.46.14,3.77,3.77,0,0,0,.53.12,3.68,3.68,0,0,0,.58.05,2,2,0,0,0,1.08-.24A.8.8,0,0,0,166.66,58Z"/><path class="cls-2" d="M135.46,65.9a4,4,0,0,1,.54-.06l.63,0h1.18a5,5,0,0,1,1.83.3,3.17,3.17,0,0,1,1.24.84,3.48,3.48,0,0,1,.69,1.29,5.73,5.73,0,0,1,.22,1.65,5.85,5.85,0,0,1-.21,1.58,3.61,3.61,0,0,1-.69,1.35,3.38,3.38,0,0,1-1.28.95,4.65,4.65,0,0,1-2,.36h-.49l-.64,0-.62,0a3.52,3.52,0,0,1-.45,0Zm2.48,1.29h-.52l-.38,0v5.41l.15,0h.65a2.35,2.35,0,0,0,1.12-.24,1.78,1.78,0,0,0,.7-.63,2.58,2.58,0,0,0,.36-.9,5.11,5.11,0,0,0,0-2,2.51,2.51,0,0,0-.35-.86,1.91,1.91,0,0,0-.67-.62A2.19,2.19,0,0,0,137.94,67.19Z"/><path class="cls-2" d="M142.92,65.9h4.79v1.4H144.5v1.88h2.92v1.41H144.5v2h3.26V74h-4.84Z"/><path class="cls-2" d="M155.2,69.78l.18-1.6h-.07l-.5,1.29-1.72,3h-.51l-1.81-3-.5-1.28h-.06l.23,1.59V74h-1.5V65.9h1.44l2.16,3.69.38.92H153l.34-1,2-3.66h1.43V74H155.2Z"/><path class="cls-2" d="M157.92,69.93a4.84,4.84,0,0,1,.88-3.11,3.12,3.12,0,0,1,2.54-1.09,3.54,3.54,0,0,1,1.51.3,2.82,2.82,0,0,1,1.07.86,3.69,3.69,0,0,1,.64,1.32,6.59,6.59,0,0,1,.21,1.72,4.76,4.76,0,0,1-.9,3.11,3.07,3.07,0,0,1-2.53,1.09,3.58,3.58,0,0,1-1.52-.3,2.79,2.79,0,0,1-1.07-.85,3.82,3.82,0,0,1-.63-1.33A6.55,6.55,0,0,1,157.92,69.93Zm1.66,0a5.66,5.66,0,0,0,.1,1.13,2.77,2.77,0,0,0,.32.88,1.42,1.42,0,0,0,1.34.78,1.48,1.48,0,0,0,1.3-.65,3.79,3.79,0,0,0,.47-2.14,6.22,6.22,0,0,0-.1-1.09,3.1,3.1,0,0,0-.31-.89,1.55,1.55,0,0,0-.54-.59,1.44,1.44,0,0,0-.82-.22,1.48,1.48,0,0,0-1.3.68A3.77,3.77,0,0,0,159.58,69.93Z"/><path class="cls-2" d="M166.2,73.21a.83.83,0,0,1,.25-.64.93.93,0,0,1,.67-.24,1,1,0,0,1,.69.24.84.84,0,0,1,.26.64.87.87,0,0,1-.26.65,1,1,0,0,1-.69.24.93.93,0,0,1-.67-.24A.87.87,0,0,1,166.2,73.21Zm.16-7.31h1.54v3.79l-.3,1.88h-.94l-.3-1.88Z"/><path class="cls-3" d="M140.33,11.39c-.5-.07-.62.35-1,0,.13-.54-.24-.6-.16-1.1-.42,0-.9.06-1.1-.16-.27-1.69-.94-3-1.27-4.58-.62,0-.92-.35-1.42-.48a3.2,3.2,0,0,1-1.27.95c-.44,0-.19-.75-.79-.63-.62,1.53-1.72,3.94-.94,5.85a3.72,3.72,0,0,0-.79,2.37c-.57-.13-.77.35-1.11,0-.16.47-.12,1.14-.63,1.26-1.64.29-3.47,1-5.22,1.42a7.34,7.34,0,0,0-2.37.48c-.76.49-1,1.61-1.58,2.37-.38.52-1.16.6-.94,1.42.73.25.59,1.1.63,1.58-1.49,2.15-4.27,1.1-6.64,2.21,0,.75.52,1.06.79,1.58-2,2.76-5,4.61-8.21,6.16-.51-.65-2.09-.23-2.37-1.1.82-.79.66-2.94,1.89-2.85-.15-2.06-.42-4-1.74-4.9-1,.13-.89,1.43-1.73,1.74-.63.11-.46-.6-.48-1.1,1.81-.47.6-3.26.95-4.11-.42.05-.41-.33-.47-.63-1.71,0-3.16-1.9-4.11-.16-.14.51.52.22.47.63-.55-.12-.67.18-1,.32-.12,1,.43,1.61-.47,1.73-.24-.75.67-1.35,0-1.58-1.45,1.59-1.53,3.28-1.74,6,1.76,1.7,1.24,6-1.1,6.64-3.31-3-1.46-9.1-.64-12.49-.64.78-1.3,2.38-2.05,2.53.53-1.52,1.49-2.61,1.9-4.27,1.35.35,2.12-.67,3.79-1.1a11.07,11.07,0,0,0,3.63-.16c-.71-.13-.91-.78-.79-1.74-.84,0-1.47.66-2.21.32v-1c-2.3.26-3.49,1.74-5.53,1.42-.27-1.28-2.08-1.54-2.53-.95.24-1,1.07-1.46,1.58-2.21-1.56,0-2.11,1-2.84,1.9a32.58,32.58,0,0,0-3.32,1.74c-.17-.6-.94,0-1.11-.32.14-.33.48-.47.48-.95-.81-.3-1.85,1.28-3,.63,1.16-.63,1.63-2.07,2.69-2.84.89-.65,2.19-.52,2.84-1.58-.93-.18-2.41-.06-3-.63-.81.84-2.47.75-2.68-.32-1.36.42-2.51-1.52-3.8-.31a4.91,4.91,0,0,0-2-.64c-.69-.47,0-2.27-1.26-2.21-.37.17.07,1.13-.32,1.27-23.4.43-43.16-3.62-61-8.22.73,1.16.07,2.56.32,3.48-.76-.6-.38-1.1-.32-1.58-.64-.11-.39.66-.95.63-1.62-.27-2.52-1.28-3.79-1.9C8.44,2.75,8.3,5.22,9,6.34a.86.86,0,0,0-.63.16c-.17.59.39.45.32.94-.66.42-.89,1.23-.16,1.58-.51-.13-.33.41-.63.48a30.08,30.08,0,0,1-4.43,9.64,9,9,0,0,1-.31,2.37C4.12,24,2,25.88,1.28,27.67c1.78,1.13.13,3.21.32,4.74.08.66,1.21,1.66,1.26,2.69A2.11,2.11,0,0,0,3.65,37a2.78,2.78,0,0,0,.95,3.64c-.09.54-.73.53-.79,1.1.06,2.08,2.08,3.73,2.21,5.53.06.84-.76,1.44-.16,2.21,2.77-.07,3.07,2.31,5.06,3,.09.5-.3.48,0,.79,1.84.42,2.49,2,2.37,4.42a25.7,25.7,0,0,0,5.17.86V30.84H37.34V66.33l.44,0a4.39,4.39,0,0,1,.32-1.58c.86.14,1.72.29,2.6.41V41.12H59.58V77.84c.06.23.12.46.16.71,1.14.6,1.43,2,2.53,2.68a3.52,3.52,0,0,0,.67,3V21.46H81.82v52.6c1.24.15,2.43.37,3.36.38-.09-.89-1.05,0-1.26-.63,1-.92,1.78.62,2.68.79,0,.3-.17.35-.15.63a4.29,4.29,0,0,0,1.73.63c.4-.29.6-.77,1.27-.79.52.32-.39.68,0,.79,1.25-.39.28-1.2,1.26-1.58.24.75,2.37,1.75,2.53.63-.44-.61-1.75-.35-2-1.1.49-.42,1.12-.56.79-1.74-.7-.07-.39.87-1.27.63.71-1.88,2.35-1.64,4.59-1.74.31-.27,0-1.1.63-1.1.33.26.76,1.15.16,1.42,2.61-.85,6.41-1.55,7.74,1,1.4-.12,2.67-.7,2.84-1.58,2.71-.29,2.53,2.31,4.74,2.52,1.33,1.08-.18,4,1.11,5.06.39-.44-.12-1.06,0-1.1s.58-.06.63.15c.07.75-.6.78-.63,1.42a13.59,13.59,0,0,1,2,3.17c.45.13.41-.23.79-.16.32.52.49,1.19.79,1.74,1.39-.32,2,1.19,2.37,2.37.6-.2,1.64-.79,2.06-.64-.21.95-1.8,1.37-1.74,2.06a5,5,0,0,0,2.37-3.32c-.56-.25-.1.54-.48.47,1.2-4.14-1.08-7-2.52-9.48,0-.31.43-.2.31-.63-2.39-2.14-4.91-6.43-3.47-10.59.33-1,1.4-1.5,1.42-2.52,1.5-.5,1.89-2.11,3.16-2.85-.09-2.09,1.05-3,2.84-3.16-.14-3.13,3.86-2.53,4-4.58-.12.28-1.37.47-1.58,0,.66.53,1.1-.85.48-1.11a1.6,1.6,0,0,0,2.21-1.26c-.25-.43-1,.37-1.27-.16.57,0,.95-.1,1.11-.47l-.08-.24.24.08a24.22,24.22,0,0,1-1.74-3.32,2.6,2.6,0,0,0-1,.08c.63-.52-.72-1.13-.42-1.5.16,0,.19.13.31.16a2.87,2.87,0,0,0-1.26-2.53c.43.11.31-.33.47-.47-1.09-.71-1.26-3.64-.15-3.8-.72.66.45,1.45-.32,2.22.71,0,.26.22.32,1.1.84.06.66,1.12,1.26,1.42.23-.56-.51-.94-.16-1.1,1.66.58-.3,2.89,1,3.79.31-2,1.78-3.95.95-6.16-1.11-.32-1.27-1.58-1.9-2.37A2.41,2.41,0,0,0,126.9,36c.06.38-.29.35-.16.79a5.84,5.84,0,0,0,1.58-5.53c-.19-.39-.6.33-.79-.15.32,0,.31-.43.63-.48l-.08-.43.24-.36c1.11-2.25,4.37-2.37,6.32-3.79.2-.48-.08-.79.63-.95.09.51-.05.8-.32.95.72-.39,1.07-1.15,2.06-1.27,0-.81-.25-1.44-1.11-1.42.08.51.81.35.79,1-1.36,1.21-1.64-1.47-2.68-1.11a18.07,18.07,0,0,1,.63-5.37c.88.15,1.47-.81,2.21-1.26.12-.55-.17-1.5,0-1.58.19.23.66.18.63.63-.37.24-.58.24-.31.79.79-.19.42-1.27,1-1.74-.05.42-.06.79.47.63.3-.93-.19-.44-.32-.94C139.46,15,141.79,12.58,140.33,11.39Z"/></svg>