<svg id="Layer_1" data-name="Layer 1" xmlns="http://www.w3.org/2000/svg" xmlns:xlink="http://www.w3.org/1999/xlink" viewBox="0 0 170 88"><defs><style>.cls-1{fill:#c94726;}.cls-2{fill:#00467f;}.cls-3{fill-rule:evenodd;fill:url(#linear-gradient);}</style><linearGradient id="linear-gradient" x1="70.98" y1="87.29" x2="70.98" y2="0.71" gradientUnits="userSpaceOnUse"><stop offset="0.29" stop-color="#c94726"/><stop offset="0.49" stop-color="#d16549"/><stop offset="0.84" stop-color="#e29e8c"/><stop offset="1" stop-color="#e4a392"/></linearGradient></defs><title>Check_out_BRFSS_HOVER</title><path class="cls-1" d="M146,34.53a2.11,2.11,0,0,1-.79.32,5.23,5.23,0,0,1-1,.09,3.34,3.34,0,0,1-1.15-.19,2.43,2.43,0,0,1-1-.6,3.14,3.14,0,0,1-.66-1.09,4.77,4.77,0,0,1-.24-1.62,4.47,4.47,0,0,1,.27-1.66,3,3,0,0,1,.71-1.07,2.55,2.55,0,0,1,1-.59,3.4,3.4,0,0,1,1.08-.18,5.34,5.34,0,0,1,1,.08,3.4,3.4,0,0,1,.66.18l-.26,1.12a2.28,2.28,0,0,0-.52-.16,5.31,5.31,0,0,0-.74,0,1.62,1.62,0,0,0-1.28.56,2.65,2.65,0,0,0-.49,1.77,3.58,3.58,0,0,0,.12.95,1.91,1.91,0,0,0,.35.73,1.57,1.57,0,0,0,.58.47,1.94,1.94,0,0,0,.82.17,2.55,2.55,0,0,0,.73-.09,2.26,2.26,0,0,0,.52-.22Z"/><path class="cls-1" d="M150.63,32h-2.46v2.82h-1.32V28.08h1.32v2.74h2.46V28.08H152v6.73h-1.32Z"/><path class="cls-1" d="M153.11,28.08h4v1.17h-2.67v1.57h2.43V32h-2.43v1.64h2.72v1.18h-4Z"/><path class="cls-1" d="M162.68,34.53a2,2,0,0,1-.78.32,5.25,5.25,0,0,1-1,.09,3.33,3.33,0,0,1-1.14-.19,2.36,2.36,0,0,1-1-.6,3,3,0,0,1-.66-1.09,4.77,4.77,0,0,1-.24-1.62,4.47,4.47,0,0,1,.27-1.66,3,3,0,0,1,.71-1.07,2.55,2.55,0,0,1,1-.59,3.34,3.34,0,0,1,1.07-.18,5.38,5.38,0,0,1,1,.08,3.61,3.61,0,0,1,.66.18l-.26,1.12a2.28,2.28,0,0,0-.52-.16,5.31,5.31,0,0,0-.74,0,1.62,1.62,0,0,0-1.28.56,2.65,2.65,0,0,0-.49,1.77,3.58,3.58,0,0,0,.12.95,1.91,1.91,0,0,0,.35.73,1.57,1.57,0,0,0,.58.47,1.92,1.92,0,0,0,.81.17,2.63,2.63,0,0,0,.74-.09,2.18,2.18,0,0,0,.51-.22Z"/><path class="cls-1" d="M165.16,31.93h-.34v2.88H163.5V28.08h1.32v3l.31-.14L167,28.08h1.5l-2,2.82-.52.37.54.37,2.24,3.17h-1.63Z"/><path class="cls-1" d="M132.6,43a4,4,0,0,1,.74-2.59,2.55,2.55,0,0,1,2.11-.91,2.92,2.92,0,0,1,1.26.25,2.22,2.22,0,0,1,.89.71,3,3,0,0,1,.53,1.1,5.35,5.35,0,0,1,.18,1.44,4,4,0,0,1-.75,2.59,2.58,2.58,0,0,1-2.11.91,3.09,3.09,0,0,1-1.27-.25,2.4,2.4,0,0,1-.89-.72,3.21,3.21,0,0,1-.52-1.1A5.34,5.34,0,0,1,132.6,43ZM134,43a4.45,4.45,0,0,0,.09.93,2.23,2.23,0,0,0,.26.74,1.41,1.41,0,0,0,.46.48,1.18,1.18,0,0,0,.66.17,1.26,1.26,0,0,0,1.09-.54,3.25,3.25,0,0,0,.38-1.78,4.5,4.5,0,0,0-.08-.92,2.58,2.58,0,0,0-.25-.74,1.36,1.36,0,0,0-.46-.49,1.21,1.21,0,0,0-.68-.18,1.23,1.23,0,0,0-1.08.56A3.18,3.18,0,0,0,134,43Z"/><path class="cls-1" d="M142.9,39.61h1.25V44a3.38,3.38,0,0,1-.17,1.12,2.15,2.15,0,0,1-.48.78,1.8,1.8,0,0,1-.75.45,3,3,0,0,1-1,.15c-1.71,0-2.56-.78-2.56-2.34V39.61h1.32v4.25a2.6,2.6,0,0,0,.07.67,1.07,1.07,0,0,0,.22.44,1,1,0,0,0,.39.24,1.73,1.73,0,0,0,.54.07,1.06,1.06,0,0,0,.87-.33,1.76,1.76,0,0,0,.27-1.09Z"/><path class="cls-1" d="M150.05,40.78h-2v5.56h-1.31V40.78h-2V39.61h5.24Z"/><path class="cls-1" d="M157.22,40.78h-2v5.56h-1.31V40.78h-2V39.61h5.25Z"/><path class="cls-1" d="M161.67,43.53h-2.46v2.81H157.9V39.61h1.31v2.74h2.46V39.61H163v6.73h-1.32Z"/><path class="cls-1" d="M164.16,39.61h4v1.17h-2.67v1.57h2.43v1.18h-2.43v1.64h2.72v1.17h-4Z"/><path class="cls-2" d="M141.3,54a2.46,2.46,0,0,1-.07.6,1.61,1.61,0,0,1-.25.55,1.84,1.84,0,0,1-.44.44,2.15,2.15,0,0,1-.67.28v.07a2.72,2.72,0,0,1,.65.19,1.63,1.63,0,0,1,.54.39,1.65,1.65,0,0,1,.37.58,2.52,2.52,0,0,1,.13.82,2.06,2.06,0,0,1-.27,1.08,2.09,2.09,0,0,1-.71.74,3,3,0,0,1-1,.43,4.91,4.91,0,0,1-1.16.14h-.5l-.66,0-.72-.05a5.76,5.76,0,0,1-.66-.1v-8l.5-.07L137,52q.32,0,.66,0l.68,0a6.71,6.71,0,0,1,1.1.09,3.18,3.18,0,0,1,1,.31,1.71,1.71,0,0,1,.67.61A1.77,1.77,0,0,1,141.3,54Zm-3.38,1.51h.38l.35,0a2.25,2.25,0,0,0,.76-.42.89.89,0,0,0,.31-.71,1,1,0,0,0-.11-.49.77.77,0,0,0-.31-.31,1.16,1.16,0,0,0-.43-.16,2.76,2.76,0,0,0-.51,0h-.55a2.77,2.77,0,0,0-.39,0V55.5Zm.5,3.47a2.44,2.44,0,0,0,.55-.06,1.36,1.36,0,0,0,.47-.22,1,1,0,0,0,.33-.36,1.15,1.15,0,0,0,0-1.1,1,1,0,0,0-.39-.34,1.43,1.43,0,0,0-.53-.15,3.81,3.81,0,0,0-.59,0h-.82v2.21l.18,0,.26,0h.56Z"/><path class="cls-2" d="M143.08,52.19l.57-.09.61-.06.6,0,.53,0a5.88,5.88,0,0,1,1.11.11,3,3,0,0,1,1,.36,1.83,1.83,0,0,1,.69.69,2.14,2.14,0,0,1,.26,1.12,2.61,2.61,0,0,1-.46,1.61,2.37,2.37,0,0,1-1.23.87l.56.35,1.85,3.08h-1.82L145.49,57l-.83-.15v3.31h-1.58Zm2.42,1.21H145a2.39,2.39,0,0,0-.36.05V55.8h.67a1.68,1.68,0,0,0,1-.3,1.17,1.17,0,0,0,.39-1,1,1,0,0,0-.32-.81A1.35,1.35,0,0,0,145.5,53.4Z"/><path class="cls-2" d="M150.42,52.11h4.78v1.41H152v2H155v1.41H152v3.26h-1.58Z"/><path class="cls-2" d="M160.15,58a.74.74,0,0,0-.27-.59,2.63,2.63,0,0,0-.68-.42l-.89-.4a4.8,4.8,0,0,1-.89-.49,2.54,2.54,0,0,1-.68-.74,2.07,2.07,0,0,1-.27-1.11,2.49,2.49,0,0,1,.2-1,2.07,2.07,0,0,1,.56-.72,2.38,2.38,0,0,1,.86-.42,3.81,3.81,0,0,1,1.1-.14,7,7,0,0,1,1.33.12,3.44,3.44,0,0,1,1,.35l-.5,1.33a2.71,2.71,0,0,0-.76-.3,4.25,4.25,0,0,0-1.1-.13,1.36,1.36,0,0,0-.84.22.7.7,0,0,0-.3.59.71.71,0,0,0,.27.57,2.94,2.94,0,0,0,.68.43l.89.41a4.08,4.08,0,0,1,.89.5,2.59,2.59,0,0,1,.68.72,2,2,0,0,1,.27,1.08,2.76,2.76,0,0,1-.21,1.12,2,2,0,0,1-.6.77,2.55,2.55,0,0,1-.93.47,4.62,4.62,0,0,1-1.21.14,6.28,6.28,0,0,1-1.52-.16,4.17,4.17,0,0,1-1-.32l.51-1.35a2,2,0,0,0,.32.15,4.15,4.15,0,0,0,.46.15,4.28,4.28,0,0,0,.54.12,3.6,3.6,0,0,0,.58,0,2.12,2.12,0,0,0,1.08-.23A.8.8,0,0,0,160.15,58Z"/><path class="cls-2" d="M166.66,58a.74.74,0,0,0-.27-.59,2.63,2.63,0,0,0-.68-.42l-.89-.4a4.5,4.5,0,0,1-.89-.49,2.54,2.54,0,0,1-.68-.74,2.07,2.07,0,0,1-.27-1.11,2.49,2.49,0,0,1,.19-1,2.19,2.19,0,0,1,.56-.72,2.47,2.47,0,0,1,.86-.42A3.83,3.83,0,0,1,165.7,52a7.07,7.07,0,0,1,1.33.12,3.47,3.47,0,0,1,1,.35l-.49,1.33a2.84,2.84,0,0,0-.76-.3,4.31,4.31,0,0,0-1.1-.13,1.39,1.39,0,0,0-.85.22.74.74,0,0,0,0,1.16,2.94,2.94,0,0,0,.68.43l.89.41a4.32,4.32,0,0,1,.89.5,2.59,2.59,0,0,1,.68.72,2,2,0,0,1,.27,1.08A2.76,2.76,0,0,1,168,59a2.11,2.11,0,0,1-.61.77,2.4,2.4,0,0,1-.93.47,4.54,4.54,0,0,1-1.2.14,6.36,6.36,0,0,1-1.53-.16,4.35,4.35,0,0,1-1-.32l.51-1.35.33.15a3.56,3.56,0,0,0,.46.15,3.77,3.77,0,0,0,.53.12,3.69,3.69,0,0,0,.58,0,2.12,2.12,0,0,0,1.08-.23A.81.81,0,0,0,166.66,58Z"/><path class="cls-2" d="M135.46,66l.54-.06.63,0,.63,0h.55a5,5,0,0,1,1.83.3,3.17,3.17,0,0,1,1.24.84,3.48,3.48,0,0,1,.69,1.29,5.73,5.73,0,0,1,.22,1.65,5.91,5.91,0,0,1-.21,1.58,3.61,3.61,0,0,1-.69,1.35,3.49,3.49,0,0,1-1.28,1,4.82,4.82,0,0,1-2,.35h-.49l-.64,0-.62,0-.45,0Zm2.48,1.29-.52,0a1.74,1.74,0,0,0-.38,0V72.7l.15,0h.65a2.35,2.35,0,0,0,1.12-.24,1.94,1.94,0,0,0,.7-.63A2.58,2.58,0,0,0,140,71a5.37,5.37,0,0,0,.11-1.06,5.09,5.09,0,0,0-.09-1,2.44,2.44,0,0,0-.35-.86,1.82,1.82,0,0,0-.67-.62A2.18,2.18,0,0,0,137.94,67.24Z"/><path class="cls-2" d="M142.92,66h4.79v1.41H144.5v1.88h2.92v1.41H144.5v2h3.26V74h-4.84Z"/><path class="cls-2" d="M155.2,69.84l.18-1.6h-.07l-.5,1.29-1.72,3h-.51l-1.81-3-.5-1.28h-.06l.23,1.59V74h-1.5V66h1.44l2.16,3.69.38.93H153l.34-.95,2-3.67h1.43V74H155.2Z"/><path class="cls-2" d="M157.91,70a4.82,4.82,0,0,1,.89-3.11,3.09,3.09,0,0,1,2.54-1.09,3.54,3.54,0,0,1,1.51.3,2.89,2.89,0,0,1,1.07.85,3.74,3.74,0,0,1,.64,1.33,6.59,6.59,0,0,1,.21,1.72,4.76,4.76,0,0,1-.9,3.11,3.07,3.07,0,0,1-2.53,1.09,3.58,3.58,0,0,1-1.52-.3,2.82,2.82,0,0,1-1.07-.86,3.76,3.76,0,0,1-.63-1.32A6.59,6.59,0,0,1,157.91,70Zm1.67,0a5.55,5.55,0,0,0,.1,1.12A2.75,2.75,0,0,0,160,72a1.64,1.64,0,0,0,.54.57,1.62,1.62,0,0,0,2.1-.45,3.77,3.77,0,0,0,.47-2.13,6.33,6.33,0,0,0-.1-1.1,3.15,3.15,0,0,0-.31-.88,1.58,1.58,0,0,0-.54-.6,1.51,1.51,0,0,0-.82-.21,1.47,1.47,0,0,0-1.3.67A3.81,3.81,0,0,0,159.58,70Z"/><path class="cls-2" d="M166.2,73.26a.81.81,0,0,1,.25-.63.93.93,0,0,1,.67-.24,1,1,0,0,1,.69.24.81.81,0,0,1,.26.63.86.86,0,0,1-.26.65,1,1,0,0,1-.69.24.93.93,0,0,1-.67-.24A.85.85,0,0,1,166.2,73.26Zm.16-7.31h1.54v3.8l-.3,1.88h-.94l-.3-1.88Z"/><path class="cls-3" d="M140.27,11.45c-.5-.08-.62.35-1,0,.13-.55-.24-.61-.16-1.11-.42,0-.9.06-1.1-.15-.27-1.69-.94-3-1.27-4.59-.62,0-.92-.34-1.42-.47a3.34,3.34,0,0,1-1.26,1c-.45,0-.2-.75-.8-.63-.62,1.52-1.72,3.93-.94,5.84a3.76,3.76,0,0,0-.79,2.37c-.57-.13-.77.36-1.11,0-.16.48-.12,1.15-.63,1.27-1.64.29-3.47,1-5.22,1.42a7.62,7.62,0,0,0-2.37.47c-.76.49-1,1.62-1.58,2.37-.38.53-1.16.61-.94,1.43.73.25.59,1.09.63,1.58-1.49,2.14-4.27,1.1-6.64,2.21,0,.74.52,1.06.79,1.58a21.14,21.14,0,0,1-8.21,6.16c-.51-.66-2.09-.23-2.37-1.11.82-.78.66-2.94,1.89-2.84-.15-2.06-.42-4-1.74-4.9-1,.12-.89,1.42-1.73,1.74-.63.1-.46-.6-.48-1.11,1.81-.46.6-3.26.95-4.11-.42.05-.41-.32-.47-.63-1.71,0-3.16-1.89-4.11-.16-.14.51.52.22.47.64-.54-.13-.67.17-.95.31-.12,1,.43,1.61-.47,1.74-.24-.76.67-1.35,0-1.58-1.45,1.59-1.53,3.28-1.74,6,1.76,1.7,1.24,6-1.1,6.63-3.31-3-1.46-9.09-.64-12.48-.64.78-1.3,2.38-2,2.53.53-1.53,1.49-2.62,1.9-4.27,1.35.35,2.12-.67,3.79-1.11a11.1,11.1,0,0,0,3.63-.15c-.71-.13-.91-.78-.79-1.74-.84,0-1.47.66-2.21.31v-.94c-2.3.25-3.49,1.74-5.53,1.42-.27-1.28-2.08-1.54-2.53-1,.24-1,1.07-1.46,1.58-2.21-1.56,0-2.11,1.05-2.84,1.89a37.15,37.15,0,0,0-3.32,1.74c-.17-.59-.94,0-1.11-.31.14-.34.48-.47.48-1-.81-.3-1.85,1.28-3,.63,1.16-.64,1.63-2.07,2.69-2.84.89-.65,2.19-.52,2.85-1.58-.94-.19-2.42-.07-3-.64-.81.85-2.46.76-2.68-.31-1.36.42-2.51-1.52-3.8-.32a4.76,4.76,0,0,0-2-.63c-.69-.47,0-2.28-1.26-2.21-.37.16.07,1.13-.32,1.26-23.4.44-43.16-3.61-61-8.21.73,1.15.07,2.55.32,3.47-.76-.6-.38-1.09-.32-1.58-.64-.11-.39.67-1,.63C10.66,3,9.76,2,8.49,1.34,8.38,2.81,8.24,5.27,9,6.39a.91.91,0,0,0-.63.16c-.17.59.39.45.32,1-.66.41-.89,1.23-.16,1.58-.51-.14-.33.41-.63.47a30,30,0,0,1-4.43,9.64,9,9,0,0,1-.31,2.37C4.06,24,2,25.94,1.22,27.73c1.78,1.13.13,3.21.32,4.74.08.66,1.21,1.65,1.26,2.68a2.11,2.11,0,0,0,.79,1.9,2.76,2.76,0,0,0,1,3.63c-.09.55-.73.54-.79,1.11.06,2.07,2.08,3.72,2.21,5.53.06.83-.75,1.43-.16,2.21,2.77-.08,3.07,2.31,5.06,3,.09.51-.3.49,0,.79,1.84.43,2.49,2,2.37,4.43a25,25,0,0,0,5.17.85V44.14H37.28V66.38l.44.06A4.34,4.34,0,0,1,38,64.86c.86.14,1.72.28,2.6.4V15.16H59.52V77.9c.06.23.12.46.16.7,1.14.6,1.43,2.05,2.53,2.69a3.53,3.53,0,0,0,.67,2.95V37H81.76V74.12c1.24.15,2.43.37,3.36.38-.09-.89-1.05,0-1.26-.64,1-.91,1.78.63,2.68.79,0,.3-.17.35-.15.64a4.28,4.28,0,0,0,1.74.63c.39-.3.59-.78,1.26-.79.52.31-.39.67,0,.79,1.25-.39.28-1.21,1.26-1.58.24.75,2.37,1.75,2.53.63-.44-.61-1.75-.35-2.05-1.11.49-.41,1.12-.55.79-1.73-.7-.07-.39.87-1.27.63.71-1.88,2.35-1.65,4.59-1.74.31-.27.05-1.1.63-1.11.33.26.76,1.16.16,1.43,2.61-.86,6.41-1.56,7.74.94,1.4-.11,2.67-.69,2.84-1.58,2.71-.28,2.53,2.32,4.74,2.53,1.33,1.08-.18,4,1.11,5.06.39-.44-.12-1.07,0-1.11s.58-.06.63.16c.07.75-.6.77-.63,1.42a13.74,13.74,0,0,1,2.05,3.16c.45.13.41-.22.79-.16.33.52.49,1.2.79,1.74,1.39-.32,2,1.2,2.37,2.37.6-.19,1.64-.78,2.06-.63-.21,1-1.8,1.36-1.74,2.05A4.93,4.93,0,0,0,121.15,84c-.56-.25-.1.53-.48.47,1.2-4.14-1.08-7-2.52-9.48,0-.31.43-.2.31-.63-2.39-2.14-4.91-6.43-3.47-10.59.33-1,1.4-1.51,1.42-2.53,1.5-.49,1.89-2.1,3.16-2.84-.09-2.09,1.05-3,2.84-3.16-.14-3.13,3.86-2.53,4-4.58-.12.27-1.36.47-1.58,0,.66.52,1.1-.85.48-1.11a1.61,1.61,0,0,0,2.21-1.26c-.25-.44-1,.37-1.27-.16.57,0,1-.11,1.11-.48l-.08-.23.24.08a25.44,25.44,0,0,1-1.74-3.32,2.6,2.6,0,0,0-1,.08c.63-.52-.72-1.14-.42-1.5.16,0,.19.12.31.15a2.87,2.87,0,0,0-1.26-2.52c.43.1.31-.33.47-.48-1.09-.7-1.26-3.63-.15-3.79-.72.66.45,1.45-.32,2.21.71,0,.26.23.32,1.11.84,0,.66,1.12,1.26,1.42.23-.56-.51-1-.16-1.11,1.66.59-.3,2.9,1,3.8.31-2,1.78-4,1-6.17-1.11-.31-1.27-1.57-1.9-2.37a2.4,2.4,0,0,0,2.06,1.11c.06.38-.29.34-.16.79a5.85,5.85,0,0,0,1.58-5.53c-.19-.39-.6.32-.79-.16.32-.05.31-.43.63-.47L128,30.3l.24-.36c1.11-2.26,4.37-2.37,6.32-3.79.2-.48-.08-.79.63-.95.09.51-.05.79-.32.95.72-.39,1.07-1.15,2.06-1.27,0-.82-.25-1.44-1.11-1.42.08.5.81.35.79.95-1.36,1.21-1.64-1.47-2.68-1.11a18.07,18.07,0,0,1,.63-5.37c.88.15,1.47-.81,2.21-1.27.12-.54-.17-1.49,0-1.58.19.24.66.19.63.64-.37.23-.58.24-.31.79.79-.19.42-1.28.95-1.74-.05.41-.06.79.47.63.3-.93-.19-.44-.32-1C139.4,15,141.73,12.63,140.27,11.45Z"/></svg>