<svg id="Layer_1" data-name="Layer 1" xmlns="http://www.w3.org/2000/svg" viewBox="0 0 33 33"><defs><style>.cls-1{fill:#fff;}.cls-2{fill:none;stroke:#fff;stroke-miterlimit:10;stroke-width:2px;}.cls-3{fill:#003b71;}</style></defs><title>clipboard_pencil_icon</title><rect class="cls-1" x="3.37" y="4.37" width="19.65" height="25.4" rx="3.06" ry="3.06"/><path class="cls-2" d="M8.45,7.85A1.29,1.29,0,0,0,9.74,6.56V3.41a1.29,1.29,0,1,0-2.59,0V6.56A1.29,1.29,0,0,0,8.45,7.85Zm9.12,0a1.29,1.29,0,0,0,1.29-1.29V3.41a1.29,1.29,0,1,0-2.58,0V6.56A1.29,1.29,0,0,0,17.57,7.85Zm4.69.2v4.87l1.68-1.38V8.05a3.69,3.69,0,0,0-3.68-3.68h-.43V6.05h.43A2,2,0,0,1,22.26,8.05ZM15.32,4.37H10.7V6.05h4.62Z"/><path class="cls-2" d="M25.41,11.8l0,0h0l1.77-1.46a1,1,0,0,1,1.46.14l2.18,2.65a1,1,0,0,1-.14,1.46l-1.76,1.44Z"/><rect class="cls-2" x="17.49" y="15.17" width="9.61" height="5.51" transform="matrix(0.77, -0.63, 0.63, 0.77, -6.31, 18.22)"/><path class="cls-2" d="M15.94,20,19.1,23.8l-4.58.87c-.33.08-.46-.15-.34-.41Z"/><path class="cls-2" d="M3.63,21.65V8.05a2,2,0,0,1,2-2h.56V4.37H5.64A3.75,3.75,0,0,0,2,7.31,3.65,3.65,0,0,0,2,8.05V21.69H2V27.2a3.69,3.69,0,0,0,3.68,3.69H20.25a3.64,3.64,0,0,0,1.26-.24,3.68,3.68,0,0,0,2.35-2.71,3.63,3.63,0,0,0,.08-.74V21.63l-1.68,1.43V27.2a2,2,0,0,1-2,2H5.64a2,2,0,0,1-2-2V21.62"/><rect class="cls-2" x="7.68" y="11.6" width="9.67" height="1.67"/><rect class="cls-2" x="7.68" y="16.27" width="5.02" height="1.67"/><path class="cls-3" d="M8.45,7.85A1.29,1.29,0,0,0,9.74,6.56V3.41a1.29,1.29,0,1,0-2.59,0V6.56A1.29,1.29,0,0,0,8.45,7.85Zm9.12,0a1.29,1.29,0,0,0,1.29-1.29V3.41a1.29,1.29,0,1,0-2.58,0V6.56A1.29,1.29,0,0,0,17.57,7.85Zm4.69.2v4.87l1.68-1.38V8.05a3.69,3.69,0,0,0-3.68-3.68h-.43V6.05h.43A2,2,0,0,1,22.26,8.05ZM15.32,4.37H10.7V6.05h4.62Z"/><path class="cls-3" d="M25.41,11.8l0,0h0l1.77-1.46a1,1,0,0,1,1.46.14l2.18,2.65a1,1,0,0,1-.14,1.46l-1.76,1.44Z"/><rect class="cls-3" x="17.49" y="15.17" width="9.61" height="5.51" transform="matrix(0.77, -0.63, 0.63, 0.77, -6.31, 18.22)"/><path class="cls-3" d="M15.94,20,19.1,23.8l-4.58.87c-.33.08-.46-.15-.34-.41Z"/><path class="cls-3" d="M3.63,21.65V8.05a2,2,0,0,1,2-2h.56V4.37H5.64A3.75,3.75,0,0,0,2,7.31,3.65,3.65,0,0,0,2,8.05V21.69H2V27.2a3.69,3.69,0,0,0,3.68,3.69H20.25a3.64,3.64,0,0,0,1.26-.24,3.68,3.68,0,0,0,2.35-2.71,3.63,3.63,0,0,0,.08-.74V21.63l-1.68,1.43V27.2a2,2,0,0,1-2,2H5.64a2,2,0,0,1-2-2V21.62"/><rect class="cls-3" x="7.68" y="11.6" width="9.67" height="1.67"/><rect class="cls-3" x="7.68" y="16.27" width="5.02" height="1.67"/></svg>