<svg id="Layer_1" data-name="Layer 1" xmlns="http://www.w3.org/2000/svg" viewBox="0 0 30 30"><defs><style>.cls-1{fill:#00467f;}</style></defs><title>control_icon</title><path class="cls-1" d="M2.89,14.92V27.29a2,2,0,0,0,1.95,1.95h0a2,2,0,0,0,1.95-1.95V14.92a6.77,6.77,0,0,1-3.92,0Z"/><path class="cls-1" d="M6.81,2.71A2,2,0,0,0,4.86.76h0a2,2,0,0,0-1.95,2V9.55H6.81Z"/><circle class="cls-1" cx="4.85" cy="9.55" r="4.18"/><path class="cls-1" d="M13,23v4.32a2,2,0,0,0,2,1.95h0a2,2,0,0,0,2-1.95V23A6.77,6.77,0,0,1,13,23Z"/><path class="cls-1" d="M17,2.71A2,2,0,0,0,15,.76h0a2,2,0,0,0-2,2V17.59H17Z"/><circle class="cls-1" cx="15" cy="17.59" r="4.18"/><path class="cls-1" d="M23.19,19.15v8.14a2,2,0,0,0,1.95,1.95h0a2,2,0,0,0,1.95-1.95V19.15a6.77,6.77,0,0,1-3.92,0Z"/><path class="cls-1" d="M27.11,2.71A2,2,0,0,0,25.16.76h0a2,2,0,0,0-1.95,2V13.78h3.92Z"/><circle class="cls-1" cx="25.15" cy="13.78" r="4.18"/></svg>