<svg id="Layer_1" data-name="Layer 1" xmlns="http://www.w3.org/2000/svg" xmlns:xlink="http://www.w3.org/1999/xlink" viewBox="0 0 207 65"><defs><style>.cls-1,.cls-6{fill:none;}.cls-2{fill:#7fa2bf;}.cls-3{clip-path:url(#clip-path);}.cls-4{opacity:0.3;}.cls-5{fill:#fff;}.cls-6{stroke:#b2c7d8;stroke-miterlimit:10;}.cls-7{fill:#c94726;}</style><clipPath id="clip-path"><rect class="cls-1" x="0.5" y="0.5" width="206" height="64"/></clipPath></defs><title>CPS_btn</title><rect class="cls-2" x="0.5" y="0.5" width="206" height="64"/><g class="cls-3"><g class="cls-4"><path id="_Path_" data-name="&lt;Path&gt;" class="cls-5" d="M-16.55,106.09c2.42-14.79,4.82-29.43,7.26-44.27L28.94,65.6c-.13,1-.29,1.81-.37,2.68C27.78,76.09,27,83.9,26.26,91.71c-.27,2.9-.15,2.92.22,3.52a4.7,4.7,0,0,0-.57,1.25c-.17,2.69-.33,5.38-.41,8.07,0,1.11-.52,1.36-1.5,1.26q-7.07-.77-14.13-1.48c-2.5-.26-5-.52-7.5-.72-.45,0-1.16,0-1.35.33-.71,1.1-1.63.8-2.61.65-2.88-.44-5.77-.83-8.66-1.27-1-.15-1.47.17-1.7,1.19-.46,2.11-.51,2.1-2.62,1.86C-15.17,106.3-15.77,106.2-16.55,106.09Z"/><path id="_Path_2" data-name="&lt;Path&gt;" class="cls-5" d="M-3.73,27.84c.66.06,1.14.1,1.62.16L8.14,29.27c2.49.32,5,.67,7.47,1,1.54.21,3.08.44,4.62.56a7.76,7.76,0,0,0,1.73-.2,6.19,6.19,0,0,0,1.33.59c4.08.62,8.16,1.23,12.26,1.76,1.08.13,1.46.51,1.38,1.6-.4,6.27-.76,12.54-1.14,18.81-.22,3.67-.46,7.33-.71,11.29L-9,60.3C-7.26,49.39-5.5,38.66-3.73,27.84Z"/><path id="_Path_3" data-name="&lt;Path&gt;" class="cls-5" d="M27.44-1.31C26.39,9.12,25.36,19.37,24.3,30l-41.61-5.55c.33-1.83.66-3.49.92-5.15,1.17-7.45,2.3-14.9,3.47-22.34.53-3.34.56-3.29,3.88-2.87q16.49,2.12,33,4.17Z"/><path id="_Path_4" data-name="&lt;Path&gt;" class="cls-5" d="M81.58,41.45c0,.56-.1,1.12-.09,1.67,0,.33.31.77.19,1-.91,1.46-.17,2.6.83,3.44,1.32,1.12,1.52,2.34,1.42,4-.26,4.21-.24,8.43-.33,12.65,0,.44,0,.88,0,1.48H82.18c-11.4,0-22.82,0-34.22-.14-3.71,0-7.42-.42-11.33-.66.49-8.19,1-16.14,1.47-24.32.88.08,1.65.12,2.43.21A219.88,219.88,0,0,0,76.17,42c1.82-.08,3.63-.36,5.44-.55Z"/><path id="_Path_5" data-name="&lt;Path&gt;" class="cls-5" d="M108.37-27c-2,1-3.86,1.84-5.59,2.86a7.34,7.34,0,0,0-2.37,2.2c-.86,1.34-1.38,2.89-2.14,4.3A5,5,0,0,1,97-16.3a3.47,3.47,0,0,0-1.21,2.71,5.08,5.08,0,0,1-.93,2.68,6,6,0,0,0-1.24,6.48,18.45,18.45,0,0,1,.54,4c.34,2.58,1,3.34,3.6,3.74A2.87,2.87,0,0,1,99.88,5a20.65,20.65,0,0,0,3,3,15.62,15.62,0,0,1,1.2,1.66l-.3.37L74,11.23c0-1.76,0-3.35,0-4.94,0-3.14,0-6.28-.07-9.42A4.82,4.82,0,0,0,72-7a1.52,1.52,0,0,1-.41-1.25,20.62,20.62,0,0,0,.14-7.35c-.28-1.83.08-3.74,0-5.61a4.77,4.77,0,0,0-.53-2.21C69.51-26.59,70-30,70-33.57c.82,0,1.66,0,2.48,0a18.38,18.38,0,0,1,9.41,1.7,10.61,10.61,0,0,0,6,1,13.45,13.45,0,0,1,7.32,1.41c3,1.43,6.08,2.3,9.5,1.51A3.23,3.23,0,0,1,108.37-27Z"/><path id="_Path_6" data-name="&lt;Path&gt;" class="cls-5" d="M27.46,13.83c.8-8,1.58-15.78,2.33-23.34L69.54-7.87a16.24,16.24,0,0,1,2,2.56,8.48,8.48,0,0,1,1,3.4c.16,5.47.37,11-1,16.34a20.17,20.17,0,0,0-.27,3.34c-1.42-.39-2.69-.83-4-1.05a6.55,6.55,0,0,0-3,0,3.13,3.13,0,0,1-3-.48,6.18,6.18,0,0,0-4.06-1.08,179.68,179.68,0,0,1-28.21-1.09C28.5,14,28.07,13.93,27.46,13.83Z"/><path id="_Path_7" data-name="&lt;Path&gt;" class="cls-5" d="M38.43,38.87c0-1.85,0-3.69,0-5.52,0-1.15-.44-1.58-1.54-1.72-3.29-.42-6.57-.92-9.86-1.4-.62-.09-1.25-.11-1.15-1.08.49-4.5.92-9,1.4-13.7,2,.21,4,.48,5.93.6,7.93.5,15.86,1.2,23.81.6a4.81,4.81,0,0,1,3.3.83,4.82,4.82,0,0,0,4.21.72c2.27-.59,4.3.52,6.39,1.14a.76.76,0,0,1,.37.36c1.68,4,3.42,8,5,12a14.38,14.38,0,0,1,.41,3.46,6.59,6.59,0,0,0,2,4.3,2.46,2.46,0,0,1,.39.67C77,41.38,42.89,40.25,38.43,38.87Z"/><path id="_Path_8" data-name="&lt;Path&gt;" class="cls-5" d="M81.61,41.48c-.86-1.08-1.72-2.15-2.56-3.23-.15-.19-.36-.52-.29-.65a1,1,0,0,1,.68-.49c2.56-.16,5.12-.27,7.68-.39,3-.13,6-.33,9-.36,2.59,0,5.18.14,7.74.22a22.87,22.87,0,0,0,.59,4.13,15.49,15.49,0,0,0,2,3.86,34.69,34.69,0,0,0,3.36,3.81,4.49,4.49,0,0,0,1.66,1,1.33,1.33,0,0,1,.93,2c-1.08,3.28-.66,4.47,2.48,5.87,2.08.93,3.23,2.21,3.22,4.55,0,1.47.5,2.74,2.18,3.13-.18,1.34-.08,2.56-1.66,3.25-.61.27-.86,1.65-1,2.58-.29,1.67-.22,1.69-2.19,1.4.07-.56.14-1.12.22-1.67.22-1.5-.08-1.9-1.59-1.86-5.16.13-10.32.29-15.48.45-3.95.13-7.89.24-11.84.41-.92,0-1.3-.25-1.31-1.18-.06-4.12-.19-8.24-.2-12.36,0-1.93.17-3.85.31-5.78a3.29,3.29,0,0,0-1.26-2.94c-.83-.71-1.86-1.38-1-2.87.54-.91-.73-2.79-1.75-2.92Z"/><path id="_Path_9" data-name="&lt;Path&gt;" class="cls-5" d="M104.38-18.21c.08,2.39.93,2.93,4,2.46.34,3,2.58,3.84,5.17,4.29,2.17.37,4.31.9,6.48,1.27a2.57,2.57,0,0,1,2.06,1.7,25,25,0,0,1,1,2.79,1.55,1.55,0,0,1-.28,1A10.69,10.69,0,0,0,121.7-3,1.71,1.71,0,0,0,122-1.58a1.45,1.45,0,0,0,1.3.25,18.81,18.81,0,0,0,2.33-1.38,4.29,4.29,0,0,1-.23,1,12.38,12.38,0,0,0-1,6.16c0,1.74-.22,3.49-.21,5.23a4.73,4.73,0,0,0,.55,2.52c.95,1.42.56,2.85.37,4.29,0,.23-.58.53-.91.56-4.66.38-9.31.85-14,1-1,0-2.23-1.07-3-2-1.32-1.52-2.32-3.28-1.82-5.51a3.5,3.5,0,0,0-1.69-3.92,8.26,8.26,0,0,1-3-3.19A4,4,0,0,0,98,1.86,2.56,2.56,0,0,1,95.56-.71c-.27-1.9-.69-3.79-.83-5.7A4.25,4.25,0,0,1,95.43-9a8.4,8.4,0,0,0,2-5c0-.73,1-1.64,1.8-2.1a33.39,33.39,0,0,1,4.27-1.9A5.79,5.79,0,0,1,104.38-18.21Z"/><path id="_Path_10" data-name="&lt;Path&gt;" class="cls-5" d="M103.44,11.56c1,2.76,1.87,5.42,4.35,7.12a14.56,14.56,0,0,1,1.61,1.43,3.61,3.61,0,0,1-.35,5.86,8.74,8.74,0,0,0-2,1.57,3.44,3.44,0,0,0-.75,2.34,2.78,2.78,0,0,1-.47,2.23c-.59,1-1.12,2-1.76,3.18-4.92-1.11-10.06-.22-15.2-.14-3.15.05-6.31.22-9.45.41-.9,0-1.23-.27-1.28-1.09-.27-4.9-2.79-9-4.67-13.34-1.13-2.6-.73-5.28,0-7.91.06-.25.77-.45,1.19-.47,7.05-.3,14.1-.57,21.14-.86C98.37,11.79,101,11.67,103.44,11.56Z"/><path id="_Path_11" data-name="&lt;Path&gt;" class="cls-5" d="M111.37,19.62l11.51-.88c3.11-.24,3.1-.24,4.51,2.58a2.34,2.34,0,0,1,.12,2.41,3.34,3.34,0,0,0-.21,1.71c.29,4.3.64,8.59.92,12.89.08,1.33,0,2.68,0,4a8.3,8.3,0,0,0,.2,3.17,6.41,6.41,0,0,1,0,4.7c-.55,1.93-1,3.9-1.42,5.85a5.92,5.92,0,0,1-1.57,3.17c-.77.76-1.07,2-1.65,3.18a4.16,4.16,0,0,0-1.26-.2,6.06,6.06,0,0,0-1.57.53,3.48,3.48,0,0,0-.67.49,3,3,0,0,1-.51-.87c-.18-.88-.31-1.77-.41-2.66a3.38,3.38,0,0,0-1.9-2.76c-1-.51-1.91-1-2.85-1.53a2,2,0,0,1-1-2.7,7.45,7.45,0,0,0,.52-1.81,2.08,2.08,0,0,0-1.44-2.55,4.52,4.52,0,0,1-2.39-2,23,23,0,0,0-2.75-2.93c-2.23-2.34-2.63-7.26-.79-9.92.86-1.24,1.7-2.45,1-4.08-.08-.19.15-.59.35-.79a6.11,6.11,0,0,1,1.06-.82C112.4,25.56,113,23.29,111.37,19.62Z"/><path id="_Path_12" data-name="&lt;Path&gt;" class="cls-5" d="M202.23-21.43a22.46,22.46,0,0,1,1,2.38c.39,1.27.63,2.59,1,3.86.45,1.54.66,3.27,1.51,4.54A15.89,15.89,0,0,1,208.36.47a15.11,15.11,0,0,0,.58,5,15.36,15.36,0,0,1,.41,6.58,30.85,30.85,0,0,1-5.72-1.16c-1.09-.43-1.89-1.74-2.66-2.77a2.47,2.47,0,0,0-3.07-1c-7.42,1.92-14.88,3.68-22.33,5.49a3.42,3.42,0,0,1-.59,0,2.46,2.46,0,0,1,.42-3.15,24,24,0,0,0,1.6-2,4.41,4.41,0,0,0,.91-4.5c-.64-1.9-.13-2.37,1.84-2.73A63.16,63.16,0,0,0,187-1.32a4.9,4.9,0,0,0,3.59-4.87c-.25-3.52,1.68-6,2.92-8.88a7.81,7.81,0,0,1,4.61-4.38C199.48-20,200.81-20.75,202.23-21.43Z"/><path id="_Path_13" data-name="&lt;Path&gt;" class="cls-5" d="M205.85,54.94c-.73.81-1.49,1.58-2.16,2.43a7.61,7.61,0,0,0-.74,1.45c.51.18,1,.39,1.54.52a4.9,4.9,0,0,0,.94,0c1.58.12,1.88.45,1.79,2-.07,1.25-.65,1.76-2,1.73-.4,0-.91-.25-1.18-.08a3,3,0,0,0-1,1.22,14.91,14.91,0,0,0-.61,2c-.14.51-.57,1.21-.38,1.49s1,.47,1.51.5a13.11,13.11,0,0,0,2.06-.17l.17.49a15.24,15.24,0,0,1-3,1.48,5.76,5.76,0,0,0-4.46,4.19,10.79,10.79,0,0,1-1,2.06,2.37,2.37,0,0,1-3.54,1.1c-2.31-1.2-4.6-2.46-7-3.52a4.67,4.67,0,0,0-3-.36c-2.33.68-4.28,0-6.33-.94a8.89,8.89,0,0,0-3.6-.78,27,27,0,0,0-10.53,2.56c-2.47,1.05-5,.49-7.53.73A2.17,2.17,0,0,1,157,72.49c1.27-.67,2.47-1.47,3.75-2.13A9.83,9.83,0,0,0,164,67.72a7.12,7.12,0,0,1,3.43-2.21A3.15,3.15,0,0,0,170,62.93c.27-1.36,1.07-1.72,2.31-1.85,10-1,19.72-3.35,29.49-5.46,1.25-.27,2.46-.75,3.69-1.13Z"/><path id="_Path_14" data-name="&lt;Path&gt;" class="cls-5" d="M172.44,29.79c.05-.4.12-.79.15-1.18a17.41,17.41,0,0,0,.2-3.66c-.51-3.61-1.22-7.2-1.8-10.8a1.41,1.41,0,0,1,.48-1.05,7.68,7.68,0,0,1,1.45-.88c.13.11.23.16.24.23.59,2.14.61,2.22,2.74,1.7Q187,11.48,198.14,8.68a1.48,1.48,0,0,1,1.73.49c2.42,2.69,2.47,2.68,1.76,6.38a3.19,3.19,0,0,0,.56,2.89,7.72,7.72,0,0,1,1,1.73c1.12,2.4.66,3-1.35,4.72-2.27,1.88-4.93,2.35-7.6,3-3,.71-6,1.29-8.93,2-1.24.3-2.45.65-2.78,2.25a4,4,0,0,1-1.32,1.76c-1.59-3-1.73-3.1-4.57-2.18-2,.66-2,.65-3.33-1a11.62,11.62,0,0,0-1-.89l0,0Z"/><path id="_Path_15" data-name="&lt;Path&gt;" class="cls-5" d="M152.64.57c1.2,2.26,2.41,4.35,3.39,6.54a3,3,0,0,1-.31,2.27A19.73,19.73,0,0,0,152.88,18a1.33,1.33,0,0,1-1.3,1.41c-1.78.22-3.57.4-5.35.59-2.49.27-5,.56-7.49.79-1.63.15-3.27.22-4.9.33.43-2.43.75-4.58,1.22-6.7A7.06,7.06,0,0,0,134,8.65a8.59,8.59,0,0,1-1.3-8.16,10.12,10.12,0,0,0,.36-2,3,3,0,0,1,2.64-3c1.31-.28,1.76-1,1.46-2.21a2.33,2.33,0,0,1,.64-2.18,8.71,8.71,0,0,0,1.14-2.47,9,9,0,0,0,.27-1.74c1.55.58,2.91,1.11,4.28,1.61a27.68,27.68,0,0,0,3.25,1.11c.77.19,1.08.41,1.2,1.27a13.73,13.73,0,0,0,1,2.52,3.55,3.55,0,0,1,.36,1.94c-.59,2-1.34,4-2.11,6a1.67,1.67,0,0,0,.75,2.2,1.94,1.94,0,0,0,1.76,0A32.79,32.79,0,0,0,152.64.57Z"/><path id="_Path_16" data-name="&lt;Path&gt;" class="cls-5" d="M172.44,29.69a2.23,2.23,0,0,0-1.48,2.2,3.33,3.33,0,0,1-2.31,3.23,4.81,4.81,0,0,0-2.81,3.39,11.6,11.6,0,0,1-1.39,2.35c-.34.62-.58,1.29-.91,1.92-.43.83-.91,1.63-1.43,2.55-1.41-1.67-3-1.61-4.91-1.25-2.2.43-4.42.43-6.36-1.25a8.22,8.22,0,0,0-2.78-1c-.76-4.82-1.57-9.64-2.26-14.47-.27-1.88-.25-3.8-.35-5.47,3-.56,5.53-1.13,8.13-1.49a6.39,6.39,0,0,1,2.47.53,9.47,9.47,0,0,0,10.17-3.43,42.93,42.93,0,0,1,3.11-3.37,20.59,20.59,0,0,0,.63,2.34c1.16,2.68.84,5.65,1.65,8.41a8.62,8.62,0,0,1-.14,3.06c-.09.86-.19,1.67,1,1.84l0,0Z"/><path id="_Path_17" data-name="&lt;Path&gt;" class="cls-5" d="M147.75,43.44c.82.23,1.75.23,2.28.69,2.28,2,4.93,1.74,7.55,1.4,2.3-.29,2.42-.26,3.54,1.74s2.55,4.17,3.88,6.31c-.36.36-.9.89-1.4,1.45-1.09,1.23-2.2,2.44-3.23,3.72-1.22,1.51-2.38,2.84-4.57,3.13-8.58,1.15-17.14,2.43-25.69,3.77-2.37.37-4.68,1.12-7,1.67a12.28,12.28,0,0,1-1.56.15l.59-3.56c.28-.07.37-.12.45-.1,2.56.52,2.52.51,3.22-2.09a6.81,6.81,0,0,1,1.06-1.81c.27-.4.83-.73.89-1.15.38-2.61,2.54-2.5,4.24-2.55,2.7-.08,5.15-.49,7.14-2.48a1.18,1.18,0,0,1,1-.15c1.34.43,2.07-.3,2.56-1.34.58-1.22,1-2.5,1.58-3.72.19-.42.55-1,.9-1.07,1.87-.29,2.12-1.71,2.4-3.15C147.6,44.09,147.65,43.88,147.75,43.44Z"/><path id="_Path_18" data-name="&lt;Path&gt;" class="cls-5" d="M116.32,80.13l1.2-3.11c.8-2.07,1.75-4.11,1.66-6.41-.05-1.18.65-1.56,1.66-1.64a28.65,28.65,0,0,0,3.61-.3C127.73,68,131,67,134.26,66.5c7-1.12,14-2,21-3,4.17-.59,8.35-1.15,12.53-1.72.25,0,.51,0,.88,0-.23,1.14-.46,1.87-1.7,2.34-1.84.7-3.74,1.5-4.8,3.46-.28.53-1,.85-1.58,1.19-1.55.9-3.12,1.76-4.69,2.63A2.85,2.85,0,0,0,154.29,74c0,.85-.29,1.24-1.22,1.35-8.77,1.11-17.53,2.27-26.29,3.42L117.44,80C117.14,80.07,116.84,80.09,116.32,80.13Z"/><path id="_Path_19" data-name="&lt;Path&gt;" class="cls-5" d="M205.17,53.05c-14.65,4.07-29.52,6.31-44.47,8.06l-.31-.34c1.75-1.86,3.51-3.71,5.24-5.58a1.29,1.29,0,0,1,1.76-.28,3.72,3.72,0,0,0,2.31.31c2-.49,4-1.16,5.91-1.83,2.57-.88,3.74-2.92,4.29-5.42.17-.75.22-1.52.42-2.25.3-1.1.09-2.51,1.66-2.92.18,0,.28-.44.42-.67,1.49-2.39,3-4.8,4.52-7.15.22-.33.88-.44,1.36-.53.86-.17,1.74-.18,2.6-.35a2.79,2.79,0,0,1,2.5,2.09,4.59,4.59,0,0,0,3,4.35c.46.19.9.41,1.35.6,3.12,1.33,2.65.94,2.81,4.79,0,.7.13,1.4.14,2.1a2.54,2.54,0,0,1-.19.94c-.21.52-.81,1.29-.66,1.48a5.53,5.53,0,0,0,1.81,1.19c.23.1.61,0,.91-.15C204.48,50.83,204.48,50.82,205.17,53.05Z"/><path id="_Path_20" data-name="&lt;Path&gt;" class="cls-5" d="M143.57,21.75c.53,3.29,1.05,6.37,1.49,9.45.16,1.1.08,2.23.17,3.35a9.31,9.31,0,0,0,.42,2.6c1.08,2.65.67,5.29.11,7.93a1.1,1.1,0,0,1-.67.71,3.73,3.73,0,0,0-2.47,2.64c-.24.63-.49,1.25-.72,1.88-.4,1.06-.66,2.18-2.31,1.64-.42-.13-1.18.35-1.61.74a6.68,6.68,0,0,1-4.45,1.92c-1.55,0-3.1.26-4.93.43.23-1,.41-2,.68-2.94a21.76,21.76,0,0,0,1-3.07,14.27,14.27,0,0,0-.19-3.25,8.85,8.85,0,0,1-.37-2.09c.65-3.83-.27-7.59-.47-11.38-.13-2.33-.28-4.66-.4-7a10.68,10.68,0,0,1,.13-1.39,3,3,0,0,0,3.67-1.28c.11-.16.48-.2.74-.22q4.54-.36,9.09-.67A10.94,10.94,0,0,1,143.57,21.75Z"/><path id="_Path_21" data-name="&lt;Path&gt;" class="cls-5" d="M172.43,32c2.18,2.75,4.35.76,6.56.42a24.14,24.14,0,0,0,.61,2.34c.42,1.1,1.15,1.32,1.94.49s1.63-2.08,2.45-3.11a1.57,1.57,0,0,1,.67-.53c.42-.15.89-.15,1.3-.3,1.63-.61,2.63.07,3.4,1.66A12,12,0,0,1,188,33c-1.38-.16-2.1.6-2.75,1.7-1.32,2.24-2.74,4.41-4.12,6.61,0,.07-.09.19-.16.21-2.21.6-1.71,2.62-2.16,4.13a4.88,4.88,0,0,0-.22,1.06c-.25,3.54-2.44,5.29-5.63,6.14-.95.25-1.91.48-2.84.8a2.79,2.79,0,0,1-3.21-.75c-1.43-1.71-2.7-3.55-4-5.39-.16-.22,0-.76.15-1.07a18.12,18.12,0,0,1,2.31-4.06c1.29-1.39,1.75-3.06,2.43-4.69a1.19,1.19,0,0,1,.54-.57A7.34,7.34,0,0,0,172.43,32Z"/><path id="_Path_22" data-name="&lt;Path&gt;" class="cls-5" d="M203.78,12.63c1.79.33,3.46.61,5.12,1a1.16,1.16,0,0,1,.72.76c.54,5.14,1,10.28-1.43,15.13a7.21,7.21,0,0,1-.47.71c-1.19-.44-2.38-.79-3.49-1.33s-1.23-3-.32-3.79c1.62-1.42,1.88-2.36,1.15-4.39a5.56,5.56,0,0,0-.83-1.83C202.51,16.94,203.24,14.89,203.78,12.63Z"/><path id="_Path_23" data-name="&lt;Path&gt;" class="cls-5" d="M189.77,30.56c3.12-.77,6.24-1.57,9.38-2.27.36-.08.84.36,1.23.78-1.37-.21-1.91.59-2.31,1.56a8.26,8.26,0,0,0-.25,6.66,5.14,5.14,0,0,1,.1,1.58,5.11,5.11,0,0,1-2-.4,2.25,2.25,0,0,1-.91-1.71c.39-2.63-1.8-3.16-3.26-4.29-.69-.53-1.41-1-2.12-1.52Z"/><path id="_Path_24" data-name="&lt;Path&gt;" class="cls-5" d="M200.74,30.27c.62,1.58,1.23,3.17,1.85,4.76.8,2,1.07,2.17,3,1.27l1-.4a9.69,9.69,0,0,1-.4,2.66,8.73,8.73,0,0,0-1.2,5.28,4.36,4.36,0,0,1-.39,1.58l-.42,0a4.37,4.37,0,0,1,0-1.2c.55-1.89-.16-3.53-.89-5.18-.13-.28-.24-.73-.45-.79-2.49-.74-2-3.11-2.6-4.82a10.33,10.33,0,0,1,0-3.15Z"/><path id="_Path_25" data-name="&lt;Path&gt;" class="cls-5" d="M201.46,27.21c1.39,2.39,2.77,4.77,4.25,7.3l-1.4.77c-1.07-2.77-2.07-5.38-3.07-8Z"/><path id="_Path_26" data-name="&lt;Path&gt;" class="cls-5" d="M198.91,36.85l-.48-3.3.61-.1.54,3.36Z"/><polygon id="_Path_27" data-name="&lt;Path&gt;" class="cls-5" points="172.44 29.69 172.4 29.75 172.37 29.79 172.44 29.69"/></g></g><g class="cls-4"><path class="cls-1" d="M37.31,16.16a3.31,3.31,0,1,0-5.93,2h0L34,21.67l2.62-3.49h0A3.31,3.31,0,0,0,37.31,16.16ZM34,17.88a1.72,1.72,0,1,1,1.72-1.72A1.72,1.72,0,0,1,34,17.88Z"/><path class="cls-1" d="M50,30.38a3.31,3.31,0,1,0-5.92,2h0l2.62,3.49,2.61-3.49h0A3.28,3.28,0,0,0,50,30.38Zm-3.3,1.71a1.72,1.72,0,1,1,1.71-1.71A1.72,1.72,0,0,1,46.72,32.09Z"/><path class="cls-1" d="M116.31,9.66a3.31,3.31,0,1,0-5.93,2h0L113,15.17l2.62-3.49h0A3.31,3.31,0,0,0,116.31,9.66ZM113,11.38a1.72,1.72,0,1,1,1.72-1.72A1.72,1.72,0,0,1,113,11.38Z"/><path class="cls-1" d="M185.81,21.16a3.31,3.31,0,1,0-5.93,2h0l2.62,3.49,2.62-3.49h0A3.31,3.31,0,0,0,185.81,21.16Zm-3.31,1.72a1.72,1.72,0,1,1,1.72-1.72A1.72,1.72,0,0,1,182.5,22.88Z"/></g><rect class="cls-6" x="0.5" y="0.5" width="206" height="64"/><rect class="cls-7" y="38.55" width="207" height="18.95"/><path class="cls-5" d="M42.94,51.39a2.65,2.65,0,0,1-1,.39,6.16,6.16,0,0,1-1.22.12,4.25,4.25,0,0,1-1.43-.24,3,3,0,0,1-1.2-.75,3.72,3.72,0,0,1-.82-1.36,6,6,0,0,1-.31-2,5.46,5.46,0,0,1,.35-2.07,3.64,3.64,0,0,1,.88-1.34,3.37,3.37,0,0,1,1.22-.74,4.54,4.54,0,0,1,1.35-.22,6,6,0,0,1,1.21.1,4,4,0,0,1,.83.23l-.33,1.39a2.27,2.27,0,0,0-.65-.19,6,6,0,0,0-.92-.06,2,2,0,0,0-1.6.7,3.33,3.33,0,0,0-.61,2.21,4.38,4.38,0,0,0,.15,1.18,2.48,2.48,0,0,0,.43.91,1.94,1.94,0,0,0,.74.59,2.31,2.31,0,0,0,1,.21,3.42,3.42,0,0,0,.91-.1,3,3,0,0,0,.65-.28Z"/><path class="cls-5" d="M45.29,45.73v3.41a2.41,2.41,0,0,0,.17,1,.7.7,0,0,0,.68.33,1.05,1.05,0,0,0,.74-.27,1.7,1.7,0,0,0,.44-.64V45.73h1.56v4.18c0,.32,0,.65,0,1a6.37,6.37,0,0,0,.15.86H47.89l-.27-.89h0a2.24,2.24,0,0,1-.77.76,2.2,2.2,0,0,1-1.16.3,2.57,2.57,0,0,1-.82-.12,1.3,1.3,0,0,1-.6-.4,1.9,1.9,0,0,1-.37-.74,4.87,4.87,0,0,1-.12-1.18V45.73Z"/><path class="cls-5" d="M53.56,47.19a2.31,2.31,0,0,0-.68-.13,1.15,1.15,0,0,0-.7.22,1.11,1.11,0,0,0-.38.57v3.88H50.24v-6h1.22l.18.79h0a1.65,1.65,0,0,1,.56-.68,1.38,1.38,0,0,1,.81-.24,2.19,2.19,0,0,1,.71.13Z"/><path class="cls-5" d="M57.77,47.19a2.25,2.25,0,0,0-.67-.13,1.18,1.18,0,0,0-.71.22,1.09,1.09,0,0,0-.37.57v3.88H54.46v-6h1.21l.18.79h0a1.63,1.63,0,0,1,.55-.68,1.38,1.38,0,0,1,.81-.24,2.19,2.19,0,0,1,.71.13Z"/><path class="cls-5" d="M63.47,51.21a2.89,2.89,0,0,1-1,.49,4.33,4.33,0,0,1-1.31.2,2.55,2.55,0,0,1-2.13-.85,3.62,3.62,0,0,1-.67-2.32,3.3,3.3,0,0,1,.76-2.38,2.81,2.81,0,0,1,2.12-.79,3.35,3.35,0,0,1,.89.12,2,2,0,0,1,.77.4,2,2,0,0,1,.54.74,3,3,0,0,1,.2,1.17q0,.24,0,.54t-.09.6H60a1.85,1.85,0,0,0,.39,1.14,1.52,1.52,0,0,0,1.14.38,2.42,2.42,0,0,0,.88-.15,2.12,2.12,0,0,0,.59-.31Zm-2.23-4.4a1.08,1.08,0,0,0-.9.37,1.84,1.84,0,0,0-.35,1h2.22a1.53,1.53,0,0,0-.2-1A.88.88,0,0,0,61.24,46.81Z"/><path class="cls-5" d="M68.44,51.73V48.32a2,2,0,0,0-.21-1,.79.79,0,0,0-.72-.33,1.16,1.16,0,0,0-.75.26,1.5,1.5,0,0,0-.44.64v3.89H64.76v-6H66l.18.79h0a2.63,2.63,0,0,1,.73-.67,2.19,2.19,0,0,1,1.18-.29,2.43,2.43,0,0,1,.79.12,1.32,1.32,0,0,1,.59.4,1.75,1.75,0,0,1,.36.75A4.78,4.78,0,0,1,70,48v3.73Z"/><path class="cls-5" d="M70.68,45.73h.83V44.6l1.56-.44v1.57h1.46v1.32H73.07v2.3a2.41,2.41,0,0,0,.12.9.49.49,0,0,0,.48.27,1.58,1.58,0,0,0,.41-.05,2.66,2.66,0,0,0,.39-.14l.28,1.2a4.21,4.21,0,0,1-.76.26,3.7,3.7,0,0,1-.87.11,1.58,1.58,0,0,1-1.22-.43,2,2,0,0,1-.39-1.4v-3h-.83Z"/><path class="cls-5" d="M78.56,43.41q.51-.09,1.11-.15c.41,0,.81,0,1.21,0a7.53,7.53,0,0,1,1.25.1,3.3,3.3,0,0,1,1.14.41,2.39,2.39,0,0,1,.82.85,3.33,3.33,0,0,1,0,2.76,2.59,2.59,0,0,1-.73.9,2.87,2.87,0,0,1-1,.5,4.82,4.82,0,0,1-1.2.16h-.47l-.28,0-.2,0v2.89H78.56ZM81,44.63h-.45l-.35,0v2.72l.14,0,.21,0h.36a3.47,3.47,0,0,0,.64-.06,1.78,1.78,0,0,0,.57-.22,1.17,1.17,0,0,0,.4-.45,1.69,1.69,0,0,0,.15-.76,1.39,1.39,0,0,0-.14-.65,1.29,1.29,0,0,0-.38-.42,1.6,1.6,0,0,0-.54-.21A3.08,3.08,0,0,0,81,44.63Z"/><path class="cls-5" d="M84.67,48.73a3.37,3.37,0,0,1,.75-2.35,2.68,2.68,0,0,1,2.08-.82,3.17,3.17,0,0,1,1.25.23,2.39,2.39,0,0,1,.88.64,2.88,2.88,0,0,1,.52,1,4.49,4.49,0,0,1,.17,1.3,3.41,3.41,0,0,1-.73,2.35,2.7,2.7,0,0,1-2.09.82,3.12,3.12,0,0,1-1.24-.23,2.42,2.42,0,0,1-.89-.64,2.72,2.72,0,0,1-.52-1A4.49,4.49,0,0,1,84.67,48.73Zm1.61,0a3.35,3.35,0,0,0,.07.73,2,2,0,0,0,.22.59,1,1,0,0,0,.38.39,1.07,1.07,0,0,0,.55.14,1,1,0,0,0,.92-.45,2.53,2.53,0,0,0,.3-1.4,2.87,2.87,0,0,0-.28-1.34,1,1,0,0,0-.94-.51,1.09,1.09,0,0,0-.9.43A2.46,2.46,0,0,0,86.28,48.73Z"/><path class="cls-5" d="M91.4,45.73h1.14l.18.72h0a2,2,0,0,1,.74-.67,2.19,2.19,0,0,1,1-.22,2,2,0,0,1,1.69.72,3.67,3.67,0,0,1,.56,2.29A4.93,4.93,0,0,1,96.62,50a2.89,2.89,0,0,1-.53,1,2.31,2.31,0,0,1-.86.66,2.87,2.87,0,0,1-1.17.23,2.65,2.65,0,0,1-.62-.06,1.84,1.84,0,0,1-.48-.17v2.46H91.4Zm2.68,1.15a1,1,0,0,0-.71.23,1.46,1.46,0,0,0-.41.68v2.5a1.53,1.53,0,0,0,.37.21,1.49,1.49,0,0,0,.52.08,1.15,1.15,0,0,0,1-.48,2.77,2.77,0,0,0,.34-1.56,2.34,2.34,0,0,0-.27-1.23A.93.93,0,0,0,94.08,46.88Z"/><path class="cls-5" d="M99.38,45.73v3.41a2.24,2.24,0,0,0,.18,1,.69.69,0,0,0,.68.33,1,1,0,0,0,.73-.27,1.5,1.5,0,0,0,.44-.64V45.73H103v4.18c0,.32,0,.65,0,1a6.44,6.44,0,0,0,.14.86H102l-.28-.89h0a2.16,2.16,0,0,1-1.93,1.06,2.55,2.55,0,0,1-.81-.12,1.3,1.3,0,0,1-.6-.4,1.77,1.77,0,0,1-.37-.74,4.82,4.82,0,0,1-.13-1.18V45.73Z"/><path class="cls-5" d="M106,49.71a1.25,1.25,0,0,0,.11.62.37.37,0,0,0,.34.19,1.43,1.43,0,0,0,.29,0,1.7,1.7,0,0,0,.34-.1l.17,1.22a3.15,3.15,0,0,1-.59.19,3.23,3.23,0,0,1-.82.1,1.52,1.52,0,0,1-1-.32,1.33,1.33,0,0,1-.36-1v-7.2H106Z"/><path class="cls-5" d="M107.83,46.08a4.66,4.66,0,0,1,1.14-.34,6.88,6.88,0,0,1,1.38-.13,3.15,3.15,0,0,1,1.05.15,1.53,1.53,0,0,1,1,1.09,3.22,3.22,0,0,1,.1.86c0,.35,0,.71,0,1.06s0,.71,0,1,0,.68,0,1a4.41,4.41,0,0,0,.18.92h-1.27l-.25-.83h-.06a2.09,2.09,0,0,1-.67.65,2,2,0,0,1-1.09.27,2.24,2.24,0,0,1-.76-.13,1.58,1.58,0,0,1-.58-.36,1.72,1.72,0,0,1-.37-.55,1.81,1.81,0,0,1-.13-.72,1.66,1.66,0,0,1,.25-.93,1.83,1.83,0,0,1,.7-.61,3.73,3.73,0,0,1,1.11-.32,8.11,8.11,0,0,1,1.43-.06,1.52,1.52,0,0,0-.09-1q-.18-.3-.81-.3a5.93,5.93,0,0,0-1,.1,3.7,3.7,0,0,0-.86.25Zm2,4.46a1.23,1.23,0,0,0,.75-.21,1.38,1.38,0,0,0,.4-.45V49.1a4.22,4.22,0,0,0-.71,0,2.66,2.66,0,0,0-.61.11,1,1,0,0,0-.42.24.53.53,0,0,0-.15.39.67.67,0,0,0,.2.53A.77.77,0,0,0,109.81,50.54Z"/><path class="cls-5" d="M113.2,45.73H114V44.6l1.56-.44v1.57h1.47v1.32h-1.47v2.3a2.37,2.37,0,0,0,.13.9.47.47,0,0,0,.47.27,1.73,1.73,0,0,0,.42-.05l.39-.14.27,1.2a3.85,3.85,0,0,1-.75.26,3.72,3.72,0,0,1-.88.11,1.6,1.6,0,0,1-1.22-.43,2,2,0,0,1-.39-1.4v-3h-.82Z"/><path class="cls-5" d="M117.91,44a.83.83,0,0,1,.26-.6,1,1,0,0,1,.71-.24,1.1,1.1,0,0,1,.74.24.78.78,0,0,1,.28.6.72.72,0,0,1-.28.58,1.09,1.09,0,0,1-.74.23,1,1,0,0,1-.71-.23A.77.77,0,0,1,117.91,44Zm.23,1.69h1.56v6h-1.56Z"/><path class="cls-5" d="M121,48.73a3.41,3.41,0,0,1,.74-2.35,2.7,2.7,0,0,1,2.09-.82,3.17,3.17,0,0,1,1.25.23,2.35,2.35,0,0,1,.87.64,2.74,2.74,0,0,1,.53,1,4.87,4.87,0,0,1,.17,1.3,3.41,3.41,0,0,1-.74,2.35,2.67,2.67,0,0,1-2.08.82,3.17,3.17,0,0,1-1.25-.23,2.47,2.47,0,0,1-.88-.64,2.74,2.74,0,0,1-.53-1A4.87,4.87,0,0,1,121,48.73Zm1.61,0a3.35,3.35,0,0,0,.07.73,2.27,2.27,0,0,0,.21.59,1.09,1.09,0,0,0,.38.39,1.11,1.11,0,0,0,.56.14,1,1,0,0,0,.91-.45,2.53,2.53,0,0,0,.3-1.4,2.87,2.87,0,0,0-.27-1.34,1,1,0,0,0-.94-.51,1.09,1.09,0,0,0-.9.43A2.38,2.38,0,0,0,122.56,48.73Z"/><path class="cls-5" d="M131.35,51.73V48.32a2,2,0,0,0-.21-1,.78.78,0,0,0-.71-.33,1.12,1.12,0,0,0-.75.26,1.42,1.42,0,0,0-.44.64v3.89h-1.56v-6h1.24l.17.79h0a2.68,2.68,0,0,1,.74-.67,2.16,2.16,0,0,1,1.17-.29,2.39,2.39,0,0,1,.79.12,1.27,1.27,0,0,1,.59.4,1.75,1.75,0,0,1,.36.75,4.78,4.78,0,0,1,.12,1.17v3.73Z"/><path class="cls-5" d="M140.92,49.47a.78.78,0,0,0-.29-.62,2.79,2.79,0,0,0-.71-.44L139,48a4.82,4.82,0,0,1-.92-.51,2.71,2.71,0,0,1-.71-.76,2.2,2.2,0,0,1-.28-1.17,2.64,2.64,0,0,1,.2-1.06,2,2,0,0,1,.58-.75,2.37,2.37,0,0,1,.9-.44,4.11,4.11,0,0,1,1.15-.15,6.74,6.74,0,0,1,1.38.13,3.44,3.44,0,0,1,1.07.36L141.85,45a3,3,0,0,0-.79-.3,4.56,4.56,0,0,0-1.14-.14,1.46,1.46,0,0,0-.88.23.7.7,0,0,0-.31.61.78.78,0,0,0,.28.6,3.19,3.19,0,0,0,.71.44q.42.21.93.42a4.9,4.9,0,0,1,.92.53,2.68,2.68,0,0,1,.71.75,2.16,2.16,0,0,1,.28,1.12,2.73,2.73,0,0,1-.22,1.16,2.12,2.12,0,0,1-.63.81,2.46,2.46,0,0,1-1,.48,4.5,4.5,0,0,1-1.25.16,6.86,6.86,0,0,1-1.59-.17,4.2,4.2,0,0,1-1-.34l.52-1.4.35.16.47.15a4.61,4.61,0,0,0,.56.12,3.94,3.94,0,0,0,.6,0,2.08,2.08,0,0,0,1.13-.25A.82.82,0,0,0,140.92,49.47Z"/><path class="cls-5" d="M145.11,45.73v3.41a2.24,2.24,0,0,0,.18,1,.69.69,0,0,0,.68.33,1.07,1.07,0,0,0,.74-.27,1.58,1.58,0,0,0,.43-.64V45.73h1.56v4.18c0,.32,0,.65.05,1a6.44,6.44,0,0,0,.14.86h-1.17l-.28-.89h-.05a2.13,2.13,0,0,1-.76.76,2.21,2.21,0,0,1-1.17.3,2.55,2.55,0,0,1-.81-.12,1.3,1.3,0,0,1-.6-.4,1.77,1.77,0,0,1-.37-.74,4.82,4.82,0,0,1-.13-1.18V45.73Z"/><path class="cls-5" d="M153.38,47.19a2.25,2.25,0,0,0-.67-.13,1.15,1.15,0,0,0-.7.22,1.05,1.05,0,0,0-.38.57v3.88h-1.56v-6h1.21l.18.79h0a1.71,1.71,0,0,1,.55-.68,1.41,1.41,0,0,1,.82-.24,2.24,2.24,0,0,1,.71.13Z"/><path class="cls-5" d="M156.36,48.87l.2.93h.06l.17-.95,1-3.12h1.68L157,51.79H156l-2.6-6.06h1.81Z"/><path class="cls-5" d="M164.72,51.21a2.84,2.84,0,0,1-1,.49,4.39,4.39,0,0,1-1.32.2,2.51,2.51,0,0,1-2.12-.85,3.62,3.62,0,0,1-.67-2.32,3.35,3.35,0,0,1,.75-2.38,2.84,2.84,0,0,1,2.13-.79,3.22,3.22,0,0,1,.88.12,2,2,0,0,1,.77.4,1.8,1.8,0,0,1,.54.74,2.85,2.85,0,0,1,.21,1.17q0,.24,0,.54c0,.19-.06.39-.09.6h-3.59a1.73,1.73,0,0,0,.39,1.14,1.49,1.49,0,0,0,1.14.38,2.46,2.46,0,0,0,.88-.15,2.27,2.27,0,0,0,.59-.31Zm-2.22-4.4a1.09,1.09,0,0,0-.91.37,1.84,1.84,0,0,0-.35,1h2.22a1.47,1.47,0,0,0-.19-1A.89.89,0,0,0,162.5,46.81Z"/><path class="cls-5" d="M168,49.1l.21.94h.07l.16-.95.91-3.36H171l-1.83,5.41c-.15.45-.29.86-.43,1.23a6.3,6.3,0,0,1-.46,1,2.33,2.33,0,0,1-.56.63,1.21,1.21,0,0,1-.73.22,2.12,2.12,0,0,1-1-.2l.28-1.25a.92.92,0,0,0,.36.07.83.83,0,0,0,.54-.23,1.64,1.64,0,0,0,.39-.85l-2.51-6h1.87Z"/></svg>