<svg id="Layer_1" data-name="Layer 1" xmlns="http://www.w3.org/2000/svg" viewBox="0 0 34 34"><defs><style>.cls-1{fill:#00467f;}.cls-2{fill:none;stroke:#fff;stroke-linejoin:round;stroke-width:1.9px;}.cls-3{fill:#fff;}</style></defs><title>download–results_icon</title><path class="cls-1" d="M9.64,22.8a13.13,13.13,0,0,1,.21-2.27H6.08a1.05,1.05,0,0,1,0-2.1h4.34a12.89,12.89,0,0,1,2.48-4.16H6.08a1,1,0,0,1,0-2.1h9.2a12.72,12.72,0,0,1,5.48-2.08V2.52A1.8,1.8,0,0,0,19,.72H2.84A1.79,1.79,0,0,0,1,2.52v21.8a1.79,1.79,0,0,0,1.8,1.8h7.25A12.55,12.55,0,0,1,9.64,22.8ZM6.08,5.93h9.45a1,1,0,0,1,0,2.1H6.08a1,1,0,0,1,0-2.1Z"/><circle class="cls-1" cx="22.48" cy="22.8" r="10.48"/><line class="cls-2" x1="22.48" y1="15.71" x2="22.48" y2="28.25"/><polygon class="cls-3" points="16.27 23.22 17.38 22.18 22.48 27.67 27.59 22.18 28.7 23.22 22.48 29.9 16.27 23.22"/></svg>