<svg id="Layer_1" data-name="Layer 1" xmlns="http://www.w3.org/2000/svg" viewBox="0 0 47 43"><defs><style>.cls-1{fill:#fff;}</style></defs><title>envelope_opened</title><path class="cls-1" d="M7.79,15.62A2.65,2.65,0,0,1,10.44,13H36.52a2.65,2.65,0,0,1,2.65,2.65v3.54L45.39,15,43.2,13.51l-17-11.86h0a5,5,0,0,0-5.37,0L1.61,15l6.19,4.09Z"/><path class="cls-1" d="M46.08,16.66,27.18,29.14a6.68,6.68,0,0,1-7.34,0L.92,16.66a3.85,3.85,0,0,0-.18,1.1V38.22a3.94,3.94,0,0,0,3.92,3.92H42.33a3.93,3.93,0,0,0,3.92-3.92V17.75A3.86,3.86,0,0,0,46.08,16.66ZM16.13,31.13,4.86,39.57a.86.86,0,0,1-1-1.38L15.1,29.75a.86.86,0,0,1,1,1.38Zm27.42,8.25a.86.86,0,0,1-.69.35.85.85,0,0,1-.51-.17L30.73,30.92a.86.86,0,1,1,1-1.38l11.62,8.63A.86.86,0,0,1,43.56,39.38Zm-27.65-20h15a.87.87,0,0,0,0-1.72h-15a.87.87,0,0,0,0,1.72Zm0,4.18h15a.87.87,0,0,0,0-1.72h-15a.87.87,0,0,0,0,1.72Z"/></svg>