<svg id="Layer_1" data-name="Layer 1" xmlns="http://www.w3.org/2000/svg" viewBox="0 0 47 30"><defs><style>.cls-1{fill:#fff;}</style></defs><title>envelope_closed</title><path class="cls-1" d="M46,3.13l-.05,0L27.21,15.9a6.55,6.55,0,0,1-3.7,1.1h0a6.47,6.47,0,0,1-3.77-1.15L1,3.17,1,3.13A4.07,4.07,0,0,0,.75,4.39V24.85a3.93,3.93,0,0,0,3.92,3.93H42.33a3.93,3.93,0,0,0,3.92-3.93V4.39A3.8,3.8,0,0,0,46,3.13ZM16.14,17.77,4.87,26.22a.93.93,0,0,1-.53.17.88.88,0,0,1-.7-.35.83.83,0,0,1-.16-.65.83.83,0,0,1,.34-.57L15.1,16.38a.82.82,0,0,1,.52-.18.92.92,0,0,1,.7.35.87.87,0,0,1,.16.66A.79.79,0,0,1,16.14,17.77ZM43.56,26a.88.88,0,0,1-.7.35.9.9,0,0,1-.52-.17L30.72,17.57A.88.88,0,0,1,31.25,16a.86.86,0,0,1,.52.18L43.38,24.8a.91.91,0,0,1,.35.58A.86.86,0,0,1,43.56,26Zm-20-11a4.53,4.53,0,0,0,2.6-.76L44.86,1.55a2.87,2.87,0,0,0-1.16-.32H3.47a3,3,0,0,0-1.33.33L20.87,14.26A4.57,4.57,0,0,0,23.51,15Z"/></svg>