<svg id="Layer_1" data-name="Layer 1" xmlns="http://www.w3.org/2000/svg" xmlns:xlink="http://www.w3.org/1999/xlink" viewBox="0 0 127.56 69.56"><defs><style>.cls-1,.cls-5{fill:none;}.cls-2{fill:#c94726;}.cls-3{fill:#fff;opacity:0.7;}.cls-4{fill:#97aac4;}.cls-5{stroke:#003b71;stroke-linecap:round;stroke-linejoin:round;stroke-width:3px;}.cls-6{fill:#003b71;}.cls-7{clip-path:url(#clip-path);}</style><clipPath id="clip-path" transform="translate(-1.27 -1.18)"><path class="cls-1" d="M64.78,27.5A26.33,26.33,0,1,0,91.1,1.18,26.32,26.32,0,0,0,64.78,27.5Zm4.84,0A21.48,21.48,0,1,1,91.1,49,21.48,21.48,0,0,1,69.62,27.5Z"/></clipPath></defs><title>Explore_the_data_icon</title><g id="_Group_" data-name="&lt;Group&gt;"><path class="cls-6" d="M1.8,15.61h6v1.75h-4v2.35H7.42v1.76H3.77v2.46H7.85v1.76h-6Z" transform="translate(-1.27 -1.18)"/><path class="cls-6" d="M12.13,20.56,9.32,15.61h2.37l1.56,2.91.35,1,.33-1,1.62-2.91H17.7l-2.91,4.85,3.05,5.23H15.5l-1.77-3.11-.39-1.07L13,22.58l-1.78,3.11H9Z" transform="translate(-1.27 -1.18)"/><path class="cls-6" d="M19.3,15.71a11.6,11.6,0,0,1,1.33-.18,14.08,14.08,0,0,1,1.45-.07,8.44,8.44,0,0,1,1.5.13,3.73,3.73,0,0,1,1.36.48,2.8,2.8,0,0,1,1,1,3.37,3.37,0,0,1,.38,1.7A3.55,3.55,0,0,1,26,20.41a3,3,0,0,1-.88,1.07,3.59,3.59,0,0,1-1.24.61,5.82,5.82,0,0,1-1.45.18h-.56l-.34,0-.24,0v3.47h-2Zm2.94,1.45-.55,0-.42.05V20.5l.17,0,.25,0h.43a3.94,3.94,0,0,0,.77-.07,1.94,1.94,0,0,0,.68-.27,1.35,1.35,0,0,0,.49-.54,2,2,0,0,0,.18-.91,1.55,1.55,0,0,0-.18-.78,1.36,1.36,0,0,0-.45-.5,1.92,1.92,0,0,0-.64-.26A4.51,4.51,0,0,0,22.24,17.16Z" transform="translate(-1.27 -1.18)"/><path class="cls-6" d="M34.35,25.69H28V15.61h2v8.32h4.41Z" transform="translate(-1.27 -1.18)"/><path class="cls-6" d="M34.14,20.65a6,6,0,0,1,1.11-3.88,3.85,3.85,0,0,1,3.17-1.36,4.46,4.46,0,0,1,1.89.37,3.5,3.5,0,0,1,1.34,1.07,4.69,4.69,0,0,1,.79,1.65,8.45,8.45,0,0,1,.26,2.15,5.94,5.94,0,0,1-1.12,3.88,3.85,3.85,0,0,1-3.16,1.36,4.47,4.47,0,0,1-1.9-.38,3.37,3.37,0,0,1-1.33-1.06,4.83,4.83,0,0,1-.79-1.66A8.37,8.37,0,0,1,34.14,20.65Zm2.08,0a6.8,6.8,0,0,0,.13,1.4,3.55,3.55,0,0,0,.39,1.1,2,2,0,0,0,.69.72,1.79,1.79,0,0,0,1,.26,1.88,1.88,0,0,0,1.63-.82,4.78,4.78,0,0,0,.57-2.66,7.35,7.35,0,0,0-.12-1.37,3.92,3.92,0,0,0-.38-1.11,2,2,0,0,0-.68-.74,1.85,1.85,0,0,0-1-.27,1.87,1.87,0,0,0-1.63.84A4.85,4.85,0,0,0,36.22,20.65Z" transform="translate(-1.27 -1.18)"/><path class="cls-6" d="M44.54,15.71l.71-.11.77-.08.74,0,.66,0a8.08,8.08,0,0,1,1.39.13A3.76,3.76,0,0,1,50,16a2.42,2.42,0,0,1,.87.87,2.77,2.77,0,0,1,.32,1.39,3.33,3.33,0,0,1-.57,2,3.1,3.1,0,0,1-1.54,1.08l.7.44,2.31,3.85H49.84l-2.29-4-1-.19v4.14h-2Zm3,1.51H47a2.24,2.24,0,0,0-.46.06v2.93h.84a2.1,2.1,0,0,0,1.31-.38,1.45,1.45,0,0,0,.49-1.24,1.28,1.28,0,0,0-.4-1A1.7,1.7,0,0,0,47.56,17.22Z" transform="translate(-1.27 -1.18)"/><path class="cls-6" d="M53.64,15.61h6v1.75h-4v2.35h3.65v1.76H55.61v2.46h4.08v1.76h-6Z" transform="translate(-1.27 -1.18)"/><path class="cls-2" d="M7.83,33.15H5.38v6.94H3.73V33.15H1.27V31.69H7.83Z" transform="translate(-1.27 -1.18)"/><path class="cls-2" d="M14.09,36.57H11v3.52H9.37v-8.4H11v3.42h3.07V31.69h1.64v8.4H14.09Z" transform="translate(-1.27 -1.18)"/><path class="cls-2" d="M17.88,31.69h5v1.46H19.53v2h3v1.46h-3v2h3.39v1.47h-5Z" transform="translate(-1.27 -1.18)"/><path class="cls-2" d="M28.57,31.69a4.54,4.54,0,0,1,.57-.06l.66,0,.65,0H31a5.17,5.17,0,0,1,1.91.31,3.15,3.15,0,0,1,1.28.88,3.4,3.4,0,0,1,.72,1.34,6.15,6.15,0,0,1,.23,1.71,6,6,0,0,1-.22,1.65,3.53,3.53,0,0,1-2,2.39,5.09,5.09,0,0,1-2,.37h-.51l-.66,0-.65,0a3.93,3.93,0,0,1-.47,0ZM31.15,33h-.53a2.78,2.78,0,0,0-.4,0v5.63h.16l.25,0h.43a2.52,2.52,0,0,0,1.16-.24,2,2,0,0,0,.73-.66,2.54,2.54,0,0,0,.37-.94,5,5,0,0,0,.11-1.1,5.5,5.5,0,0,0-.09-1,2.66,2.66,0,0,0-.36-.9,2,2,0,0,0-.7-.65A2.36,2.36,0,0,0,31.15,33Z" transform="translate(-1.27 -1.18)"/><path class="cls-2" d="M40.84,38.23H38.26l-.64,1.86H36l3-8.46h1.21l3,8.46H41.51Zm-2.16-1.32h1.8L39.85,35l-.25-1.32h-.06l-.25,1.33Z" transform="translate(-1.27 -1.18)"/><path class="cls-2" d="M49.68,33.15H47.23v6.94H45.59V33.15H43.13V31.69h6.55Z" transform="translate(-1.27 -1.18)"/><path class="cls-2" d="M54.43,38.23H51.85l-.63,1.86H49.57l3-8.46h1.21l3,8.46H55.11Zm-2.16-1.32h1.8L53.45,35l-.25-1.32h-.06l-.25,1.33Z" transform="translate(-1.27 -1.18)"/><path class="cls-2" d="M57.87,39.29a.83.83,0,0,1,.26-.66,1,1,0,0,1,.7-.25,1,1,0,0,1,.72.25.87.87,0,0,1,.26.66.91.91,0,0,1-.26.68,1,1,0,0,1-.72.25,1,1,0,0,1-.7-.25A.88.88,0,0,1,57.87,39.29Zm.16-7.6h1.61v3.95l-.31,2h-1l-.32-2Z" transform="translate(-1.27 -1.18)"/><circle class="cls-3" cx="89.83" cy="26.32" r="24.17"/><rect class="cls-2" x="56.49" y="45.87" width="6.86" height="26.33" transform="translate(58.98 141.97) rotate(-134.8)"/><rect class="cls-2" x="68.57" y="46.74" width="5" height="2.44" transform="translate(85.85 131) rotate(-134.8)"/><path class="cls-4" d="M77.48,38.94l6.69-11.87,6.73,10.5,6.38-21.83L102,24.67l10.35-9.18s10.72,20.72-10,33.21c-17.78,9.4-27.33-5.59-27.33-5.59Z" transform="translate(-1.27 -1.18)"/><polyline class="cls-5" points="72.83 43.14 82.89 25.89 89.63 36.39 96 14.56 100.76 23.49 118.56 7.15"/><polygon class="cls-6" points="119.15 13.4 117.34 8.28 112.39 6.03 124.5 1.71 119.15 13.4"/><path class="cls-2" d="M64.78,27.5A26.33,26.33,0,1,0,91.1,1.18,26.32,26.32,0,0,0,64.78,27.5Zm4.84,0A21.48,21.48,0,1,1,91.1,49,21.48,21.48,0,0,1,69.62,27.5Z" transform="translate(-1.27 -1.18)"/><g class="cls-7"><polyline class="cls-5" points="75.57 39.14 82.89 25.89 89.63 36.39 96 14.56 100.76 23.49 117.3 8.32"/><polygon class="cls-6" points="118.01 15.96 115.8 9.7 109.75 6.95 124.56 1.67 118.01 15.96"/></g></g></svg>