<svg id="Layer_2" data-name="Layer 2" xmlns="http://www.w3.org/2000/svg" viewBox="0 0 39 30"><defs><style>.cls-1{fill:none;stroke:#fff;stroke-linecap:round;stroke-linejoin:round;stroke-width:1.25px;}</style></defs><title>feedback_icon</title><path class="cls-1" d="M14.94,1.82A2.78,2.78,0,0,0,13,1H3.82A2.8,2.8,0,0,0,1,3.8V8.61a2.79,2.79,0,0,0,2.8,2.79H8.18l1.05,1.2,2.53,2.89c.61.7,1.1.51,1.1-.41v-2c0-.8,0-1.51,0-1.72H13a2.78,2.78,0,0,0,2.8-2.79V3.8A2.82,2.82,0,0,0,14.94,1.82Z"/><path class="cls-1" d="M31.51,10.51a6.2,6.2,0,1,1-6.2-6.19A6.19,6.19,0,0,1,31.51,10.51Z"/><path class="cls-1" d="M38,29A13.3,13.3,0,0,0,29,18.33l-3.73,3.76-3.73-3.76A13.31,13.31,0,0,0,12.64,29Z"/></svg>