<svg id="Layer_1" data-name="Layer 1" xmlns="http://www.w3.org/2000/svg" viewBox="0 0 30 30"><defs><style>.cls-1{fill:none;stroke:#fff;stroke-miterlimit:10;stroke-width:1.25px;}.cls-2{fill:#fff;}</style></defs><title>general_question</title><circle class="cls-1" cx="15" cy="15" r="14"/><path class="cls-2" d="M13.33,18.75l-.06-.62A5.11,5.11,0,0,1,14.92,14c1.19-1.26,1.85-2.18,1.85-3.25s-.84-2-2.52-2a5.09,5.09,0,0,0-2.67.73L10.94,8a7.58,7.58,0,0,1,3.79-1c3.05,0,4.43,1.68,4.43,3.49,0,1.61-1,2.77-2.28,4.13a4.41,4.41,0,0,0-1.51,3.49l0,.62Zm-.59,3.32a1.49,1.49,0,0,1,1.59-1.5,1.49,1.49,0,1,1,0,3A1.47,1.47,0,0,1,12.74,22.07Z"/></svg>