<svg id="Layer_1" data-name="Layer 1" xmlns="http://www.w3.org/2000/svg" viewBox="0 0 57 51"><defs><style>.cls-1{fill:#c94726;}</style></defs><title>home_icon–Orange</title><path class="cls-1" d="M46.84,28.35,29.76,13.71a2,2,0,0,0-2.51,0L10.16,28.36a4.09,4.09,0,0,0-1.25,2.73V48.48a1.65,1.65,0,0,0,1.65,1.65H21.83a1.66,1.66,0,0,0,1.65-1.65v-12a1.65,1.65,0,0,1,1.65-1.65h7a1.65,1.65,0,0,1,1.65,1.65v12a1.66,1.66,0,0,0,1.66,1.65h11a1.65,1.65,0,0,0,1.65-1.65V31.08A4.14,4.14,0,0,0,46.84,28.35ZM28.5,29A3.47,3.47,0,1,1,32,25.55,3.47,3.47,0,0,1,28.5,29Z"/><path class="cls-1" d="M46.57,2.66H42.33a1.65,1.65,0,0,0-1.65,1.65V7l7.54,6.51V4.31A1.65,1.65,0,0,0,46.57,2.66Z"/><path class="cls-1" d="M1.87,27.29a3.34,3.34,0,0,1,.23-4.72L26.25,1.74a3.34,3.34,0,0,1,4.5,0L54.9,22.57a3.34,3.34,0,1,1-4.49,4.94L28.5,8.73,6.59,27.52C5,29.07,2.53,28,1.87,27.29Z"/></svg>