<svg id="Layer_1" data-name="Layer 1" xmlns="http://www.w3.org/2000/svg" xmlns:xlink="http://www.w3.org/1999/xlink" viewBox="0 0 80 72"><defs><style>.cls-1,.cls-5{fill:none;}.cls-2{fill:#fff;opacity:0.7;isolation:isolate;}.cls-3{fill:#c94726;}.cls-4{fill:#97aac4;}.cls-5{stroke:#003b71;stroke-linecap:round;stroke-linejoin:round;stroke-width:3px;}.cls-6{fill:#003b71;}.cls-7{clip-path:url(#clip-path);}</style><clipPath id="clip-path"><path class="cls-1" d="M18.23,27.54A26.33,26.33,0,1,0,44.57,1.22h0A26.32,26.32,0,0,0,18.23,27.54Zm4.84,0A21.48,21.48,0,1,1,44.55,49a21.48,21.48,0,0,1-21.48-21.5Z"/></clipPath></defs><title>magnifying_glass_icon</title><g id="_Group_" data-name=" Group "><circle class="cls-2" cx="44.55" cy="27.54" r="24.17"/><rect class="cls-3" x="0.2" y="55.64" width="26.33" height="6.86" transform="translate(-37.74 26.58) rotate(-44.8)"/><rect class="cls-3" x="23.3" y="45.5" width="2.44" height="5" transform="translate(-26.7 31.22) rotate(-44.8)"/><path class="cls-4" d="M30.93,39l6.69-11.87,6.73,10.5,6.38-21.83,4.72,8.93L65.8,15.53s10.72,20.72-10,33.21C38,58.14,28.47,43.15,28.47,43.15Z"/><polyline class="cls-5" points="27.55 44.36 37.61 27.11 44.35 37.61 50.72 15.78 55.48 24.71 73.28 8.37"/><polygon class="cls-6" points="73.87 14.62 72.06 9.5 67.11 7.25 79.22 2.93 73.87 14.62"/><path class="cls-3" d="M18.23,27.54A26.33,26.33,0,1,0,44.57,1.22h0A26.32,26.32,0,0,0,18.23,27.54Zm4.84,0A21.48,21.48,0,1,1,44.55,49a21.48,21.48,0,0,1-21.48-21.5Z"/><g class="cls-7"><polyline class="cls-5" points="30.29 40.36 37.61 27.11 44.35 37.61 50.72 15.78 55.48 24.71 72.02 9.54"/><polygon class="cls-6" points="72.73 17.18 70.52 10.92 64.47 8.17 79.28 2.89 72.73 17.18"/></g></g></svg>