<svg id="Layer_1" data-name="Layer 1" xmlns="http://www.w3.org/2000/svg" viewBox="0 0 26 37"><defs><style>.cls-1{fill:white;}</style></defs><title>menu_learn-more_icon</title><path class="cls-1" d="M8.47,31.17h9a1.36,1.36,0,1,0,0-2.71h-9a1.36,1.36,0,0,0,0,2.71Zm9,1.37h-9a1.19,1.19,0,1,0,0,2.36h2A2.7,2.7,0,0,0,12.79,36a2.7,2.7,0,0,0,2.36-1.09h2.32a1.19,1.19,0,1,0,0-2.36Z"/><path class="cls-1" d="M13,1A11.89,11.89,0,0,0,6,22.5c.42.31,1.39.79,1.39,1.35v1.69A1.49,1.49,0,0,0,8.87,27h8.25a1.49,1.49,0,0,0,1.49-1.49V23.85c0-.56,1-1,1.39-1.35A11.89,11.89,0,0,0,13,1Zm-.19,3.92a8,8,0,0,0-7.69,8,.85.85,0,0,1-1.7,0,9.73,9.73,0,0,1,9.33-9.71.85.85,0,1,1,.07,1.7Z"/></svg>