<svg id="Layer_1" data-name="Layer 1" xmlns="http://www.w3.org/2000/svg" viewBox="0 0 37 37"><defs><style>.cls-1{fill:#003b71;}</style></defs><title>menu_public-data_icon</title><path class="cls-1" d="M20.15,25.88H16.6L9.31,33.17a1.24,1.24,0,1,0,1.76,1.76l6.07-6.06v5.89a1.24,1.24,0,0,0,2.49,0v-5.9l6.07,6.06a1.24,1.24,0,0,0,1.76-1.76Z"/><path class="cls-1" d="M2.5,4.69A1.84,1.84,0,0,1,.65,2.84h0A1.84,1.84,0,0,1,2.5,1h32a1.84,1.84,0,0,1,1.84,1.84h0A1.84,1.84,0,0,1,34.5,4.69H2.5Z"/><path class="cls-1" d="M2.5,6H2.36v16.3A2.25,2.25,0,0,0,4.6,24.55H32.16a2.25,2.25,0,0,0,2.24-2.24V6Zm28.86,5.84-4.73,2.42a.75.75,0,0,1-.79-.07l-3.92-3-4.08,6.7a.74.74,0,0,1-1,.28L12.59,16.1,6.3,21.84a.75.75,0,0,1-1-1.1L12,14.65a.74.74,0,0,1,.83-.12l4.12,2,4.15-6.82a.75.75,0,0,1,1.09-.21l4.21,3.2,4.31-2.21a.75.75,0,1,1,.68,1.33Z"/></svg>