<svg id="Layer_1" data-name="Layer 1" xmlns="http://www.w3.org/2000/svg" viewBox="0 0 37 33"><defs><style>.cls-1{fill:white;}</style></defs><title>menu_home_icon</title><path class="cls-1" d="M30.17,18.31,19.3,9a1.27,1.27,0,0,0-1.6,0L6.83,18.32A2.62,2.62,0,0,0,6,20.05V31.12a1.05,1.05,0,0,0,1.05,1.05h7.17a1.05,1.05,0,0,0,1.05-1.05V23.48a1.06,1.06,0,0,1,1.05-1.05h4.47a1.06,1.06,0,0,1,1.05,1.05v7.64a1.05,1.05,0,0,0,1.05,1.05h7A1.05,1.05,0,0,0,31,31.12V20.05A2.62,2.62,0,0,0,30.17,18.31Zm-11.67.43a2.21,2.21,0,1,1,2.21-2.21A2.21,2.21,0,0,1,18.5,18.74Z"/><path class="cls-1" d="M30,2H27.3A1.05,1.05,0,0,0,26.25,3V4.7L31,8.84V3A1.05,1.05,0,0,0,30,2Z"/><path class="cls-1" d="M1.55,17.64a2.13,2.13,0,0,1,.14-3L17.07,1.38a2.13,2.13,0,0,1,2.86,0L35.3,14.63a2.13,2.13,0,1,1-2.86,3.15L18.5,5.83l-13.94,12A2.3,2.3,0,0,1,1.55,17.64Z"/></svg>