<svg id="Layer_1" data-name="Layer 1" xmlns="http://www.w3.org/2000/svg" xmlns:xlink="http://www.w3.org/1999/xlink" viewBox="0 0 26 35"><defs><style>.cls-1,.cls-5{fill:#003b71;}.cls-1{fill-rule:evenodd;}.cls-2,.cls-3{fill:none;stroke:#fff;stroke-miterlimit:10;}.cls-2{stroke-width:0.86px;}.cls-3{stroke-width:0.82px;}.cls-4{opacity:0.2;}.cls-6{fill:#fff;}</style><symbol id="Start_Up_icon" data-name="Start Up icon" viewBox="0 0 20 27.27"><path class="cls-1" d="M18.64,25.91H2a.68.68,0,1,1,0-1.36H18.64A1.37,1.37,0,0,0,20,23.18V1.36A1.37,1.37,0,0,0,18.64,0H2A2,2,0,0,0,0,2V25.23a2.05,2.05,0,0,0,2,2H18.64A1.37,1.37,0,0,0,20,25.91v-.68H18.64Z"/><circle class="cls-2" cx="10.13" cy="11.13" r="6.31"/><polygon class="cls-3" points="6.47 13.18 10.13 7.63 13.79 13.18 6.47 13.18"/><g class="cls-4"><path class="cls-5" d="M10.57,7.87a.51.51,0,0,1-.88,0A.51.51,0,0,1,10.57,7.87Z"/><circle class="cls-6" cx="10.13" cy="7.87" r="0.13"/></g></symbol></defs><title>menu_start-up_icon</title><use width="20" height="27.27" transform="translate(0.86 0.94) scale(1.21)" xlink:href="#Start_Up_icon"/></svg>