<svg id="Layer_1" data-name="Layer 1" xmlns="http://www.w3.org/2000/svg" viewBox="0 0 79 48"><defs><style>.cls-1,.cls-2{fill:#aa0638;}.cls-1{fill-rule:evenodd;}</style></defs><title>NCI_logo</title><path class="cls-1" d="M19.07,10.29a8.47,8.47,0,0,0-.74,1.78c-.45-.15-1,.15-.89-.15L22.34,1.22s.6,1.19,4.91,11.3c.15.6.59.89,1.34,1h-3a1,1,0,0,0,.3-1.19c-.3-.59-.89-2.08-.89-2.08Zm.3-.59h5.35L22.2,3.31,19.37,9.7Z"/><path class="cls-1" d="M43,1.22A6.12,6.12,0,0,1,49.4,7.47a6,6,0,0,1-6.24,6.24c-3.42,0-6.24-2.08-6.24-6.84A5.84,5.84,0,0,1,43,1.22Zm0,.3c2.23,0,5.06,1.79,5.21,5.95.3,5.06-3.27,5.8-4.91,5.8-2.67,0-5.35-2.68-5.35-6.39C38.1,2.41,41.38,1.52,43,1.52Z"/><path class="cls-1" d="M25.32,23.67s-.15.45-.75,1.79c-.15.44-.15,1.19.15,1.34a13.58,13.58,0,0,0-2.23.15,3.44,3.44,0,0,0,1-1c4.91-10.7,5.21-11.3,5.21-11.3s.59,1.19,4.76,11.3a1.68,1.68,0,0,0,1.49,1H31.86a1,1,0,0,0,.3-1.19,16.69,16.69,0,0,0-.89-2.08Zm.45-.59h5.35l-2.68-6.39-2.67,6.39Z"/><path class="cls-1" d="M61.89,10.29s-.15.45-.75,1.78c-.15.45-.15,1.19.15,1.34a13.91,13.91,0,0,0-2.23.15,3.41,3.41,0,0,0,1-1c4.91-10.71,5.2-11.3,5.2-11.3s.6,1.19,4.76,11.3a1.67,1.67,0,0,0,1.49,1H68.43a1,1,0,0,0,.3-1.19,17.09,17.09,0,0,0-.89-2.08Zm.44-.59h5.35L65,3.31,62.34,9.7Z"/><path class="cls-1" d="M74.68,26.95a5,5,0,0,1-2.08-.3,12.82,12.82,0,0,1-3.27-3.72c-.75-1-1.19-1.78-1.49-1.63a8.44,8.44,0,0,1-1.93,0v4.76a1.07,1.07,0,0,0,.59,1H64.27a1.52,1.52,0,0,0,.6-1V15.79a1.1,1.1,0,0,0-.6-.89h3.27s2.82-.3,3.27,2.38a3.72,3.72,0,0,1-1.63,3.57c.15.75,3.27,5.65,5.5,6.1Zm-4.91-8.77a3.47,3.47,0,0,0-1.19-2.68,2.67,2.67,0,0,0-2.38-.15c-.44.15-.3.3-.3.74V21a6,6,0,0,0,1.63,0c1.49-.45,2.08-1,2.23-2.83Z"/><path class="cls-1" d="M76.07,2.52a1.85,1.85,0,0,1,.64.08.58.58,0,0,1,.36.6.51.51,0,0,1-.23.46.86.86,0,0,1-.34.11.56.56,0,0,1,.4.23.66.66,0,0,1,.13.36v.17c0,.06,0,.11,0,.18a.55.55,0,0,0,0,.12l0,0h-.39V4.55A.58.58,0,0,0,76.45,4,1,1,0,0,0,76,3.93h-.33v.92h-.41V2.52Zm.44.37A1.05,1.05,0,0,0,76,2.8h-.35v.85H76a1.16,1.16,0,0,0,.39-.05.36.36,0,0,0,.24-.37.36.36,0,0,0-.16-.34ZM77.62,5.2a2.12,2.12,0,0,1-3,0A2.06,2.06,0,0,1,74,3.69a2,2,0,0,1,.62-1.5,2.13,2.13,0,0,1,3,0,2.05,2.05,0,0,1,.62,1.5,2.06,2.06,0,0,1-.62,1.51ZM74.82,2.39a1.77,1.77,0,0,0-.53,1.3A1.79,1.79,0,0,0,74.81,5a1.83,1.83,0,0,0,2.6,0,1.78,1.78,0,0,0,.54-1.31,1.77,1.77,0,0,0-.54-1.3,1.82,1.82,0,0,0-2.59,0Z"/><path class="cls-2" d="M1.68,24.57V39.14c0,.74-.89,1.49-.89,1.49H4.06s-.89-.74-.89-1.49V24.57c0-.74.89-1.34.89-1.34H.78s.89.6.89,1.34Z"/><path class="cls-2" d="M15.65,38.25V29.62c0-.45.74-.3.74,0V40.77L7.18,30.22v9.67c0,.3.59.74.59.74H5.69s.59-.45.59-.74V29.17c0-.44-.59-.59-.59-.59H7.63v.74l8,8.92Z"/><polygon class="cls-2" points="0.76 43.1 77.92 43.1 77.92 46.93 0.76 46.93 0.76 43.1 0.76 43.1"/><path class="cls-2" d="M34.83,29.47V39.58a1.52,1.52,0,0,1-.6,1h2.23a1.52,1.52,0,0,1-.6-1V29.47c0-.45.6-.89.6-.89H34.24a1.1,1.1,0,0,1,.6.89Z"/><path class="cls-2" d="M24.13,28.58s-.74,0-.74,1a1.38,1.38,0,0,1,.89-.45H27.7s.3-.15.3.3V39.58a1.52,1.52,0,0,1-.59,1h2.23a1.52,1.52,0,0,1-.59-1V29.47c0-.45.45-.3.45-.3H32.9s.3,0,.74.45c0-1-.6-1-.6-1Z"/><path class="cls-2" d="M38.25,28.58s-.6,0-.6,1c.44-.45.74-.45.74-.45h3.42s.44-.15.44.3V39.58a1.52,1.52,0,0,1-.59,1H43.9a1.52,1.52,0,0,1-.59-1V29.47c0-.45.3-.3.3-.3H47a1.37,1.37,0,0,1,.89.45c0-1-.74-1-.74-1Z"/><path class="cls-2" d="M60.7,28.58s-.59,0-.59,1c.44-.45.74-.45.74-.45h3.42s.45-.15.45.3V39.58a1.52,1.52,0,0,1-.6,1h2.23a1.52,1.52,0,0,1-.59-1V29.47c0-.45.3-.3.3-.3h3.57s.3,0,.74.45c0-1-.74-1-.74-1Z"/><path class="cls-2" d="M76.31,35.12s-.44-.6-.89-.6H72.74v5.21c0,.44.3.44.3.44h3.57a2.51,2.51,0,0,0,1-.59c0,1-.59,1.19-1,1.19-2.53,0-5.65-.15-5.65-.15a1.52,1.52,0,0,0,.59-1V29.47a1.1,1.1,0,0,0-.59-.89h4.76s.59,0,.59,1c-.44-.45-.74-.45-.74-.45H73s-.3-.15-.3.3v4.61h2.68c.45,0,.89-.59.89-.59v1.63Z"/><path class="cls-2" d="M57.43,39.29v.3a1.52,1.52,0,0,1-.59,1h2.23a1.52,1.52,0,0,1-.6-1V29.47c0-.45.6-.89.6-.89H56.84a1.1,1.1,0,0,1,.59.89v9.37c-.59.45-2.53,1.79-4.16,1.49-3.27-.45-3.42-3.87-3.42-3.87v-7c0-.45.6-.89.6-.89H48.07s.89.59.89,1a25.57,25.57,0,0,1-.15,4.46c0,1-.15,3.27.6,4.76,1,1.93,3.42,1.93,4.17,1.93a6.68,6.68,0,0,0,3.86-1.49Z"/><path class="cls-2" d="M62.34,21.44s-.44-.59-.89-.59H58.77v5.2c0,.45.3.45.3.45h3.57a2.67,2.67,0,0,0,1.19-.59,1.07,1.07,0,0,1-1.19,1.19c-2.53-.15-5.65-.15-5.65-.15a1.52,1.52,0,0,0,.59-1V15.79A1.1,1.1,0,0,0,57,14.9h4.76s.59,0,.59,1c-.44-.59-.74-.59-.74-.59H59.07s-.3,0-.3.44v4.46h2.67a1.11,1.11,0,0,0,.89-.44v1.63Z"/><path class="cls-2" d="M43.75,15.65c0-.44-.59-.74-.59-.74h2.08s-.59.3-.59.74v11.6L35.28,16.69V26.2c0,.45.74.75.74.75H33.94s.59-.3.59-.75V15.65c0-.44-.59-.74-.59-.74h1.93v.89l7.88,8.77V15.65Z"/><path class="cls-2" d="M59.07,2.12c0-.3-.6-.74-.6-.74h2.08s-.74.44-.74.74V13.27l-.15.15L50.59,3.16v9.66c0,.3.74.74.74.74H49.25s.6-.44.6-.74V2.12c0-.45-.6-.6-.6-.6h1.93v.74l7.88,8.92V2.12Z"/><path class="cls-2" d="M35.13,2.41V12.52a1.51,1.51,0,0,1-.6,1h2.23a1.51,1.51,0,0,1-.59-1V2.41c0-.44.59-.89.59-.89H34.54s.6.45.6.89Z"/><path class="cls-2" d="M25,1.52s-.59,0-.59,1c.45-.44.75-.44.75-.44h3.42S29,2,29,2.41V12.52a1.51,1.51,0,0,1-.6,1h2.23a1.51,1.51,0,0,1-.6-1V2.41c0-.44.3-.3.3-.3h3.57s.3,0,.74.44c0-1-.74-1-.74-1Z"/><path class="cls-2" d="M73.19,1.52H70.81s.59.45.59.89V12.52a1.51,1.51,0,0,1-.59,1s3.12.15,5.65.15c.45,0,1-.15,1-1.19a1.41,1.41,0,0,1-1,.6H72.89s-.3,0-.3-.45V2.41c0-.44.59-.89.59-.89Z"/><path class="cls-2" d="M56.39,15.5c0,.6-.15.74-.3,2.08,0-2.53-4-2.38-4-2.38s-5.35-.15-5.2,5.2c0,5.06,3.57,6.54,5.65,6.54a4,4,0,0,0,4-2.23,12.43,12.43,0,0,1-.44,1.93,9.94,9.94,0,0,1-3.57.75c-2.38,0-7-1.19-6.84-6.54s4.91-6.1,6.39-6.1c2.53,0,3.87,1,4.31.75Z"/><path class="cls-2" d="M11.49,13.42,3,3.75v14c0,.6.89,1,.89,1H1.08s.89-.45.89-1V2.41c0-.6-1-1-1-1a8.62,8.62,0,0,0,3,0c-.15.6-.3.74,0,1,2.53,3,6.54,7.44,8.92,10.26l-1.34.74Z"/><path class="cls-2" d="M23.24,12.82a12.11,12.11,0,0,0-.59,3c0-3.57-4.46-3.57-5.8-3.57s-7.44.6-7.44,7.73,5.06,9.22,8.18,9.22c2.53,0,4.91-.59,5.8-3A14.75,14.75,0,0,1,22.79,29a28.09,28.09,0,0,1-5.35.89c-3.27,0-9.81-1.79-9.66-9.37s7-8.92,9.07-8.92c3.72,0,5.5,1.64,6.39,1.19Z"/><path class="cls-2" d="M22.34,40.33a6.26,6.26,0,0,1-3.72.15c-.6-.15-.6-.15-.74,0a15.72,15.72,0,0,1-.15-1.79c.6,2.23,4.16,1.49,4.46,1.19.6-.6.89-.6.89-1.93s-1.93-2.82-2.38-3.12c-.6-.3-2.83-1.78-2.68-3.27s0-1.49.89-2.08a1.55,1.55,0,0,1,1.49-.3l-.3.45a1.07,1.07,0,0,0-1.34,1.19c0,1.49,1,1.93,2.08,2.68S24,35.71,24,37.35a3.13,3.13,0,0,1-1.63,3Z"/><path class="cls-2" d="M15.21,11.93V2.26c0-.45-.3-.74-.89-1a11.47,11.47,0,0,0,3.12-.15c-.59.45-1,.74-1,1.19v9.51l-1.19.15Z"/></svg>