<svg id="Layer_1" data-name="Layer 1" xmlns="http://www.w3.org/2000/svg" viewBox="0 0 127 31"><defs><style>.cls-1{fill:#575a5d;}.cls-2{fill:#c01f3e;}</style></defs><title>NIH_logo</title><path class="cls-1" d="M33.43,9.05V22H31.16V16.17h-5.9V22H23v-13h2.27v5.15h5.9V9.05h2.27ZM20.73,22H18.46v-13h2.27Zm-4.5,0h-2.4l-5.9-9.53H7.87V22H5.71v-13h2.4L14,18.6h0V9.05h2.16Zm25.2-6.52L33.41,1H3.89A2.67,2.67,0,0,0,1.22,3.68V27.33A2.67,2.67,0,0,0,3.89,30H33.38Z"/><path class="cls-1" d="M35.4,30l8-14.51L35.42,1h2a3.74,3.74,0,0,1,3,1.75l7,12.74L40.36,28.25a3.74,3.74,0,0,1-3,1.75Z"/><path class="cls-2" d="M35.4,30l8-14.51L35.42,1h2a3.75,3.75,0,0,1,3,1.75l7,12.74L40.36,28.25a3.74,3.74,0,0,1-3,1.75Z"/><path class="cls-1" d="M115.44,21.29a1.07,1.07,0,1,1,2.14,0Zm3.06.6a2,2,0,1,0-4-.23,2,2,0,0,0,2,2.19,1.82,1.82,0,0,0,1.88-1.42h-.87a1,1,0,0,1-1,.69,1.11,1.11,0,0,1-1.12-1.23Zm-6.73-1.63h.69v2.46c0,.69.19,1.06,1.15,1.06.2,0,.39,0,.6,0V23a1.57,1.57,0,0,1-.39,0c-.41,0-.44-.19-.44-.57V20.26h.83v-.68h-.83V18.33h-.92v1.25h-.69Zm-.4-.68h-.92V22c0,.64-.26,1.14-1,1.14-.5,0-.8-.27-.8-1V19.57h-.92v2.64c0,1.09.47,1.64,1.55,1.64a1.4,1.4,0,0,0,1.18-.69h0v.58h.9Zm-6.61.68h.69v2.46c0,.69.19,1.06,1.15,1.06.2,0,.4,0,.6,0V23a1.57,1.57,0,0,1-.39,0c-.41,0-.44-.19-.44-.57V20.26h.83v-.68h-.83V18.33h-.92v1.25h-.69Zm-1.35-1.4h.92V18h-.92Zm0,4.88h.92V19.57h-.92Zm-3-3.48h.69v2.46c0,.69.19,1.06,1.15,1.06.2,0,.4,0,.6,0V23a1.6,1.6,0,0,1-.39,0c-.41,0-.44-.19-.44-.57V20.26h.83v-.68H102V18.33h-.92v1.25h-.69ZM96.58,22.4c0,1,.8,1.45,1.84,1.45.86,0,1.86-.36,1.86-1.35,0-.82-.68-1.06-1.34-1.22s-1.35-.22-1.35-.67.49-.43.76-.43.77.12.85.56h1c-.11-.93-.89-1.28-1.74-1.28s-1.74.28-1.74,1.19.66,1.09,1.34,1.23,1.34.21,1.36.69-.58.55-.93.55-.89-.19-.94-.73Zm-4.25,1.34h.92V21.28a1,1,0,0,1,1-1.1c.54,0,.8.28.81.94v2.62H96V20.88a1.32,1.32,0,0,0-1.47-1.42,1.49,1.49,0,0,0-1.3.74l0,0v-.61h-.87Zm-2,0h1V18h-1ZM87.29,18h-.92v2.12h0A1.61,1.61,0,0,0,85,19.46c-.91,0-1.8.66-1.8,2.17,0,1.25.64,2.22,1.95,2.22a1.39,1.39,0,0,0,1.29-.68h0v.56h.87Zm-3.2,3.71c0-.75.31-1.51,1.17-1.51.71,0,1.15.55,1.15,1.47,0,.73-.35,1.48-1.17,1.48s-1.15-.71-1.15-1.43m-3.44,2.15a2,2,0,0,0,2.1-2.2,2.1,2.1,0,1,0-4.2,0,2,2,0,0,0,2.1,2.2m0-.72c-.82,0-1.18-.75-1.18-1.48s.36-1.47,1.18-1.47,1.18.75,1.18,1.47-.36,1.48-1.18,1.48M76,23.85a2,2,0,0,0,2.1-2.2,2.1,2.1,0,1,0-4.2,0,2,2,0,0,0,2.1,2.2m0-.72c-.82,0-1.18-.75-1.18-1.48s.36-1.47,1.18-1.47,1.18.75,1.18,1.47-.36,1.48-1.18,1.48m-3.68.61h.92V18h-.92Zm-4.42-4.93h1.64c.55,0,.85.21.85.79a.77.77,0,0,1-.85.8H67.92Zm-1,4.93h2.64c1.49,0,2.12-.7,2.12-1.6a1.37,1.37,0,0,0-1.08-1.48v0a1.27,1.27,0,0,0,.82-1.23c0-1-.68-1.42-1.71-1.42H66.91Zm1-2.62H69.7a.85.85,0,0,1,1,.89.86.86,0,0,1-1,.91H67.92ZM63.83,18h-.92v2.12h0a1.61,1.61,0,0,0-1.39-.65c-.91,0-1.8.66-1.8,2.17,0,1.25.64,2.22,1.95,2.22a1.39,1.39,0,0,0,1.29-.68h0v.56h.87ZM60.63,21.7c0-.75.31-1.51,1.17-1.51.71,0,1.15.55,1.15,1.47,0,.73-.35,1.48-1.17,1.48s-1.15-.71-1.15-1.43m-5.19,2h.92V21.28a1,1,0,0,1,1-1.1c.54,0,.8.28.81.94v2.62h.92V20.88a1.32,1.32,0,0,0-1.47-1.42,1.49,1.49,0,0,0-1.3.74l0,0v-.61h-.87Zm-.85-3.07c0-.88-.85-1.21-1.67-1.21s-1.83.31-1.89,1.38h.92c0-.45.4-.66.92-.66s.86.09.86.56-.59.47-1.25.59-1.6.26-1.6,1.3a1.27,1.27,0,0,0,1.42,1.22,2.14,2.14,0,0,0,1.44-.51c.07.38.34.51.71.51a2.31,2.31,0,0,0,.58-.11v-.63l-.23,0c-.17,0-.22-.09-.22-.31Zm-.92,1.67c0,.58-.63.79-1,.79s-.85-.12-.85-.53.35-.63.75-.69a3.27,3.27,0,0,0,1.13-.25Z"/><path class="cls-1" d="M124.66,13.54h.56a.75.75,0,0,1-.52.78v.49a1.29,1.29,0,0,0,1.09-1.27V12.45h-1.12Zm-.85-4.16h-.92v.57h0a1.31,1.31,0,0,0-1.23-.68,1.92,1.92,0,0,0-1.88,2.09c0,1.19.55,2.19,1.87,2.19a1.43,1.43,0,0,0,1.25-.73h0v.64a.94.94,0,0,1-1.07,1.06c-.47,0-.89-.09-1-.61h-.92c.08,1,1,1.3,1.86,1.3,1.31,0,2-.62,2-1.87Zm-2,3.44c-.77,0-1.1-.69-1.1-1.38S121,10,121.77,10s1.12.66,1.12,1.38-.31,1.45-1.12,1.45m-6.29.72h.92V11.08a1,1,0,0,1,1-1.1c.54,0,.8.28.81.93v2.62h.92V10.68a1.32,1.32,0,0,0-1.47-1.42,1.5,1.5,0,0,0-1.3.74V9.37h-.87Zm-.82-4.16h-.92v2.42c0,.64-.26,1.14-1,1.14-.5,0-.8-.27-.8-1V9.37H111V12c0,1.09.47,1.63,1.55,1.63a1.4,1.4,0,0,0,1.18-.69h0v.58h.9Zm-8,4.16h3.93v-.87h-2.92V7.79h-1Zm-4.25,0H103a.75.75,0,0,1-.52.78v.49a1.29,1.29,0,0,0,1.08-1.27V12.45H102.4Zm-3-3.48h.69v2.46c0,.69.19,1.06,1.15,1.06.2,0,.4,0,.6,0v-.71a1.6,1.6,0,0,1-.39,0c-.41,0-.44-.19-.44-.57V10.06h.83V9.37H101V8.12h-.92V9.37h-.69Zm-2.27,3.48H98v-2c0-.92.5-1.43,1.13-1.43a3.25,3.25,0,0,1,.39,0V9.28a2,2,0,0,0-.35,0,1.34,1.34,0,0,0-1.22.92h0v-.8h-.86Zm-.85-3.07c0-.88-.85-1.21-1.67-1.21s-1.83.31-1.89,1.38h.92c0-.45.4-.66.92-.66s.86.09.86.56-.59.47-1.25.59-1.6.26-1.6,1.3A1.27,1.27,0,0,0,94,13.65a2.14,2.14,0,0,0,1.44-.51c.07.38.34.51.71.51a2.28,2.28,0,0,0,.58-.1v-.64l-.23,0c-.17,0-.22-.09-.22-.31Zm-.92,1.67c0,.58-.63.79-1,.79s-.85-.12-.85-.53.35-.63.75-.69a3.26,3.26,0,0,0,1.13-.25Zm-6.18-1a1.07,1.07,0,1,1,2.14,0Zm3.06.6a2,2,0,1,0-4-.23,2,2,0,0,0,2,2.19,1.82,1.82,0,0,0,1.88-1.42h-.87a1,1,0,0,1-1,.69,1.11,1.11,0,0,1-1.12-1.23Zm-9.34,1.85h1V10.94H86.5v2.59h1V7.79h-1v2.29H83.88V7.79h-1Zm-4,0h.92V7.79H78.9ZM78,10.47c0-.88-.85-1.21-1.67-1.21s-1.83.31-1.89,1.38h.92c0-.45.4-.66.92-.66s.86.09.86.56-.59.47-1.25.59-1.6.26-1.6,1.3a1.27,1.27,0,0,0,1.42,1.22,2.14,2.14,0,0,0,1.44-.51c.07.38.33.51.71.51a2.32,2.32,0,0,0,.58-.1v-.64l-.23,0c-.17,0-.22-.09-.22-.31Zm-.92,1.67c0,.58-.63.79-1,.79s-.85-.12-.85-.53.35-.63.75-.69a3.29,3.29,0,0,0,1.13-.25Zm-7,1.4H71V11.08A1,1,0,0,1,72,10c.54,0,.8.28.81.93v2.62h.92V10.68a1.32,1.32,0,0,0-1.47-1.42A1.49,1.49,0,0,0,71,10l0,0V9.37h-.87Zm-2.72.11a2,2,0,0,0,2.1-2.2,2.1,2.1,0,1,0-4.2,0,2,2,0,0,0,2.1,2.2m0-.72c-.82,0-1.18-.75-1.18-1.47S66.52,10,67.35,10s1.18.75,1.18,1.47-.36,1.47-1.18,1.47M63.66,8.66h.92V7.79h-.92Zm0,4.88h.92V9.37h-.92Zm-3-3.48h.69v2.46c0,.69.19,1.06,1.15,1.06.2,0,.39,0,.6,0v-.71a1.6,1.6,0,0,1-.39,0c-.41,0-.44-.19-.44-.57V10.06h.83V9.37H62.3V8.12h-.92V9.37h-.69Zm-.43.41c0-.88-.85-1.21-1.67-1.21s-1.83.31-1.89,1.38h.92c0-.45.4-.66.92-.66s.86.09.86.56-.59.47-1.25.59-1.6.26-1.6,1.3A1.27,1.27,0,0,0,58,13.65a2.13,2.13,0,0,0,1.44-.51c.07.38.34.51.71.51a2.28,2.28,0,0,0,.58-.1v-.64l-.22,0c-.17,0-.22-.09-.22-.31Zm-.92,1.67c0,.58-.63.79-1,.79s-.85-.12-.85-.53.35-.63.75-.69a3.28,3.28,0,0,0,1.13-.25Zm-8.15,1.4h1V9.31h0l2.62,4.23h1.06V7.79h-1V12h0L52.25,7.79H51.19Z"/></svg>