<svg id="Layer_1" data-name="Layer 1" xmlns="http://www.w3.org/2000/svg" viewBox="0 0 77 42"><defs><style>.cls-1{fill:#231f20;}</style></defs><title>OJJDP_logo</title><path class="cls-1" d="M29.71,9.81a2.46,2.46,0,0,1,4.91,0V29.62c0,4.63-.14,7.52-.94,8s-1.88.65-3.11-1.08l-.43.22v3.69c1.3.36,3.22.41,5.57-2,2.53-2.55,3.47-5.78,3.47-11.86V7.1h-14V29.62c0,4.63-.15,7.52-.94,8s-1.88.65-3.11-1.08l-.43.22v3.69c1.3.36,3.22.41,5.57-2,2.53-2.55,3.47-5.78,3.47-11.86V9.81Z"/><path class="cls-1" d="M41.72,3.7a.33.33,0,0,1,0,.67,2.3,2.3,0,0,0-2.53,2h-14c-.2,0-.2-.1-.2-.28,0-1.06-1.23-1.74-2.4-1.74a.33.33,0,0,1,0-.67Z"/><path class="cls-1" d="M42.29,3a.46.46,0,0,0,0-.92H22A.46.46,0,1,0,22,3Z"/><path class="cls-1" d="M68.24,29.55a58,58,0,0,0-10,0v-1.7c2.53-.14,2.74-.58,2.78-2.31V20.33A20.65,20.65,0,0,0,61,8s0-1.88,0-2.6-.24-1.81-1.4-1.81H58.2V2H70c4.52,0,6,2.21,6.11,5.86S74.08,17.62,67,16.21l-.58-1.41.32-.43c2.24.76,4.85-.72,4.7-5.13S69.34,4,67.39,4s-1.88.65-1.88,1.37V25.54c0,1.74.2,2.17,2.73,2.31v1.7Z"/><path class="cls-1" d="M24.45,19.28A12,12,0,0,1,12.57,30C4.69,30,.86,24,.86,16s4-14.61,12.22-14.61c8.61,0,11,6.72,11.37,9.54v8.39ZM13,3.59C8,3.59,5.78,8,5.78,15.16S8,27.74,13,27.74s7-5,7-11.79S17.93,3.59,13,3.59Z"/><path class="cls-1" d="M39.89,6.59c0-.81.58-1.5,1.77-1.57s1.4-1,.89-1.46a1,1,0,0,0,.77-1.5l6.6-.2c3.58-.11,11.32.43,11.32,12.33S53.5,29.33,48.91,29.33h-9V6.59Zm4.43,20.46C50,28,56.5,26.84,56.43,15.23c-.07-11.9-7-11.64-12.11-10.85V27.05Z"/></svg>