<svg id="Layer_1" data-name="Layer 1" xmlns="http://www.w3.org/2000/svg" viewBox="0 0 67 67"><defs><style>.cls-1{fill:#fff;}.cls-2{fill:#7398b1;}.cls-3{fill:#002e57;}.cls-4{fill:#001b49;}.cls-5{fill:#a04f1c;}.cls-6{fill:#c8dae3;}.cls-7{fill:#ffd900;}.cls-8{fill:#c29419;}.cls-10,.cls-11,.cls-9{fill:none;stroke-linecap:square;stroke-miterlimit:2;}.cls-10,.cls-9{stroke:#002e57;}.cls-9{stroke-width:0.19px;}.cls-10,.cls-11{stroke-width:0.25px;}.cls-11{stroke:#5a2900;}.cls-12{fill:#00654f;}</style></defs><title>OPM_logo</title><path class="cls-1" d="M33.5,66a32.5,32.5,0,0,0,23-55.48,32.5,32.5,0,1,0-46,46A32.29,32.29,0,0,0,33.5,66Z"/><polygon class="cls-1" points="43.6 19.65 43.82 19.73 44.26 20.09 43.9 20.48 42.44 20.26 42.19 20.23 43.6 19.65"/><polygon class="cls-1" points="24.45 20.86 24.67 20.26 25.33 20.5 24.45 20.86"/><polygon class="cls-1" points="23.26 19.67 24.5 20.17 22.99 20.42 23.26 19.67"/><polygon class="cls-2" points="33.8 18.46 33.47 9.71 33.2 18.43 33.8 18.46"/><polygon class="cls-2" points="33.17 46.97 33.89 46.91 33.53 57.04 33.17 46.97"/><polygon class="cls-2" points="10.14 33.5 18.25 33.11 18.27 33.81 10.14 33.5"/><polygon class="cls-2" points="49.04 33.21 56.93 33.52 49.04 33.79 49.04 33.21"/><polygon class="cls-3" points="49.6 30.4 48.85 29.38 48.94 30.15 49.6 30.4"/><path class="cls-4" d="M40.66,18.7A4.46,4.46,0,0,1,37,16.46a9,9,0,0,1,1.05-.26,5.31,5.31,0,0,1-2.53-1.62l2.89,6.75c1.29-1.15,2-1.23,2.53-1.16a7.76,7.76,0,0,1,1.29.56A5.23,5.23,0,0,1,42,20a11.27,11.27,0,0,1,1.92.29C43.45,19.07,40.66,18.7,40.66,18.7ZM18.48,25.48v.37c.47,3.26-.9,4.38-1.27,4.66,0,0,1.12-.34,1.15-.5s.09-.5.09-.5a.47.47,0,0,1,0-.31c0-.22,2.58-4.41,2.58-4.41a5.68,5.68,0,0,1-2.33.71C18.54,25.5,18.5,25.49,18.48,25.48Zm0,0v0A0,0,0,0,0,18.48,25.48ZM29,16.26a7,7,0,0,1,1,.17,4.84,4.84,0,0,1-2.73,2.34,7,7,0,0,1-1.55.12,13.47,13.47,0,0,0-1.82.54,2.82,2.82,0,0,0-.66.66s-.21.21-.08.17A14.75,14.75,0,0,1,24.89,20a2.49,2.49,0,0,1-.46,1l1.86-.79c.48-.19,2.17.81,2.17.81l.29-.19,2.69-6.29A5.91,5.91,0,0,1,29,16.26ZM50,50.49v0l0,0Zm-4.61-2c-.41.06-1,0-1.08.06s-.25.21-.25.21a6,6,0,0,1,2.46.91,8,8,0,0,0-.91.41,12.32,12.32,0,0,0-1.12.75,3.4,3.4,0,0,1-1.61.37,9,9,0,0,1,.89.25C41.4,53.26,40.29,53,40.29,53c-1,.1-1.41-.66-3-.66a8.22,8.22,0,0,0-1.95.33l-1.91,4.47-1.91-4.47a7.43,7.43,0,0,0-1.88-.33c-1.2,0-2.11.7-2.88.64,0,0-1.41.19-3.52-1.45a2.75,2.75,0,0,0,.85-.27,3.4,3.4,0,0,1-1.61-.37,12.31,12.31,0,0,0-1.12-.75,8,8,0,0,0-.91-.41,6,6,0,0,1,2.46-.91s-.12-.19-.25-.21-.77,0-1.18-.1l-.12.08L17,50.32l1.3-3.58s0-.25-.74-.81a2.69,2.69,0,0,1,1.74-.12A8.52,8.52,0,0,1,16.57,44a7.4,7.4,0,0,1-1.43-2.38,14,14,0,0,1,2.46.83,6.28,6.28,0,0,1-2.81-4.61,2.55,2.55,0,0,0-.08-1.07s.8.47,1.07.65a1.8,1.8,0,0,1-.21-1.28l-5.5-2.67,4.86-2.06a4.2,4.2,0,0,1,.37-4.22c.31.68,1.09,2,1.09,2a2.37,2.37,0,0,1,.28-1.74s-.09-.25-.4-1a2.63,2.63,0,0,1,.22-2c.19-.28,1.09-1.8,1.09-1.8l.31.59a4.84,4.84,0,0,1,.81-2.27l-1.71-4,4.19,1.75a5.23,5.23,0,0,1,1.77-1.86A10.9,10.9,0,0,1,23,18.94a20.67,20.67,0,0,1,1.4-3.41c.71-1.21,3.51-2,3.51-2,.19.4-.14,1.23-.14,1.23a6.42,6.42,0,0,1,4.11-1.32l1.61-3.6-1.61.06a25.86,25.86,0,0,0-7.61,1.8,29.43,29.43,0,0,0-5.71,3.45,25.1,25.1,0,0,0-4.22,4.47c-2.39,3-3.76,8-3.76,8a28,28,0,0,0-.78,6l.06,0c0,.49.07,1.85.14,2.52a22,22,0,0,0,.91,4.51,34.31,34.31,0,0,0,2.4,5.28s1.3,2,1.82,2.52,1.3,1.51,1.43,1.63a30.1,30.1,0,0,0,5.26,4.08,12.5,12.5,0,0,0,3,1.39c.54.23,3,.93,3.19,1a19.74,19.74,0,0,0,3.58.59s1.41.09,1.87,0,1.93,0,1.93,0A19.74,19.74,0,0,0,39,56.49a19.78,19.78,0,0,0,3.19-1,13,13,0,0,0,3-1.4A28.14,28.14,0,0,0,50,50.47l-4.37-1.87ZM23.7,47.59l.37.72,2.94.25A6.36,6.36,0,0,1,29.7,51a.73.73,0,0,0,.45.4c.22.09.44.11.62.17l.48.16-2.62-6.18Zm12,4.19a4.31,4.31,0,0,1,.84-.29.89.89,0,0,0,.57-.25c1.68-3,6-3.19,6-3.19l.15-.46-4.84-2.16Zm12.82-26.2A5.11,5.11,0,0,1,46.38,25l2.24,3.79A9.37,9.37,0,0,1,48.52,25.58Zm7.88,2s-1.37-5-3.76-8a25.1,25.1,0,0,0-4.22-4.47,29.43,29.43,0,0,0-5.71-3.45,25.86,25.86,0,0,0-7.61-1.8L33.5,9.82l1.61,3.6a6.14,6.14,0,0,1,4,1.29,2.2,2.2,0,0,1-.06-1.19s2.79.81,3.51,2A20.65,20.65,0,0,1,44,18.94a10.88,10.88,0,0,1,.06-2.17,5.23,5.23,0,0,1,1.77,1.86l4-1.65-1.52,3.94a4.84,4.84,0,0,1,.81,2.27l.31-.59s.9,1.52,1.09,1.8a2.63,2.63,0,0,1,.22,2c-.31.78-.4,1-.4,1a2.36,2.36,0,0,1,.28,1.74s.78-1.33,1.09-2a4.2,4.2,0,0,1,.37,4.22l5,2.11-5.61,2.62a3,3,0,0,1-.35,1.35,6.87,6.87,0,0,1,1.18-.74,11.83,11.83,0,0,1-.62,3.19,8.59,8.59,0,0,1-2.34,2.55,7.89,7.89,0,0,1,2.5-.85A8,8,0,0,1,50.3,44.1a9.18,9.18,0,0,1-2.63,1.72,2.69,2.69,0,0,1,1.74.12c-.72.56-.79.89-.79.89L50,50.45l.45-.42c.12-.12.91-1.08,1.43-1.63s1.82-2.52,1.82-2.52a34.28,34.28,0,0,0,2.4-5.28A22,22,0,0,0,57,36.09c.07-.69.15-2.09.18-2.5h0A28,28,0,0,0,56.41,27.6Z"/><path class="cls-5" d="M33.11,39.83a1.1,1.1,0,0,1-1.1.58,3.74,3.74,0,0,1-.25.72c-.1.14-.54.19-.72.31s-.12.21-.27.35A.77.77,0,0,1,30,42s.08,1-1.32,1.57a1.21,1.21,0,0,1-.39,1.06,4.4,4.4,0,0,1-1,.56c-.19,0-.25.06-.35-.06a5.53,5.53,0,0,1-.08-1.53,1.27,1.27,0,0,1-.85.08c-.46-.12-.56-.14-.56-.25A4.64,4.64,0,0,1,26.26,42a.28.28,0,0,1-.1-.23c0-.12,0-.91,1.57-1.61a3.74,3.74,0,0,1-.06-.93s-.23,0-.31-.14a2.84,2.84,0,0,1-.5,1.45c-.41.39-.48,1.1-1.16.43a2.58,2.58,0,0,1-.19.81,2,2,0,0,1-.79,1,.83.83,0,0,1-1-.17,1.88,1.88,0,0,1-1.68,1.12s-.43-.1-.54-.31a.54.54,0,0,1-.41.17,1.67,1.67,0,0,1-.58-.23,8.84,8.84,0,0,0-.33-1.66A5.58,5.58,0,0,0,19,39.44l-.17.54s-1.1-8.17-.37-10.33a.26.26,0,0,1-.06-.27c0-.19,4-6.83,4-6.83a1.28,1.28,0,0,1-.17-.21c-.06-.1-.14-.27-.1-.33s4.16-1.84,4.16-1.84.7-.31,2.17.81a1.31,1.31,0,0,0,.21,2s.43-.64.66-.64c0,0,.08-.1.12,0a1.55,1.55,0,0,1,0,.6,7.32,7.32,0,0,1-.41.81c0,.08-.08.68,0,.77A8.79,8.79,0,0,1,28.76,26a1.32,1.32,0,0,0,.72,1.35l.17.1s0-1,.29-1.06l0-.27A4.38,4.38,0,0,0,32,24.64a2.73,2.73,0,0,0,.41,1.55s1-.06.81-1.51a2,2,0,0,0,.91,1.37,1.91,1.91,0,0,0,.52-1.2A2.7,2.7,0,0,0,35.3,26s.6-.27.35-1.24c0,0,0,1,2,1.61a2.55,2.55,0,0,1,.31.81,1.2,1.2,0,0,0,.54-1.16,6.71,6.71,0,0,1-.23-1.2,3,3,0,0,0,0-.87c-.06-.25-.41-.89-.48-1.22a1.68,1.68,0,0,1,.6-1.43,5.18,5.18,0,0,1,2.38-1.22L45.17,22a.79.79,0,0,1-.21.58l3.93,6.73a.46.46,0,0,1-.08.27s.68,1.86-.08,8.07l-.43,3.27L48,39.52l-.1,0a6.71,6.71,0,0,0-1.49,3.83l0,.06s-.14.25-.58-.08c0,0,0,.19-.25.33s-.37.25-1.06,0c0,0-.87-.39-1-.89,0,0-1.39.83-1.92-1.7a.46.46,0,0,1-.43.25.78.78,0,0,1-.62-.48c-.14-.25-.65-1.08-.56-1.55,0,0-.46.23-.62.08l-.12-.14a4.8,4.8,0,0,1,.08,1.08,2.13,2.13,0,0,1,1.51,1.51s.1.1-.06.25c0,0,1,1.28.83,1.47,0,0-.35.52-1.41.1,0,0,.19,1.24,0,1.55,0,0,.14.19-.21.12a2.41,2.41,0,0,1-1.45-.81,2.46,2.46,0,0,1-.21-.85S37.06,43.08,37,42a.71.71,0,0,1-.66-.21c-.33-.31-.1-.19-.25-.25a4.14,4.14,0,0,1-.89-.43,4.21,4.21,0,0,1-.19-.72s-.74.06-1-.29-.23-.52-.23-.52,0,.6-.25.6S33.11,39.83,33.11,39.83Z"/><polygon class="cls-6" points="46.35 20.34 46.66 20.11 46.77 22.45 46.35 20.34"/><path class="cls-6" d="M48.28,21a6.17,6.17,0,0,0-1.35-1.28L49.79,17Z"/><path class="cls-6" d="M38,27.18a17.21,17.21,0,0,0-.71-1.61,4.76,4.76,0,0,1-.56-1,1.41,1.41,0,0,1,.48,0,18.71,18.71,0,0,0-1.19-2.1s.74.16,1,.19.29-.08.29-.08A6.49,6.49,0,0,0,36,21a2.92,2.92,0,0,0,.79,0c.39-.06.2,0,.2,0a16.84,16.84,0,0,1-1.43-1.4c-.71-.79-1.16-1-1.75-1l-.33-8.58,4.92,11.39A2.14,2.14,0,0,0,38,22a1.83,1.83,0,0,0,.25,1.61s.19.07.11.87a5.8,5.8,0,0,0,.19,1.37A1.51,1.51,0,0,1,38,27.18Z"/><path class="cls-6" d="M56.88,33.56l-8.09,3.75s.22-3,.25-3.55Z"/><path class="cls-6" d="M18.25,33.79,10,33.53l8.52,4S18.28,35.29,18.25,33.79Z"/><path class="cls-6" d="M26.21,46.51s-.07-.21-.2-.13,0-.09,0-.12l-.33-.6s.15-.15.11-.11,0-.14,0-.14l.18,0,.12-.09,0-.13.23,0,.1-.14,0-.2,0-.12.31-.43,0,.64.09.29.11.11.14,0,.27-.11.26-.12.23-.13.22-.1.24-.15.36.87-2.39,1Z"/><path class="cls-6" d="M23.27,44.28l3.11-3.05s-.14.28-.17.34-.11.29,0,.38.09.08.09.08a4.77,4.77,0,0,0-.86,1.3.85.85,0,0,0,0,.14s0,.11.53.26c0,0,0,0,0,0a5.06,5.06,0,0,1-1.26,1.11s0-.21-.16-.23a.54.54,0,0,0-.4,0,.85.85,0,0,1-.43.11.46.46,0,0,1-.31-.14A1.33,1.33,0,0,1,23.27,44.28Z"/><path class="cls-6" d="M17.09,50.35l2.58-2.61s.38.21.64.32a4.79,4.79,0,0,0,1.17.44h.06l-4.46,1.81Z"/><path class="cls-6" d="M33.47,56.94l5.19-12.33-.17-.11-.32.5H37.6s0,1-1.22.54c0,0-.19,1.32-1.35.66a1.28,1.28,0,0,1-1.16.88Z"/><path class="cls-7" d="M45.41,44.13c-.06-.2-.2-.27-.49-.31a1.37,1.37,0,0,0-.7.22h0a.62.62,0,0,0-.07-.11s-.1,0-.17,0a.52.52,0,0,0-.21.12,3.58,3.58,0,0,0-.14.37.64.64,0,0,1-.19.27.43.43,0,0,1-.25.11.49.49,0,0,1-.28-.06,2.08,2.08,0,0,0-.29-.12.75.75,0,0,0-.27.05c-.09,0-.16.24-.16.24a6.51,6.51,0,0,1-1.23-1.12,1.84,1.84,0,0,1-.8-.18c0,.2.07,1.26.07,1.26a1.24,1.24,0,0,1,.28.12.45.45,0,0,0,.25.14c.08,0,0,0,0,0a.29.29,0,0,0,.16.19.54.54,0,0,0,.18.05.59.59,0,0,0,.11.1l.08.05s.07,0,.06.08a3.34,3.34,0,0,1-.32.6v.13l-.07,0-.09,0-.1.07,0,.14-.09.12,0,.12h-.17a.56.56,0,0,0-.25.05c-.08,0-.11.25-.11.25a2.81,2.81,0,0,1,.11.39c-.24,0-.47.31-.47.31a2.54,2.54,0,0,0,0,.26c0,.65.43.64.43.64a.06.06,0,0,0,0,0,1.22,1.22,0,0,1,.59-.89.82.82,0,0,0,.33,0c.1,0,.2-.25.2-.25s-.05,0,.16,0,.11-.25.21-.27a1.81,1.81,0,0,1,.94.23c.06-.31-.28-.76-.28-.76s0,.05,0-.06a1.34,1.34,0,0,0-.09-.43l.07,0a.29.29,0,0,0,.38.06c.08-.05,0,0,.24-.25S44,45.9,44,45.9a6.9,6.9,0,0,0-.35-.63,2.24,2.24,0,0,1,.5-.18,1.22,1.22,0,0,1,.33.21l.15-.19V45l0-.1.25-.18.19-.29a.25.25,0,0,1,.16,0,1.37,1.37,0,0,1,.33.17S45.47,44.32,45.41,44.13ZM26.65,47.5a2.82,2.82,0,0,1,.11-.39s0-.22-.11-.25a.57.57,0,0,0-.25-.05h-.17l0-.12-.06-.14,0-.14-.15-.06-.09,0v-.11l0-.08a2.8,2.8,0,0,1-.27-.54c0-.05.05-.11.05-.11s0-.06.05-.08.05-.1.05-.1a.54.54,0,0,0,.18-.05.29.29,0,0,0,.16-.19s0,0,.05,0,.19-.12.23-.16a1.85,1.85,0,0,1,.1-.39l.06-.08a1.73,1.73,0,0,1,.19-.26s0-.42,0-.63a3.12,3.12,0,0,1-.85.14,6.52,6.52,0,0,1-1.23,1.12s-.06-.21-.16-.24a.76.76,0,0,0-.27-.05,2.1,2.1,0,0,0-.29.12.48.48,0,0,1-.28.06.43.43,0,0,1-.25-.11.64.64,0,0,1-.19-.27,3.56,3.56,0,0,0-.14-.37.52.52,0,0,0-.21-.12c-.06,0-.13,0-.17,0a.61.61,0,0,0-.07.11h0a1.37,1.37,0,0,0-.7-.22.6.6,0,0,0-.51.3,1.33,1.33,0,0,0-.08.42,1.21,1.21,0,0,1,.32-.17.32.32,0,0,1,.17,0l.19.28.23.18,0,.1v.16l.16.19a1.23,1.23,0,0,1,.33-.21,2.25,2.25,0,0,1,.5.18.49.49,0,0,0-.25.2,1.14,1.14,0,0,0-.1.46s.75-.21,1.06.1.16.19.24.25a.29.29,0,0,0,.38-.06l.11.12a1.31,1.31,0,0,0-.17.34c0,.11,0,.07,0,.07s-.34.44-.28.76a1.82,1.82,0,0,1,.94-.23c.09,0,.11.26.21.27s.22,0,.22,0,.09.26.2.29a.53.53,0,0,0,.27,0,1.22,1.22,0,0,1,.59.89.06.06,0,0,0,0,0s.43,0,.43-.64a2.54,2.54,0,0,0,0-.26S26.88,47.5,26.65,47.5Zm4.93-26.65v0a1.1,1.1,0,0,0-.71-.9.71.71,0,0,0-.44.23,1.23,1.23,0,0,0-.19.31v0a.47.47,0,0,0-.36-.06,3.86,3.86,0,0,0-1.54.7c-.54.55-.17,1.75.34,1.85a.93.93,0,0,0,.12-.19,1.34,1.34,0,0,1,.31-.36c.15-.11.26-.07.4-.09a7.28,7.28,0,0,1,1,.05,4.85,4.85,0,0,0,1.26,0,.87.87,0,0,0,.5-.25.52.52,0,0,0,.12-.41,2.29,2.29,0,0,0-.28-.48A1.82,1.82,0,0,0,31.58,20.85Z"/><path class="cls-8" d="M33.5,65.9A32.4,32.4,0,1,0,1.1,33.5,32.44,32.44,0,0,0,33.5,65.9ZM2,33.5A31.53,31.53,0,1,1,33.5,65,31.57,31.57,0,0,1,2,33.5Z"/><path class="cls-8" d="M33.5,58a24.46,24.46,0,1,0-17.29-7.16A24.3,24.3,0,0,0,33.5,58ZM9.85,33.5a23.65,23.65,0,1,1,6.93,16.72A23.49,23.49,0,0,1,9.85,33.5Z"/><path class="cls-9" d="M45.39,44.05a7.06,7.06,0,0,1,.78-.56l.22-.12"/><polygon class="cls-4" points="42.59 47.33 49.98 50.53 50.06 50.45 48.64 46.76 48.62 46.7 48.51 46.75 48.53 46.81 49.95 50.49 50.03 50.41 42.64 47.22 42.58 47.19 42.53 47.31 42.59 47.33"/><polygon class="cls-4" points="24.24 47.29 16.94 50.4 17.07 50.52 18.42 46.82 18.45 46.73 18.28 46.67 18.24 46.75 16.89 50.45 17.02 50.57 24.32 47.46 24.4 47.43 24.33 47.26 24.24 47.29"/><polygon class="cls-4" points="18.73 20.79 17.15 17.09 21.13 18.78 21.24 18.78 21.31 18.61 21.22 18.58 16.94 16.73 16.82 16.85 18.58 20.97 18.61 21.06 18.78 20.99 18.73 20.79"/><path class="cls-9" d="M18.5,25.49a1.91,1.91,0,0,1-.21-.31"/><path class="cls-9" d="M27.87,16.55a2.36,2.36,0,0,1,2-.1"/><polygon class="cls-4" points="48.46 21.08 50.19 16.76 50.06 16.64 45.75 18.46 45.84 18.63 49.99 16.93 49.86 16.81 48.28 21.02 48.46 21.08"/><path class="cls-10" d="M39.07,16.55a2.36,2.36,0,0,0-2-.1"/><path class="cls-10" d="M45.75,43.27a.67.67,0,0,0,.39.21"/><path class="cls-11" d="M33.75,39c0,.7,0,1.4,1.12,1.49.14,0,.21-.14.21-.27a7.9,7.9,0,0,0-.63-1.06"/><path class="cls-11" d="M35,40.42c.81,3,1.35,4.9,1.38,5s.21.21.73.16.58-.52.51-.61a28.54,28.54,0,0,1-1.38-3.12.69.69,0,0,0-.29-.36c-.14,0-.65-.2-.75-.37"/><path class="cls-11" d="M33.92,40c.06.28,1,5.87,1.09,6s.25.25.56.25a.7.7,0,0,0,.54-.22,1.46,1.46,0,0,0,.23-.65"/><path class="cls-11" d="M29.3,22.35a9.63,9.63,0,0,1,1.28,0,5.94,5.94,0,0,0,1,.06.93.93,0,0,0,.7-.29.46.46,0,0,0,.06-.48,1.62,1.62,0,0,0-.79-.81"/><path class="cls-11" d="M30.27,20.42a.71.71,0,0,1,.64-.5,1.36,1.36,0,0,1,.66.89"/><path class="cls-11" d="M30.87,19.84a2.5,2.5,0,0,1,2-1.32c1.35,0,1.43,0,1.66.12a5.37,5.37,0,0,1,1.12,1,8.65,8.65,0,0,0,1.41,1.3L37,21a2.4,2.4,0,0,1-1.28-.08c.77.17,1.64,1.76,1.64,1.76a.73.73,0,0,1-.25,0c-.14,0-1.16-.21-1.16-.21.31.08,1.35,2.17,1.35,2.17a2.15,2.15,0,0,0-.6-.12s0,0,.06.08c.24.52.43.76.52.93l.43.89a2.68,2.68,0,0,1-2.09-1.7,3.34,3.34,0,0,1,0,.91,1.3,1.3,0,0,1-.33.41,3.47,3.47,0,0,1-.62-1.3c-.14,1.18-.54,1.3-.54,1.3-.66-.25-.93-1.49-.93-1.49A1.54,1.54,0,0,1,33,25.8c-.12.14-.23.37-.52.43-.06,0,0,0-.08-.06-.34-.34-.37-1.55-.37-1.55-1.32,1.53-2.34,1.49-2.34,1.49l0,0a9.14,9.14,0,0,1,1-1.51,6.94,6.94,0,0,0,.7-1.08,2.69,2.69,0,0,0,.17-1"/><path class="cls-11" d="M32,20.26a.83.83,0,0,0,.83-.06c.26-.13.48.06.6.12a.4.4,0,0,0,.5,0"/><line class="cls-11" x1="32.55" y1="20.34" x2="32.57" y2="20.47"/><path class="cls-11" d="M32.71,20.26a1.7,1.7,0,0,1,.1.29l-.19.12s.14.33.43.31.41-.43.37-.6"/><path class="cls-11" d="M34.16,26a5.63,5.63,0,0,0,.37.91c.14.14.37.37.54,0a2.2,2.2,0,0,0,.21-.91"/><path class="cls-11" d="M35.31,26.28c.23.25.33.33.49.27s.36-.44.32-1"/><path class="cls-11" d="M32.18,25.72c-.23.25-.34.27-.48.25s-.34-.1-.29-.66"/><path class="cls-11" d="M40.25,21.87c.64.46,2.21,1.63,2.5,1.74a1.4,1.4,0,0,0,1,0,1,1,0,0,0,.62-.48c.06-.14.14-.39.08-.46"/><path class="cls-11" d="M40.1,24a13.38,13.38,0,0,0,2.07,1.26.94.94,0,0,0,.72,0,1.22,1.22,0,0,0,.46-.58,1,1,0,0,0-.06-.58,2.29,2.29,0,0,0-.73-.58"/><path class="cls-11" d="M42.17,25.32a1,1,0,0,1,.27.75,1.21,1.21,0,0,1-.27.64,1.39,1.39,0,0,1-.77.23,1.3,1.3,0,0,1-.62-.21c-.17-.1-.91-.66-.91-.66"/><path class="cls-11" d="M41,26.85c.12.17.37.35.4.62a.61.61,0,0,1-.06.47,1.38,1.38,0,0,1-.43.35,1,1,0,0,1-.6.14.83.83,0,0,1-.46-.21"/><path class="cls-11" d="M39.27,27.64a8.38,8.38,0,0,1,.93,1.06,1,1,0,0,1-.17.68.69.69,0,0,1-.56.27,1.45,1.45,0,0,1-.52-.12,1.23,1.23,0,0,1-.24-.31,2.33,2.33,0,0,1-.18-.45"/><path class="cls-11" d="M39.77,31.8a1.38,1.38,0,0,0,1,.25,1.08,1.08,0,0,0,.48-.35c0-.08.17-.37.08-.5L40.1,29.3"/><path class="cls-11" d="M41.36,31.16a1.15,1.15,0,0,0,.81.25,1,1,0,0,0,.64-.17.91.91,0,0,0,.19-.68c-.06-.14-1.72-2.55-1.72-2.55"/><path class="cls-11" d="M43,30.58a1.31,1.31,0,0,0,1,.23,1,1,0,0,0,.58-.31.72.72,0,0,0,.14-.5c0-.08-2.28-3.68-2.28-3.68"/><path class="cls-11" d="M44.72,30a1.51,1.51,0,0,0,.89.41,1.54,1.54,0,0,0,.89-.21c.17-.17.14-.14.19-.33a.48.48,0,0,0,0-.39l-3.23-5"/><path class="cls-11" d="M46.62,30.1c0,.37-.89,13.06-.92,13.24a.58.58,0,0,1-.43.4c-.22.06-.15.06-.56-.06a1.78,1.78,0,0,1-1.18-1c0-.28,1-12.12,1-12.12"/><path class="cls-11" d="M43.51,42.6a.81.81,0,0,1-1,.16,2.19,2.19,0,0,1-.87-1.46c0-.59.93-9.92.93-9.92"/><path class="cls-11" d="M41.63,40.95c-.12.14-.41.53-.81.19A3.27,3.27,0,0,1,40,39c.09-.84.87-7,.87-7"/><path class="cls-11" d="M39.92,39.2a.54.54,0,0,1-.7,0,4.6,4.6,0,0,0-.68-.87,2.12,2.12,0,0,1-.22-.9c0-.25.81-4.69.81-4.69"/><path class="cls-11" d="M40.14,47.53c.12-.06.56-.06.65.25a1.41,1.41,0,0,0-.59,1s-.49-.09-.4-.84A.49.49,0,0,1,40.14,47.53Z"/><path class="cls-11" d="M40.67,44.33c-.16.19-.25.25-.22.47s.12.28.22.31"/><path class="cls-11" d="M41,44.61a.4.4,0,0,0-.22.34c0,.19.07.4.31.41"/><path class="cls-11" d="M41.42,45.26c-.06.19-.12.12-.09.28l-.16-.06a.43.43,0,0,1-.06-.31c0-.19.06-.09.15-.22"/><path class="cls-11" d="M41.66,47.35c-.09.16-.12.21-.22.21a.58.58,0,0,1-.4-.28.85.85,0,0,1-.07-.69.9.9,0,0,1,.67-.49,1.24,1.24,0,0,1,.32,0,.5.5,0,0,1,.32.22,1.34,1.34,0,0,1,.1.4"/><path class="cls-11" d="M41.53,47.28a1.76,1.76,0,0,1,1.11.22.86.86,0,0,0-.2-.65.67.67,0,0,0-.56-.22c-.25,0-.35.11-.38.19A.8.8,0,0,0,41.53,47.28Z"/><path class="cls-11" d="M43.65,45.31A1,1,0,0,0,43.2,45a1,1,0,0,0-.63.1,1,1,0,0,0-.33.81c0,.29,0,.24.13.38a.27.27,0,0,0,.37,0c.09-.08.17-.12.17-.23s0-.17,0-.24,0-.27,0-.32a1.47,1.47,0,0,1,.21-.17.39.39,0,0,1,.3,0,.8.8,0,0,0,.23,0Z"/><path class="cls-11" d="M43.62,45.3a1.87,1.87,0,0,1,.46.66L44,46a1.73,1.73,0,0,0-.71-.13,1,1,0,0,0-.39.17"/><path class="cls-11" d="M40.94,43.77a8.8,8.8,0,0,0,1.24,1.09s.06-.18.14-.22a.37.37,0,0,1,.27-.05c.07,0,.16,0,.25.08a.69.69,0,0,0,.26.08.49.49,0,0,0,.31-.08,1,1,0,0,0,.25-.38c0-.08.06-.2.08-.25a.33.33,0,0,1,.17-.14.28.28,0,0,1,.19,0,.22.22,0,0,1,.1.11"/><path class="cls-11" d="M44.6,44.87a.32.32,0,0,1,0,.12c0,.1,0,0,0,.11a1.63,1.63,0,0,1-.1.17.08.08,0,0,1-.08,0c-.05,0-.11-.11-.14-.12a.36.36,0,0,0-.16-.06.33.33,0,0,0-.24.06l-.14.05-.11.07"/><path class="cls-11" d="M45.51,44.56c0,.15,0-.58-.33-.68a1,1,0,0,0-1,.23c-.1.2-.27.57-.05.71s.25.1.39.06.19-.16.28-.25.13-.21.22-.23.11-.05.21,0S45.5,44.5,45.51,44.56Z"/><path class="cls-11" d="M33.15,39.09c0,.7,0,1.28-1.1,1.37-.14,0-.21-.14-.21-.27A9.43,9.43,0,0,1,32.57,39"/><path class="cls-11" d="M32,40.42c-.81,3-1.35,4.9-1.38,5s-.21.21-.73.16S29.3,45,29.36,45a28.53,28.53,0,0,0,1.38-3.12.69.69,0,0,1,.29-.36c.14,0,.65-.2.75-.37"/><path class="cls-11" d="M33,40c-.06.28-1,5.87-1.09,6s-.25.25-.56.25a.7.7,0,0,1-.54-.22,1.46,1.46,0,0,1-.23-.65"/><path class="cls-11" d="M29.4,22.37a1.05,1.05,0,0,1-.2.89c0,.12-.14.35-.14.35a.69.69,0,0,0-.14.52c0,.56.1.41,0,.81a5.21,5.21,0,0,0-.19,1.34,1.32,1.32,0,0,0,.48.91c.06,0,.35.23.39.33a3.05,3.05,0,0,1-.19,1.18c-.12.14-.21.23-.31.21A1.81,1.81,0,0,1,28,27.4a.46.46,0,0,1-.43-.21,1.36,1.36,0,0,1-.14-1c.1-.17,0-.08,0-.08A2.51,2.51,0,0,1,27.21,24s-.56-.46-.39-1"/><path class="cls-11" d="M27.07,21.91c-.64.46-2.26,1.59-2.55,1.7a1.4,1.4,0,0,1-1,0,1,1,0,0,1-.62-.48c-.06-.14-.14-.39-.08-.46"/><path class="cls-11" d="M27.17,24a13.37,13.37,0,0,1-2.07,1.26.94.94,0,0,1-.72,0,1.22,1.22,0,0,1-.46-.58A1,1,0,0,1,24,24.1a2.53,2.53,0,0,1,.77-.6"/><path class="cls-11" d="M25.06,25.39a.91.91,0,0,0-.23.68,1.21,1.21,0,0,0,.27.64,1.39,1.39,0,0,0,.77.23,1.3,1.3,0,0,0,.62-.21c.17-.1.91-.66.91-.66"/><path class="cls-11" d="M26.3,26.85a2.47,2.47,0,0,0-.39.59.82.82,0,0,0,0,.5,1.39,1.39,0,0,0,.43.35,1,1,0,0,0,.6.14.83.83,0,0,0,.46-.21"/><path class="cls-11" d="M28,27.64a8.37,8.37,0,0,0-.93,1.06,1,1,0,0,0,.17.68.7.7,0,0,0,.56.27,1.45,1.45,0,0,0,.52-.12.74.74,0,0,0,.2-.23"/><path class="cls-11" d="M27.19,32a.64.64,0,0,1-.7.1A1.08,1.08,0,0,1,26,31.7c0-.08-.17-.37-.08-.5l1.24-1.9"/><path class="cls-11" d="M25.91,31.16a1.15,1.15,0,0,1-.81.25,1,1,0,0,1-.64-.17.91.91,0,0,1-.19-.68C24.34,30.42,26,28,26,28"/><path class="cls-11" d="M24.26,30.58a1.31,1.31,0,0,1-1,.23,1,1,0,0,1-.58-.31.72.72,0,0,1-.14-.5c0-.08,2.28-3.68,2.28-3.68"/><path class="cls-11" d="M22.56,30a1.51,1.51,0,0,1-.89.41,1.54,1.54,0,0,1-.89-.21c-.17-.17-.14-.14-.19-.33a.48.48,0,0,1,0-.39l3.23-5"/><path class="cls-11" d="M18.46,29.63c-.51,1.31-.19,6.77.34,10.22"/><path class="cls-11" d="M20.64,30c0,.37.9,13.19.93,13.38a.58.58,0,0,0,.43.4c.22.06.15.06.56-.06a1.78,1.78,0,0,0,1.18-1c0-.28-1-12.1-1-12.1"/><path class="cls-11" d="M23.75,42.56a.83.83,0,0,0,1,.19,2.19,2.19,0,0,0,.87-1.46c0-.59-.91-9.89-.91-9.89"/><path class="cls-11" d="M25.64,40.95c.12.14.41.53.81.19A3.27,3.27,0,0,0,27.32,39c-.09-.84-.85-7-.85-7"/><path class="cls-11" d="M27.38,39.18a.61.61,0,0,0,.7,0,3.58,3.58,0,0,1,.66-.83,2.13,2.13,0,0,0,.22-.9c0-.25-.81-4.75-.81-4.75"/><path class="cls-11" d="M26.77,47.53c-.12-.06-.56-.06-.65.25a1.41,1.41,0,0,1,.59,1s.49-.09.4-.84A.49.49,0,0,0,26.77,47.53Z"/><path class="cls-11" d="M26.25,44.33c.16.19.27.25.24.47a.34.34,0,0,1-.31.34"/><path class="cls-11" d="M25.94,44.61a.4.4,0,0,1,.22.34c0,.19-.05.4-.33.43"/><path class="cls-11" d="M25.5,45.26c.06.19.1.24.09.28l.16-.06a.43.43,0,0,0,.06-.31c0-.19-.06-.09-.16-.22"/><path class="cls-11" d="M25.25,47.34c.09.16.12.22.22.22a.58.58,0,0,0,.4-.28.73.73,0,0,0-.59-1.15,1.41,1.41,0,0,0-.34,0,.47.47,0,0,0-.31.19c-.17.28-.09.37-.09.37"/><path class="cls-11" d="M25.39,47.28a1.76,1.76,0,0,0-1.11.22.86.86,0,0,1,.2-.65.67.67,0,0,1,.56-.22c.25,0,.35.11.38.19A.8.8,0,0,1,25.39,47.28Z"/><path class="cls-11" d="M23.27,45.31a1,1,0,0,1,.46-.33,1,1,0,0,1,.63.1,1,1,0,0,1,.33.81c0,.29,0,.24-.13.38a.27.27,0,0,1-.37,0c-.09-.08-.17-.12-.17-.23s0-.17,0-.24,0-.27,0-.32a1.46,1.46,0,0,0-.21-.17.39.39,0,0,0-.3,0,.79.79,0,0,1-.23,0Z"/><path class="cls-11" d="M26,43.77a8.82,8.82,0,0,1-1.24,1.09s-.06-.18-.14-.22a.37.37,0,0,0-.27-.05c-.07,0-.16,0-.25.08a.69.69,0,0,1-.26.08.49.49,0,0,1-.31-.08,1,1,0,0,1-.25-.38c0-.08-.06-.2-.08-.25A.33.33,0,0,0,23,43.9a.28.28,0,0,0-.19,0,.22.22,0,0,0-.1.11"/><path class="cls-11" d="M22.31,44.87a.32.32,0,0,0,0,.12c0,.1,0,0,0,.11a1.64,1.64,0,0,0,.1.17.08.08,0,0,0,.08,0c.05,0,.11-.11.14-.12a.36.36,0,0,1,.16-.06.33.33,0,0,1,.24.06l.14.05.11.07"/><path class="cls-11" d="M23.36,45.21c-.21.12-.29,0-.46.58l.05.14a2.56,2.56,0,0,1,.64-.06A1,1,0,0,1,24,46"/><path class="cls-11" d="M33.9,28.81c.26.25.34.34.43.34s.33-.48.36-.64a3.77,3.77,0,0,0-.23-1.09c-.08-.14-.08-.12-.08-.12"/><path class="cls-11" d="M35.13,26.89c.17.53.4,1.21.2,1.61a.36.36,0,0,1-.19.14c-.22,0-.36-.09-.42-.28"/><path class="cls-11" d="M35.24,27.14a1.71,1.71,0,0,0,.39.61c.05.08.2.17.25.16s.12,0,.12,0a1.36,1.36,0,0,1,.22.23,1.15,1.15,0,0,1,.11.47,2.19,2.19,0,0,1-.11.84c-.08.23-.23.25-.23.25l-.16-.14a1.29,1.29,0,0,1-.31-.37c-.14-.22-.12-.19-.19-.59"/><path class="cls-11" d="M36.19,26.8c0,.33,0,.94-.14,1"/><path class="cls-11" d="M36,26.36a3.19,3.19,0,0,0,.56,1,.18.18,0,0,0,.22-.08A2,2,0,0,0,37,26.21"/><path class="cls-11" d="M34.46,29.06c.09.68.28,1.09.48,1.09s.5-.29.53-1"/><path class="cls-11" d="M37,26.54a1,1,0,0,0,.35.46c.09.06,0,.06.14,0a.68.68,0,0,0,.3-.36"/><path class="cls-11" d="M38.14,30.55c.39.17,1.06-.17.73-.95-.09-.23-.21-.54-.34-.89"/><path class="cls-11" d="M29.33,30.51c-.39.17-1.26-.13-.94-.91.1-.23.21-.54.34-.89"/><path class="cls-11" d="M37.71,26.42s.13.29.29.76"/><path class="cls-11" d="M36.84,27.2c.11.36.11.42.23.56a1.73,1.73,0,0,0,.5.39c.17.08.11,0,.11,0"/><path class="cls-11" d="M37.1,27.8c0,.4-.11.73-.14,1.06s0,.39,0,.5a1,1,0,0,0,.31.47c.14.11.17.14.22.16s.25-.2.26-.14a5.8,5.8,0,0,0,.06-1.13"/><path class="cls-11" d="M36,29.62a1.39,1.39,0,0,1-.07,1.8s-.23.12-.4-.33"/><path class="cls-11" d="M35.24,30c.15.23.71.7-.12,1.83a1.86,1.86,0,0,1-.36-.28,1.51,1.51,0,0,1-.25-.76,2.83,2.83,0,0,1,.17-.62l.08-.11"/><path class="cls-11" d="M36.34,28.65a.65.65,0,0,0,.23.32.17.17,0,0,0,.22,0,.69.69,0,0,0,.15-.16"/><path class="cls-11" d="M36.35,30.46c.14.2.4.64.69-.09"/><path class="cls-11" d="M37.05,29.57c0,.26,0,2.06.59,2.06.06,0,.38.13.42-.82,0-.37,0-.11,0-.11a1.85,1.85,0,0,1,0,1.55,1.07,1.07,0,0,0,1,.46.71.71,0,0,0,.64-.87c0-.12-.91-1.51-.91-1.51"/><path class="cls-11" d="M37.81,29.76a2.62,2.62,0,0,1,.26.76c0,.22,0,.12,0,.12"/><path class="cls-11" d="M33.67,29.34c.11.79.15,1.44.57,1.57.21.06.26,0,.26,0"/><path class="cls-11" d="M36.24,31a2.24,2.24,0,0,0,.57,1.25c.16,0,.19,0,.36-.19a1.16,1.16,0,0,0,.23-.47"/><path class="cls-11" d="M37.32,31.84c0,.17.16.7.26.76a.19.19,0,0,0,.25,0,1.49,1.49,0,0,0,.25-.31"/><path class="cls-11" d="M36.54,31.93c0,.14,0,1.07-.29,1.07a.59.59,0,0,1-.52-.37"/><path class="cls-11" d="M33.7,32.07a1.36,1.36,0,0,0,.34.61.24.24,0,0,0,.34,0,1.66,1.66,0,0,0,.34-1.1"/><path class="cls-11" d="M35.33,31.54a1.42,1.42,0,0,1,.06,1.91s-.11,0-.11,0a1.34,1.34,0,0,1-.36-.23"/><path class="cls-11" d="M33.73,32.3a2.61,2.61,0,0,0,.39,1.4c.17.19.12.2.29.25a.31.31,0,0,0,.36-.11,2.78,2.78,0,0,0,0-1.78"/><path class="cls-11" d="M35.53,33.28a4.74,4.74,0,0,0,.62,1.24.28.28,0,0,0,.37-.11c.09-.17.51-1.18,0-1.77"/><path class="cls-11" d="M37.63,32.66a3.27,3.27,0,0,1-.37,1.21c-.12,0-.16,0-.28-.12a1.07,1.07,0,0,1-.19-.37"/><path class="cls-11" d="M34,34.59c.11.42.42.9.61.93a.35.35,0,0,0,.34-.16,4.37,4.37,0,0,0,.08-1.3,1.35,1.35,0,0,0-.19-.3"/><path class="cls-11" d="M35,34.73a1,1,0,0,0,.3.32A.29.29,0,0,0,35.6,35"/><path class="cls-11" d="M35.83,34A2,2,0,0,0,36,35.89a.4.4,0,0,0,.36.25.28.28,0,0,0,.33-.19,2.85,2.85,0,0,0-.09-1.66"/><path class="cls-11" d="M36,35.94c0,.26,0,.74-.22.79a.52.52,0,0,1-.47-.17l-.19-.26"/><path class="cls-11" d="M34.91,35.36a3.41,3.41,0,0,1,.14,1.77c-.19.28-.24.23-.35.17a.62.62,0,0,1-.28-.26,3.92,3.92,0,0,1-.43-1.3,4.07,4.07,0,0,1,.17-.61"/><path class="cls-11" d="M34.11,36.34a2.36,2.36,0,0,1-.08.92c-.06.15-.34.43-.5.41a.61.61,0,0,1-.31-.17c-.16-.12-.23-.75-.26-1A1.68,1.68,0,0,1,33,36"/><path class="cls-11" d="M37.63,32.69c.26.33.64,1.48.28,1.91a.79.79,0,0,1-.17.16"/><path class="cls-11" d="M37.41,33.69a1.79,1.79,0,0,1,.31.87,1.9,1.9,0,0,1-.14.84.28.28,0,0,1-.37,0,1.94,1.94,0,0,1-.28-.33,4.59,4.59,0,0,1-.25-.53"/><path class="cls-11" d="M37.6,35.41a1.62,1.62,0,0,1,.12,1.13c-.11.53-.17.56-.26.57s-.19,0-.33-.17a6,6,0,0,1-.45-.9"/><path class="cls-11" d="M34.42,37.07a9.1,9.1,0,0,1,.09,1.71c0,.22-.19.47-.3.48a.29.29,0,0,1-.31-.11c-.09-.12-.4-.61-.4-.61"/><path class="cls-11" d="M34.56,38.54a1.31,1.31,0,0,0,.16.17.58.58,0,0,0,.25.11c.13,0,.19,0,.26-.12a2.27,2.27,0,0,0-.12-1.54"/><path class="cls-11" d="M35.3,38.06c.12.17.34.47.56.4a.83.83,0,0,0,.4-.79A2.91,2.91,0,0,0,36,36.57"/><path class="cls-11" d="M36.28,37.58c.09.14.1.22.25.26s.12.07.25,0,.33-.64.36-.87"/><path class="cls-11" d="M35.27,38.58a2.23,2.23,0,0,0,.64,1.24c.2.09.2.09.29,0a1,1,0,0,0,.26-.65,2.26,2.26,0,0,0-.26-1.06"/><path class="cls-11" d="M37,37.5c.19.35.72,1.29,0,2,0,0-.16,0-.16,0a.59.59,0,0,1-.4-.42"/><path class="cls-11" d="M35.07,40.08c.17.06.26.09.36,0a.63.63,0,0,0,.19-.62"/><path class="cls-11" d="M37.63,36.91c.2.23.24.16.34.39a2.56,2.56,0,0,1,.09,1c0,.19,0,.14-.12.31s-.16.17-.28.12a.63.63,0,0,1-.23-.2"/><line class="cls-11" x1="38.09" y1="38.31" x2="38.47" y2="38.31"/><path class="cls-11" d="M33.81,37.53a1,1,0,0,0-.25.41,1,1,0,0,0,0,.69"/><path class="cls-11" d="M35.91,39.83a1.87,1.87,0,0,1,.28.65,2.9,2.9,0,0,1,0,.51,1.84,1.84,0,0,1-.08.36.23.23,0,0,1-.11.09"/><path class="cls-11" d="M36.93,39.51a3.19,3.19,0,0,1,.43.65,2.09,2.09,0,0,1,.14.61c0,.14-.06.2-.22.22a1.3,1.3,0,0,1-1.09-.48"/><path class="cls-11" d="M37.46,38.65a4,4,0,0,1,.92,1.24c.12.31.18.49.12.62s-.2.14-.31.14a1.3,1.3,0,0,1-.76-.31"/><path class="cls-11" d="M36.23,41.83a1.51,1.51,0,0,0,.68.19c.19,0,.25,0,.33-.19a1.16,1.16,0,0,0,0-.84"/><path class="cls-11" d="M39.18,39.15a2.15,2.15,0,0,1,.12.88,1.55,1.55,0,0,0,0,.25"/><path class="cls-11" d="M38.48,40.08c.23,0,1.07,0,1.07,1.4,0,.08-.06.06-.06.06a2.57,2.57,0,0,1-.9-.16,2.37,2.37,0,0,1-.4-.73"/><path class="cls-11" d="M39.26,40.22a2.33,2.33,0,0,1,1.57,1.58c.08.36-.84.43-1.3-.23"/><path class="cls-11" d="M40.73,42.07a5.49,5.49,0,0,1,.82,1.26c0,.06,0,.18,0,.2a1.15,1.15,0,0,1-.4.19,1.4,1.4,0,0,1-1-.12"/><path class="cls-11" d="M36.95,42c.17.47.17.59.37.81a2.84,2.84,0,0,0,.7.57c.37.22.41.2.45.2s.23,0,.26-.17a2.51,2.51,0,0,0-.15-1.12"/><path class="cls-11" d="M37.33,41.59a3,3,0,0,0,1,.78c.12,0,.22.08.25,0a1.81,1.81,0,0,0,0-.95"/><path class="cls-11" d="M39.77,41.87a1.75,1.75,0,0,1,.16.59,1,1,0,0,1-.06.42.29.29,0,0,1-.26.12,1.24,1.24,0,0,1-.45-.19l-.23-.16a3,3,0,0,1-.3-.26"/><path class="cls-11" d="M38.71,43.51a1.42,1.42,0,0,0,.54.47c.19.06.31.09.42,0a.84.84,0,0,0,0-.59,1.5,1.5,0,0,0-.09-.33"/><path class="cls-11" d="M39.72,43c.16.11.61.22.74.62"/><path class="cls-11" d="M40.14,43.59a6.21,6.21,0,0,1,.08,1.27c0,.26-.18.46-.39.4a2.08,2.08,0,0,1-.45-.22c-.37-.23-1-.29-1.1-1.44"/><path class="cls-11" d="M33,26c.14.25.27.39.5.41h.05c.23,0,.34-.14.48-.39"/><path class="cls-11" d="M32.8,26.09c-.19.39-.2.7-.34.85s-.37.37-.54,0a2.21,2.21,0,0,1-.21-.91"/><path class="cls-11" d="M31.68,26.28c-.23.25-.33.33-.49.27s-.32-.31-.28-.86"/><path class="cls-11" d="M32.47,27c.09.26.31.76.56.76s.11,0,.22-.12a2.85,2.85,0,0,0,.25-.31h0a2.82,2.82,0,0,0,.25.31c.11.11.09.12.22.12s.47-.5.56-.76"/><path class="cls-11" d="M33.09,28.81c-.26.25-.34.34-.43.34s-.33-.48-.36-.64a3.77,3.77,0,0,1,.23-1.09c.08-.14.08-.12.08-.12"/><path class="cls-11" d="M31.86,26.89c-.17.53-.4,1.21-.2,1.61a.36.36,0,0,0,.19.14c.22,0,.36-.09.42-.28"/><path class="cls-11" d="M31.75,27.14a1.71,1.71,0,0,1-.39.61c-.05.08-.2.17-.25.16s-.1,0-.12-.06a1.8,1.8,0,0,0-.23.25,1.15,1.15,0,0,0-.11.47,2.19,2.19,0,0,0,.11.84c.08.23.23.25.23.25l.16-.14a1.28,1.28,0,0,0,.31-.37c.14-.22.12-.19.19-.59"/><path class="cls-11" d="M30.81,26.89a1.51,1.51,0,0,0,.12.85c.11.14.12.11.12.11"/><path class="cls-11" d="M31,26.36a5.94,5.94,0,0,1-.56,1.27.18.18,0,0,1-.22-.08A3.87,3.87,0,0,1,30,26.09"/><path class="cls-11" d="M32.53,29.06c-.09.68-.28,1.09-.48,1.09s-.5-.29-.53-1"/><path class="cls-11" d="M29.15,28.91a2.29,2.29,0,0,0,.07.93s.1.19.26.14.08,0,.22-.16a1,1,0,0,0,.31-.47c0-.11,0-.17,0-.5a11.12,11.12,0,0,1-.35-1.26c0-.46,0-1.16.23-1.24"/><path class="cls-11" d="M31,29.62a1.39,1.39,0,0,0,.07,1.8s.23.12.4-.33"/><path class="cls-11" d="M31.75,30c-.16.23-.71.7.12,1.83a1.86,1.86,0,0,0,.36-.28,1.51,1.51,0,0,0,.25-.76,2.83,2.83,0,0,0-.17-.62l-.08-.11"/><path class="cls-11" d="M30.65,28.67a.61.61,0,0,1-.23.3.17.17,0,0,1-.22,0A.82.82,0,0,1,30,28.8"/><path class="cls-11" d="M30.64,30.45c-.14.2-.4.64-.69-.09"/><path class="cls-11" d="M29.94,29.57c0,.26,0,2.06-.59,2.06-.06,0-.36.13-.42-.82,0-.12,0-.25,0-.25a2.21,2.21,0,0,0-.05,1.69,1.07,1.07,0,0,1-1,.46.71.71,0,0,1-.64-.87c0-.12,1.06-1.73,1.06-1.73"/><path class="cls-11" d="M33.32,29.34c-.11.79-.14,1.46-.57,1.57a.38.38,0,0,1-.24,0"/><path class="cls-11" d="M30.75,31a2.34,2.34,0,0,1-.57,1.27c-.15,0-.19,0-.36-.19a1.16,1.16,0,0,1-.23-.47"/><path class="cls-11" d="M29.67,31.84c0,.17-.15.7-.26.76a.19.19,0,0,1-.25,0,2.18,2.18,0,0,1-.28-.29"/><path class="cls-11" d="M30.45,31.93c0,.14,0,1.07.29,1.07a.55.55,0,0,0,.5-.36"/><path class="cls-11" d="M33.89,28.81c-.08.26-.14.5-.37.61h0c-.23-.11-.29-.34-.37-.61A4.53,4.53,0,0,1,33,27.75"/><path class="cls-11" d="M33.16,30.47c.08.23.16.37.28.42h.1c.12,0,.2-.19.28-.42"/><path class="cls-11" d="M33.32,30.83a1.32,1.32,0,0,0,.16,1.46h0a1.32,1.32,0,0,0,.16-1.46"/><path class="cls-11" d="M33.29,32.07a1.37,1.37,0,0,1-.34.61.24.24,0,0,1-.34,0,1.59,1.59,0,0,1-.35-1.08"/><path class="cls-11" d="M31.66,31.54a1.42,1.42,0,0,0-.06,1.91s.11,0,.11,0a1.33,1.33,0,0,0,.36-.23"/><path class="cls-11" d="M33.26,32.3a2.61,2.61,0,0,1-.39,1.4c-.17.19-.12.2-.3.25a.31.31,0,0,1-.36-.11,2.79,2.79,0,0,1,0-1.78"/><path class="cls-11" d="M31.46,33.28a4.73,4.73,0,0,1-.62,1.24.28.28,0,0,1-.37-.11c-.09-.17-.51-1.18,0-1.77"/><path class="cls-11" d="M29.36,32.66a3.27,3.27,0,0,0,.37,1.21c.12,0,.15,0,.28-.12a1.08,1.08,0,0,0,.19-.37"/><path class="cls-11" d="M33,34.59c-.11.42-.4.9-.59.93a.35.35,0,0,1-.34-.16,4.37,4.37,0,0,1-.08-1.3,1.35,1.35,0,0,1,.19-.3"/><path class="cls-11" d="M32,34.71a1.15,1.15,0,0,1-.32.34.29.29,0,0,1-.25-.08"/><path class="cls-11" d="M31.16,34A2,2,0,0,1,31,35.89a.4.4,0,0,1-.36.25.28.28,0,0,1-.33-.19,2.85,2.85,0,0,1,.09-1.66"/><path class="cls-11" d="M31,35.94c0,.26,0,.74.22.79a.52.52,0,0,0,.47-.17c.06-.08.19-.26.19-.26"/><path class="cls-11" d="M32.08,35.36a3.41,3.41,0,0,0-.14,1.77c.19.28.26.23.37.17a.59.59,0,0,0,.26-.26,3.91,3.91,0,0,0,.43-1.3,6,6,0,0,0-.17-.68"/><path class="cls-11" d="M29.35,32.72c-.26.33-.63,1.46-.26,1.89a.79.79,0,0,0,.17.16"/><path class="cls-11" d="M29.58,33.69a1.8,1.8,0,0,0-.31.87,1.9,1.9,0,0,0,.14.84.28.28,0,0,0,.37,0,1.92,1.92,0,0,0,.28-.33,4.58,4.58,0,0,0,.25-.53"/><path class="cls-11" d="M29.37,35.41a1.64,1.64,0,0,0-.1,1.13c.11.53.17.56.26.57s.19,0,.33-.17a6,6,0,0,0,.45-.9"/><path class="cls-11" d="M33.49,38.54s-.31.48-.4.61a.29.29,0,0,1-.31.11c-.11,0-.25-.26-.3-.48a9.1,9.1,0,0,1,.09-1.71"/><path class="cls-11" d="M32.43,38.54a1.32,1.32,0,0,1-.16.17.58.58,0,0,1-.25.11c-.13,0-.19,0-.26-.12a2.65,2.65,0,0,1,.12-1.54"/><path class="cls-11" d="M31.69,38.06c-.12.17-.34.47-.56.4a.83.83,0,0,1-.4-.79A3.28,3.28,0,0,1,31,36.53"/><path class="cls-11" d="M30.71,37.58c-.09.14-.1.22-.25.26s-.12.07-.25,0-.33-.64-.36-.87"/><path class="cls-11" d="M31.72,38.58a2.23,2.23,0,0,1-.64,1.24c-.2.09-.2.09-.3,0a1,1,0,0,1-.26-.65,2.26,2.26,0,0,1,.26-1.06"/><path class="cls-11" d="M30,37.47c-.19.35-.73,1.32,0,2,0,0,.15,0,.15,0a.59.59,0,0,0,.4-.42"/><path class="cls-11" d="M31.38,39.49c-.06.33,0,.46.06.5s.13.07.26,0a1.14,1.14,0,0,0,.29-.19"/><path class="cls-11" d="M29.34,36.89c-.2.23-.22.18-.32.41a2.56,2.56,0,0,0-.09,1c0,.19,0,.14.12.31s.16.17.28.12a.64.64,0,0,0,.23-.2"/><path class="cls-11" d="M33.42,38.61a.92.92,0,0,0,0-.67,1.82,1.82,0,0,0-.19-.38"/><path class="cls-11" d="M31.08,39.83a1.86,1.86,0,0,0-.28.65,2.9,2.9,0,0,0,0,.51,1.83,1.83,0,0,0,.08.36.23.23,0,0,0,.11.09"/><path class="cls-11" d="M30.06,39.51a3.2,3.2,0,0,0-.43.65,2.09,2.09,0,0,0-.14.61c0,.14.06.2.22.22a1.26,1.26,0,0,0,1.09-.5"/><path class="cls-11" d="M29.53,38.65a4.05,4.05,0,0,0-.92,1.24c-.12.31-.18.49-.12.62s.2.14.31.14a1.3,1.3,0,0,0,.76-.31"/><path class="cls-11" d="M30.7,41.86a1.23,1.23,0,0,1-.62.17c-.19,0-.25,0-.33-.19a1.16,1.16,0,0,1,0-.84"/><path class="cls-11" d="M27.71,39.32a1.27,1.27,0,0,0,0,.72,1.55,1.55,0,0,1,0,.25"/><path class="cls-11" d="M28.51,40.08c-.23,0-1.07,0-1.07,1.4,0,.08.06.06.06.06a2.57,2.57,0,0,0,.9-.16,2.17,2.17,0,0,0,.38-.71"/><path class="cls-11" d="M27.73,40.22a2.33,2.33,0,0,0-1.57,1.58c-.08.36.84.43,1.3-.23"/><path class="cls-11" d="M26.26,42.07a5.49,5.49,0,0,0-.82,1.26c0,.06,0,.18,0,.2a1.16,1.16,0,0,0,.4.19,1.4,1.4,0,0,0,1-.12"/><path class="cls-11" d="M30,42c-.17.47-.17.59-.37.81a2.84,2.84,0,0,1-.7.57c-.37.22-.41.2-.45.2s-.23,0-.26-.17a2.51,2.51,0,0,1,.15-1.12"/><path class="cls-11" d="M29.66,41.59a3,3,0,0,1-1,.78c-.12,0-.22.08-.25,0a1.8,1.8,0,0,1,0-.95"/><path class="cls-11" d="M27.22,41.87a1.75,1.75,0,0,0-.16.59,1,1,0,0,0,.06.42.29.29,0,0,0,.26.12,1.24,1.24,0,0,0,.45-.19l.23-.16a3,3,0,0,0,.29-.26"/><path class="cls-11" d="M28.27,43.51a1.42,1.42,0,0,1-.54.47c-.19.06-.31.09-.42,0a.84.84,0,0,1,0-.59.76.76,0,0,1,.1-.29"/><path class="cls-11" d="M27.28,43a1.22,1.22,0,0,0-.63.63"/><path class="cls-11" d="M26.85,43.59a6.21,6.21,0,0,0-.08,1.27c0,.26.18.46.39.4a2.1,2.1,0,0,0,.45-.22c.37-.23,1-.29,1.1-1.44"/><line class="cls-11" x1="40.22" y1="44.85" x2="40.45" y2="44.91"/><path class="cls-11" d="M29.47,30c-.07.22,0,0,0,.23a.68.68,0,0,0,0,.37c.07.35.28.47.31.43"/><path class="cls-11" d="M26.48,44.64l.25-.37"/><path class="cls-11" d="M26.82,23c0-.08.25-.46.31-.68s.19-.35-.21-.52-.41-.14-.54-.27a.93.93,0,0,1-.19-.35"/><path class="cls-11" d="M40.43,23a7.19,7.19,0,0,1-.33-.68c-.06-.23-.19-.35.21-.52s.41-.14.54-.27a.93.93,0,0,0,.19-.35"/><path class="cls-11" d="M25.64,47.53c0,.25.21.37.41.29"/><path class="cls-11" d="M41.36,47.57c-.17.25-.21.29-.54.21"/><path class="cls-11" d="M32.89,26.07c.09.68.38,1.26.58,1.26s.52-.5.55-1.25"/><path class="cls-11" d="M33.07,33.3c0,.81.3.9.45.92s.31-.12.39-.91"/><path class="cls-11" d="M33.13,39.55c.08.5.25.68.34.68s.25,0,.33-.62"/><path class="cls-11" d="M33,35.63c.11.48.2.92.42.95a.32.32,0,0,0,.3-.08,3.24,3.24,0,0,0,.31-1"/><path class="cls-11" d="M33,33.58a2.16,2.16,0,0,0,.31,1.61c.17.14.23.12.31.06a2.11,2.11,0,0,0,.31-1.72"/><path class="cls-11" d="M33.89,28.76a2.36,2.36,0,0,0,0-1"/><path class="cls-11" d="M21.56,43.2c0,.16,0,.51-.39.48"/><path class="cls-11" d="M32,46.1c.21.64.38.93,1.49.93"/><path class="cls-11" d="M35,46.1c-.21.64-.36.93-1.47.93"/><path class="cls-11" d="M40.76,46.57c-.24.24.09.25-.16.25,0,0-.25,0-.34.06a.32.32,0,0,0-.09.28l.06.25"/><path class="cls-11" d="M41.26,45.51c.09.16.16,0,.06.25a1.77,1.77,0,0,1-.25.43c0,.05,0,.07,0,.09s0,.15,0,.15a.28.28,0,0,0-.14-.06c-.18,0-.12.16-.12.16"/><path class="cls-11" d="M26.15,46.57c.24.24-.09.25.16.25,0,0,.25,0,.34.06a.32.32,0,0,1,.09.28l-.06.25"/><path class="cls-11" d="M25.74,45.51c-.09.16-.16,0-.06.25a1.77,1.77,0,0,0,.25.43c0,.05,0,.07,0,.09s0,.15,0,.15a.28.28,0,0,1,.14-.06c.18,0,.12.16.12.16"/><path class="cls-11" d="M29.32,45a.61.61,0,0,1-.89-.28"/><path class="cls-11" d="M37.51,44.77a.57.57,0,0,0,1-.28"/><path class="cls-11" d="M26.18,21.19c-.17.08-3.17,1.41-3.29,1.43a.88.88,0,0,1-.62-.1.46.46,0,0,1-.14-.52c.06-.08,3.82-1.71,4-1.8a2.8,2.8,0,0,1,2.22.76"/><path class="cls-11" d="M41.05,21.17c.17.08,3.21,1.43,3.33,1.45a.88.88,0,0,0,.62-.1.46.46,0,0,0,.14-.52c-.06-.08-3.82-1.71-4-1.8-.5-.21-1.77.21-2.75,1.24a1.42,1.42,0,0,0-.29,1.82c0,.12.14.35.14.35a.69.69,0,0,1,.14.52c0,.56-.1.41,0,.81a5.21,5.21,0,0,1,.19,1.34,1.32,1.32,0,0,1-.48.91c-.06,0-.35.23-.39.33a3.05,3.05,0,0,0,.19,1.18c.12.14.21.23.31.21a1.81,1.81,0,0,0,1.18-1.51.46.46,0,0,0,.43-.21,1.36,1.36,0,0,0,.14-1c-.1-.17,0-.08,0-.08A2.51,2.51,0,0,0,40.06,24s.56-.46.39-1"/><path class="cls-11" d="M46.7,29.57a2.56,2.56,0,0,0,.91.37,1.71,1.71,0,0,0,.7,0,1,1,0,0,0,.43-.27c.07-.15.19-.27.1-.46s-4-6.64-4-6.64"/><path class="cls-11" d="M31.51,20.88c-.43.06-.38.07-.64,0a4.73,4.73,0,0,1-.68-.37c-.42-.22-1.72.5-1.84.62A1.16,1.16,0,0,0,28,22a1.14,1.14,0,0,0,.63,1,1.46,1.46,0,0,1,.62-.66,2.62,2.62,0,0,1,1-.23c.39,0,1.32,0,1.57,0a2,2,0,0,0,.41,0"/><path class="cls-11" d="M20.57,29.57a2.56,2.56,0,0,1-.91.37,1.71,1.71,0,0,1-.7,0,1,1,0,0,1-.43-.27c-.07-.15-.19-.27-.1-.46s4-6.64,4-6.64"/><path class="cls-11" d="M48.81,29.63c.56,1.43.1,7.93-.52,11.22"/><path class="cls-11" d="M21.4,44.56c0,.15,0-.58.33-.68a1,1,0,0,1,1,.23c.1.2.27.57.05.71s-.25.1-.39.06-.19-.16-.28-.25-.13-.21-.22-.23-.11-.05-.21,0S21.41,44.5,21.4,44.56Z"/><path class="cls-12" d="M19,39.48h0S19,39.48,19,39.48ZM30,51.36a7.59,7.59,0,0,0-3-2.75l-.27.1-.07-.15s-2.21-.59-2.76-.71A4.62,4.62,0,0,0,23.43,46a1.2,1.2,0,0,0-.54.08,1,1,0,0,1,.14-.78c-.22-.2-.49,0-.55.09a.38.38,0,0,1-.3-.46c-.23-.48-.51-.63-.76-.23-.12-.17-.11-.83.34-.94a.8.8,0,0,1-.17-.17c-.11.13-.52.1-.52-.06-.16-.09-.36-.12-.53-.2A6.23,6.23,0,0,0,19,39.49l-.07.16s-.08.25-.08.25-.34-1.81-.42-2.46l-2.8-1.29a3.53,3.53,0,0,0,.14,1.26,8,8,0,0,1-1.12-.74,19.91,19.91,0,0,0,.6,2.94,6.2,6.2,0,0,0,2.13,2.67,20.93,20.93,0,0,0-2.19-.62,8.33,8.33,0,0,0,1.14,2,6.58,6.58,0,0,0,2.36,1.78,4.32,4.32,0,0,0,2.07.37,1.29,1.29,0,0,0,.48.79,4.43,4.43,0,0,0-3.56-.79c-.1,0-.1.06-.1.06a5.89,5.89,0,0,1,.74.72,4.58,4.58,0,0,0,1.57,1.18,6.64,6.64,0,0,0,1.43.62c.5.12,1.55.15,1.74.25s0,.08,0,.08a5.07,5.07,0,0,0-2.46.93,6.57,6.57,0,0,1,1,.46,4,4,0,0,0,2.65,1.06,3.52,3.52,0,0,1-.89.29s.33.23.58.43a7.9,7.9,0,0,0,2.15.93,3,3,0,0,0,1.57-.06,4.62,4.62,0,0,1,1.82-.48,4.39,4.39,0,0,1,2.15.31l-.38-.91A10.86,10.86,0,0,0,30,51.36Zm.39-38a8.34,8.34,0,0,0-2.62,1.38,2.13,2.13,0,0,0,.13-1.25,5.32,5.32,0,0,0-3.19,1.57A15.29,15.29,0,0,0,23,18.67H23a4.27,4.27,0,0,0,0-1.78l0-.12S20.63,18,20.32,22l-.1,0,.08-2.34-1.22.93-.85,1.24-.29,1.12,0,.25L17.83,23l-.21-.41-.1,0a18.92,18.92,0,0,0-1.34,2.55,3.62,3.62,0,0,0,.48,2.24,2,2,0,0,0-.27.56,6.07,6.07,0,0,0-.1,1l0-.11a16.4,16.4,0,0,1-.87-1.58l-.08,0a4.38,4.38,0,0,0-.33,4.2l2.36-1a5.08,5.08,0,0,0,1.16-4.7s0-.29,0-.25A5.39,5.39,0,0,0,20.77,25l.25-.41,1.19-2s-.42-.57-.13-.75,2.32-1,2.32-1a1.76,1.76,0,0,0,.48-.8,6.61,6.61,0,0,0-1.88.25,2.87,2.87,0,0,1,.6-.75,5.83,5.83,0,0,1,2.19-.68,3.17,3.17,0,0,0,2.59-.62,4.31,4.31,0,0,0,1.67-2,6.75,6.75,0,0,0-.92-.15s0,0,0,0a4.64,4.64,0,0,0,2.09-1.31,3.21,3.21,0,0,0,.7-1.3A3.76,3.76,0,0,0,30.38,13.39Z"/><path class="cls-4" d="M31.95,13.35a4.21,4.21,0,0,0-4.07,1.27,6.26,6.26,0,0,0,.24-1.38,5.7,5.7,0,0,0-3.26,1.45,11.4,11.4,0,0,0-1.71,3.38,4.91,4.91,0,0,0,0-1.14c0-.18-.07-.51-.07-.48l-.17.16-.17.14a5.86,5.86,0,0,0-2.34,4.08c0-.66.06-1.21.06-1.26v-.23l-.2.12a4.65,4.65,0,0,0-2.4,3.34,6.07,6.07,0,0,0-.31-.53c0,.58-2.56,2.62-1,5.18a3.26,3.26,0,0,0-.31,1.23c-.08-.39-.87-1.16-.85-1.84l-.15.21-.06.08a4.54,4.54,0,0,0-.32,4.29l.05.11.23-.1-.05-.11a4.59,4.59,0,0,1,.25-4.06c.08.34.59.88.85,1.56a4.46,4.46,0,0,1,.17,2l.14,0a3.94,3.94,0,0,0-.11-1.8,3.89,3.89,0,0,1,2-2.95c.3,2.44-.32,3.42-1.05,4.27l-.2.19.19.06.2-.09c.78-.92,1.46-2,1.08-4.67l0-.13a5.43,5.43,0,0,0,2.12-.54l.26-.4a9.73,9.73,0,0,1-2.32.71,4.06,4.06,0,0,1,3.46-2.92L22,22.19a6.83,6.83,0,0,0-1.7.67c.06-.26.14-.78.28-1.85A5.66,5.66,0,0,1,22.85,17v0a5.21,5.21,0,0,1-.39,2.78l0,.09a6.31,6.31,0,0,1-.44.77c-.24.34-.65,1.08-.65,1.08a3,3,0,0,1,1.74-1.35h0a6.47,6.47,0,0,1,1.39-.24l.24,0a2.91,2.91,0,0,1-.25.62l-.09.13.38-.19c.13-.32.24-.66.25-.68l0-.19-.19,0-.41,0a7.58,7.58,0,0,0-1.15.17,4.81,4.81,0,0,1,.44-.45c.12-.06,1.25-.4,2-.68a9.64,9.64,0,0,0,1.22,0,4.45,4.45,0,0,0,3-2.34l.24-.49L29.4,16l-.49.16,1,.1a5.07,5.07,0,0,1-3.15,2.45,4,4,0,0,1-.7,0,4.71,4.71,0,0,0,1.41-1.16,3.35,3.35,0,0,0,.69-1.66,5.62,5.62,0,0,1-1.5.29,3.33,3.33,0,0,0,1.08-1.23c1-1.39,3.52-1.55,4-1.44a4.36,4.36,0,0,1-3.14,2.64l-.12,0,.62,0a4.13,4.13,0,0,0,2.82-2.63A.64.64,0,0,0,31.95,13.35ZM18.15,25.61a2.54,2.54,0,0,1-.09.32,5.19,5.19,0,0,0-1.35,1.31c-1.32-2.2.75-4,.84-4.48.07.15.25.65.25.65a6.05,6.05,0,0,1,.4,1.44A4.5,4.5,0,0,1,18.15,25.61Zm1.78-2.56,0,.07A5,5,0,0,0,18.47,25,7.12,7.12,0,0,0,18,23.34v-.09a4.25,4.25,0,0,1,2.12-3.45C20.11,20.78,20,22.74,19.92,23.05Zm6.54-6.86a3.53,3.53,0,0,0-2.27,1,8.17,8.17,0,0,0-.83,1.76l.54-1c.46-.71,1.23-1.58,4.05-1.77a7.46,7.46,0,0,1-.43,1,3.21,3.21,0,0,1-.55.67,2.86,2.86,0,0,1-1.42.95l-.12,0a12,12,0,0,0-1.81.6h0a4,4,0,0,0-.67.73l0,0a3.79,3.79,0,0,0-.45.19c.06-.11,1.34-4.14,2.46-5.32a4.07,4.07,0,0,1,2.94-1.48A3.36,3.36,0,0,1,26.46,16.19ZM16.23,28.68,27.69,52.61c-1.31.6-3-.23-4.24-1.09a3.84,3.84,0,0,0,1-.28A15.72,15.72,0,0,0,26.16,51a4.15,4.15,0,0,0,3.38.55,4.34,4.34,0,0,1-4-1.54,11,11,0,0,1-1.12-1.89,7.85,7.85,0,0,1,2.27.49l-.21-.26a9.17,9.17,0,0,0-2.56-.53,3.84,3.84,0,0,0-.5-1.81h-.22c.42.42.51,2.21.51,2.21a3.07,3.07,0,0,1,.56.6,3.38,3.38,0,0,0-1.11-.17l.12-.06h-.23s-2.61.25-5.29-2.65a4.12,4.12,0,0,1,1.37,0A8.44,8.44,0,0,1,22.76,48,5,5,0,0,0,21,46.31a4.61,4.61,0,0,1-.37-.9,24.22,24.22,0,0,0,0-2.48,5.91,5.91,0,0,0-1.5-3.49l-.28-.35a6.4,6.4,0,0,0-.42,3.4c0,.14.07.29.12.44-.34-.27-1-.69-1-.69a6.43,6.43,0,0,1-2.73-5.31A7.59,7.59,0,0,1,17.46,40l-.33-.79a4.5,4.5,0,0,1,.58-2l.07-.1L17.57,37l-.07.1a5.86,5.86,0,0,0-.61,1.72A6.21,6.21,0,0,0,16,37.58l-.11-.13v0l0-.09a2.14,2.14,0,0,1-.19-1.1v-.12h-.25v.12a2.53,2.53,0,0,0,.09.9c-.08-.06-.92-.48-.92-.48A5.7,5.7,0,0,0,16.86,42,3.86,3.86,0,0,0,15,41.63a6.66,6.66,0,0,0,3.6,4h0a3.56,3.56,0,0,0-1.31.3c.77.65,2.21,2.82,5.43,2.78a6.86,6.86,0,0,0-2.43.94s2.26,1.77,3.42,1.63l-.73.22c.16.12,2.42,2.18,4.74,1.36a4.52,4.52,0,0,1,4.08.26l-.2-.53-.11-.05A5.27,5.27,0,0,0,27.69,52.61Zm-7-6.59h0a2.31,2.31,0,0,0,.12.23L20.24,46ZM19,39.66a6.19,6.19,0,0,1,1.46,3.4c.06,1.29,0,1.54,0,2.17a5.21,5.21,0,0,1-1.76-2.79A6.77,6.77,0,0,1,19,39.66ZM15.3,41.78a7.83,7.83,0,0,1,3.45,1.64,8.84,8.84,0,0,0,1.61,2.06l.13.28C17.27,45.62,15.82,42.8,15.3,41.78Zm5.38,7.84c2.15-1.25,3.49-.61,3.93-.41A9.61,9.61,0,0,0,26,50.78,6.48,6.48,0,0,1,20.68,49.62Zm9.19,1.74c.15,0,1.35.48,1.43.54a1.6,1.6,0,0,0-.09-.25c-.13-.07-1.1-.32-1.24-.38a6.84,6.84,0,0,0-2.84-2.69.77.77,0,0,0-.21.06A7.91,7.91,0,0,1,29.87,51.36Z"/><g id="Green_Blue_Reef" data-name="Green&amp;Blue Reef"><path class="cls-12" d="M48,39.49h0S48,39.45,48,39.49ZM35.85,51.74l-.38.91a4.39,4.39,0,0,1,2.15-.31,4.62,4.62,0,0,1,1.82.48,3,3,0,0,0,1.57.06,7.89,7.89,0,0,0,2.15-.93c.25-.21.62-.42.58-.43a3.51,3.51,0,0,1-.89-.29,4,4,0,0,0,2.65-1.06,6.55,6.55,0,0,1,1-.46A5.07,5.07,0,0,0,44,48.77s-.23,0,0-.08,1.24-.12,1.74-.25a6.62,6.62,0,0,0,1.43-.62,4.57,4.57,0,0,0,1.57-1.18,5.9,5.9,0,0,1,.74-.72s0,0-.1-.06a4.43,4.43,0,0,0-3.56.79,1.29,1.29,0,0,0,.48-.79,4.32,4.32,0,0,0,2.07-.37A6.58,6.58,0,0,0,50.7,43.7a8.32,8.32,0,0,0,1.14-2,21,21,0,0,0-2.19.62,6.2,6.2,0,0,0,2.13-2.67,19.91,19.91,0,0,0,.6-2.94,8,8,0,0,1-1.12.74,3.53,3.53,0,0,0,.14-1.26L48.9,37.3c-.17,1.61-.13,1.32-.41,3.19l-.39-.84L48,39.49a6.2,6.2,0,0,0-1.59,3.77c-.18.08-.53.08-.6-.11a.77.77,0,0,1-.48.68,1.14,1.14,0,0,1,.22.86c-.25-.4-.61-.26-.84.21a.42.42,0,0,1-.23.49c-.06,0-.38-.35-.69-.07.15.17.35.58.28.75a1.2,1.2,0,0,0-.54-.08,4.63,4.63,0,0,0-.48,1.85c-.55.12-2.76.72-2.76.72l0,.3-.4-.23a7.18,7.18,0,0,0-2.9,2.7A11,11,0,0,0,35.85,51.74Zm-.77-38.27a3.21,3.21,0,0,0,.7,1.3,4.64,4.64,0,0,0,2.09,1.31s0,0,0,0a6.7,6.7,0,0,0-.92.15,4.32,4.32,0,0,0,1.67,2,3.18,3.18,0,0,0,2.59.62,5.84,5.84,0,0,1,2.19.68,2.86,2.86,0,0,1,.6.74A6.61,6.61,0,0,0,42.1,20a1,1,0,0,0,.29.59S45,21.78,45.2,21.88c.24.25,0,.71-.13.73s1.15,1.94,1.15,1.94l.37.6a14.6,14.6,0,0,0,1.89.37c.08,0,0,.25,0,.25a5.08,5.08,0,0,0,1.16,4.7l2.36,1a4.38,4.38,0,0,0-.33-4.2l-.08,0a16.42,16.42,0,0,1-.87,1.58l0,.11a6.08,6.08,0,0,0-.1-1,2,2,0,0,0-.27-.56,3.62,3.62,0,0,0,.48-2.23,18.93,18.93,0,0,0-1.35-2.55l-.1,0-.21.41-.08.08,0-.25-.29-1.12-.85-1.24-1.22-.93.08,2.34-.1,0c-.31-4-2.59-5.21-2.59-5.21l0,.12a4.27,4.27,0,0,0,0,1.78h-.06a15.29,15.29,0,0,0-1.66-3.59,5.32,5.32,0,0,0-3.19-1.57,2.14,2.14,0,0,0,.13,1.25,8.34,8.34,0,0,0-2.62-1.38A3.76,3.76,0,0,0,35.08,13.47Z"/><path class="cls-4" d="M35.08,13.55a4.13,4.13,0,0,0,2.82,2.63l.62,0-.12,0a4.36,4.36,0,0,1-3.14-2.64c.46-.1,2.95.06,4,1.44a3.34,3.34,0,0,0,1.08,1.23,5.62,5.62,0,0,1-1.5-.29,3.35,3.35,0,0,0,.69,1.66,4.72,4.72,0,0,0,1.41,1.16,4,4,0,0,1-.7,0,5.07,5.07,0,0,1-3.15-2.45l1-.1L37.58,16l-.84.09.24.49a4.45,4.45,0,0,0,3,2.34,9.67,9.67,0,0,0,1.22,0c.74.28,1.87.62,2,.68a4.91,4.91,0,0,1,.44.45,7.58,7.58,0,0,0-1.15-.17l-.41,0-.19,0L42,20a4.2,4.2,0,0,0,.2.55l.3.13a2.24,2.24,0,0,1-.2-.56l.24,0a6.49,6.49,0,0,1,1.39.24h0a3,3,0,0,1,1.74,1.35S45.23,21,45,20.63a6.32,6.32,0,0,1-.44-.77l0-.09A5.21,5.21,0,0,1,44.12,17v0A5.66,5.66,0,0,1,46.4,21c.14,1.07.22,1.6.28,1.85a7.14,7.14,0,0,0-1.4-.61.8.8,0,0,1-.13.27,3.87,3.87,0,0,1,3.18,2.86,7.35,7.35,0,0,1-1.95-.56l.23.39a6.24,6.24,0,0,0,1.77.39l0,.13c-.37,2.7.3,3.75,1.08,4.67l.2.09.19,0-.2-.2c-.73-.85-1.35-1.83-1.05-4.27a3.89,3.89,0,0,1,2,2.95,4.08,4.08,0,0,0-.11,1.83l.14,0a4.6,4.6,0,0,1,.17-2c.26-.69.77-1.22.85-1.56a4.59,4.59,0,0,1,.25,4.06l-.05.11.23.1.05-.11a4.54,4.54,0,0,0-.32-4.29L51.76,27l-.15-.21c0,.68-.78,1.45-.85,1.84a3.27,3.27,0,0,0-.31-1.23c1.59-2.56-1-4.6-1-5.18a6,6,0,0,0-.31.53,4.64,4.64,0,0,0-2.4-3.34l-.2-.12v.23c0,.05,0,.6.06,1.26a5.86,5.86,0,0,0-2.34-4.08l-.17-.14-.17-.16s0,.3-.07.48a4.89,4.89,0,0,0,0,1.14,11.41,11.41,0,0,0-1.71-3.38,5.69,5.69,0,0,0-3.26-1.45,6.26,6.26,0,0,0,.24,1.38A4.21,4.21,0,0,0,35,13.34.64.64,0,0,0,35.08,13.55Zm13.7,11.31a6.07,6.07,0,0,1,.4-1.44s.18-.51.25-.65c.08.5,2.16,2.28.84,4.48a5.19,5.19,0,0,0-1.35-1.31,2.5,2.5,0,0,1-.09-.32A4.51,4.51,0,0,1,48.78,24.85Zm-2-5.05a4.25,4.25,0,0,1,2.12,3.45v.09A7.13,7.13,0,0,0,48.51,25a5,5,0,0,0-1.43-1.87l0-.07C47,22.74,46.87,20.78,46.82,19.8Zm-7.71-6.26A4.06,4.06,0,0,1,42.05,15c1.12,1.18,2.39,5.2,2.46,5.32a3.79,3.79,0,0,0-.45-.19l0,0a4,4,0,0,0-.67-.73h0a12,12,0,0,0-1.81-.6l-.12,0A2.87,2.87,0,0,1,40,17.8a3.21,3.21,0,0,1-.55-.67,7.5,7.5,0,0,1-.43-1c2.82.18,3.6,1.05,4.05,1.77l.54,1a8.17,8.17,0,0,0-.83-1.76,3.53,3.53,0,0,0-2.27-1A3.36,3.36,0,0,1,39.11,13.54ZM50.75,28.68,35.42,52.5l-.11.05-.2.53a4.52,4.52,0,0,1,4.08-.26c2.32.81,4.58-1.24,4.74-1.36l-.73-.22c1.17.14,3.42-1.63,3.42-1.63a6.86,6.86,0,0,0-2.43-.94c3.22,0,4.66-2.12,5.43-2.78a3.56,3.56,0,0,0-1.31-.3h0a6.66,6.66,0,0,0,3.6-4,3.86,3.86,0,0,0-1.82.33,5.7,5.7,0,0,0,2.26-5.32s-.84.42-.92.48a2.54,2.54,0,0,0,.09-.9V36.1h-.25v.12a2.14,2.14,0,0,1-.19,1.1l0,.09v0l-.11.13a6.17,6.17,0,0,0-.85,1.23,5.88,5.88,0,0,0-.61-1.72l-.07-.1-.21.14.07.1a4.5,4.5,0,0,1,.58,2l-.33.79a7.6,7.6,0,0,1,2.65-3.07,6.43,6.43,0,0,1-2.73,5.31s-.7.42-1,.69c.05-.15.09-.3.12-.44a6.4,6.4,0,0,0-.42-3.4l-.28.35a5.91,5.91,0,0,0-1.5,3.49,24.34,24.34,0,0,0,0,2.48,4.58,4.58,0,0,1-.37.9A5,5,0,0,0,44.22,48a8.44,8.44,0,0,1,3.62-2.06,4.11,4.11,0,0,1,1.37,0c-2.68,2.9-5.27,2.65-5.29,2.65h-.23l.12.06a3.38,3.38,0,0,0-1.11.17,3.08,3.08,0,0,1,.56-.6s.09-1.79.51-2.21h-.22a3.85,3.85,0,0,0-.5,1.81,9.38,9.38,0,0,0-2.61.53l-.13.26a7.72,7.72,0,0,1,2.24-.47A11,11,0,0,1,41.43,50a4.34,4.34,0,0,1-4,1.54A4.15,4.15,0,0,0,40.82,51a15.72,15.72,0,0,0,1.68.24,3.86,3.86,0,0,0,1,.28c-1.24.86-2.93,1.68-4.24,1.09A5.28,5.28,0,0,0,35.42,52.5ZM46.74,46l-.55.27a2.22,2.22,0,0,0,.12-.23h0Zm1.54-3.53a5.21,5.21,0,0,1-1.76,2.79c0-.63-.07-.88,0-2.17A6.19,6.19,0,0,1,48,39.66,6.77,6.77,0,0,1,48.29,42.45Zm-1.8,3.3.13-.28a8.84,8.84,0,0,0,1.61-2.06,7.83,7.83,0,0,1,3.45-1.64C51.16,42.8,49.71,45.61,46.49,45.75Zm-5.49,5a9.6,9.6,0,0,0,1.38-1.57c.44-.2,1.78-.85,3.93.41A6.48,6.48,0,0,1,41,50.78Zm-1-2.09a.67.67,0,0,1-.15-.09A6.74,6.74,0,0,0,37,51.27c-.14.06-1.1.31-1.24.38a1.66,1.66,0,0,0-.09.25c.08-.05,1.28-.5,1.43-.54A7.59,7.59,0,0,1,40,48.69Z"/></g><polygon class="cls-4" points="38.34 45.37 33.57 56.67 33.92 47.15 33.79 47.16 33.51 54.97 33.28 47.16 33.15 47.16 33.43 56.69 28.7 45.56 28.66 45.47 28.6 45.5 28.56 45.52 26.34 46.43 26.32 46.6 26.35 46.63 28.57 45.72 33.38 57.05 33.42 57.13 33.48 57.11 33.57 57.15 33.61 57.06 38.44 45.62 40.64 46.52 40.7 46.34 38.34 45.37"/><polygon class="cls-4" points="33.59 9.87 33.59 9.87 33.59 9.86 33.59 9.86 33.56 9.79 33.49 9.81 33.42 9.79 33.39 9.86 33.39 9.86 33.39 9.87 33.39 9.87 28.65 20.75 28.9 20.62 33.42 10.23 33.16 18.38 33.16 18.4 33.28 18.4 33.29 18.38 33.48 11.89 33.74 18.38 33.74 18.41 33.86 18.42 33.86 18.38 33.55 10.23 38.31 21.3 38.45 21.17 33.59 9.87"/><g id="Name_Banner" data-name="Name Banner"><path class="cls-4" d="M33.5,66a32.5,32.5,0,0,0,23-55.48,32.5,32.5,0,1,0-46,46A32.29,32.29,0,0,0,33.5,66ZM1.19,33.5A32.31,32.31,0,0,1,56.35,10.65a32.31,32.31,0,0,1-45.7,45.7A32.1,32.1,0,0,1,1.19,33.5Z"/><path class="cls-4" d="M33.5,65.14a31.64,31.64,0,0,0,22.37-54A31.64,31.64,0,1,0,11.13,55.87,31.43,31.43,0,0,0,33.5,65.14ZM2,33.5A31.45,31.45,0,0,1,55.74,11.26,31.45,31.45,0,0,1,11.26,55.74,31.25,31.25,0,0,1,2,33.5Z"/><path class="cls-4" d="M33.5,58a24.53,24.53,0,1,0-17.35-7.19A24.37,24.37,0,0,0,33.5,58ZM9.15,33.5a24.35,24.35,0,1,1,7.13,17.22A24.19,24.19,0,0,1,9.15,33.5Z"/><path class="cls-4" d="M33.5,57.24a23.74,23.74,0,1,0-16.78-7A23.58,23.58,0,0,0,33.5,57.24ZM10,33.5a23.55,23.55,0,1,1,6.9,16.65A23.4,23.4,0,0,1,10,33.5Z"/></g><polygon class="cls-4" points="57.09 33.44 49.06 30.14 49.1 30.35 56.59 33.4 49.18 33.17 49.17 33.29 56.41 33.52 49.16 33.7 49.16 33.83 56.59 33.64 48.92 37.18 48.89 37.4 57.09 33.61 57.09 33.44"/><polygon class="cls-4" points="18.37 37.33 10.35 33.61 18.11 33.85 18.1 33.72 11.46 33.52 18.09 33.23 18.09 33.11 10.35 33.45 18.19 30.21 18.23 29.99 9.89 33.43 9.89 33.6 18.4 37.55 18.37 37.33"/><path class="cls-4" d="M28.89,4.19l.35,3.49-.31.07L29,8l1.78-.18a1.92,1.92,0,0,0,1.79-2.28A1.92,1.92,0,0,0,30.32,3.7l-1.78.18,0,.3ZM30.09,4c1.12-.11,1.33.78,1.42,1.66s.07,1.8-1.06,1.91a1.27,1.27,0,0,1-.26,0l-.36-3.53A1.28,1.28,0,0,1,30.09,4ZM11.63,13.35l1.8,1.85a1.32,1.32,0,0,0,2-.08,1.3,1.3,0,0,0,0-2.09l-1.36-1.4c-.21-.22-.29-.43-.07-.68l-.21-.21-.87.84.21.21c.24-.14.44-.26.81.11l1.27,1.3c.4.42.67,1,.16,1.45a.8.8,0,0,1-1.26-.1l-1.83-1.88.23-.28-.21-.21-1.17,1.14.21.21Zm13-8.15.88,3.39-.3.12.08.29,2.22-.58a2.53,2.53,0,0,1,.82-.12V6.86H28a1.59,1.59,0,0,1-1.19,1.42,1.52,1.52,0,0,1-.4.05L26,6.69l.33-.09c.39-.1.55.25.68.53l.24-.06-.41-1.59-.24.06c0,.28.06.67-.34.77l-.33.09L25.5,4.94a3.38,3.38,0,0,1,.4-.14,1.52,1.52,0,0,1,1.64.62l.24-.12-.61-1.23a2.87,2.87,0,0,1-.78.29l-2.22.58.08.29ZM21,7.7c0-.52,0-1.1.53-1.37L22.89,9.6l-.28.16.12.28,1.46-.61-.12-.28-.31.08L22.39,6a1.2,1.2,0,0,1,1.35.59l.2-.14-.73-1.17a7.11,7.11,0,0,1-.74.36l-1.27.53a7.2,7.2,0,0,1-.78.27l.33,1.34Zm-2.4.15,1.7,3.06-.35.24.15.26,1.57-.87-.15-.26-.39.17-1.7-3.06.35-.24-.15-.26-1.57.87L18.2,8Zm-3.5,2.69,1.6,2.22a.48.48,0,0,1,0,.68l.17.24,1-.71-.17-.24a.49.49,0,0,1-.72-.13l-1.4-2v0L19,12.1l.45-.32-1.94-2.7c-.17-.24-.24-.52,0-.7l-.17-.24-1,.71.17.24c.35-.22.52-.13.74.16l1.18,1.64h0L15.37,9.57l-1,.71.17.24C14.69,10.47,15,10.36,15.09,10.55Zm26.21-2-.11.28,1.2.47L42.5,9c-.19-.1-.42-.26-.33-.48a.72.72,0,0,1,.08-.13l.3-.41,1.25.49-.08,1-.32-.08-.11.28,1.49.58.11-.28-.23-.13.22-4-1-.38V5.8L42.06,8.06C41.84,8.33,41.67,8.6,41.3,8.51ZM44,6.21h0L43.82,8.1l-1-.41Zm4.1,5.5-.28-.15-.18.24,1.84,1.36a2.54,2.54,0,0,1,.61.56l1.12-.91-.2-.24a1.59,1.59,0,0,1-1.85,0,1.52,1.52,0,0,1-.29-.28l1-1.37.27.2c.33.24.16.58,0,.86l.2.15,1-1.32-.2-.15c-.21.2-.48.46-.81.22l-.27-.2.9-1.21a3.39,3.39,0,0,1,.36.23,1.52,1.52,0,0,1,.55,1.67l.24.11.58-1.24a2.86,2.86,0,0,1-.72-.42L50.1,8.43l-.18.24.23.22ZM53,15.2c-.28.28-.65.25-1-.1a1.61,1.61,0,0,1-.22-1.76l-.22-.13-.73,1.1a.93.93,0,0,1,.38.17c.23.23.22.48.54.8a1.33,1.33,0,0,0,2,.07c1.14-1.15-.86-2.44-.2-3.11a.61.61,0,0,1,.9,0c.49.48.29,1,.13,1.58l.22.15.68-1a1.24,1.24,0,0,1-.36-.18,1.2,1.2,0,0,1-.17-.3,1.39,1.39,0,0,0-.27-.39,1.23,1.23,0,0,0-1.86,0C51.78,13.17,53.75,14.43,53,15.2ZM46.74,11l-.26-.19,1.69-3.12a1.2,1.2,0,0,1,.39,1.42l.23.07.46-1.3a7.13,7.13,0,0,1-.75-.35l-1.21-.66a7.18,7.18,0,0,1-.7-.44l-.84,1.1.19.16c.38-.35.84-.7,1.4-.45l-1.69,3.12-.3-.11-.14.26,1.39.76ZM40,4.53,39.18,8l-.32,0-.07.29,1.54.37.07-.29-.3-.11.82-3.45c.58.18.72.73.74,1.27h.24L42,4.66a7.11,7.11,0,0,1-.81-.14l-1.34-.32A7.15,7.15,0,0,1,39.06,4l-.52,1.28.22.1C39,4.9,39.39,4.43,40,4.53ZM35.35,7.67c.32,0,.47.24.92.28A1.33,1.33,0,0,0,37.9,6.74c.17-1.61-2.19-1.37-2.09-2.31a.61.61,0,0,1,.73-.53c.68.07.84.59,1.09,1.15l.27,0-.12-1.23a1.24,1.24,0,0,1-.39.08,1.19,1.19,0,0,1-.32-.13,1.4,1.4,0,0,0-.45-.14,1.23,1.23,0,0,0-1.43,1.18C35,6.27,37.32,6,37.21,7.11c0,.39-.35.61-.85.55-.7-.07-1-.63-1.27-1.23l-.26,0,.11,1.31A.93.93,0,0,1,35.35,7.67ZM61.72,28.73l0,.3c.7.28,1.15.61,1.23,1.39a1.53,1.53,0,0,1,0,.4L61.21,31l0-.34c0-.4.33-.51.63-.59l0-.25L60.14,30l0,.25c.28,0,.67,0,.71.45l0,.34-1.5.16a3.46,3.46,0,0,1-.07-.42,1.52,1.52,0,0,1,.85-1.53L60.11,29l-1.31.41a2.86,2.86,0,0,1,.18.81l.24,2.28.3,0v-.32L63,31.77l.07.31.3,0-.24-2.28a2.54,2.54,0,0,1,0-.83ZM6.9,25.05a2.06,2.06,0,0,0,2.75-1,2.06,2.06,0,0,0-1.31-2.61,2.05,2.05,0,0,0-2.75,1A2.05,2.05,0,0,0,6.9,25.05Zm-1-2.5C6.14,21.87,7,22,8,22.4s1.68.86,1.41,1.55-1.09.55-2.09.16S5.6,23.24,5.87,22.55Zm-1.12,4,1.6.37-.05.22c-.1.42-.38.45-.79.45l-.06.24L7,28.17l.06-.24c-.33-.18-.57-.33-.47-.75L6.63,27l1.51.35a3.58,3.58,0,0,1-.07.37c-.17.75-.6,1-1.32,1.09V29l1.41.07a2.87,2.87,0,0,1,.1-.82l.5-2.13-.29-.07-.11.3L5,25.59l0-.32L4.7,25.2l-.36,1.54.29.07Zm53.44-1.35-.29.07.3,1.17.29-.08c-.07-.41.06-.54.42-.63l2-.51v0l-2.35,2.41.31,1.18.29-.08c0-.15,0-.44.21-.49L62,27.56a.48.48,0,0,1,.62.28l.29-.07-.3-1.17-.29.07a.49.49,0,0,1-.38.62l-2.33.6h0l2.64-2.74-.14-.54-3.22.83C58.55,25.51,58.27,25.47,58.19,25.17ZM4.07,30.46l1.63.15,0,.23c0,.43-.31.5-.72.56l0,.25,1.59.15,0-.25c-.35-.13-.61-.25-.57-.68l0-.23,1.55.15a3.69,3.69,0,0,1,0,.37c-.07.77-.46,1-1.16,1.26l0,.27,1.41-.13a2.86,2.86,0,0,1,0-.83L8,29.56l-.3,0-.07.31-3.49-.33v-.32l-.3,0L3.7,30.74l.3,0Zm53.39-6.23a7.24,7.24,0,0,1,.27.78l1.34-.33,0-.24c-.52,0-1.1,0-1.37-.53l3.27-1.37.16.28.28-.12-.61-1.46-.28.12.08.31L57.29,23a1.2,1.2,0,0,1,.59-1.35l-.14-.2-1.17.72a7,7,0,0,1,.36.74Zm-2,29L51.9,51.44l-.73.73.4.16,1.33,2.62c.16.31.34.57.11.88l.21.21.91-.91-.21-.21c-.17.14-.41.28-.58.11a.73.73,0,0,1-.08-.13L53,54.45l1-1,.85.47-.2.26.21.21,1.13-1.13-.21-.21Zm-2.68.89L52,52.46h0l1.67.9Zm-6.45,4.79c-.06.54,0,1.19-.67,1.49a2,2,0,0,1-.3.11L44,57.35l.27-.17-.12-.27-1.44.65.12.27.31-.09,1.43,3.2-.27.17.12.27,1.77-.8a2.85,2.85,0,0,1,.79-.26l-.32-1.43Zm6-2.63-2.11-2.8.23-.22L50.31,53l-1.1.8.68,2.09h0l-1.74-1.32L47,55.45l.18.24.28-.15L49.16,58c.16.24.28.48-.08.74l.18.24,1-.76L50.12,58a.47.47,0,0,1-.73-.15c-.16-.21-.28-.43-.45-.67l-1.06-1.56h0l2.49,1.77.21-.16-.93-2.9h0l1.92,2.56-.23.22.18.24,1.28-.94-.18-.24Zm-18.5,3.21c.41,0,.5.2.5.57l0,2h0L32.6,59.21H31.38v.3c.15,0,.42.11.42.33l0,2.73a.48.48,0,0,1-.43.52v.3h1.21v-.3a.49.49,0,0,1-.5-.53l0-2.4h0l2,3.26h.56l0-3.32c0-.3.11-.56.43-.56v-.3H33.86ZM55.38,47.65l-.24-.18-.73,1,.24.18c.27-.31.46-.28.75-.06L57,49.77v0l-3.34-.34-.73,1,.24.18c.11-.1.34-.28.52-.14l2.18,1.64a.48.48,0,0,1,.16.66l.24.18L57,52l-.24-.18a.49.49,0,0,1-.72.08l-1.92-1.45v0l3.79.36.33-.44-2.66-2C55.33,48.15,55.19,47.9,55.38,47.65ZM42.9,60.47a1.59,1.59,0,0,1-1.14,1.46,1.53,1.53,0,0,1-.4.07l-.48-1.63.33-.1c.39-.11.56.23.69.51l.24-.07-.46-1.58-.24.07c0,.28.08.66-.31.78l-.33.1-.42-1.45a3.41,3.41,0,0,1,.4-.15,1.52,1.52,0,0,1,1.66.57l.24-.13L42,57.7a2.86,2.86,0,0,1-.77.32l-2.2.64.08.29.32,0,1,3.36-.29.13.08.29,2.2-.65a2.53,2.53,0,0,1,.82-.15l0-1.44Zm-4-1.45,0-.3-1.2.17,0,.3c.41,0,.52.13.57.49l.27,2h0L36.4,59.06l-1.21.17,0,.3c.15,0,.43,0,.47.27l.37,2.71a.48.48,0,0,1-.35.58l0,.3L37,63.2l0-.3a.49.49,0,0,1-.57-.45L36,60.07h0L38.45,63l.55-.08-.45-3.29C38.5,59.33,38.57,59.06,38.89,59ZM61.65,38.13a1.59,1.59,0,0,1,.73,1.7,1.54,1.54,0,0,1-.13.38l-1.67-.36.07-.33c.09-.4.47-.38.78-.36l.05-.25-1.61-.35-.05.25c.26.11.62.25.53.65l-.07.33-1.47-.32a3.33,3.33,0,0,1,.06-.42,1.52,1.52,0,0,1,1.29-1.19V37.6H58.8a2.85,2.85,0,0,1-.09.83l-.48,2.24.29.06.11-.3,3.43.74,0,.32.29.06.48-2.24a2.54,2.54,0,0,1,.26-.79l-1.29-.64ZM63,34.24l0,.32.3,0L63.43,33l-.3,0-.06.31-3.5-.14,0-.32-.3,0-.07,1.36,2.05.8h0l-2.12.51L59,36.88l.3,0,.06-.31,3,.26c.29,0,.55.08.52.53l.3,0,.07-1.29-.3,0c0,.36-.25.49-.58.47s-.51-.05-.8-.08l-1.88-.17h0l2.94-.81v-.26l-2.83-1.11h0ZM60.16,46.32l-4-.75-.5.91.43,0,2,2.15c.24.25.49.45.35.81l.26.14.62-1.13-.26-.14c-.12.18-.31.38-.52.27l-.12-.1-.37-.35L58.72,47l.95.21-.12.31.26.14.77-1.4-.26-.14Zm-2.33,1.6-1.31-1.37h0l1.85.4Zm3-6.07-.28-.11L60,43.17l.28.11.15-.28,1,.37a1,1,0,0,1-.07.35c-.23.61-1.16.69-2.19.3-.84-.32-1.62-.7-1.36-1.38s.92-.71,1.49-.79l.06-.25-1.36-.28a1.28,1.28,0,0,1,0,.52,1.09,1.09,0,0,1-.21.3,1.26,1.26,0,0,0-.26.41c-.4,1.05.5,2.13,1.52,2.52a1.86,1.86,0,0,0,2.56-1,5.06,5.06,0,0,0,.2-1.57l-1-.38ZM26.21,58.28a1.21,1.21,0,0,1-.29-.19,1.39,1.39,0,0,0-.42-.23,1.23,1.23,0,0,0-1.65.87c-.46,1.42,1.86,1.66,1.53,2.69-.12.38-.47.52-.95.37a1.61,1.61,0,0,1-1-1.47l-.26,0L23,61.61a.93.93,0,0,1,.41,0c.31.1.41.33.84.47a1.34,1.34,0,0,0,1.85-.86c.49-1.54-1.87-1.79-1.58-2.69a.61.61,0,0,1,.82-.37c.65.21.7.75.83,1.35l.27,0,.14-1.23A1.25,1.25,0,0,1,26.21,58.28Zm3.09.5a2.2,2.2,0,1,0,1.57,2.47A2.06,2.06,0,0,0,29.3,58.79Zm.55,2.3c-.17,1.06-.48,1.83-1.21,1.71s-.77-.94-.6-2,.48-1.83,1.21-1.71S30,60,29.85,61.09ZM4.91,41.29a1.55,1.55,0,0,1-.06-.4l1.64-.45.09.33c.11.39-.24.56-.53.68l.07.24,1.59-.44L7.64,41c-.28,0-.66.06-.77-.33l-.09-.33L8.24,40a3.31,3.31,0,0,1,.14.4A1.52,1.52,0,0,1,7.78,42l.12.24,1.22-.62a2.87,2.87,0,0,1-.31-.77l-.61-2.21-.29.08L8,39,4.59,40l-.12-.29-.29.08L4.79,42a2.54,2.54,0,0,1,.13.82l1.44,0v-.31A1.59,1.59,0,0,1,4.91,41.29ZM12,49.92c-.35.14-.62.22-.87-.13L11,49.6l1.25-.92a3.62,3.62,0,0,1,.23.29,1.33,1.33,0,0,1,0,1.71l.21.17,1-1a2.87,2.87,0,0,1-.56-.61l-1.29-1.76-.24.18.15.28L8.91,50l-.22-.23-.24.18.94,1.28L9.62,51l-.15-.28,1.32-1,.13.18c.25.35.1.58-.17.9l.15.2,1.29-.94ZM5.21,38.53c-.39-.18-.87-.39-.93-.88-.11-.89,1.25-1.16,2.06-1.27.43-.05,1.36-.1,1.44.5s-.55,1.07-1,1.32l.09.27,1.37-.39A.77.77,0,0,1,8,37.73a1.26,1.26,0,0,1,0-.35,1.84,1.84,0,0,0,0-.5c-.11-.87-1-1.63-2.62-1.42a1.79,1.79,0,0,0-1.71,2A1.7,1.7,0,0,0,5.1,38.78Zm4.56,9.63a2.06,2.06,0,0,0,1-2.74A2.06,2.06,0,0,0,8,44.72a2.06,2.06,0,0,0-1,2.74A2.06,2.06,0,0,0,9.76,48.16Zm-2.57-.84c-.34-.65.29-1.19,1.24-1.69s1.75-.72,2.09-.07-.29,1.19-1.24,1.69S7.53,48,7.19,47.32Zm15.16,9.37-1.69-.83-.13.27.27.18-1.53,3.15-.3-.1-.13.27,1.42.69.13-.27-.27-.18.68-1.4.34.15L21,60.7l1,.51.13-.27L22,60.77,22,58.93a1,1,0,0,0,1.09-.58C23.48,57.61,23.12,57.06,22.35,56.69Zm-.13,1.21c-.19.39-.48.71-1,.44a1.73,1.73,0,0,1-.26-.16l.72-1.47a1.72,1.72,0,0,1,.28.11C22.49,57.09,22.41,57.51,22.22,57.9ZM3.93,34.45l3.5-.05,0,.42h.3l0-1.8h-.3l0,.43-3.5.05,0-.42h-.3l0,1.8h.3Zm12.66,20c.69-.75.17-1.41-.52-2l-1.12-1-.2.22.21.24-2.37,2.58-.26-.18-.2.22,1.17,1.07.2-.22-.2-.24,1.05-1.15.32.29C15.27,54.79,16,55.15,16.58,54.47Zm-1.83-.55a1.72,1.72,0,0,1-.21-.22l1.11-1.21a1.69,1.69,0,0,1,.24.19c.44.41.25.79,0,1.11S15.2,54.32,14.75,53.92Zm3.13,3.49.93-1.36-.21-.14c-.2.2-.47.48-.8.25L17.52,56l.85-1.24a3.33,3.33,0,0,1,.37.22,1.52,1.52,0,0,1,.61,1.65l.25.1.53-1.26A2.89,2.89,0,0,1,19.4,55l-1.89-1.3-.17.25.24.21-2,2.89-.28-.14-.17.25L17,58.48a2.54,2.54,0,0,1,.63.54l1.08-.95-.21-.23a1.59,1.59,0,0,1-1.85,0,1.53,1.53,0,0,1-.3-.27l1-1.4.28.19c.34.23.18.58,0,.86Z"/></svg>