<svg id="Layer_2" data-name="Layer 2" xmlns="http://www.w3.org/2000/svg" viewBox="0 0 33 30"><defs><style>.cls-1,.cls-3{fill:none;stroke:#fff;stroke-width:1.25px;}.cls-1{stroke-miterlimit:10;}.cls-2{fill:#fff;}.cls-3{stroke-linecap:round;stroke-linejoin:round;}</style></defs><title>project_inquiry_icon</title><circle class="cls-1" cx="11.29" cy="18.9" r="10.15"/><path class="cls-2" d="M29.69,4.64l-.76-.76c-.24-.25-.51-.48-.75-.73C26.44,1.38,25.42.37,24.34.37h-8.1a4.06,4.06,0,0,0-4,4.05V8.25a9.5,9.5,0,0,1,1.51.24V3.88a2.32,2.32,0,0,1,2.34-2h7.58c.73.19.72,1.07.72,2V7.46a1,1,0,0,0,1,1H29c1,0,2,0,2,1V23a2.26,2.26,0,0,1-2,2.28H19.85a11.4,11.4,0,0,1-1.27,1.42H28.4a4.06,4.06,0,0,0,4.05-4.06V8.47C32.45,7.39,31.46,6.37,29.69,4.64Z"/><line class="cls-3" x1="18.26" y1="11.53" x2="27.5" y2="11.53"/><line class="cls-3" x1="20.9" y1="15.56" x2="26.68" y2="15.56"/><line class="cls-3" x1="21.68" y1="19.59" x2="27.5" y2="19.59"/><path class="cls-2" d="M10.07,21.61l0-.44a3.69,3.69,0,0,1,1.19-3c.86-.92,1.34-1.59,1.34-2.36s-.61-1.47-1.82-1.48a3.67,3.67,0,0,0-1.94.53L8.34,13.8a5.43,5.43,0,0,1,2.75-.69c2.21,0,3.21,1.22,3.21,2.53s-.73,2-1.65,3a3.25,3.25,0,0,0-1.1,2.54l0,.44ZM9.65,24a1.08,1.08,0,0,1,1.15-1.08,1.08,1.08,0,1,1,0,2.15A1.07,1.07,0,0,1,9.65,24Z"/></svg>