<svg id="Layer_1" data-name="Layer 1" xmlns="http://www.w3.org/2000/svg" viewBox="0 0 106 30"><defs><style>.cls-1{fill-rule:evenodd;}</style></defs><title>SAMHSA_logo</title><path d="M9.63,4.65A1.29,1.29,0,0,0,9,5a1.59,1.59,0,0,0-.4.79A1.67,1.67,0,0,0,9,7.25a1.29,1.29,0,0,0,.59.36,1.24,1.24,0,0,0,1.23-.36,1.67,1.67,0,0,0,.4-1.45,1.59,1.59,0,0,0-.4-.79,1.27,1.27,0,0,0-.91-.4,1.13,1.13,0,0,0-.31,0"/><path d="M9.23,13.54a1.52,1.52,0,0,0-.8.47,8.92,8.92,0,0,0-1,1.16c-.36.48-.74,1-1.13,1.65-.6.94-1.22,2-1.81,3.05S3.32,22,2.83,22.92s-.9,1.76-1.2,2.35l-.46.94S2.1,25,3.32,23.56s2.74-3.23,3.92-4.37C8,18.46,8.62,18,8.94,18s.79.39,1.17,1a19.45,19.45,0,0,1,1.75,3.82s0-.38-.08-1-.14-1.44-.27-2.34-.29-1.88-.5-2.77a9.86,9.86,0,0,0-.76-2.27c-.19-.36-.51-.86-1-.86H9.23"/><path d="M9,13.6c-.67.29-1.66,1.57-2.71,3.21-.65,1-1.33,2.18-2,3.32-1.71,3.08-3.16,6.08-3.16,6.08s6.32-9.91,7.65-9.91a.82.82,0,0,1,.56.33c1.2,1.31,2.48,6.13,2.48,6.13a45.9,45.9,0,0,0-.79-5.87,10.5,10.5,0,0,0-.81-2.5c-.2-.37-.53-.85-1-.85A.67.67,0,0,0,9,13.6"/><path d="M15.35,3.38c-1.22,1.47-2.74,3.23-3.92,4.37C10.67,8.47,10.05,9,9.73,9s-.79-.39-1.17-1A19.44,19.44,0,0,1,6.81,4.18s0,.38.08,1S7,6.6,7.16,7.5s.29,1.88.5,2.77a9.88,9.88,0,0,0,.76,2.27c.2.37.53.89,1,.85a1.53,1.53,0,0,0,.8-.47,8.94,8.94,0,0,0,1-1.16c.36-.48.74-1,1.13-1.65.6-.94,1.22-2,1.81-3.05S15.35,5,15.84,4s.9-1.76,1.2-2.35L17.5.72s-.93,1.18-2.15,2.65"/><path d="M9.85,10.63a.82.82,0,0,1-.56-.33C8.09,9,6.81,4.18,6.81,4.18A45.8,45.8,0,0,0,7.61,10a10.53,10.53,0,0,0,.82,2.5c.23.44.66,1,1.24.79s1.66-1.57,2.71-3.21c.65-1,1.32-2.18,2-3.32C16.05,3.73,17.5.72,17.5.72s-6.32,9.9-7.65,9.9"/><path class="cls-1" d="M31.46,6.35H25.83A5.82,5.82,0,0,0,21.15,8.5a14.71,14.71,0,0,0-2,4,2.49,2.49,0,0,0,.8,2.63c1.05.92,4,.92,4.4,2.27a2.89,2.89,0,0,1-2.53,3.29h-4c-.93,0-1.49-.18-1.35-1.09h-.31L14.92,22.8c-.17.44-.06.78.75.78h6.7a5.39,5.39,0,0,0,4-1.66,10.77,10.77,0,0,0,2.51-5.12,2.37,2.37,0,0,0-1.61-3c-1-.42-3.38-1-3.6-1.75-.31-1.08.59-2.81,1.86-2.8h3.17c.73,0,1.75.06,2.14-1Zm61.77,0H87.61A5.82,5.82,0,0,0,82.93,8.5a14.72,14.72,0,0,0-2,4,2.49,2.49,0,0,0,.8,2.63c1.05.92,4,.92,4.4,2.27a2.89,2.89,0,0,1-2.53,3.29h-4c-.93,0-1.49-.18-1.35-1.09h-.31L76.69,22.8c-.17.44-.06.78.75.78h6.7a5.39,5.39,0,0,0,4-1.66,10.77,10.77,0,0,0,2.51-5.12,2.37,2.37,0,0,0-1.61-3c-1-.42-3.38-1-3.6-1.75-.31-1.08.59-2.81,1.86-2.8h3.17c.73,0,1.75.06,2.14-1ZM38.95,9.89l-4.79,6.85h4ZM37.47,6.35l-.13.27c.79.15.17,1.11-.17,1.56L26.51,22.43c-.54.72-.36,1.15.15,1.15h3.8l.09-.27a.52.52,0,0,1-.45-.87l2.27-3.14h5.5l-.29,3.14c0,.43-.21,1.14.8,1.14h3.26l.08-.27c-.41,0-.48-.53-.45-.87L43,7.09c0-.34-.06-.74-.62-.74Zm63.32,3.55L96,16.74h4ZM99.32,6.35l-.13.27c.79.15.17,1.11-.17,1.56L88.36,22.43c-.54.72-.36,1.15.15,1.15h3.8l.09-.27a.52.52,0,0,1-.45-.87l2.27-3.14h5.5l-.29,3.14c0,.43-.21,1.14.8,1.14h3.26l.08-.27c-.41,0-.48-.53-.45-.87l1.7-15.36c0-.34-.06-.74-.62-.74ZM51,11.52,45.66,22.45c-.16.32,0,.87.43.87l-.09.27H42.74c-1,0-.74-.68-.51-1.14L49.56,8.22c.27-.49.75-1.46,0-1.61l.14-.27h4.08c.56,0,.62.41.61.74l-.5,9.65L58.6,8.22c.27-.49.89-1.46.1-1.61l.14-.27H63.1c.56,0,.65.41.6.74l-2,15.36c0,.34,0,.87.43.87l-.09.27H58.68c-1,0-.84-.71-.78-1.14l1.75-10.93L52.78,23.58H50.13ZM72.59,7.08l-2.15,5.63h5.31l1.75-4.49c.2-.51.6-1.48,0-1.61l.14-.27h3.71c.56,0,.6.41.48.74L75.92,22.45c-.13.33,0,.87.43.87l-.09.27h-3.8c-1,0-.69-.66-.51-1.14l2.73-7H69.4l-2.68,7c-.13.33,0,.87.43.87l-.09.27h-3.8c-1,0-.69-.66-.51-1.14L68.29,8.22c.2-.51.6-1.48,0-1.61l.14-.27h3.71c.56,0,.6.41.48.74"/><path class="cls-1" d="M22.63,3.9c0,.39.33.62.87.62s.85-.23.85-.6a.43.43,0,0,0-.26-.41,2.31,2.31,0,0,0-.5-.14c-.35-.08-.51-.08-.51-.25s.13-.22.36-.22.41.09.42.27h.42c0-.37-.3-.58-.8-.58s-.82.2-.82.56a.44.44,0,0,0,.23.42,1.57,1.57,0,0,0,.47.14c.39.08.57.11.57.28s-.13.23-.38.23-.45-.09-.48-.3Z"/><path class="cls-1" d="M26,3.11h-.42v.8a.29.29,0,0,1-.32.29c-.18,0-.24-.09-.24-.27V3.11h-.42V4c0,.31.17.47.52.47a.61.61,0,0,0,.48-.2v.16H26Z"/><path class="cls-1" d="M27.41,3.78c0,.28-.12.42-.35.42s-.34-.14-.34-.42.13-.4.35-.4.34.15.34.4m-1.1-1.15V4.47h.4V4.29a.54.54,0,0,0,.47.23.65.65,0,0,0,.65-.72.66.66,0,0,0-.64-.73.55.55,0,0,0-.46.22V2.63Z"/><path class="cls-1" d="M28,4V4c0,.29.25.47.69.47s.73-.17.73-.47-.18-.33-.54-.41-.43-.07-.43-.17.08-.13.24-.13.27.07.27.18h.41c0-.29-.26-.46-.68-.46s-.64.18-.64.45.17.33.54.41S29,4,29,4.1s-.09.14-.26.14-.32-.07-.33-.21Z"/><path class="cls-1" d="M30.32,4.48V4.21h-.1c-.11,0-.14,0-.14-.09V3.37h.24V3.11h-.24V2.74h-.42v.37h-.21v.26h.21V4.1c0,.28.07.39.42.39h.24"/><path class="cls-1" d="M31.42,3.8v.13c0,.19-.14.31-.37.31s-.21-.06-.21-.16.06-.15.2-.18a2.09,2.09,0,0,0,.38-.09m0,.5a.36.36,0,0,0,0,.17h.44V4.41c-.07,0-.09-.09-.09-.19V3.45c0-.25-.24-.38-.68-.38s-.64.17-.64.45v0h.39v0c0-.11.09-.17.26-.17s.26,0,.26.15-.11.11-.44.15-.53.17-.53.43.17.43.48.43a.59.59,0,0,0,.5-.22"/><path class="cls-1" d="M32.14,4.47h.42V3.67a.28.28,0,0,1,.32-.29c.18,0,.24.09.24.27v.82h.42V3.55c0-.31-.17-.47-.52-.47a.61.61,0,0,0-.48.2V3.11h-.41Z"/><path class="cls-1" d="M34.79,4a.26.26,0,0,1-.28.24c-.2,0-.31-.14-.31-.41s.1-.43.31-.43a.25.25,0,0,1,.27.22h.42c0-.33-.29-.53-.69-.53a.68.68,0,0,0-.74.73.67.67,0,0,0,.73.73A.64.64,0,0,0,35.2,4Z"/><path class="cls-1" d="M35.77,3.65a.28.28,0,0,1,.31-.28.27.27,0,0,1,.31.28Zm.61.41a.28.28,0,0,1-.29.15.3.3,0,0,1-.32-.32h1a.93.93,0,0,0,0-.09.74.74,0,0,0-1.48,0,.69.69,0,0,0,.74.74.7.7,0,0,0,.73-.46Z"/><path class="cls-1" d="M38.43,2.63l-.76,1.84h.46l.14-.38h.82l.14.38h.46l-.76-1.84Zm.25.37.3.78h-.59Z"/><path class="cls-1" d="M40.93,3.78c0,.28-.12.42-.35.42s-.34-.14-.34-.42.13-.4.35-.4.34.15.34.4m-1.1-1.15V4.47h.4V4.29a.54.54,0,0,0,.47.23.65.65,0,0,0,.65-.72.66.66,0,0,0-.64-.73.55.55,0,0,0-.46.22V2.63Z"/><path class="cls-1" d="M43,3.11h-.42v.8a.28.28,0,0,1-.32.29c-.18,0-.24-.09-.24-.27V3.11h-.42V4c0,.31.17.47.52.47a.61.61,0,0,0,.48-.2v.16H43Z"/><path class="cls-1" d="M43.19,4V4c0,.29.25.47.69.47s.73-.17.73-.47-.18-.33-.54-.41-.43-.07-.43-.17.08-.13.24-.13.27.07.27.18h.41c0-.29-.26-.46-.69-.46s-.64.18-.64.45.17.33.54.41.41.05.41.17-.09.14-.26.14-.32-.07-.33-.21Z"/><path class="cls-1" d="M45.2,3.65a.28.28,0,0,1,.31-.28.27.27,0,0,1,.31.28Zm.61.41a.28.28,0,0,1-.29.15.3.3,0,0,1-.32-.32h1s0-.06,0-.09a.74.74,0,0,0-1.48,0,.69.69,0,0,0,.74.74.7.7,0,0,0,.73-.46Z"/><path class="cls-1" d="M48.17,3.8v.13c0,.19-.14.31-.37.31s-.21-.06-.21-.16.06-.15.2-.18a2.08,2.08,0,0,0,.37-.09m0,.5a.34.34,0,0,0,0,.17h.44V4.41c-.07,0-.09-.09-.09-.19V3.45c0-.25-.24-.38-.68-.38s-.64.17-.64.45v0h.39v0c0-.11.09-.17.26-.17s.26,0,.26.15-.11.11-.44.15-.53.17-.53.43.17.43.47.43a.6.6,0,0,0,.51-.22"/><path class="cls-1" d="M48.89,4.47h.42V3.67a.28.28,0,0,1,.32-.29c.18,0,.24.09.24.27v.82h.42V3.55c0-.31-.17-.47-.52-.47a.61.61,0,0,0-.47.2V3.11h-.41Z"/><path class="cls-1" d="M50.94,3.78c0-.25.13-.4.34-.4s.35.14.35.4-.12.42-.34.42-.35-.15-.35-.42M52,2.63h-.41v.65a.55.55,0,0,0-.47-.22.66.66,0,0,0-.64.73.65.65,0,0,0,.65.72.54.54,0,0,0,.47-.23v.18H52Z"/><polygon class="cls-1" points="53.2 4.47 53.61 4.47 53.61 2.99 54.05 4.47 54.49 4.47 54.93 2.99 54.93 4.47 55.34 4.47 55.34 2.63 54.69 2.63 54.27 4.03 53.85 2.63 53.2 2.63 53.2 4.47"/><path class="cls-1" d="M56,3.65a.28.28,0,0,1,.31-.28.27.27,0,0,1,.31.28Zm.61.41a.28.28,0,0,1-.29.15A.3.3,0,0,1,56,3.89h1s0-.06,0-.09a.74.74,0,0,0-1.48,0,.69.69,0,0,0,.74.74A.7.7,0,0,0,57,4.06Z"/><path class="cls-1" d="M57.29,4.47h.42V3.67A.28.28,0,0,1,58,3.38c.18,0,.24.09.24.27v.82h.42V3.55c0-.31-.17-.47-.52-.47a.61.61,0,0,0-.48.2V3.11h-.41Z"/><path class="cls-1" d="M59.69,4.48V4.21h-.1c-.11,0-.14,0-.14-.09V3.37h.24V3.11h-.24V2.74H59v.37h-.21v.26H59V4.1c0,.28.07.39.42.39h.24"/><path class="cls-1" d="M60.8,3.8v.13c0,.19-.14.31-.37.31s-.21-.06-.21-.16.07-.15.2-.18a2.09,2.09,0,0,0,.38-.09m0,.5a.35.35,0,0,0,0,.17h.44V4.41c-.07,0-.09-.09-.09-.19V3.45c0-.25-.24-.38-.68-.38s-.64.17-.64.45v0h.39v0c0-.11.09-.17.26-.17s.26,0,.26.15-.11.11-.44.15-.53.17-.53.43.17.43.48.43a.59.59,0,0,0,.5-.22"/><rect x="61.53" y="2.63" width="0.42" height="1.84"/><polygon class="cls-1" points="63.14 4.47 63.58 4.47 63.58 3.66 64.46 3.66 64.46 4.47 64.9 4.47 64.9 2.63 64.46 2.63 64.46 3.32 63.58 3.32 63.58 2.63 63.14 2.63 63.14 4.47"/><path class="cls-1" d="M65.59,3.65a.28.28,0,0,1,.31-.28.27.27,0,0,1,.31.28Zm.61.41a.28.28,0,0,1-.29.15.3.3,0,0,1-.33-.32h1s0-.06,0-.09a.74.74,0,0,0-1.48,0,.69.69,0,0,0,.74.74.7.7,0,0,0,.73-.46Z"/><path class="cls-1" d="M67.75,3.8v.13c0,.19-.14.31-.37.31s-.21-.06-.21-.16.07-.15.2-.18a2.08,2.08,0,0,0,.38-.09m0,.5a.35.35,0,0,0,0,.17h.44V4.41c-.07,0-.09-.09-.09-.19V3.45c0-.25-.24-.38-.68-.38s-.64.17-.64.45v0h.39v0c0-.11.09-.17.26-.17s.26,0,.26.15-.11.11-.44.15-.53.17-.53.43.17.43.48.43a.6.6,0,0,0,.51-.22"/><rect x="68.48" y="2.63" width="0.42" height="1.84"/><path class="cls-1" d="M69.95,4.48V4.21h-.1c-.11,0-.14,0-.14-.09V3.37h.24V3.11h-.24V2.74h-.42v.37h-.21v.26h.21V4.1c0,.28.07.39.42.39h.24"/><path class="cls-1" d="M70.17,4.47h.42V3.67a.28.28,0,0,1,.32-.29c.24,0,.25.13.25.38v.71h.42V3.57a.45.45,0,0,0-.08-.33.58.58,0,0,0-.43-.16.61.61,0,0,0-.47.19V2.63h-.42Z"/><path class="cls-1" d="M72.63,3.9c0,.39.33.62.87.62s.85-.23.85-.6a.43.43,0,0,0-.26-.41,2.33,2.33,0,0,0-.5-.14c-.35-.08-.51-.08-.51-.25s.13-.22.36-.22.41.09.42.27h.42c0-.37-.3-.58-.8-.58s-.82.2-.82.56a.44.44,0,0,0,.23.42,1.56,1.56,0,0,0,.47.14c.39.08.57.11.57.28s-.13.23-.38.23-.45-.09-.49-.3Z"/><path class="cls-1" d="M75,3.65a.28.28,0,0,1,.31-.28.27.27,0,0,1,.31.28Zm.61.41a.28.28,0,0,1-.29.15A.3.3,0,0,1,75,3.89h1s0-.06,0-.09a.74.74,0,0,0-1.48,0,.69.69,0,0,0,.74.74A.7.7,0,0,0,76,4.06Z"/><path class="cls-1" d="M76.23,4.47h.42V3.75c0-.2.12-.31.35-.31h.14V3.08h-.06a.49.49,0,0,0-.45.27V3.11h-.39Z"/><polygon class="cls-1" points="77.72 4.47 78.14 4.47 78.7 3.11 78.26 3.11 77.94 4.09 77.61 3.11 77.15 3.11 77.72 4.47"/><path class="cls-1" d="M78.85,4.47h.42V3.11h-.42Zm0-1.51h.42V2.63h-.42Z"/><path class="cls-1" d="M80.57,4a.26.26,0,0,1-.28.24c-.2,0-.31-.14-.31-.41s.1-.43.31-.43a.25.25,0,0,1,.27.22H81c0-.33-.29-.53-.69-.53a.68.68,0,0,0-.74.73.67.67,0,0,0,.73.73A.64.64,0,0,0,81,4Z"/><path class="cls-1" d="M81.55,3.65a.28.28,0,0,1,.31-.28.27.27,0,0,1,.31.28Zm.61.41a.28.28,0,0,1-.29.15.3.3,0,0,1-.32-.32h1a.88.88,0,0,0,0-.09.74.74,0,0,0-1.48,0,.69.69,0,0,0,.74.74.7.7,0,0,0,.73-.46Z"/><path class="cls-1" d="M82.74,4V4c0,.29.25.47.69.47s.73-.17.73-.47-.18-.33-.54-.41-.43-.07-.43-.17.08-.13.24-.13.27.07.27.18h.41c0-.29-.26-.46-.68-.46s-.64.18-.64.45.17.33.54.41.41.05.41.17-.09.14-.26.14-.32-.07-.33-.21Z"/><path class="cls-1" d="M85.77,2.63,85,4.47h.46l.14-.38h.82l.14.38H87l-.76-1.84ZM86,3l.3.78h-.59Z"/><path class="cls-1" d="M87.51,3.78c0-.25.13-.4.34-.4s.35.14.35.4-.12.42-.34.42-.35-.15-.35-.42m1.1-1.15H88.2v.65a.55.55,0,0,0-.47-.22.66.66,0,0,0-.64.73.65.65,0,0,0,.65.72.54.54,0,0,0,.47-.23v.18h.4Z"/><path class="cls-1" d="M88.92,4.47h.41V3.65a.25.25,0,0,1,.27-.26.2.2,0,0,1,.23.21v.87h.41V3.65a.24.24,0,0,1,.26-.26c.15,0,.23.07.23.21v.88h.41V3.52c0-.28-.2-.45-.51-.45a.56.56,0,0,0-.44.2.5.5,0,0,0-.44-.2.57.57,0,0,0-.43.19V3.11h-.4Z"/><path class="cls-1" d="M91.44,4.47h.42V3.11h-.42Zm0-1.51h.42V2.63h-.42Z"/><path class="cls-1" d="M92.21,4.47h.42V3.67A.28.28,0,0,1,93,3.38c.18,0,.24.09.24.27v.82h.42V3.55c0-.31-.17-.47-.52-.47a.61.61,0,0,0-.47.2V3.11h-.41Z"/><path class="cls-1" d="M93.93,4.47h.42V3.11h-.42Zm0-1.51h.42V2.63h-.42Z"/><path class="cls-1" d="M94.61,4V4c0,.29.25.47.69.47S96,4.35,96,4s-.18-.33-.54-.41-.43-.07-.43-.17.08-.13.24-.13.27.07.28.18H96c0-.29-.26-.46-.69-.46s-.64.18-.64.45.17.33.54.41.41.05.41.17-.09.14-.26.14S95,4.17,95,4Z"/><path class="cls-1" d="M97,4.48V4.21h-.1c-.11,0-.14,0-.14-.09V3.37H97V3.11h-.24V2.74H96.3v.37h-.21v.26h.21V4.1c0,.28.07.39.42.39H97"/><path class="cls-1" d="M97.17,4.47h.42V3.75c0-.2.12-.31.35-.31h.14V3.08H98a.49.49,0,0,0-.45.27V3.11h-.39Z"/><path class="cls-1" d="M99.16,3.8v.13c0,.19-.14.31-.37.31s-.21-.06-.21-.16.06-.15.2-.18a2.08,2.08,0,0,0,.37-.09m0,.5a.35.35,0,0,0,0,.17h.44V4.41c-.07,0-.09-.09-.09-.19V3.45c0-.25-.24-.38-.68-.38s-.64.17-.64.45v0h.39v0c0-.11.09-.17.26-.17s.26,0,.26.15-.11.11-.44.15-.53.17-.53.43.17.43.48.43a.6.6,0,0,0,.5-.22"/><path class="cls-1" d="M100.57,4.48V4.21h-.1c-.11,0-.14,0-.14-.09V3.37h.24V3.11h-.24V2.74h-.42v.37H99.7v.26h.21V4.1c0,.28.07.39.42.39h.24"/><path class="cls-1" d="M100.79,4.47h.42V3.11h-.42Zm0-1.51h.42V2.63h-.42Z"/><path class="cls-1" d="M101.48,3.79a.8.8,0,0,0,1.59,0,.8.8,0,0,0-1.59,0m.42,0c0-.27.14-.42.37-.42s.37.15.37.42-.13.42-.37.42-.37-.15-.37-.42"/><path class="cls-1" d="M103.3,4.47h.42V3.67a.28.28,0,0,1,.32-.29c.18,0,.24.09.24.27v.82h.42V3.55c0-.31-.17-.47-.52-.47a.61.61,0,0,0-.48.2V3.11h-.41Z"/><path d="M17,28.6h-.5l-.32-1.19h0l-.3,1.19h-.5l-.56-1.77h.51l.33,1.2h0l.29-1.2h.47l.3,1.2h0l.32-1.2h.5Z"/><path d="M19.77,28.6h-.5L19,27.42h0l-.3,1.19h-.5l-.56-1.77h.51l.33,1.2h0l.29-1.2h.47l.3,1.2h0l.33-1.2h.5Z"/><path d="M22.56,28.6h-.5l-.31-1.19h0l-.3,1.19h-.5l-.56-1.77h.51l.33,1.2h0l.29-1.2H22l.3,1.2h0l.33-1.2h.5Z"/><path d="M23.15,28.08h.54v.53h-.54Z"/><path d="M24.46,28c0,.21.18.3.37.3s.32-.05.32-.23-.2-.2-.55-.27-.56-.16-.56-.47.39-.57.77-.57.74.13.78.56h-.46c0-.19-.16-.24-.33-.24s-.27,0-.27.16.27.2.55.26.56.17.56.5-.4.62-.81.62S24,28.5,24,28Z"/><path d="M25.9,27.38c0-.46.43-.59.83-.59s.78.08.78.5v.92a.91.91,0,0,0,.06.39h-.49a.72.72,0,0,1,0-.17.81.81,0,0,1-.6.22c-.34,0-.6-.17-.6-.53s.3-.5.6-.54.58,0,.58-.23-.14-.24-.32-.24-.3.08-.32.27Zm1.12.36a1,1,0,0,1-.4.1c-.15,0-.29.08-.29.26s.14.23.3.23a.36.36,0,0,0,.39-.41Z"/><path d="M27.9,26.83h.46v.24h0a.64.64,0,0,1,.54-.29.52.52,0,0,1,.52.29.64.64,0,0,1,.53-.29.57.57,0,0,1,.65.63V28.6h-.49v-1c0-.24,0-.43-.3-.43s-.33.23-.33.45v1H29v-1c0-.21,0-.44-.29-.44-.1,0-.33.06-.33.41v1H27.9Z"/><path d="M31,26.16h.49v.92h0a.62.62,0,0,1,.52-.29c.52,0,.65.29.65.73V28.6h-.49v-1c0-.29-.09-.43-.31-.43s-.38.15-.38.51v.93H31Z"/><path d="M33.4,28c0,.21.18.3.37.3s.32-.05.32-.23-.2-.2-.55-.27-.56-.16-.56-.47.39-.57.77-.57.74.13.78.56h-.46c0-.19-.16-.24-.33-.24s-.27,0-.27.16.27.2.55.26.56.17.56.5-.4.62-.81.62S33,28.5,32.93,28Z"/><path d="M34.84,27.38c0-.46.43-.59.83-.59s.78.08.78.5v.92a.9.9,0,0,0,.06.39H36a.72.72,0,0,1,0-.17.81.81,0,0,1-.6.22c-.34,0-.6-.17-.6-.53s.3-.5.6-.54.58,0,.58-.23-.14-.24-.32-.24-.3.08-.32.27Zm1.12.36a1,1,0,0,1-.4.1c-.15,0-.29.08-.29.26s.14.23.3.23a.36.36,0,0,0,.39-.41Z"/><path d="M36.84,28.08h.54v.53h-.54Z"/><path d="M39.48,28.49c0,.29-.1.78-.92.78-.35,0-.76-.16-.78-.57h.48a.33.33,0,0,0,.36.24c.27,0,.39-.18.39-.44v-.23h0a.6.6,0,0,1-.53.27c-.53,0-.76-.4-.76-.89a.79.79,0,0,1,.76-.88.55.55,0,0,1,.53.28h0v-.24h.46ZM39,27.7c0-.29-.1-.54-.41-.54s-.39.24-.39.5.1.53.39.53A.44.44,0,0,0,39,27.7Z"/><path d="M40.73,26.79a.93.93,0,1,1-.91.93A.87.87,0,0,1,40.73,26.79Zm0,1.5c.33,0,.43-.28.43-.56s-.1-.57-.43-.57-.43.28-.43.57S40.4,28.29,40.73,28.29Z"/><path d="M42.94,28.6H42.4l-.61-1.77h.51L42.67,28h0l.37-1.21h.48Z"/><path d="M45.36,26.77a.61.61,0,1,1-.61.61A.61.61,0,0,1,45.36,26.77Z"/><path d="M48.52,28.6H48V27.05h-.6v-.37c.34,0,.65-.11.7-.48h.39Z"/><path d="M49.26,27.46h1v.42h-1Z"/><path d="M51.43,26.16a.71.71,0,0,1,.8.64.5.5,0,0,1-.35.5h0a.56.56,0,0,1,.45.59.81.81,0,0,1-.9.75c-.46,0-.91-.23-.91-.75a.57.57,0,0,1,.45-.59h0a.48.48,0,0,1-.35-.49A.73.73,0,0,1,51.43,26.16Zm0,2.13a.39.39,0,0,0,.41-.4.39.39,0,0,0-.41-.38.38.38,0,0,0-.42.38A.4.4,0,0,0,51.43,28.29Zm0-1.11a.33.33,0,1,0,0-.65.34.34,0,0,0-.37.33A.33.33,0,0,0,51.43,27.17Z"/><path d="M54.14,26.63a2.92,2.92,0,0,0-.78,2h-.52a3.5,3.5,0,0,1,.8-1.94H52.51v-.45h1.64Z"/><path d="M56,26.63a2.92,2.92,0,0,0-.78,2h-.52a3.5,3.5,0,0,1,.8-1.94H54.41v-.45H56Z"/><path d="M56.36,27.46h1v.42h-1Z"/><path d="M58.18,27.79c0,.33.25.45.54.45s.48-.05.48-.3-.37-.31-.73-.4-.73-.24-.73-.69a.82.82,0,0,1,.91-.74c.51,0,1,.22,1,.79h-.52c0-.29-.23-.37-.48-.37s-.37.07-.37.28.12.21.73.37c.18,0,.73.16.73.71s-.35.78-1,.78-1-.27-1-.87Z"/><path d="M60.7,26.16h.55l.91,2.44h-.56l-.18-.54h-.91l-.19.54h-.54Zm-.05,1.5h.63l-.31-.9h0Z"/><path d="M62.38,26.16h.76l.57,1.68h0l.54-1.68H65V28.6h-.5V26.87h0l-.6,1.73h-.41l-.6-1.71h0V28.6h-.5Z"/><path d="M65.48,26.16H66v.94h1v-.94h.54V28.6H67V27.55H66V28.6h-.54Z"/><path d="M68.39,27.79c0,.33.25.45.54.45s.48-.05.48-.3-.37-.31-.73-.4-.73-.24-.73-.69a.82.82,0,0,1,.91-.74c.51,0,1,.22,1,.79h-.52c0-.29-.23-.37-.48-.37s-.37.07-.37.28.12.21.73.37c.18,0,.73.16.73.71s-.35.78-1,.78-1-.27-1-.87Z"/><path d="M70.91,26.16h.55l.91,2.44h-.56l-.18-.54h-.91l-.19.54H70Zm-.05,1.5h.63l-.31-.9h0Z"/><path d="M72.53,27.46h1v.42h-1Z"/><path d="M75.52,26.63a2.92,2.92,0,0,0-.78,2h-.52a3.5,3.5,0,0,1,.8-1.94H73.88v-.45h1.64Z"/><path d="M77.64,26.1a3.34,3.34,0,0,0-.37,1.55,3.43,3.43,0,0,0,.37,1.57h-.4a3,3,0,0,1-.45-1.54,3,3,0,0,1,.45-1.58Z"/><path d="M79,28.6h-.49V27.05h-.6v-.37c.34,0,.65-.11.7-.48H79Z"/><path d="M79.7,27.46h1v.42h-1Z"/><path d="M81.87,26.16a.71.71,0,0,1,.8.64.5.5,0,0,1-.35.5h0a.56.56,0,0,1,.45.59.81.81,0,0,1-.9.75c-.46,0-.91-.23-.91-.75a.57.57,0,0,1,.45-.59h0a.48.48,0,0,1-.35-.49A.73.73,0,0,1,81.87,26.16Zm0,2.13a.39.39,0,0,0,.41-.4.39.39,0,0,0-.41-.38.38.38,0,0,0-.42.38A.4.4,0,0,0,81.87,28.29Zm0-1.11a.33.33,0,1,0,0-.65.34.34,0,0,0-.37.33A.33.33,0,0,0,81.87,27.17Z"/><path d="M84.58,26.63a2.92,2.92,0,0,0-.78,2h-.52a3.5,3.5,0,0,1,.8-1.94H82.95v-.45h1.64Z"/><path d="M86.49,26.63a2.92,2.92,0,0,0-.78,2h-.52a3.5,3.5,0,0,1,.8-1.94H84.85v-.45h1.64Z"/><path d="M86.8,27.46h1v.42h-1Z"/><path d="M89.78,26.63a2.92,2.92,0,0,0-.78,2h-.52a3.5,3.5,0,0,1,.8-1.94H88.15v-.45h1.64Z"/><path d="M90,27.13a.85.85,0,0,1,.87-1,.76.76,0,0,1,.82.75.84.84,0,0,1-.43.73,2.63,2.63,0,0,0-.69.55h1.13v.42H90c0-.55.34-.79.76-1.07.21-.14.5-.29.5-.59a.35.35,0,0,0-.36-.37c-.29,0-.38.3-.38.55Z"/><path d="M93.15,26.82a.34.34,0,0,0-.32-.3c-.35,0-.45.46-.46.73h0a.61.61,0,0,1,.54-.27.77.77,0,0,1,.55.25.87.87,0,0,1-.65,1.41c-.72,0-.92-.63-.92-1.24s.26-1.25.94-1.25a.73.73,0,0,1,.78.66Zm-.74,1a.41.41,0,0,0,.39.45.4.4,0,0,0,.37-.44c0-.23-.12-.45-.37-.45A.4.4,0,0,0,92.41,27.81Z"/><path d="M93.91,27.46h1v.42h-1Z"/><path d="M96.19,28h-1V27.6l1-1.4h.43v1.44H97V28h-.32v.55h-.46Zm0-1.23h0l-.62.83h.63Z"/><path d="M98.79,26.63a2.92,2.92,0,0,0-.78,2h-.52a3.5,3.5,0,0,1,.8-1.94H97.16v-.45h1.64Z"/><path d="M99.05,27.13a.85.85,0,0,1,.87-1,.76.76,0,0,1,.82.75.84.84,0,0,1-.43.73,2.63,2.63,0,0,0-.69.55h1.13v.42H99c0-.55.34-.79.76-1.07.21-.14.5-.29.5-.59a.35.35,0,0,0-.36-.37c-.29,0-.38.3-.38.55Z"/><path d="M102.6,26.63a2.92,2.92,0,0,0-.78,2h-.52a3.5,3.5,0,0,1,.8-1.94H101v-.45h1.64Z"/><path d="M102.71,29.23a3.31,3.31,0,0,0,.37-1.55,3.45,3.45,0,0,0-.37-1.58h.4a3.05,3.05,0,0,1,.45,1.54,3,3,0,0,1-.45,1.58Z"/></svg>