<svg id="Layer_1" data-name="Layer 1" xmlns="http://www.w3.org/2000/svg" xmlns:xlink="http://www.w3.org/1999/xlink" viewBox="0 0 33 36"><defs><style>.cls-1,.cls-6{fill:#00467f;}.cls-1,.cls-2,.cls-3{fill-rule:evenodd;}.cls-2,.cls-3,.cls-4{fill:#fff;}.cls-3{stroke:#fff;stroke-miterlimit:2.61;stroke-width:0.14px;}.cls-5{fill:none;stroke:#00467f;stroke-miterlimit:10;}</style><symbol id="Start_Up_Acrobat" data-name="Start Up Acrobat" viewBox="0 0 23.53 32.09"><path class="cls-1" d="M21.93,30.48H2.41a.8.8,0,1,1,0-1.6H21.93a1.61,1.61,0,0,0,1.6-1.61V1.61A1.61,1.61,0,0,0,21.93,0H2.41A2.41,2.41,0,0,0,0,2.41V29.68a2.41,2.41,0,0,0,2.41,2.41H21.93a1.61,1.61,0,0,0,1.6-1.61v-.8h-1.6Z"/><path class="cls-2" d="M21.79,18.49v.06h-.15V19h-.07v-.43h-.15v-.06Zm.47.49,0-.3h0v-.13h0c0,.05,0,.1,0,.14h0l-.11.28H22l-.1-.29h0s0-.08,0-.13h0v.13h0l0,.3h-.07l0-.49h.1l.1.27h0a1,1,0,0,1,0,.12h0a.93.93,0,0,0,0-.13h0l.1-.26h.09l0,.49Z"/><path class="cls-3" d="M5.23,19.43C3,21.12,1.42,23.52,2,23.89H2l-.54-.27h0c-.31-.38.4-2.41,3.74-4.19Z"/><path class="cls-3" d="M22.19,17.54c1.16-2.46-8.36-2.09-15.31,1.14,5.41-2.09,15.43-3,15.31-1.14Z"/><path class="cls-3" d="M11.43,4.44c.26-1.37-.41-1.32-.6-1.32h-.42c-.23,0-.44.18-.54.56-.66,2.46.54,8.71,3.89,11.59,3,2.56,8.13,3.72,8.33,2.49-1.07.51-5.1-.78-7.8-2.94-3.2-2.62-4.57-9.1-3.88-11.13a1.15,1.15,0,0,1,.31-.49,1.47,1.47,0,0,1,.71,1.24Z"/><path class="cls-3" d="M11.37,4.83A31,31,0,0,1,8.15,15.34c-3,6.05-5.2,8.88-6.66,8.28h0l.53.27H2c1.14.58,3.25-1.34,6.74-8.07a20.2,20.2,0,0,0,2.61-11Z"/></symbol></defs><title>startup-guide_icon</title><use id="Start_Up_Acrobat-3" data-name="Start Up Acrobat" width="23.53" height="32.09" transform="translate(0.76 0.87)" xlink:href="#Start_Up_Acrobat"/><rect class="cls-4" x="12.21" y="23.51" width="19.03" height="11.63" rx="2" ry="2"/><rect class="cls-5" x="12.21" y="23.51" width="19.03" height="11.63" rx="2" ry="2"/><path class="cls-6" d="M14.5,26.51a8.24,8.24,0,0,1,.83-.12c.3,0,.6,0,.9,0a6,6,0,0,1,.94.08,2.17,2.17,0,0,1,.85.31,1.66,1.66,0,0,1,.62.64,2.05,2.05,0,0,1,.24,1.06,2.22,2.22,0,0,1-.21,1,2,2,0,0,1-.55.67,2.16,2.16,0,0,1-.78.37,3.37,3.37,0,0,1-.9.12h-.35l-.21,0-.15,0v2.17H14.5Zm1.83.91H16l-.26,0v2l.11,0h.42a2,2,0,0,0,.48-.05,1.23,1.23,0,0,0,.43-.16,1,1,0,0,0,.3-.34,1.28,1.28,0,0,0,.11-.57.94.94,0,0,0-.11-.49.84.84,0,0,0-.28-.31,1.09,1.09,0,0,0-.4-.16A2.32,2.32,0,0,0,16.33,27.42Z"/><path class="cls-6" d="M19.64,26.44l.43,0,.49,0h.92a3.82,3.82,0,0,1,1.43.24,2.3,2.3,0,0,1,1,.65,2.59,2.59,0,0,1,.54,1,4.38,4.38,0,0,1,.17,1.29,4.51,4.51,0,0,1-.16,1.23,2.88,2.88,0,0,1-.54,1.06,2.67,2.67,0,0,1-1,.73,3.64,3.64,0,0,1-1.53.28H21l-.5,0-.49,0a2.53,2.53,0,0,1-.35,0Zm1.94,1h-.4l-.3,0v4.22h.63a1.86,1.86,0,0,0,.86-.18,1.46,1.46,0,0,0,.55-.49,2,2,0,0,0,.29-.71,4.38,4.38,0,0,0,.08-.82,4.63,4.63,0,0,0-.07-.74,1.82,1.82,0,0,0-.27-.67,1.48,1.48,0,0,0-.53-.49A1.74,1.74,0,0,0,21.58,27.45Z"/><path class="cls-6" d="M25.47,26.44H29.2v1.1H26.7V29.1H29v1.1H26.7v2.54H25.47Z"/></svg>