<svg id="Layer_1" data-name="Layer 1" xmlns="http://www.w3.org/2000/svg" viewBox="0 0 34 30"><defs><style>.cls-1,.cls-3{fill:#fff;}.cls-1,.cls-2{stroke:#fff;stroke-width:3px;}.cls-1,.cls-2,.cls-3,.cls-4,.cls-5{stroke-miterlimit:10;}.cls-2,.cls-4{fill:#003b71;}.cls-3,.cls-4,.cls-5{stroke:#003b71;}.cls-5{fill:none;}</style></defs><title>table_builder_icon</title><path class="cls-1" d="M2.36,7.33H2.24V25.72A2.07,2.07,0,0,0,4.3,27.79H29.7a2.07,2.07,0,0,0,2.06-2.07V7.33Z"/><rect class="cls-2" x="2.24" y="2.21" width="29.53" height="4.24"/><path class="cls-3" d="M2.36,7.33H2.24V25.72A2.07,2.07,0,0,0,4.3,27.79H29.7a2.07,2.07,0,0,0,2.06-2.07V7.33Z"/><rect class="cls-4" x="2.24" y="2.21" width="29.53" height="4.24"/><line class="cls-5" x1="12.04" y1="27.68" x2="12.04" y2="6.46"/><line class="cls-5" x1="21.9" y1="27.68" x2="21.9" y2="6.46"/><line class="cls-5" x1="31.71" y1="21.31" x2="2.24" y2="21.31"/><line class="cls-5" x1="31.71" y1="14.1" x2="2.24" y2="14.1"/></svg>