<svg id="Layer_1" data-name="Layer 1" xmlns="http://www.w3.org/2000/svg" viewBox="0 0 91 112"><defs><style>.cls-1{fill:#fff;}.cls-2{fill:#c94726;}.cls-3{fill:#00467f;}</style></defs><title>triple-circle_icon</title><g id="Layer_1-2" data-name="Layer 1"><circle class="cls-1" cx="36.52" cy="83.6" r="23.6"/><path class="cls-2" d="M10.22,84a26.3,26.3,0,1,0,26.3-26.3h0A26.33,26.33,0,0,0,10.22,84ZM15,84a21.5,21.5,0,1,1,21.5,21.5h0A21.47,21.47,0,0,1,15,84Z"/><path class="cls-3" d="M47.72,84.5a9.91,9.91,0,0,1,.4,5.9c-8-1.6-11.7,4.1-11.7,4.1a11.54,11.54,0,0,0-11-5.4,12.7,12.7,0,0,1,.8-5.1l11.4,4.6Zm4.1,5.7a1.08,1.08,0,0,0,.8-1,1.23,1.23,0,0,0-.4-.8l.1-.2c1.3-3.9.4-5-.3-6.1l4.4-1.7-19.5-6.6-20.1,5.8,20.7,8.2,13.2-5.2c.2.1,1.7,1.2.6,5.4l-.1.3a1.2,1.2,0,0,0-.7,1,1.07,1.07,0,0,0,.2.6c-.8,2.9-.8,3.9.8,5.3a4.69,4.69,0,0,0,2.2-.9A4.76,4.76,0,0,1,51.82,90.2Z"/><circle class="cls-1" cx="27.52" cy="27.8" r="23.6"/><path class="cls-3" d="M16.22,17.6h22.6a.47.47,0,0,1,.5.5v3.5a.47.47,0,0,1-.5.5H16.22a.47.47,0,0,1-.5-.5V18.1A.47.47,0,0,1,16.22,17.6Z"/><path class="cls-3" d="M35.42,25.4H19.62a.43.43,0,0,1-.4-.4h0V23.2h16.7V25a.46.46,0,0,1-.5.4Z"/><path class="cls-3" d="M34.82,27a.43.43,0,0,0-.4-.4H20.62a.43.43,0,0,0-.4.4V51.2h3.4V30a.65.65,0,0,1,.6-.6h0a.65.65,0,0,1,.6.6V51.2H27V30a.65.65,0,0,1,.6-.6h0a.65.65,0,0,1,.6.6V51.2h2.2V30a.65.65,0,0,1,.6-.6h0a.65.65,0,0,1,.6.6V51.2H35Z"/><path class="cls-2" d="M1.22,27.8A26.3,26.3,0,1,0,27.52,1.5h0A26.27,26.27,0,0,0,1.22,27.8Zm4.8,0a21.5,21.5,0,1,1,21.5,21.5h0A21.47,21.47,0,0,1,6,27.8Z"/><circle class="cls-1" cx="63.02" cy="49.1" r="23.6"/><circle class="cls-3" cx="62.82" cy="42.1" r="7.8"/><path class="cls-3" d="M71.72,51.3h-18a3.33,3.33,0,0,0-3.3,3.3h0V69.1a3.33,3.33,0,0,0,3.3,3.3h1.5V57.9a.6.6,0,0,1,1.2,0V72.3h12.5V57.9a.6.6,0,1,1,1.2,0V72.3h1.5a3.33,3.33,0,0,0,3.3-3.3h0V54.5A3.16,3.16,0,0,0,71.72,51.3Z"/><path class="cls-2" d="M36.82,49.3A26.3,26.3,0,1,0,63.12,23h0A26.33,26.33,0,0,0,36.82,49.3Zm4.8,0a21.5,21.5,0,1,1,21.5,21.5,21.47,21.47,0,0,1-21.5-21.5Z"/></g></svg>