<?xml version="1.0" encoding="utf-8"?>
<!-- Generator: Adobe Illustrator 21.1.0, SVG Export Plug-In . SVG Version: 6.00 Build 0)  -->
<svg version="1.1" id="Layer_1" xmlns="http://www.w3.org/2000/svg" xmlns:xlink="http://www.w3.org/1999/xlink" x="0px" y="0px"
	 viewBox="0 0 116 43.8" style="enable-background:new 0 0 116 43.8;" xml:space="preserve">
<style type="text/css">
	.st0{clip-path:url(#SVGID_2_);}
	.st1{fill:#BE2F37;}
	.st2{fill:#C03538;}
	.st3{fill:#C23A37;}
	.st4{fill:#C44038;}
	.st5{fill:#C64538;}
	.st6{fill:#C84A38;}
	.st7{fill:#C94F38;}
	.st8{fill:#CC5437;}
	.st9{fill:#CE5937;}
	.st10{fill:#D05E37;}
	.st11{fill:#D26337;}
	.st12{fill:#D46736;}
	.st13{fill:#D66B36;}
	.st14{fill:#D87035;}
	.st15{fill:#DA7434;}
	.st16{fill:#DC7833;}
	.st17{fill:#DE7C32;}
	.st18{fill:#E08131;}
	.st19{fill:#E2852F;}
	.st20{fill:#E48A2E;}
	.st21{fill:#E68F2C;}
	.st22{fill:#E8932B;}
	.st23{fill:#EB9828;}
	.st24{fill:#ED9D27;}
	.st25{fill:#EFA224;}
	.st26{fill:#F2A721;}
	.st27{fill:#F4AC1D;}
	.st28{fill:#F7B11A;}
	.st29{fill:#FAB715;}
	.st30{fill:#FEBD10;}
	.st31{clip-path:url(#SVGID_4_);fill:#FEBD10;}
	.st32{clip-path:url(#SVGID_6_);fill:#FAB715;}
	.st33{clip-path:url(#SVGID_8_);fill:#F8B418;}
	.st34{clip-path:url(#SVGID_10_);fill:#F6AF1B;}
	.st35{clip-path:url(#SVGID_12_);fill:#F4AB1E;}
	.st36{clip-path:url(#SVGID_14_);fill:#F2A721;}
	.st37{clip-path:url(#SVGID_16_);fill:#F0A323;}
	.st38{clip-path:url(#SVGID_18_);fill:#EE9F26;}
	.st39{clip-path:url(#SVGID_20_);fill:#EC9B27;}
	.st40{clip-path:url(#SVGID_22_);fill:#EA9728;}
	.st41{clip-path:url(#SVGID_24_);fill:#E9942A;}
	.st42{clip-path:url(#SVGID_26_);fill:#E7902C;}
	.st43{clip-path:url(#SVGID_28_);fill:#E68D2D;}
	.st44{clip-path:url(#SVGID_30_);fill:#E4892E;}
	.st45{clip-path:url(#SVGID_32_);fill:#E2862F;}
	.st46{clip-path:url(#SVGID_34_);fill:#E18231;}
	.st47{clip-path:url(#SVGID_36_);fill:#DF7F32;}
	.st48{clip-path:url(#SVGID_38_);fill:#DD7B32;}
	.st49{clip-path:url(#SVGID_40_);fill:#DC7833;}
	.st50{clip-path:url(#SVGID_42_);fill:#DA7534;}
	.st51{clip-path:url(#SVGID_44_);fill:#D97135;}
	.st52{clip-path:url(#SVGID_46_);fill:#D76E35;}
	.st53{clip-path:url(#SVGID_48_);fill:#D56A35;}
	.st54{clip-path:url(#SVGID_50_);fill:#D46736;}
	.st55{clip-path:url(#SVGID_52_);fill:#D26336;}
	.st56{clip-path:url(#SVGID_54_);fill:#D15F37;}
	.st57{clip-path:url(#SVGID_56_);fill:#CF5C37;}
	.st58{clip-path:url(#SVGID_58_);fill:#CD5837;}
	.st59{clip-path:url(#SVGID_60_);fill:#CC5437;}
	.st60{clip-path:url(#SVGID_62_);fill:#CA5138;}
	.st61{clip-path:url(#SVGID_64_);fill:#C94D38;}
	.st62{clip-path:url(#SVGID_66_);fill:#C84938;}
	.st63{clip-path:url(#SVGID_68_);fill:#C64538;}
	.st64{clip-path:url(#SVGID_70_);fill:#C54038;}
	.st65{clip-path:url(#SVGID_72_);fill:#C33C38;}
	.st66{clip-path:url(#SVGID_74_);fill:#C13838;}
	.st67{clip-path:url(#SVGID_76_);fill:#C03337;}
	.st68{clip-path:url(#SVGID_78_);fill:#BE2F37;}
	.st69{fill:#33297A;}
	.st70{fill:none;stroke:#FEBD10;stroke-width:0.4245;stroke-miterlimit:3.864;}
	.st71{fill:#004684;}
</style>
<g>
	<g>
		<g>
			<defs>
				<path id="SVGID_1_" d="M2.1,32.8c-0.2,0.9-0.1,1.7,0.3,2.4c1.9,3.2,8.2,2.1,17.4-2.1c0.4-0.2,0.8-0.4,0.8-0.3
					c0,0.1-0.4,0.4-0.8,0.6C9,38.9,2.6,39.6,0.6,36.2c-0.5-0.9-0.7-2-0.6-3.4L2.1,32.8"/>
			</defs>
			<clipPath id="SVGID_2_">
				<use xlink:href="#SVGID_1_"  style="overflow:visible;"/>
			</clipPath>
			<g class="st0">
				<polyline class="st1" points="-0.7,33.6 -0.9,33.3 16.3,24.5 16.5,24.8 -0.7,33.6 				"/>
				<polyline class="st2" points="-0.6,33.9 -0.7,33.6 16.5,24.8 16.6,25.1 -0.6,33.9 				"/>
				<polyline class="st3" points="-0.4,34.1 -0.6,33.9 16.6,25.1 16.8,25.4 -0.4,34.1 				"/>
				<polyline class="st4" points="-0.3,34.4 -0.4,34.1 16.8,25.4 16.9,25.6 -0.3,34.4 				"/>
				<polyline class="st5" points="-0.2,34.7 -0.3,34.4 16.9,25.6 17.1,25.9 -0.2,34.7 				"/>
				<polyline class="st6" points="0,35 -0.2,34.7 17.1,25.9 17.2,26.2 0,35 				"/>
				<polyline class="st7" points="0.1,35.3 0,35 17.2,26.2 17.4,26.5 0.1,35.3 				"/>
				<polyline class="st8" points="0.3,35.6 0.1,35.3 17.4,26.5 17.5,26.8 0.3,35.6 				"/>
				<polyline class="st9" points="0.4,35.8 0.3,35.6 17.5,26.8 17.6,27.1 0.4,35.8 				"/>
				<polyline class="st10" points="0.6,36.1 0.4,35.8 17.6,27.1 17.8,27.4 0.6,36.1 				"/>
				<polyline class="st11" points="0.7,36.4 0.6,36.1 17.8,27.4 17.9,27.6 0.7,36.4 				"/>
				<polyline class="st12" points="0.9,36.7 0.7,36.4 17.9,27.6 18.1,27.9 0.9,36.7 				"/>
				<polyline class="st13" points="1,37 0.9,36.7 18.1,27.9 18.2,28.2 1,37 				"/>
				<polyline class="st14" points="1.2,37.3 1,37 18.2,28.2 18.4,28.5 1.2,37.3 				"/>
				<polyline class="st15" points="1.3,37.5 1.2,37.3 18.4,28.5 18.5,28.8 1.3,37.5 				"/>
				<polyline class="st16" points="1.4,37.8 1.3,37.5 18.5,28.8 18.7,29.1 1.4,37.8 				"/>
				<polyline class="st17" points="1.6,38.1 1.4,37.8 18.7,29.1 18.8,29.3 1.6,38.1 				"/>
				<polyline class="st18" points="1.7,38.4 1.6,38.1 18.8,29.3 18.9,29.6 1.7,38.4 				"/>
				<polyline class="st19" points="1.9,38.7 1.7,38.4 18.9,29.6 19.1,29.9 1.9,38.7 				"/>
				<polyline class="st20" points="2,39 1.9,38.7 19.1,29.9 19.2,30.2 2,39 				"/>
				<polyline class="st21" points="2.2,39.2 2,39 19.2,30.2 19.4,30.5 2.2,39.2 				"/>
				<polyline class="st22" points="2.3,39.5 2.2,39.2 19.4,30.5 19.5,30.8 2.3,39.5 				"/>
				<polyline class="st23" points="2.5,39.8 2.3,39.5 19.5,30.8 19.7,31 2.5,39.8 				"/>
				<polyline class="st24" points="2.6,40.1 2.5,39.8 19.7,31 19.8,31.3 2.6,40.1 				"/>
				<polyline class="st25" points="2.7,40.4 2.6,40.1 19.8,31.3 20,31.6 2.7,40.4 				"/>
				<polyline class="st26" points="2.9,40.7 2.7,40.4 20,31.6 20.1,31.9 2.9,40.7 				"/>
				<polyline class="st27" points="3,40.9 2.9,40.7 20.1,31.9 20.2,32.2 3,40.9 				"/>
				<polyline class="st28" points="3.2,41.2 3,40.9 20.2,32.2 20.4,32.5 3.2,41.2 				"/>
				<polyline class="st29" points="3.3,41.5 3.2,41.2 20.4,32.5 20.5,32.7 3.3,41.5 				"/>
				<polyline class="st30" points="3.5,41.8 3.3,41.5 20.5,32.7 20.7,33 3.5,41.8 				"/>
			</g>
		</g>
	</g>
	<path class="st1" d="M0,32.8c0.2-2.5,1.6-5.7,4.1-9.2C4.5,23.1,5,23,5.5,23c1,0,1.8,0.8,1.8,1.8c0,0.4-0.2,0.6-0.4,0.9
		c-2.8,3-4.4,5.3-4.7,7.1L0,32.8"/>
	<path class="st1" d="M43,14.7c-1.1,2.6-3.1,5.7-6.3,9.1c-0.3,0.4-0.8,0.6-1.4,0.6c-1,0-1.8-0.7-1.8-1.7c0-0.5,0.2-0.9,0.6-1.2
		c2.5-2.4,4.6-4.8,6-6.8L43,14.7"/>
	<g>
		<g>
			<defs>
				<path id="SVGID_3_" d="M40.2,14.7c2-2.8,2.7-5.1,1.8-6.5c-2.3-3.3-9.2-2-17.4,2.1c-0.4,0.2-0.8,0.3-0.9,0.2
					c-0.1-0.1,0.2-0.3,0.6-0.4C33,5.3,40.9,4.1,43.3,7.5c1,1.5,1.1,3.9-0.3,7.1L40.2,14.7"/>
			</defs>
			<clipPath id="SVGID_4_">
				<use xlink:href="#SVGID_3_"  style="overflow:visible;"/>
			</clipPath>
			<polyline class="st31" points="23.7,10.5 23.6,10.2 40.8,2.2 41,2.5 23.7,10.5 			"/>
		</g>
		<g>
			<defs>
				<path id="SVGID_5_" d="M40.2,14.7c2-2.8,2.7-5.1,1.8-6.5c-2.3-3.3-9.2-2-17.4,2.1c-0.4,0.2-0.8,0.3-0.9,0.2
					c-0.1-0.1,0.2-0.3,0.6-0.4C33,5.3,40.9,4.1,43.3,7.5c1,1.5,1.1,3.9-0.3,7.1L40.2,14.7"/>
			</defs>
			<clipPath id="SVGID_6_">
				<use xlink:href="#SVGID_5_"  style="overflow:visible;"/>
			</clipPath>
			<polyline class="st32" points="23.8,10.8 23.7,10.5 41,2.5 41.1,2.8 23.8,10.8 			"/>
		</g>
		<g>
			<defs>
				<path id="SVGID_7_" d="M40.2,14.7c2-2.8,2.7-5.1,1.8-6.5c-2.3-3.3-9.2-2-17.4,2.1c-0.4,0.2-0.8,0.3-0.9,0.2
					c-0.1-0.1,0.2-0.3,0.6-0.4C33,5.3,40.9,4.1,43.3,7.5c1,1.5,1.1,3.9-0.3,7.1L40.2,14.7"/>
			</defs>
			<clipPath id="SVGID_8_">
				<use xlink:href="#SVGID_7_"  style="overflow:visible;"/>
			</clipPath>
			<polyline class="st33" points="24,11.1 23.8,10.8 41.1,2.8 41.3,3.1 24,11.1 			"/>
		</g>
		<g>
			<defs>
				<path id="SVGID_9_" d="M40.2,14.7c2-2.8,2.7-5.1,1.8-6.5c-2.3-3.3-9.2-2-17.4,2.1c-0.4,0.2-0.8,0.3-0.9,0.2
					c-0.1-0.1,0.2-0.3,0.6-0.4C33,5.3,40.9,4.1,43.3,7.5c1,1.5,1.1,3.9-0.3,7.1L40.2,14.7"/>
			</defs>
			<clipPath id="SVGID_10_">
				<use xlink:href="#SVGID_9_"  style="overflow:visible;"/>
			</clipPath>
			<polyline class="st34" points="24.1,11.4 24,11.1 41.3,3.1 41.4,3.3 24.1,11.4 			"/>
		</g>
		<g>
			<defs>
				<path id="SVGID_11_" d="M40.2,14.7c2-2.8,2.7-5.1,1.8-6.5c-2.3-3.3-9.2-2-17.4,2.1c-0.4,0.2-0.8,0.3-0.9,0.2
					c-0.1-0.1,0.2-0.3,0.6-0.4C33,5.3,40.9,4.1,43.3,7.5c1,1.5,1.1,3.9-0.3,7.1L40.2,14.7"/>
			</defs>
			<clipPath id="SVGID_12_">
				<use xlink:href="#SVGID_11_"  style="overflow:visible;"/>
			</clipPath>
			<polyline class="st35" points="24.2,11.7 24.1,11.4 41.4,3.3 41.5,3.6 24.2,11.7 			"/>
		</g>
		<g>
			<defs>
				<path id="SVGID_13_" d="M40.2,14.7c2-2.8,2.7-5.1,1.8-6.5c-2.3-3.3-9.2-2-17.4,2.1c-0.4,0.2-0.8,0.3-0.9,0.2
					c-0.1-0.1,0.2-0.3,0.6-0.4C33,5.3,40.9,4.1,43.3,7.5c1,1.5,1.1,3.9-0.3,7.1L40.2,14.7"/>
			</defs>
			<clipPath id="SVGID_14_">
				<use xlink:href="#SVGID_13_"  style="overflow:visible;"/>
			</clipPath>
			<polyline class="st36" points="24.4,12 24.2,11.7 41.5,3.6 41.7,3.9 24.4,12 			"/>
		</g>
		<g>
			<defs>
				<path id="SVGID_15_" d="M40.2,14.7c2-2.8,2.7-5.1,1.8-6.5c-2.3-3.3-9.2-2-17.4,2.1c-0.4,0.2-0.8,0.3-0.9,0.2
					c-0.1-0.1,0.2-0.3,0.6-0.4C33,5.3,40.9,4.1,43.3,7.5c1,1.5,1.1,3.9-0.3,7.1L40.2,14.7"/>
			</defs>
			<clipPath id="SVGID_16_">
				<use xlink:href="#SVGID_15_"  style="overflow:visible;"/>
			</clipPath>
			<polyline class="st37" points="24.5,12.3 24.4,12 41.7,3.9 41.8,4.2 24.5,12.3 			"/>
		</g>
		<g>
			<defs>
				<path id="SVGID_17_" d="M40.2,14.7c2-2.8,2.7-5.1,1.8-6.5c-2.3-3.3-9.2-2-17.4,2.1c-0.4,0.2-0.8,0.3-0.9,0.2
					c-0.1-0.1,0.2-0.3,0.6-0.4C33,5.3,40.9,4.1,43.3,7.5c1,1.5,1.1,3.9-0.3,7.1L40.2,14.7"/>
			</defs>
			<clipPath id="SVGID_18_">
				<use xlink:href="#SVGID_17_"  style="overflow:visible;"/>
			</clipPath>
			<polyline class="st38" points="24.6,12.6 24.5,12.3 41.8,4.2 41.9,4.5 24.6,12.6 			"/>
		</g>
		<g>
			<defs>
				<path id="SVGID_19_" d="M40.2,14.7c2-2.8,2.7-5.1,1.8-6.5c-2.3-3.3-9.2-2-17.4,2.1c-0.4,0.2-0.8,0.3-0.9,0.2
					c-0.1-0.1,0.2-0.3,0.6-0.4C33,5.3,40.9,4.1,43.3,7.5c1,1.5,1.1,3.9-0.3,7.1L40.2,14.7"/>
			</defs>
			<clipPath id="SVGID_20_">
				<use xlink:href="#SVGID_19_"  style="overflow:visible;"/>
			</clipPath>
			<polyline class="st39" points="24.8,12.9 24.6,12.6 41.9,4.5 42.1,4.8 24.8,12.9 			"/>
		</g>
		<g>
			<defs>
				<path id="SVGID_21_" d="M40.2,14.7c2-2.8,2.7-5.1,1.8-6.5c-2.3-3.3-9.2-2-17.4,2.1c-0.4,0.2-0.8,0.3-0.9,0.2
					c-0.1-0.1,0.2-0.3,0.6-0.4C33,5.3,40.9,4.1,43.3,7.5c1,1.5,1.1,3.9-0.3,7.1L40.2,14.7"/>
			</defs>
			<clipPath id="SVGID_22_">
				<use xlink:href="#SVGID_21_"  style="overflow:visible;"/>
			</clipPath>
			<polyline class="st40" points="24.9,13.2 24.8,12.9 42.1,4.8 42.2,5.1 24.9,13.2 			"/>
		</g>
		<g>
			<defs>
				<path id="SVGID_23_" d="M40.2,14.7c2-2.8,2.7-5.1,1.8-6.5c-2.3-3.3-9.2-2-17.4,2.1c-0.4,0.2-0.8,0.3-0.9,0.2
					c-0.1-0.1,0.2-0.3,0.6-0.4C33,5.3,40.9,4.1,43.3,7.5c1,1.5,1.1,3.9-0.3,7.1L40.2,14.7"/>
			</defs>
			<clipPath id="SVGID_24_">
				<use xlink:href="#SVGID_23_"  style="overflow:visible;"/>
			</clipPath>
			<polyline class="st41" points="25.1,13.4 24.9,13.2 42.2,5.1 42.3,5.4 25.1,13.4 			"/>
		</g>
		<g>
			<defs>
				<path id="SVGID_25_" d="M40.2,14.7c2-2.8,2.7-5.1,1.8-6.5c-2.3-3.3-9.2-2-17.4,2.1c-0.4,0.2-0.8,0.3-0.9,0.2
					c-0.1-0.1,0.2-0.3,0.6-0.4C33,5.3,40.9,4.1,43.3,7.5c1,1.5,1.1,3.9-0.3,7.1L40.2,14.7"/>
			</defs>
			<clipPath id="SVGID_26_">
				<use xlink:href="#SVGID_25_"  style="overflow:visible;"/>
			</clipPath>
			<polyline class="st42" points="25.2,13.7 25.1,13.4 42.3,5.4 42.5,5.7 25.2,13.7 			"/>
		</g>
		<g>
			<defs>
				<path id="SVGID_27_" d="M40.2,14.7c2-2.8,2.7-5.1,1.8-6.5c-2.3-3.3-9.2-2-17.4,2.1c-0.4,0.2-0.8,0.3-0.9,0.2
					c-0.1-0.1,0.2-0.3,0.6-0.4C33,5.3,40.9,4.1,43.3,7.5c1,1.5,1.1,3.9-0.3,7.1L40.2,14.7"/>
			</defs>
			<clipPath id="SVGID_28_">
				<use xlink:href="#SVGID_27_"  style="overflow:visible;"/>
			</clipPath>
			<polyline class="st43" points="25.3,14 25.2,13.7 42.5,5.7 42.6,6 25.3,14 			"/>
		</g>
		<g>
			<defs>
				<path id="SVGID_29_" d="M40.2,14.7c2-2.8,2.7-5.1,1.8-6.5c-2.3-3.3-9.2-2-17.4,2.1c-0.4,0.2-0.8,0.3-0.9,0.2
					c-0.1-0.1,0.2-0.3,0.6-0.4C33,5.3,40.9,4.1,43.3,7.5c1,1.5,1.1,3.9-0.3,7.1L40.2,14.7"/>
			</defs>
			<clipPath id="SVGID_30_">
				<use xlink:href="#SVGID_29_"  style="overflow:visible;"/>
			</clipPath>
			<polyline class="st44" points="25.5,14.3 25.3,14 42.6,6 42.8,6.3 25.5,14.3 			"/>
		</g>
		<g>
			<defs>
				<path id="SVGID_31_" d="M40.2,14.7c2-2.8,2.7-5.1,1.8-6.5c-2.3-3.3-9.2-2-17.4,2.1c-0.4,0.2-0.8,0.3-0.9,0.2
					c-0.1-0.1,0.2-0.3,0.6-0.4C33,5.3,40.9,4.1,43.3,7.5c1,1.5,1.1,3.9-0.3,7.1L40.2,14.7"/>
			</defs>
			<clipPath id="SVGID_32_">
				<use xlink:href="#SVGID_31_"  style="overflow:visible;"/>
			</clipPath>
			<polyline class="st45" points="25.6,14.6 25.5,14.3 42.8,6.3 42.9,6.6 25.6,14.6 			"/>
		</g>
		<g>
			<defs>
				<path id="SVGID_33_" d="M40.2,14.7c2-2.8,2.7-5.1,1.8-6.5c-2.3-3.3-9.2-2-17.4,2.1c-0.4,0.2-0.8,0.3-0.9,0.2
					c-0.1-0.1,0.2-0.3,0.6-0.4C33,5.3,40.9,4.1,43.3,7.5c1,1.5,1.1,3.9-0.3,7.1L40.2,14.7"/>
			</defs>
			<clipPath id="SVGID_34_">
				<use xlink:href="#SVGID_33_"  style="overflow:visible;"/>
			</clipPath>
			<polyline class="st46" points="25.7,14.9 25.6,14.6 42.9,6.6 43,6.8 25.7,14.9 			"/>
		</g>
		<g>
			<defs>
				<path id="SVGID_35_" d="M40.2,14.7c2-2.8,2.7-5.1,1.8-6.5c-2.3-3.3-9.2-2-17.4,2.1c-0.4,0.2-0.8,0.3-0.9,0.2
					c-0.1-0.1,0.2-0.3,0.6-0.4C33,5.3,40.9,4.1,43.3,7.5c1,1.5,1.1,3.9-0.3,7.1L40.2,14.7"/>
			</defs>
			<clipPath id="SVGID_36_">
				<use xlink:href="#SVGID_35_"  style="overflow:visible;"/>
			</clipPath>
			<polyline class="st47" points="25.9,15.2 25.7,14.9 43,6.8 43.2,7.1 25.9,15.2 			"/>
		</g>
		<g>
			<defs>
				<path id="SVGID_37_" d="M40.2,14.7c2-2.8,2.7-5.1,1.8-6.5c-2.3-3.3-9.2-2-17.4,2.1c-0.4,0.2-0.8,0.3-0.9,0.2
					c-0.1-0.1,0.2-0.3,0.6-0.4C33,5.3,40.9,4.1,43.3,7.5c1,1.5,1.1,3.9-0.3,7.1L40.2,14.7"/>
			</defs>
			<clipPath id="SVGID_38_">
				<use xlink:href="#SVGID_37_"  style="overflow:visible;"/>
			</clipPath>
			<polyline class="st48" points="26,15.5 25.9,15.2 43.2,7.1 43.3,7.4 26,15.5 			"/>
		</g>
		<g>
			<defs>
				<path id="SVGID_39_" d="M40.2,14.7c2-2.8,2.7-5.1,1.8-6.5c-2.3-3.3-9.2-2-17.4,2.1c-0.4,0.2-0.8,0.3-0.9,0.2
					c-0.1-0.1,0.2-0.3,0.6-0.4C33,5.3,40.9,4.1,43.3,7.5c1,1.5,1.1,3.9-0.3,7.1L40.2,14.7"/>
			</defs>
			<clipPath id="SVGID_40_">
				<use xlink:href="#SVGID_39_"  style="overflow:visible;"/>
			</clipPath>
			<polyline class="st49" points="26.1,15.8 26,15.5 43.3,7.4 43.4,7.7 26.1,15.8 			"/>
		</g>
		<g>
			<defs>
				<path id="SVGID_41_" d="M40.2,14.7c2-2.8,2.7-5.1,1.8-6.5c-2.3-3.3-9.2-2-17.4,2.1c-0.4,0.2-0.8,0.3-0.9,0.2
					c-0.1-0.1,0.2-0.3,0.6-0.4C33,5.3,40.9,4.1,43.3,7.5c1,1.5,1.1,3.9-0.3,7.1L40.2,14.7"/>
			</defs>
			<clipPath id="SVGID_42_">
				<use xlink:href="#SVGID_41_"  style="overflow:visible;"/>
			</clipPath>
			<polyline class="st50" points="26.3,16.1 26.1,15.8 43.4,7.7 43.6,8 26.3,16.1 			"/>
		</g>
		<g>
			<defs>
				<path id="SVGID_43_" d="M40.2,14.7c2-2.8,2.7-5.1,1.8-6.5c-2.3-3.3-9.2-2-17.4,2.1c-0.4,0.2-0.8,0.3-0.9,0.2
					c-0.1-0.1,0.2-0.3,0.6-0.4C33,5.3,40.9,4.1,43.3,7.5c1,1.5,1.1,3.9-0.3,7.1L40.2,14.7"/>
			</defs>
			<clipPath id="SVGID_44_">
				<use xlink:href="#SVGID_43_"  style="overflow:visible;"/>
			</clipPath>
			<polyline class="st51" points="26.4,16.4 26.3,16.1 43.6,8 43.7,8.3 26.4,16.4 			"/>
		</g>
		<g>
			<defs>
				<path id="SVGID_45_" d="M40.2,14.7c2-2.8,2.7-5.1,1.8-6.5c-2.3-3.3-9.2-2-17.4,2.1c-0.4,0.2-0.8,0.3-0.9,0.2
					c-0.1-0.1,0.2-0.3,0.6-0.4C33,5.3,40.9,4.1,43.3,7.5c1,1.5,1.1,3.9-0.3,7.1L40.2,14.7"/>
			</defs>
			<clipPath id="SVGID_46_">
				<use xlink:href="#SVGID_45_"  style="overflow:visible;"/>
			</clipPath>
			<polyline class="st52" points="26.6,16.7 26.4,16.4 43.7,8.3 43.8,8.6 26.6,16.7 			"/>
		</g>
		<g>
			<defs>
				<path id="SVGID_47_" d="M40.2,14.7c2-2.8,2.7-5.1,1.8-6.5c-2.3-3.3-9.2-2-17.4,2.1c-0.4,0.2-0.8,0.3-0.9,0.2
					c-0.1-0.1,0.2-0.3,0.6-0.4C33,5.3,40.9,4.1,43.3,7.5c1,1.5,1.1,3.9-0.3,7.1L40.2,14.7"/>
			</defs>
			<clipPath id="SVGID_48_">
				<use xlink:href="#SVGID_47_"  style="overflow:visible;"/>
			</clipPath>
			<polyline class="st53" points="26.7,16.9 26.6,16.7 43.8,8.6 44,8.9 26.7,16.9 			"/>
		</g>
		<g>
			<defs>
				<path id="SVGID_49_" d="M40.2,14.7c2-2.8,2.7-5.1,1.8-6.5c-2.3-3.3-9.2-2-17.4,2.1c-0.4,0.2-0.8,0.3-0.9,0.2
					c-0.1-0.1,0.2-0.3,0.6-0.4C33,5.3,40.9,4.1,43.3,7.5c1,1.5,1.1,3.9-0.3,7.1L40.2,14.7"/>
			</defs>
			<clipPath id="SVGID_50_">
				<use xlink:href="#SVGID_49_"  style="overflow:visible;"/>
			</clipPath>
			<polyline class="st54" points="26.8,17.2 26.7,16.9 44,8.9 44.1,9.2 26.8,17.2 			"/>
		</g>
		<g>
			<defs>
				<path id="SVGID_51_" d="M40.2,14.7c2-2.8,2.7-5.1,1.8-6.5c-2.3-3.3-9.2-2-17.4,2.1c-0.4,0.2-0.8,0.3-0.9,0.2
					c-0.1-0.1,0.2-0.3,0.6-0.4C33,5.3,40.9,4.1,43.3,7.5c1,1.5,1.1,3.9-0.3,7.1L40.2,14.7"/>
			</defs>
			<clipPath id="SVGID_52_">
				<use xlink:href="#SVGID_51_"  style="overflow:visible;"/>
			</clipPath>
			<polyline class="st55" points="27,17.5 26.8,17.2 44.1,9.2 44.2,9.5 27,17.5 			"/>
		</g>
		<g>
			<defs>
				<path id="SVGID_53_" d="M40.2,14.7c2-2.8,2.7-5.1,1.8-6.5c-2.3-3.3-9.2-2-17.4,2.1c-0.4,0.2-0.8,0.3-0.9,0.2
					c-0.1-0.1,0.2-0.3,0.6-0.4C33,5.3,40.9,4.1,43.3,7.5c1,1.5,1.1,3.9-0.3,7.1L40.2,14.7"/>
			</defs>
			<clipPath id="SVGID_54_">
				<use xlink:href="#SVGID_53_"  style="overflow:visible;"/>
			</clipPath>
			<polyline class="st56" points="27.1,17.8 27,17.5 44.2,9.5 44.4,9.8 27.1,17.8 			"/>
		</g>
		<g>
			<defs>
				<path id="SVGID_55_" d="M40.2,14.7c2-2.8,2.7-5.1,1.8-6.5c-2.3-3.3-9.2-2-17.4,2.1c-0.4,0.2-0.8,0.3-0.9,0.2
					c-0.1-0.1,0.2-0.3,0.6-0.4C33,5.3,40.9,4.1,43.3,7.5c1,1.5,1.1,3.9-0.3,7.1L40.2,14.7"/>
			</defs>
			<clipPath id="SVGID_56_">
				<use xlink:href="#SVGID_55_"  style="overflow:visible;"/>
			</clipPath>
			<polyline class="st57" points="27.2,18.1 27.1,17.8 44.4,9.8 44.5,10 27.2,18.1 			"/>
		</g>
		<g>
			<defs>
				<path id="SVGID_57_" d="M40.2,14.7c2-2.8,2.7-5.1,1.8-6.5c-2.3-3.3-9.2-2-17.4,2.1c-0.4,0.2-0.8,0.3-0.9,0.2
					c-0.1-0.1,0.2-0.3,0.6-0.4C33,5.3,40.9,4.1,43.3,7.5c1,1.5,1.1,3.9-0.3,7.1L40.2,14.7"/>
			</defs>
			<clipPath id="SVGID_58_">
				<use xlink:href="#SVGID_57_"  style="overflow:visible;"/>
			</clipPath>
			<polyline class="st58" points="27.4,18.4 27.2,18.1 44.5,10 44.7,10.3 27.4,18.4 			"/>
		</g>
		<g>
			<defs>
				<path id="SVGID_59_" d="M40.2,14.7c2-2.8,2.7-5.1,1.8-6.5c-2.3-3.3-9.2-2-17.4,2.1c-0.4,0.2-0.8,0.3-0.9,0.2
					c-0.1-0.1,0.2-0.3,0.6-0.4C33,5.3,40.9,4.1,43.3,7.5c1,1.5,1.1,3.9-0.3,7.1L40.2,14.7"/>
			</defs>
			<clipPath id="SVGID_60_">
				<use xlink:href="#SVGID_59_"  style="overflow:visible;"/>
			</clipPath>
			<polyline class="st59" points="27.5,18.7 27.4,18.4 44.7,10.3 44.8,10.6 27.5,18.7 			"/>
		</g>
		<g>
			<defs>
				<path id="SVGID_61_" d="M40.2,14.7c2-2.8,2.7-5.1,1.8-6.5c-2.3-3.3-9.2-2-17.4,2.1c-0.4,0.2-0.8,0.3-0.9,0.2
					c-0.1-0.1,0.2-0.3,0.6-0.4C33,5.3,40.9,4.1,43.3,7.5c1,1.5,1.1,3.9-0.3,7.1L40.2,14.7"/>
			</defs>
			<clipPath id="SVGID_62_">
				<use xlink:href="#SVGID_61_"  style="overflow:visible;"/>
			</clipPath>
			<polyline class="st60" points="27.6,19 27.5,18.7 44.8,10.6 44.9,10.9 27.6,19 			"/>
		</g>
		<g>
			<defs>
				<path id="SVGID_63_" d="M40.2,14.7c2-2.8,2.7-5.1,1.8-6.5c-2.3-3.3-9.2-2-17.4,2.1c-0.4,0.2-0.8,0.3-0.9,0.2
					c-0.1-0.1,0.2-0.3,0.6-0.4C33,5.3,40.9,4.1,43.3,7.5c1,1.5,1.1,3.9-0.3,7.1L40.2,14.7"/>
			</defs>
			<clipPath id="SVGID_64_">
				<use xlink:href="#SVGID_63_"  style="overflow:visible;"/>
			</clipPath>
			<polyline class="st61" points="27.8,19.3 27.6,19 44.9,10.9 45.1,11.2 27.8,19.3 			"/>
		</g>
		<g>
			<defs>
				<path id="SVGID_65_" d="M40.2,14.7c2-2.8,2.7-5.1,1.8-6.5c-2.3-3.3-9.2-2-17.4,2.1c-0.4,0.2-0.8,0.3-0.9,0.2
					c-0.1-0.1,0.2-0.3,0.6-0.4C33,5.3,40.9,4.1,43.3,7.5c1,1.5,1.1,3.9-0.3,7.1L40.2,14.7"/>
			</defs>
			<clipPath id="SVGID_66_">
				<use xlink:href="#SVGID_65_"  style="overflow:visible;"/>
			</clipPath>
			<polyline class="st62" points="27.9,19.6 27.8,19.3 45.1,11.2 45.2,11.5 27.9,19.6 			"/>
		</g>
		<g>
			<defs>
				<path id="SVGID_67_" d="M40.2,14.7c2-2.8,2.7-5.1,1.8-6.5c-2.3-3.3-9.2-2-17.4,2.1c-0.4,0.2-0.8,0.3-0.9,0.2
					c-0.1-0.1,0.2-0.3,0.6-0.4C33,5.3,40.9,4.1,43.3,7.5c1,1.5,1.1,3.9-0.3,7.1L40.2,14.7"/>
			</defs>
			<clipPath id="SVGID_68_">
				<use xlink:href="#SVGID_67_"  style="overflow:visible;"/>
			</clipPath>
			<polyline class="st63" points="28,19.9 27.9,19.6 45.2,11.5 45.3,11.8 28,19.9 			"/>
		</g>
		<g>
			<defs>
				<path id="SVGID_69_" d="M40.2,14.7c2-2.8,2.7-5.1,1.8-6.5c-2.3-3.3-9.2-2-17.4,2.1c-0.4,0.2-0.8,0.3-0.9,0.2
					c-0.1-0.1,0.2-0.3,0.6-0.4C33,5.3,40.9,4.1,43.3,7.5c1,1.5,1.1,3.9-0.3,7.1L40.2,14.7"/>
			</defs>
			<clipPath id="SVGID_70_">
				<use xlink:href="#SVGID_69_"  style="overflow:visible;"/>
			</clipPath>
			<polyline class="st64" points="28.2,20.2 28,19.9 45.3,11.8 45.5,12.1 28.2,20.2 			"/>
		</g>
		<g>
			<defs>
				<path id="SVGID_71_" d="M40.2,14.7c2-2.8,2.7-5.1,1.8-6.5c-2.3-3.3-9.2-2-17.4,2.1c-0.4,0.2-0.8,0.3-0.9,0.2
					c-0.1-0.1,0.2-0.3,0.6-0.4C33,5.3,40.9,4.1,43.3,7.5c1,1.5,1.1,3.9-0.3,7.1L40.2,14.7"/>
			</defs>
			<clipPath id="SVGID_72_">
				<use xlink:href="#SVGID_71_"  style="overflow:visible;"/>
			</clipPath>
			<polyline class="st65" points="28.3,20.4 28.2,20.2 45.5,12.1 45.6,12.4 28.3,20.4 			"/>
		</g>
		<g>
			<defs>
				<path id="SVGID_73_" d="M40.2,14.7c2-2.8,2.7-5.1,1.8-6.5c-2.3-3.3-9.2-2-17.4,2.1c-0.4,0.2-0.8,0.3-0.9,0.2
					c-0.1-0.1,0.2-0.3,0.6-0.4C33,5.3,40.9,4.1,43.3,7.5c1,1.5,1.1,3.9-0.3,7.1L40.2,14.7"/>
			</defs>
			<clipPath id="SVGID_74_">
				<use xlink:href="#SVGID_73_"  style="overflow:visible;"/>
			</clipPath>
			<polyline class="st66" points="28.5,20.7 28.3,20.4 45.6,12.4 45.7,12.7 28.5,20.7 			"/>
		</g>
		<g>
			<defs>
				<path id="SVGID_75_" d="M40.2,14.7c2-2.8,2.7-5.1,1.8-6.5c-2.3-3.3-9.2-2-17.4,2.1c-0.4,0.2-0.8,0.3-0.9,0.2
					c-0.1-0.1,0.2-0.3,0.6-0.4C33,5.3,40.9,4.1,43.3,7.5c1,1.5,1.1,3.9-0.3,7.1L40.2,14.7"/>
			</defs>
			<clipPath id="SVGID_76_">
				<use xlink:href="#SVGID_75_"  style="overflow:visible;"/>
			</clipPath>
			<polyline class="st67" points="28.6,21 28.5,20.7 45.7,12.7 45.9,13 28.6,21 			"/>
		</g>
		<g>
			<defs>
				<path id="SVGID_77_" d="M40.2,14.7c2-2.8,2.7-5.1,1.8-6.5c-2.3-3.3-9.2-2-17.4,2.1c-0.4,0.2-0.8,0.3-0.9,0.2
					c-0.1-0.1,0.2-0.3,0.6-0.4C33,5.3,40.9,4.1,43.3,7.5c1,1.5,1.1,3.9-0.3,7.1L40.2,14.7"/>
			</defs>
			<clipPath id="SVGID_78_">
				<use xlink:href="#SVGID_77_"  style="overflow:visible;"/>
			</clipPath>
			<polyline class="st68" points="28.7,21.3 28.6,21 45.9,13 46,13.3 28.7,21.3 			"/>
		</g>
	</g>
	<g>
		<polyline class="st69" points="31.6,36 30.6,39 27.6,39 30,40.9 29.1,43.8 31.6,42 34,43.8 33.1,40.9 35.6,39 32.5,39 31.6,36 		
			"/>
	</g>
	<rect x="9.3" y="5.5" class="st1" width="3.7" height="6.9"/>
	<polyline class="st1" points="13.9,12.6 13.9,2.7 17.5,2.7 17.5,16.3 13.9,12.6 	"/>
	<rect x="18.4" y="0" class="st1" width="3.7" height="17.3"/>
	<polyline class="st69" points="4.7,21.7 12.3,21.7 12.3,16.4 8.4,12.4 4.7,16.4 4.7,21.7 	"/>
	<polyline class="st69" points="27.1,22.3 23,17.3 23,17.3 25.4,14.6 26.7,16.1 26.7,14.6 28,14.6 28,17.7 29.5,19.5 29.5,23.8 
		27.1,23.8 27.1,22.3 	"/>
	<polyline class="st69" points="14.6,17.3 14.6,20.8 13,22.7 13,28.6 22.1,28.6 22.1,22.7 17.5,17.3 16.1,19 16.1,17.3 14.6,17.3 	
		"/>
	<polyline class="st69" points="26.9,28 28,31.7 31.7,31.7 28.7,34 29.9,37.7 26.9,35.4 24,37.7 25.1,34 22.1,31.7 25.8,31.7 
		26.9,28 	"/>
	<polyline class="st69" points="31.7,22.7 30.8,25.6 27.7,25.6 30.2,27.5 29.2,30.4 31.7,28.6 34.1,30.4 33.2,27.5 35.7,25.6 
		32.6,25.6 31.7,22.7 	"/>
	<line class="st70" x1="48.6" y1="36.1" x2="116" y2="36.1"/>
	<path class="st1" d="M76.9,43.2C76.8,43.2,76.8,43.2,76.9,43.2l0-0.3l-0.3,0l0,0.4H76.9z"/>
	<path class="st1" d="M60.1,43.7v-0.5h-0.8v0.5H60.1z M60.1,43.2v-0.3h-0.8v0.3H60.1z"/>
	<path class="st1" d="M54.4,43.7v-0.5h-0.8v0.5H54.4z M54.4,43.2v-0.3h-0.8v0.3H54.4z"/>
	<path class="st1" d="M112.5,43.2c0,0,0.1,0.1,0.1,0.1c0.3,0.4,0.8,0.5,1.4,0.5c0.6,0,1-0.1,1.4-0.6l-0.5,0
		c-0.2,0.2-0.5,0.3-0.8,0.3c-0.3,0-0.6-0.1-0.8-0.3L112.5,43.2 M115.1,42.2c0,0.3,0,0.6-0.2,0.8c0,0.1-0.1,0.1-0.1,0.1l0.5,0
		c0,0,0,0,0,0c0.2-0.3,0.2-0.6,0.3-0.9L115.1,42.2z M112.3,42.2c0,0.3,0.1,0.7,0.3,1l0.7,0c-0.1-0.1-0.1-0.2-0.2-0.3
		c-0.1-0.2-0.1-0.4-0.1-0.6L112.3,42.2z M115.1,41.2v0.6c0,0.1,0,0.2,0,0.3h0.5c0-0.2,0-0.3,0-0.5v-0.4L115.1,41.2 M112.2,41.2v0.6
		c0,0.1,0,0.2,0,0.3l0.6,0c0-0.2,0-0.3,0-0.5v-0.5L112.2,41.2L112.2,41.2z M115.6,41.2v-0.6h-0.5v0.6H115.6z M112.9,41.2v-0.6h-0.6
		v0.6H112.9z M115.1,39.7l0,0.3v0.7h0.5v-0.7l0-0.3H115.1 M112.2,39.7l0,0.3v0.7h0.6v-0.7l0-0.3H112.2z M115.6,39.7l0-0.3l0.3,0
		l0-0.3h-1.2l0,0.3l0.3,0l0,0.3H115.6 M112.9,39.7l0-0.3l0.3,0l0-0.3h-1.3l0,0.3l0.3,0l0,0.3H112.9z"/>
	<path class="st1" d="M110.4,43.2l0.1,0.2l-0.3,0l0,0.3h1.3l0-0.3l-0.2,0l-0.1-0.2H110.4z M107.3,43.2l-0.1,0.2l-0.2,0l0,0.3h1
		l0-0.3l-0.3,0l0.1-0.2H107.3z M107.7,42.2l-0.2,0.5l-0.2,0.5h0.4l0.3-0.9h2l0.4,0.9h0.7l-0.2-0.3l-0.2-0.6H107.7z M108.1,41.2
		l-0.4,1h3l-0.4-1h-0.7l0.3,0.7h-1.7l0.3-0.7H108.1L108.1,41.2z M109.4,40.6l0.2,0.6h0.7l-0.3-0.6H109.4z M108.4,40.6l-0.2,0.6h0.4
		l0.2-0.6H108.4z M108.7,39.7l-0.4,1h0.4l0.3-0.8l0.3,0.8h0.7l-0.4-1H108.7z M109.7,39.7l-0.3-0.7H109l-0.3,0.7H109.7z"/>
	<path class="st1" d="M103.9,43.2l0,0.2l-0.3,0l0,0.3h3.1l0-0.5h-0.3l0,0.1l-0.6,0h-1.1l0-0.2L103.9,43.2L103.9,43.2z M106.7,43.2
		l0-0.3l-0.3,0l0,0.2L106.7,43.2 M104,42.2v0.5l0,0.4h0.7l0-0.4v-0.5H104z M104,41.2v1h0.6v-0.8h0.8l0.8,0l0-0.2H104z M104,40.6v0.6
		h2.3l0-0.2h-1.7v-0.5L104,40.6L104,40.6z M106.2,39.7L106.2,39.7l0.3,0l0,0H106.2L106.2,39.7z M103.9,39.7l0,0.3v0.7h0.6v-1H103.9
		L103.9,39.7z M104.6,39.7v-0.4h0.9l0.7,0l0,0.3h0.3l0-0.7h-3l0,0.3l0.3,0l0,0.3L104.6,39.7L104.6,39.7z"/>
	<path class="st1" d="M101.7,43.2l0.3,0.5h0.9l0-0.3l-0.3,0l-0.1-0.2L101.7,43.2L101.7,43.2z M99.5,43.2l0,0.2l-0.3,0l0,0.3h1.2
		l0-0.3l-0.2,0v-0.2H99.5z M101.1,42.2l0.6,1h0.8l-0.3-0.4l-0.4-0.6L101.1,42.2L101.1,42.2z M99.6,42.2v0.5l0,0.4h0.7v-1L99.6,42.2
		L99.6,42.2z M99.6,41.2v1h0.6v-0.6h0.6l0.4,0.6h0.7l-0.5-0.7c0.2-0.1,0.3-0.1,0.4-0.2l-0.9,0c-0.2,0.1-0.4,0.1-0.6,0.1h-0.1v-0.1
		H99.6z M101.6,40.6c-0.1,0.2-0.1,0.3-0.3,0.5c-0.1,0.1-0.2,0.1-0.4,0.2l0.9,0c0.2-0.2,0.4-0.4,0.5-0.6L101.6,40.6z M100.2,41.2
		v-0.6h-0.6v0.6H100.2z M101.6,39.7c0.1,0.1,0.1,0.3,0.1,0.5c0,0.1,0,0.3-0.1,0.4l0.6,0c0-0.1,0.1-0.3,0.1-0.5c0-0.2,0-0.3-0.1-0.5
		L101.6,39.7z M99.5,39.7l0,0.3v0.7h0.6v-1H99.5L99.5,39.7z M100.2,39.7v-0.3c0.2,0,0.4-0.1,0.6-0.1c0.4,0,0.7,0.1,0.8,0.4l0.7,0
		c-0.1-0.2-0.2-0.3-0.4-0.4c-0.3-0.2-0.6-0.2-1-0.2h-1.7l0,0.3l0.3,0l0,0.3L100.2,39.7L100.2,39.7z"/>
	<path class="st1" d="M95,43.2c0,0,0,0.1,0.1,0.1c0.3,0.4,0.8,0.5,1.4,0.5c0.6,0,1-0.1,1.4-0.6l-0.5,0c-0.2,0.2-0.5,0.3-0.8,0.3
		c-0.3,0-0.6-0.1-0.8-0.3L95,43.2z M97.6,42.2c0,0.3,0,0.6-0.2,0.8c0,0.1-0.1,0.1-0.1,0.1l0.5,0c0,0,0,0,0,0
		c0.2-0.3,0.2-0.6,0.3-0.9L97.6,42.2z M94.8,42.2c0,0.3,0.1,0.7,0.3,1l0.7,0c-0.1-0.1-0.1-0.2-0.2-0.3c-0.1-0.2-0.1-0.4-0.1-0.6
		L94.8,42.2z M97.6,41.2v0.6c0,0.1,0,0.2,0,0.3h0.5c0-0.2,0-0.3,0-0.5v-0.4L97.6,41.2L97.6,41.2z M94.8,41.2v0.6c0,0.1,0,0.2,0,0.3
		l0.6,0c0-0.2,0-0.3,0-0.5v-0.5L94.8,41.2L94.8,41.2z M98.1,41.2v-0.6h-0.5v0.6H98.1z M95.4,41.2v-0.6h-0.6v0.6H95.4z M97.6,39.7
		l0,0.3v0.7h0.5v-0.7l0-0.3H97.6z M94.7,39.7l0,0.3v0.7h0.6v-0.7l0-0.3H94.7z M98.1,39.7l0-0.3l0.3,0l0-0.3h-1.2l0,0.3l0.3,0l0,0.3
		H98.1z M95.4,39.7l0-0.3l0.3,0l0-0.3h-1.3l0,0.3l0.3,0l0,0.3H95.4z"/>
	<path class="st1" d="M90.8,43.2l0,0.2l-0.3,0l0,0.3h1.5c0.4,0,0.8,0,1.2-0.2c0.1-0.1,0.2-0.2,0.3-0.3l-0.8,0
		c-0.2,0.2-0.5,0.2-0.7,0.2l-0.4,0l0-0.2H90.8z M92.9,42.2c0,0.1,0,0.2,0,0.2c0,0.2-0.1,0.5-0.3,0.7c0,0,0,0-0.1,0l0.8,0
		c0.1-0.2,0.2-0.4,0.2-0.7c0-0.1,0-0.2,0-0.3L92.9,42.2z M90.8,42.2v0.5l0,0.4h0.7l0-0.4v-0.5H90.8z M90.8,41.2v1h0.6v-0.8h0.2
		c0.5,0,1.1,0.3,1.3,0.8h0.7c-0.1-0.5-0.7-0.9-1.2-0.9v0c0,0,0,0,0,0L90.8,41.2z M90.8,40.6v0.6h1.6c0.4-0.1,0.7-0.3,0.9-0.6l-0.6,0
		c-0.1,0.1-0.2,0.2-0.3,0.3c-0.3,0.2-0.6,0.2-0.9,0.2h-0.1v-0.5H90.8z M92.7,39.7c0.1,0.1,0.1,0.3,0.1,0.5c0,0.2,0,0.3-0.1,0.5
		l0.6,0c0.1-0.2,0.2-0.4,0.2-0.6c0-0.1,0-0.3-0.1-0.4L92.7,39.7z M90.8,39.7l0,0.3v0.7h0.6v-1H90.8L90.8,39.7z M91.4,39.7v-0.4h0.1
		c0.5,0,0.9,0,1.2,0.4l0.7,0c-0.1-0.2-0.2-0.4-0.4-0.5C92.7,39,92.4,39,92,39h-1.6l0,0.3l0.3,0l0,0.3H91.4z"/>
	<path class="st1" d="M84.8,43.2l0,0.4c0.4,0.1,0.9,0.2,1.3,0.2c0.5,0,1-0.2,1.3-0.6l-0.6,0c-0.2,0.2-0.5,0.3-0.8,0.3
		c-0.3,0-0.6-0.2-0.9-0.3L84.8,43.2z M85.2,43.2C85.2,43.2,85.2,43.2,85.2,43.2l0-0.3l-0.3,0l0,0.4H85.2z M86.9,42.2
		c0.1,0.1,0.1,0.2,0.1,0.4c0,0.2-0.1,0.4-0.2,0.6l0.6,0c0.1-0.2,0.2-0.4,0.2-0.7c0-0.1,0-0.2,0-0.2L86.9,42.2z M85.6,41.2
		c0.2,0.1,0.3,0.2,0.5,0.3c0.3,0.2,0.7,0.4,0.8,0.7l0.7,0c-0.1-0.3-0.2-0.5-0.5-0.7c-0.1-0.1-0.2-0.2-0.3-0.2H85.6z M85,40.6
		c0.1,0.3,0.4,0.5,0.6,0.6h1.2c-0.2-0.1-0.4-0.2-0.5-0.3c-0.2-0.1-0.3-0.2-0.5-0.3L85,40.6z M87.1,39.7l0,0.1l0.3,0l0-0.1H87.1
		L87.1,39.7z M85,39.7c-0.1,0.1-0.1,0.3-0.1,0.5c0,0.2,0,0.4,0.1,0.5l0.8,0c-0.2-0.2-0.3-0.4-0.3-0.6c0-0.1,0-0.2,0.1-0.3L85,39.7z
		 M85.5,39.7c0.1-0.3,0.4-0.5,0.7-0.5c0.3,0,0.6,0.1,0.8,0.3l0,0.2h0.3l0-0.6c-0.4-0.1-0.8-0.2-1.2-0.2c-0.4,0-0.7,0.1-1,0.4
		c-0.1,0.1-0.2,0.3-0.3,0.4L85.5,39.7L85.5,39.7z"/>
	<path class="st1" d="M80.6,43.2c0,0,0.1,0.1,0.1,0.1c0.3,0.4,0.8,0.5,1.4,0.5c0.6,0,1-0.1,1.4-0.6l-0.5,0c-0.2,0.2-0.5,0.3-0.8,0.3
		c-0.3,0-0.6-0.1-0.8-0.3L80.6,43.2z M83.2,42.2c0,0.3,0,0.6-0.2,0.8c0,0.1-0.1,0.1-0.1,0.1l0.5,0c0,0,0,0,0,0
		c0.2-0.3,0.2-0.6,0.3-0.9L83.2,42.2z M80.4,42.2c0,0.3,0.1,0.7,0.3,1l0.7,0c-0.1-0.1-0.1-0.2-0.2-0.3C81,42.7,81,42.4,81,42.2
		L80.4,42.2z M83.2,41.2v0.6c0,0.1,0,0.2,0,0.3h0.5c0-0.2,0-0.3,0-0.5v-0.4L83.2,41.2L83.2,41.2z M80.3,41.2v0.6c0,0.1,0,0.2,0,0.3
		l0.6,0c0-0.2,0-0.3,0-0.5v-0.5L80.3,41.2L80.3,41.2z M83.7,41.2v-0.6h-0.5v0.6H83.7z M81,41.2v-0.6h-0.6v0.6H81z M83.2,39.7l0,0.3
		v0.7h0.5v-0.7l0-0.3H83.2z M80.3,39.7l0,0.3v0.7H81v-0.7l0-0.3H80.3z M83.7,39.7l0-0.3l0.3,0l0-0.3h-1.2l0,0.3l0.3,0l0,0.3H83.7z
		 M81,39.7l0-0.3l0.3,0l0-0.3H80l0,0.3l0.3,0l0,0.3H81z"/>
	<path class="st1" d="M76.5,43.2l0,0.4c0.4,0.1,0.9,0.2,1.3,0.2c0.5,0,1-0.2,1.3-0.6l-0.6,0c-0.2,0.2-0.5,0.3-0.8,0.3
		c-0.3,0-0.6-0.2-0.9-0.3L76.5,43.2z M78.6,42.2c0.1,0.1,0.1,0.2,0.1,0.4c0,0.2-0.1,0.4-0.2,0.6l0.6,0c0.1-0.2,0.2-0.4,0.2-0.7
		c0-0.1,0-0.2,0-0.2L78.6,42.2z M77.3,41.2c0.2,0.1,0.3,0.2,0.5,0.3c0.3,0.2,0.7,0.4,0.8,0.7l0.7,0c-0.1-0.3-0.2-0.5-0.5-0.7
		c-0.1-0.1-0.2-0.2-0.3-0.2H77.3z M76.6,40.6c0.1,0.3,0.4,0.5,0.6,0.6h1.2c-0.2-0.1-0.4-0.2-0.5-0.3c-0.2-0.1-0.3-0.2-0.5-0.3
		L76.6,40.6z M78.7,39.7l0,0.1l0.3,0l0-0.1H78.7L78.7,39.7z M76.6,39.7c-0.1,0.1-0.1,0.3-0.1,0.5c0,0.2,0,0.4,0.1,0.5l0.8,0
		c-0.2-0.2-0.3-0.4-0.3-0.6c0-0.1,0-0.2,0.1-0.3L76.6,39.7z M77.2,39.7c0.1-0.3,0.4-0.5,0.7-0.5c0.3,0,0.6,0.1,0.8,0.3l0,0.2H79
		l0-0.6c-0.4-0.1-0.8-0.2-1.2-0.2c-0.4,0-0.7,0.1-1,0.4c-0.1,0.1-0.2,0.3-0.3,0.4L77.2,39.7L77.2,39.7z"/>
	<path class="st1" d="M74.4,43.2l0.4,0.6h0.5v-0.6H74.4z M71.8,43.2l0,0.2l-0.3,0l0,0.3h1.1l0-0.3l-0.3,0l0-0.2H71.8z M73.7,42.2
		l0.6,1h0.9v-1h-0.4v0.6l-0.4-0.6H73.7z M71.9,42.2v0.5l0,0.4h0.5l0-0.4v-0.5H71.9z M75.3,42.2v-1h-0.4v1H75.3z M73.1,41.2l0.6,1
		h0.7l-0.6-1H73.1z M72.3,42.2v-1h-0.4v1H72.3z M75.3,41.2v-0.6h-0.4v0.6H75.3z M72.7,40.6l0.4,0.6h0.7l-0.4-0.6H72.7z M72.3,41.2
		v-0.6h-0.4v0.6H72.3z M74.8,39.7l0,0.3v0.7h0.4v-0.7l0-0.3H74.8z M71.8,39.7l0,0.3v0.7h0.4V40l0.4,0.6h0.7l-0.6-1H71.8L71.8,39.7z
		 M75.3,39.7l0-0.3l0.3,0l0-0.3h-1.1l0,0.3l0.3,0l0,0.3H75.3z M72.8,39.7L72.4,39h-0.8l0,0.3l0.3,0l0,0.3H72.8L72.8,39.7z"/>
	<path class="st1" d="M68.1,43.2l0,0.2l-0.3,0l0,0.3h3.1l0-0.5h-0.3l0,0.1l-0.6,0h-1.1l0-0.2L68.1,43.2L68.1,43.2z M70.9,43.2l0-0.3
		l-0.3,0l0,0.2L70.9,43.2L70.9,43.2z M68.1,42.2v0.5l0,0.4h0.7l0-0.4v-0.5H68.1z M68.1,41.2v1h0.6v-0.8h0.8l0.8,0l0-0.2H68.1z
		 M68.1,40.6v0.6h2.3l0-0.2h-1.7v-0.5L68.1,40.6L68.1,40.6z M70.4,39.7L70.4,39.7l0.3,0l0,0H70.4L70.4,39.7z M68.1,39.7l0,0.3v0.7
		h0.6v-1H68.1L68.1,39.7z M68.8,39.7v-0.4h0.9l0.7,0l0,0.3h0.3l0-0.7h-3l0,0.3l0.3,0l0,0.3L68.8,39.7L68.8,39.7z"/>
	<path class="st1" d="M63.8,43.2c0.4,0.5,1,0.6,1.7,0.6c0.5,0,1-0.1,1.5-0.4v-0.3h-0.2c-0.3,0.2-0.8,0.3-1.2,0.3
		c-0.4,0-0.7-0.1-1-0.3L63.8,43.2z M66.9,43.2v-0.1c-0.1,0-0.1,0.1-0.2,0.1L66.9,43.2z M63.3,42.2c0.1,0.3,0.2,0.6,0.5,0.9
		c0,0,0,0,0.1,0.1l0.8,0c-0.3-0.2-0.5-0.6-0.7-1L63.3,42.2z M63.1,41.2C63.1,41.3,63.1,41.3,63.1,41.2c0,0.4,0,0.7,0.1,1h0.7
		c-0.1-0.3-0.1-0.5-0.1-0.8c0,0,0-0.1,0-0.1L63.1,41.2L63.1,41.2z M63.2,40.6c0,0.2-0.1,0.4-0.1,0.6l0.7,0c0-0.2,0-0.4,0.1-0.6
		L63.2,40.6z M66.5,39.7l0,0.2l0.3,0l0-0.2L66.5,39.7L66.5,39.7z M63.6,39.7c-0.2,0.3-0.3,0.6-0.4,1l0.7,0c0.1-0.3,0.2-0.5,0.3-0.7
		c0.1-0.1,0.1-0.2,0.2-0.2L63.6,39.7z M64.4,39.7c0.3-0.3,0.7-0.5,1.1-0.5c0.4,0,0.7,0.1,1,0.3l0,0.2h0.3l0-0.6l-0.1,0
		c-0.5-0.1-0.9-0.2-1.4-0.2c-0.7,0-1.3,0.2-1.7,0.7c0,0-0.1,0.1-0.1,0.1L64.4,39.7z"/>
	<path class="st1" d="M55.5,43.2l0,0.4c0.4,0.1,0.9,0.2,1.3,0.2c0.5,0,1-0.2,1.3-0.6l-0.6,0c-0.2,0.2-0.5,0.3-0.8,0.3
		c-0.3,0-0.6-0.2-0.9-0.3L55.5,43.2z M55.8,43.2C55.8,43.2,55.8,43.2,55.8,43.2l0-0.3l-0.3,0l0,0.4H55.8z M57.6,42.2
		c0.1,0.1,0.1,0.2,0.1,0.4c0,0.2-0.1,0.4-0.2,0.6l0.6,0c0.1-0.2,0.2-0.4,0.2-0.7c0-0.1,0-0.2,0-0.2L57.6,42.2z M56.3,41.2
		c0.2,0.1,0.3,0.2,0.5,0.3c0.3,0.2,0.7,0.4,0.8,0.7l0.7,0c-0.1-0.3-0.2-0.5-0.5-0.7c-0.1-0.1-0.2-0.2-0.3-0.2H56.3z M55.6,40.6
		c0.1,0.3,0.4,0.5,0.6,0.6h1.2c-0.2-0.1-0.4-0.2-0.5-0.3c-0.2-0.1-0.3-0.2-0.5-0.3L55.6,40.6z M57.7,39.7l0,0.1l0.3,0l0-0.1H57.7
		L57.7,39.7z M55.6,39.7c-0.1,0.1-0.1,0.3-0.1,0.5c0,0.2,0,0.4,0.1,0.5l0.8,0c-0.2-0.2-0.3-0.4-0.3-0.6c0-0.1,0-0.2,0.1-0.3
		L55.6,39.7z M56.2,39.7c0.1-0.3,0.4-0.5,0.7-0.5c0.3,0,0.6,0.1,0.8,0.3l0,0.2H58l0-0.6c-0.4-0.1-0.8-0.2-1.2-0.2
		c-0.4,0-0.7,0.1-1,0.4c-0.1,0.1-0.2,0.3-0.3,0.4L56.2,39.7L56.2,39.7z"/>
	<path class="st1" d="M49.2,43.2c0,0,0,0.1,0.1,0.1c0.3,0.4,0.8,0.5,1.4,0.5c0.6,0,1-0.1,1.4-0.6l-0.5,0c-0.2,0.2-0.5,0.3-0.8,0.3
		c-0.3,0-0.6-0.1-0.8-0.3L49.2,43.2z M51.8,42.2c0,0.3,0,0.6-0.2,0.8c0,0.1-0.1,0.1-0.1,0.1l0.5,0c0,0,0,0,0,0
		c0.2-0.3,0.2-0.6,0.3-0.9L51.8,42.2z M49,42.2c0,0.3,0.1,0.7,0.3,1l0.7,0c-0.1-0.1-0.1-0.2-0.2-0.3c-0.1-0.2-0.1-0.4-0.1-0.6
		L49,42.2z M51.8,41.2v0.6c0,0.1,0,0.2,0,0.3h0.5c0-0.2,0-0.3,0-0.5v-0.4L51.8,41.2L51.8,41.2z M48.9,41.2v0.6c0,0.1,0,0.2,0,0.3
		l0.6,0c0-0.2,0-0.3,0-0.5v-0.5L48.9,41.2L48.9,41.2z M52.3,41.2v-0.6h-0.5v0.6H52.3z M49.6,41.2v-0.6h-0.6v0.6H49.6z M51.8,39.7
		l0,0.3v0.7h0.5v-0.7l0-0.3H51.8z M48.9,39.7l0,0.3v0.7h0.6v-0.7l0-0.3H48.9z M52.3,39.7l0-0.3l0.3,0l0-0.3h-1.2l0,0.3l0.3,0l0,0.3
		H52.3z M49.6,39.7l0-0.3l0.3,0l0-0.3h-1.3l0,0.3l0.3,0l0,0.3H49.6z"/>
	<path class="st71" d="M84.6,30.8v0.7l-0.1,1l-0.5,0.1L84,33.2h2.3l-0.1-0.5l-0.5-0.1l-0.1-1v-0.7H84.6 M83.9,28.3l0.8,1.3v1.3h1.1
		v-1.3l0.8-1.3h-0.7l-0.3,0.5l-0.3-0.5H83.9 M86.5,28.3l0.9-1.5l0.8-1.1l0.3-0.1l0.1-0.5h-1.8l0.1,0.5l0.5,0.1l-1.6,2.6H86.5
		 M85.1,28.3l-1.6-2.6l0.5-0.1l0.1-0.5h-2.3l0.1,0.5l0.3,0.1l0.6,0.9l1,1.7H85.1z"/>
	<path class="st71" d="M76.8,30.8v0.7l-0.1,1l-0.5,0.1l-0.1,0.5h5.4l-0.1-1.4L81,31.9l-0.1,0.6l-1.1,0.1H78l-0.1-1v-0.7H76.8z
		 M76.8,28.3v2.6h1.1v-1.6h1.4l1.4,0.1l0.1-0.6h-2.9v-0.4H76.8z M77.9,28.3v-2.7h1.6l1.2,0.1l0.1,0.6l0.5,0.1l0.1-1.2h-5.2l0.1,0.5
		l0.5,0.1l0.1,1v1.6H77.9z"/>
	<path class="st71" d="M70.9,30.8l0.9,2.5h0.5l0.9-2.5h-0.7l-0.3,0.8l-0.3-0.8H70.9z M73.6,28.3l-0.9,2.6h0.7l0.9-2.6L73.6,28.3
		L73.6,28.3z M69.9,28.3l1,2.6h1.2l-1-2.6L69.9,28.3L69.9,28.3z M74.2,28.3l0.5-1.5l0.5-1.1l0.3-0.1l0.1-0.5h-1.7l0.1,0.5l0.5,0.1
		l-1,2.6H74.2z M71.1,28.3l-1-2.6l0.5-0.1l0.1-0.5h-2.2l0.1,0.5l0.3,0.1l0.4,0.9l0.7,1.7H71.1z"/>
	<path class="st71" d="M65.6,30.8l1.4,2.4h1.6l-0.1-0.5l-0.5-0.1l-0.7-0.9l-0.6-0.8L65.6,30.8L65.6,30.8z M62.7,30.8v0.7l-0.1,1
		l-0.5,0.1l-0.1,0.5h2.2l-0.1-0.5l-0.4-0.1v-1.7L62.7,30.8L62.7,30.8z M62.7,28.3v2.6h1.1v-1.2h1l0.7,1.2h1.3l-1-1.5
		c0.6-0.2,1.1-0.6,1.4-1.1l-1.1,0c-0.1,0.1-0.2,0.3-0.3,0.4C65.3,29,64.7,29,64,29h-0.2v-0.8H62.7z M63.8,28.3v-2.6
		c0.3-0.1,0.6-0.1,1-0.1c1,0,1.6,0.5,1.6,1.5c0,0.4-0.1,0.8-0.3,1.2l1.1,0c0.2-0.4,0.3-0.8,0.3-1.2c0-0.7-0.2-1.3-0.8-1.6
		c-0.5-0.3-1.1-0.4-1.7-0.4h-3l0.1,0.5l0.5,0.1l0.1,1v1.6L63.8,28.3L63.8,28.3z"/>
	<path class="st71" d="M54.9,30.8c0.1,0.6,0.2,1.2,0.6,1.6c0.6,0.7,1.5,0.9,2.3,0.9c1,0,1.8-0.2,2.4-1.1c0.3-0.5,0.4-0.9,0.4-1.4
		l-0.8,0c0,0.4-0.1,0.9-0.3,1.2c-0.3,0.5-1,0.8-1.6,0.8c-0.8,0-1.5-0.4-1.7-1.1c-0.1-0.2-0.1-0.6-0.2-0.9L54.9,30.8z M59.8,28.3V30
		c0,0.3,0,0.5,0,0.8l0.8,0c0-0.4,0-0.7,0-1.1v-1.4L59.8,28.3L59.8,28.3z M54.9,28.3V30c0,0.3,0,0.5,0,0.8l1.1,0c0-0.4,0-0.8,0-1.1
		v-1.5L54.9,28.3L54.9,28.3z M60.7,28.3v-1.6l0.1-1l0.5-0.1l0.1-0.5h-2.1l0.1,0.5l0.5,0.1l0.1,1v1.6H60.7z M56,28.3v-1.6l0.1-1
		l0.5-0.1l0.1-0.5h-2.3l0.1,0.5l0.5,0.1l0.1,1v1.6H56z"/>
	<path class="st71" d="M52.4,30.8c0,0.1,0.1,0.3,0.1,0.5c0,0.9-0.7,1.5-1.7,1.5c-0.6,0-1.1-0.3-1.5-0.6l-0.1-0.6l-0.5-0.1L48.6,33
		c0.7,0.2,1.5,0.4,2.3,0.4c1.4,0,2.6-0.9,2.6-2.3c0-0.1,0-0.1,0-0.2L52.4,30.8z M49.2,28.3c0.4,0.5,1.1,0.9,1.7,1.2
		c0.7,0.4,1.3,0.7,1.5,1.4l1.1,0c-0.1-0.6-0.3-1.1-0.8-1.5c-0.4-0.3-1-0.7-1.5-0.9c-0.1,0-0.1-0.1-0.2-0.1L49.2,28.3z M51,28.3
		c-0.6-0.3-1.2-0.7-1.2-1.5c0-0.7,0.5-1.4,1.3-1.4c0.5,0,1,0.2,1.4,0.4l0.1,0.6l0.5,0.1l0.1-1.3c-0.7-0.2-1.4-0.3-2.1-0.3
		c-0.6,0-1.2,0.2-1.7,0.6c-0.4,0.4-0.7,1-0.7,1.5c0,0.5,0.2,0.9,0.5,1.3L51,28.3z"/>
	<path class="st71" d="M111.5,23.2l0,0.2h2.3l0-0.2H111.5z M111.1,18.1l1,1.6v2l-0.1,1l-0.5,0.1l0,0.4h2.3l0-0.4l-0.5-0.1l-0.1-1v-2
		l1-1.6h-0.7l-0.5,0.9l-0.5-0.9L111.1,18.1 M114.1,18.1l0.7-1.1l0.8-1.1l0.3-0.1l0.1-0.5h-1.8l0.1,0.5l0.5,0.1l-1.4,2.3H114.1
		 M112.3,18.1l-1.3-2.3l0.5-0.1l0.1-0.5h-2.3l0.1,0.5l0.3,0.1l0.6,0.9l0.8,1.4H112.3z"/>
	<path class="st71" d="M104.4,23.2l0,0.2h2.3l0-0.2H104.4z M104.9,18.1v3.6l-0.1,1l-0.5,0.1l0,0.4h2.3l0-0.4l-0.5-0.1l-0.1-1v-3.6
		H104.9z M106,18.1v-2.3h1.4l0.9,0.1l0.1,0.6l0.5,0.1l0.1-1.3H102l0.1,1.3l0.5-0.1l0.1-0.6l0.9-0.1h1.4v2.3H106z"/>
	<path class="st71" d="M99.1,23.2l0,0.2h2.3l0-0.2H99.1z M99.6,18.1v3.6l-0.1,1l-0.5,0.1l0,0.4h2.3l0-0.4l-0.5-0.1l-0.1-1v-3.6H99.6
		z M100.7,18.1v-1.3l0.1-1l0.5-0.1l0.1-0.5H99l0.1,0.5l0.5,0.1l0.1,1v1.3H100.7z"/>
	<path class="st71" d="M96.3,23.2l0.2,0.3h0.9v-0.3H96.3z M90.9,23.2l0,0.2h2l0-0.2H90.9z M93,18.1l3.3,5.1h1.1v-5.1l-0.8,0v3.8
		l-2.4-3.8H93z M91.5,18.1v3.6l-0.1,1L91,22.8l0,0.4h1.9l0-0.4l-0.5-0.1l-0.1-1v-3.6H91.5z M97.4,18.1v-1.3l0.1-1l0.5-0.1l0.1-0.5
		h-2l0.1,0.5l0.5,0.1l0.1,1v1.3L97.4,18.1z M92.3,18.1v-1.2l0.7,1.2h1.2l-1.9-2.9h-1.5l0.1,0.5l0.5,0.1l0.1,1v1.3H92.3z"/>
	<path class="st71" d="M84.9,23.2c0.5,0.3,1.1,0.4,1.7,0.4c0.6,0,1.1-0.1,1.6-0.4L84.9,23.2z M83.7,18.1v2.1c0,0.8,0,1.8,0.6,2.4
		c0.2,0.2,0.4,0.4,0.7,0.6l3.3,0c0.3-0.2,0.6-0.4,0.8-0.8c0.5-0.8,0.5-1.6,0.5-2.5v-1.8h-0.8v2.1c0,0.6,0,1.5-0.3,2
		c-0.3,0.5-1,0.8-1.6,0.8c-0.8,0-1.5-0.4-1.7-1.1c-0.2-0.5-0.2-1.4-0.2-1.9v-1.9H83.7z M89.4,18.1v-1.3l0.1-1l0.5-0.1l0.1-0.5H88
		l0.1,0.5l0.5,0.1l0.1,1v1.3H89.4z M84.7,18.1v-1.3l0.1-1l0.5-0.1l0.1-0.5H83l0.1,0.5l0.5,0.1l0.1,1v1.3H84.7z"/>
	<path class="st71" d="M80,23.2l0,0.2h2.2l0-0.2H80z M73.9,23.2l0,0.2h2.1l0-0.2H73.9z M80.5,18.1l0,3.6l-0.1,1L80,22.8l0,0.4h2.2
		l0-0.4l-0.5-0.1l-0.1-1v-3.6H80.5z M75.8,18.1l1.8,4.7h0.5l1.8-4.7h-0.6l-1.2,3.1l-1.2-3.1C76.9,18.1,75.8,18.1,75.8,18.1z
		 M74.5,18.1v3.6l-0.1,1l-0.5,0.1l0,0.4h2l0-0.4l-0.5-0.1l-0.1-1v-3.6H74.5z M80,18.1l0.5-1.3l0,1.3h1v-1.3l0.1-1l0.5-0.1l0.1-0.5
		h-1.7l-1.1,2.9H80z M75.3,18.1v-1.3l0.5,1.3h1.1l-1.1-2.9h-1.9l0.1,0.5l0.5,0.1l0.1,1v1.3H75.3z"/>
	<path class="st71" d="M70.7,23.2l0,0.2h2.2l0-0.2H70.7z M64.6,23.2l0,0.2h2.1l0-0.2H64.6z M71.2,18.1l0,3.6l-0.1,1l-0.5,0.1l0,0.4
		h2.2l0-0.4l-0.5-0.1l-0.1-1v-3.6H71.2z M66.5,18.1l1.8,4.7h0.5l1.8-4.7h-0.6l-1.2,3.1l-1.2-3.1C67.6,18.1,66.5,18.1,66.5,18.1z
		 M65.2,18.1v3.6l-0.1,1l-0.5,0.1l0,0.4h2l0-0.4l-0.5-0.1l-0.1-1v-3.6H65.2z M70.7,18.1l0.5-1.3l0,1.3h1v-1.3l0.1-1l0.5-0.1l0.1-0.5
		h-1.7l-1.1,2.9H70.7z M66,18.1v-1.3l0.5,1.3h1.1l-1.1-2.9h-1.9l0.1,0.5l0.5,0.1l0.1,1v1.3H66z"/>
	<path class="st71" d="M58.2,23.2c0.5,0.2,1.1,0.4,1.7,0.4c0.6,0,1.2-0.1,1.7-0.4L58.2,23.2z M56.2,18.1c-0.1,0.4-0.1,0.8-0.1,1.2
		c0,1.1,0.2,2.2,0.9,3c0.3,0.4,0.7,0.7,1.1,0.9l3.4,0c0.4-0.2,0.8-0.5,1.2-0.9c0.7-0.8,0.9-1.9,0.9-3c0-0.4,0-0.8-0.1-1.2l-1.2,0
		c0.1,0.4,0.1,0.8,0.1,1.2c0,1.7-0.6,3.7-2.6,3.7c-2,0-2.6-2.1-2.6-3.7c0-0.4,0-0.8,0.1-1.2L56.2,18.1z M57.4,18.1
		c0.3-1.3,1-2.5,2.5-2.5c1.5,0,2.3,1.2,2.5,2.5l1.2,0c-0.1-0.7-0.4-1.3-0.9-1.9C61.9,15.3,61,15,59.9,15c-1.1,0-2.2,0.4-2.9,1.3
		c-0.4,0.5-0.7,1.1-0.8,1.8L57.4,18.1z"/>
	<path class="st71" d="M50.7,23.2c0.6,0.3,1.2,0.4,1.9,0.4c0.7,0,1.4-0.1,2-0.4L50.7,23.2z M48.7,18.1c-0.1,0.4-0.1,0.8-0.1,1.1
		c0,1.1,0.3,2.2,1,3.1c0.3,0.4,0.7,0.7,1.1,0.9l3.9,0c0.2-0.1,0.4-0.2,0.6-0.3v-0.6c-0.6,0.5-1.5,0.7-2.3,0.7
		c-2.1,0-3.1-1.7-3.1-3.6c0-0.4,0-0.8,0.1-1.3L48.7,18.1L48.7,18.1z M49.9,18.1c0.1-0.5,0.3-0.9,0.5-1.3c0.5-0.8,1.3-1.2,2.2-1.2
		c0.6,0,1.2,0.2,1.8,0.5l0.1,0.6l0.5,0.1l0.1-1.3l-0.2,0c-0.8-0.2-1.5-0.4-2.3-0.4c-1.2,0-2.2,0.3-3,1.2c-0.4,0.5-0.7,1.2-0.9,1.9
		L49.9,18.1z"/>
	<polygon class="st71" points="60.5,13 60.5,13 61,13 61,13 	"/>
	<path class="st71" d="M102.7,13l0.5,0.7h0.9V13H102.7z M98.1,13L98.1,13l-0.5,0.1l-0.1,0.5h2l-0.1-0.5L99,13l0,0H98.1z M99,13
		l-0.1-1V7.2l3.7,5.8h1.4V7.1l0.1-1l0.5-0.1l0.1-0.5h-2l0.1,0.5l0.5,0.1l0.1,1v5L99,5.4h-1.5L97.6,6l0.5,0.1l0.1,1V12l-0.1,1L99,13
		L99,13z"/>
	<path class="st71" d="M95.4,13L95.4,13l-0.5,0.1l-0.1,0.5h2.3L97,13.1L96.7,13l0,0H95.4z M89.8,13L89.8,13l-0.4,0.1l-0.1,0.5h1.8
		l-0.1-0.5L90.6,13l0,0H89.8z M91.5,10.6L93,6.8l1.5,3.8H91.5z M90.6,13l0.7-1.8h3.4l0.7,1.8h1.2l-0.4-0.9l-2.7-6.8h-0.7l-2.6,6.5
		L89.8,13H90.6z"/>
	<path class="st71" d="M89,13v-0.4c-0.3,0.2-0.5,0.3-0.9,0.4L89,13z"/>
	<path class="st71" d="M83.8,13c0.7,0.6,1.6,0.8,2.6,0.8c0.9,0,1.8-0.2,2.5-0.7V13h-0.9c-0.5,0.2-1,0.3-1.5,0.3
		c-0.5,0-0.9-0.1-1.3-0.3L83.8,13z M85.4,13c-1.2-0.6-1.8-1.9-1.8-3.3c0-0.9,0.2-1.9,0.7-2.6c0.5-0.8,1.3-1.2,2.2-1.2
		c0.6,0,1.2,0.2,1.8,0.5l0.1,0.6l0.5,0.1l0.1-1.3l-0.2,0c-0.8-0.2-1.5-0.4-2.3-0.4c-1.2,0-2.2,0.3-3,1.2c-0.7,0.8-1,2-1,3
		c0,1.1,0.3,2.2,1,3.1c0.1,0.1,0.2,0.3,0.4,0.4L85.4,13z"/>
	<path class="st71" d="M79.7,13L79.7,13l-0.5,0.1l-0.1,0.5h2.3l-0.1-0.5L80.9,13l0,0H79.7z M80.9,13l-0.1-1V7.1l0.1-1L81.4,6
		l0.1-0.5h-2.3L79.3,6l0.5,0.1l0.1,1V12l-0.1,1L80.9,13L80.9,13z"/>
	<path class="st71" d="M76.5,13l0.4,0.6h1.6l-0.1-0.5L78,13l0,0H76.5z M72.6,13L72.6,13l-0.5,0.1l-0.1,0.5h2.2l-0.1-0.5L73.7,13v0
		H72.6z M73.7,9.5V6.1C74.1,6,74.4,6,74.7,6c1,0,1.6,0.5,1.6,1.5c0,0.6-0.2,1.2-0.6,1.5c-0.5,0.4-1.2,0.4-1.8,0.4
		C74,9.5,73.7,9.5,73.7,9.5z M73.7,13V10h1l1.8,2.9H78l-0.6-0.9l-1.5-2.3c1-0.3,1.7-1.2,1.7-2.3c0-0.7-0.2-1.3-0.8-1.6
		c-0.5-0.3-1.1-0.4-1.7-0.4h-3L72.1,6l0.5,0.1l0.1,1V12l-0.1,1L73.7,13L73.7,13z"/>
	<polygon class="st71" points="71.4,13 71.4,12.2 70.8,12.3 70.8,12.9 70.3,13 	"/>
	<path class="st71" d="M66.6,13L66.6,13l-0.5,0.1l-0.1,0.5h5.4l0-0.6h-1.2l-0.6,0h-1.8l0,0H66.6z M67.8,13l-0.1-1V9.6h1.4l1.4,0.1
		l0.1-0.6h-2.9V6h1.6l1.2,0.1l0.1,0.6l0.5,0.1l0.1-1.2h-5.2L66.1,6l0.5,0.1l0.1,1V12l-0.1,1L67.8,13L67.8,13z"/>
	<path class="st71" d="M63.3,13L63.3,13l-0.5,0.1l-0.1,0.5H65L65,13.1L64.5,13l0,0H63.3z M57.3,13L57.3,13l-0.5,0.1l-0.1,0.5h2
		l-0.1-0.5L58.3,13l0,0H57.3z M58.3,13l-0.1-1V7l2.3,5.9H61L63.4,7l0,5l-0.1,1h1.1l-0.1-1V7.1l0.1-1L65,6L65,5.4h-1.7l-2.4,6l-2.3-6
		h-1.9L56.8,6l0.5,0.1l0.1,1V12l-0.1,1L58.3,13L58.3,13z"/>
	<path class="st71" d="M54.6,13L54.6,13l-0.5,0.1L54,13.6h2.3l-0.1-0.5L55.9,13l0,0H54.6z M49,13L49,13l-0.4,0.1l-0.1,0.5h1.8
		l-0.1-0.5L49.8,13l0,0H49z M50.7,10.6l1.5-3.8l1.5,3.8H50.7 M49.8,13l0.7-1.8h3.4l0.7,1.8h1.2l-0.4-0.9l-2.7-6.8h-0.7l-2.6,6.5
		L49,13H49.8z"/>
</g>
</svg>
