<svg id="Layer_1" data-name="Layer 1" xmlns="http://www.w3.org/2000/svg" viewBox="0 0 280 52"><defs><style>.cls-1{fill:white;}</style></defs><title>WesDax_logo_reg</title><path class="cls-1" d="M46.75,50.61H40.49L29.64,11.87,19.44,50.61H13.11L.44.66H6.85l10,40.49H17L27.53.66h5L43.91,41.15h.15L53.3.66h5.46Z"/><path class="cls-1" d="M92.34,40.49c-2.19,6.77-8.67,10.85-15.73,10.85-11.21,0-17-8.88-17-19.22s6-19.45,17.11-19.45c11.51,0,16.46,9.62,16.17,19.88H66.05a17.73,17.73,0,0,0,1.53,8.38,10.66,10.66,0,0,0,9.47,5.6A10.18,10.18,0,0,0,87,39.4ZM86.66,28.33C86.73,22.21,83.31,17,76.75,17c-6.19,0-10.19,5.47-10.41,11.29Z"/><path class="cls-1" d="M105.23,39.69c.8,5,6.7,6.92,11.14,6.92,3.93,0,8.95-1.39,8.95-6.12,0-3.93-4-5-7.2-5.61l-6.05-1.09c-5.68-1.09-10.85-3.71-10.85-10.27,0-7.64,7.07-10.85,13.84-10.85s12.81,2.48,14.63,9.33l-5.24,1.09C123,19,119.21,17.26,115,17.26c-3.35,0-7.87,1.31-7.87,5.39s3.35,4.88,6.63,5.39l5.39.95c2.69.51,5.46,1,7.71,2.54a9.91,9.91,0,0,1,4.45,8.38c0,8.37-8.16,11.43-15.37,11.43s-14.34-3-16.24-10.56Z"/><path class="cls-1" d="M141,.66h15.8c7.14,0,12.46,1.46,17.19,7.06,4.29,5,6,11.29,6,17.77a29.42,29.42,0,0,1-5.17,17.18c-4,5.61-9.17,7.94-16,7.94H141ZM156.42,45.3C162.17,45.3,166.76,44,170,39a25.66,25.66,0,0,0,3.64-13.47c0-5.1-1.31-10.41-4.59-14.49-3.42-4.3-7.43-5.1-12.67-5.1h-9.17V45.3Z"/><path class="cls-1" d="M211.18,27.68V26.07c0-6.48-2.84-8.95-9.39-8.95-4.66,0-9.11,1.45-10.12,6.55l-5.32-.87c1-7.72,9.17-10.13,16-10.13,4,0,8.59.44,11.36,3.65,3.05,3.27,3.05,7.93,3.05,12.16V42.82a27.53,27.53,0,0,0,.8,7.79h-5.68l-.65-6.92c-2.62,5.32-7.06,7.65-13,7.65-6.92,0-12.89-3.86-12.89-11.21a11.38,11.38,0,0,1,6.84-10.27c4.16-2,9.62-2.18,14.2-2.18Zm0,4.29h-4.73c-5.83,0-15,.8-15,8.45,0,4.58,3.93,6.48,8,6.48,7,0,11.72-6,11.72-12.53Z"/><path class="cls-1" d="M243.15,23.52l15.94,27.09H252l-12.6-21.26-13.1,21.26H220.5l16-25.85L222.25.66h7l11,18.5L251.38.66h5.75Z"/><path class="cls-1" d="M270.52,1a8.92,8.92,0,1,1-8.9,8.94A8.92,8.92,0,0,1,270.52,1Zm0,16.24a7.32,7.32,0,1,0-7.3-7.3A7.32,7.32,0,0,0,270.52,17.28Zm-1.73-2.55h-2V5.19h4.45c.56,0,3.63,0,3.63,2.85a2.6,2.6,0,0,1-1.77,2.55l1.77,4.14h-2.16l-1.55-3.8h-2.34Zm0-5.4h2.12c.69,0,1.81-.17,1.81-1.34,0-.56-.39-1.25-1.64-1.25h-2.29Z"/></svg>