<svg id="Layer_1" data-name="Layer 1" xmlns="http://www.w3.org/2000/svg" viewBox="0 0 100 27"><defs><style>.cls-1{fill:white;}</style></defs><title>westat_logo</title><path class="cls-1" d="M48,21.53H44.9l-2.21-8.94h0l-2.12,8.94H37.46L34,8H37.2l2.07,9.1h0L41.49,8h2.92l2.26,9.1h0l.12-.59L48.8,8h2.6Z"/><path class="cls-1" d="M54.27,17l0,.49a1.93,1.93,0,0,0,1.93,2.15A1.71,1.71,0,0,0,58,18.09l2.68.19a4.57,4.57,0,0,1-4.55,3.45,4.75,4.75,0,0,1-5-5.06c0-3,1.76-5.34,4.87-5.34a4.56,4.56,0,0,1,3.66,1.77,6.39,6.39,0,0,1,1,3.92Zm3.53-1.71c-.06-1.09-.41-2.09-1.67-2.09s-1.78.95-1.88,2.09Z"/><path class="cls-1" d="M68,14.52a1.82,1.82,0,0,0-2-1.34c-.59,0-1.5.16-1.5.89,0,1.87,6-.26,6,4.25a3.12,3.12,0,0,1-1.34,2.58,5.35,5.35,0,0,1-3.11.83c-2.09,0-4-.71-4.57-3l2.5-.35c.2,1,1.28,1.34,2.21,1.34.55,0,1.75-.2,1.75-1S67.45,18,66.92,18a22.13,22.13,0,0,1-3-.59,2.83,2.83,0,0,1-2-2.7c0-2.46,2.14-3.35,4.27-3.35A3.72,3.72,0,0,1,70.19,14Z"/><path class="cls-1" d="M77.81,13.81H75.66v4c0,1.32.1,1.61,1.34,1.61a9.2,9.2,0,0,0,1-.07v2.18a8.3,8.3,0,0,1-1.82.22,4.35,4.35,0,0,1-2.58-.65c-.8-.67-.8-1.87-.8-2.86V13.81H71.13v-2.3h1.76l.25-2.94,2.52-.19v3.13h2.15Z"/><path class="cls-1" d="M85.49,21.53A5.82,5.82,0,0,1,85.35,20a3.51,3.51,0,0,1-3.19,1.75c-1.77,0-3.15-.95-3.15-2.84a3.12,3.12,0,0,1,2.25-3,16.79,16.79,0,0,1,3.95-.63v-.24A2.1,2.1,0,0,0,85,13.73a1.52,1.52,0,0,0-1.18-.47c-.93,0-1.74.47-1.74,1.46l-2.73-.26C79.6,12,82,11.33,84.07,11.33a5.28,5.28,0,0,1,3.17.91c1,.82.93,1.93.93,3.13V20a5,5,0,0,0,.19,1.5Zm-.28-4.78c-1.1.11-3.13.37-3.13,1.83a1.21,1.21,0,0,0,1.28,1.32,1.76,1.76,0,0,0,1.46-.83,3.17,3.17,0,0,0,.39-1.93Z"/><path class="cls-1" d="M95.93,13.81H93.78v4c0,1.32.1,1.61,1.34,1.61a8.85,8.85,0,0,0,1-.07v2.18a8.28,8.28,0,0,1-1.81.22,4.35,4.35,0,0,1-2.58-.65c-.8-.67-.8-1.87-.8-2.86V13.81H89.25v-2.3H91l.26-2.94,2.52-.19v3.13h2.15Z"/><path class="cls-1" d="M97.42,8A1.44,1.44,0,1,1,96,9.47,1.43,1.43,0,0,1,97.42,8Zm0,2.61a1.18,1.18,0,1,0-1.17-1.17A1.18,1.18,0,0,0,97.42,10.64Zm-.28-.41h-.33V8.7h.72c.09,0,.58,0,.58.45a.41.41,0,0,1-.28.41l.28.67h-.35l-.25-.61h-.37Zm0-.87h.34c.11,0,.29,0,.29-.21s-.06-.2-.26-.2h-.37Z"/><polygon class="cls-1" points="28.8 0.63 13.39 21.91 15.95 26.37 30.75 0.63 28.8 0.63"/><polygon class="cls-1" points="25.22 0.63 24.05 0.63 10.86 17.51 20.24 0.63 1.16 0.63 13.39 21.91 25.22 0.63"/></svg>