<svg id="Layer_1" data-name="Layer 1" xmlns="http://www.w3.org/2000/svg" viewBox="0 0 44 26"><defs><style>.cls-1{fill:#fff;stroke-width:3px;}.cls-1,.cls-3{stroke:#fff;}.cls-1,.cls-2{stroke-miterlimit:10;}.cls-2,.cls-3{fill:none;}.cls-2{stroke:#003b71;}.cls-3{stroke-linecap:round;stroke-linejoin:round;}.cls-4{fill:#003b71;}</style></defs><title>wesvar_icon</title><ellipse class="cls-1" cx="22" cy="13.43" rx="19.48" ry="9.78"/><ellipse class="cls-2" cx="22" cy="13.43" rx="19.48" ry="9.78"/><polygon class="cls-3" points="26.35 11.8 25.12 11.8 26.89 16.83 27.87 16.83 33.37 2.23 31.22 2.23 27.36 15.09 26.35 11.8"/><path class="cls-3" d="M36.06,3.95a.85.85,0,1,1-.85-.83A.83.83,0,0,1,36.06,3.95Zm-1.49,0a.64.64,0,0,0,.64.66A.63.63,0,0,0,35.84,4a.64.64,0,1,0-1.27,0Zm.51.43h-.19V3.55a1.67,1.67,0,0,1,.32,0,.52.52,0,0,1,.29.06.23.23,0,0,1,.08.18A.21.21,0,0,1,35.4,4h0a.24.24,0,0,1,.15.2.64.64,0,0,0,.06.21h-.21a.71.71,0,0,1-.07-.2c0-.09-.07-.13-.17-.13h-.09Zm0-.47h.09c.11,0,.19,0,.19-.12s-.06-.13-.18-.13h-.11Z"/><path class="cls-3" d="M8.4,9.9l.92,4L9.52,15l.2-1.08.78-4H12l.82,4L13.06,15l.21-1.06.92-4h1.48l-2,6.94H12.34l-.84-4.06-.24-1.34L11,12.78l-.84,4.06H8.83l-2-6.94ZM19,11.81a2.09,2.09,0,0,1,.89.76,2.52,2.52,0,0,1,.41,1.06,6.55,6.55,0,0,1,0,1H16.55a1.23,1.23,0,0,0,.54,1.08,1.36,1.36,0,0,0,.74.19,1,1,0,0,0,1-.59h1.37a1.68,1.68,0,0,1-.5.93,2.49,2.49,0,0,1-1.93.75A2.8,2.8,0,0,1,16,16.38a2.49,2.49,0,0,1-.78-2.05,2.77,2.77,0,0,1,.71-2,2.47,2.47,0,0,1,1.83-.71A2.93,2.93,0,0,1,19,11.81Zm-2,1.16a1.39,1.39,0,0,0-.36.79H18.9a1.12,1.12,0,0,0-.36-.81,1.18,1.18,0,0,0-.8-.28A1.07,1.07,0,0,0,16.94,13Zm4.94,2.23a.89.89,0,0,0,.18.51A1.25,1.25,0,0,0,23,16a1.42,1.42,0,0,0,.63-.12.39.39,0,0,0,0-.7,7.69,7.69,0,0,0-1.4-.4A2.91,2.91,0,0,1,21,14.22a1.17,1.17,0,0,1-.36-.92,1.6,1.6,0,0,1,.56-1.22,2.25,2.25,0,0,1,1.57-.51,2.9,2.9,0,0,1,1.57.38,1.64,1.64,0,0,1,.7,1.33H23.73a.79.79,0,0,0-.15-.41.92.92,0,0,0-.75-.27,1.09,1.09,0,0,0-.63.14A.39.39,0,0,0,22,13a.35.35,0,0,0,.2.33,8.6,8.6,0,0,0,1.4.37,2.57,2.57,0,0,1,1.2.57,1.29,1.29,0,0,1,.4,1,1.55,1.55,0,0,1-.57,1.24,2.67,2.67,0,0,1-1.76.48,2.65,2.65,0,0,1-1.79-.51,1.66,1.66,0,0,1-.58-1.3Zm10.23-1.48a2.1,2.1,0,0,0,.54-.12.4.4,0,0,0,.29-.38.45.45,0,0,0-.22-.44,1.42,1.42,0,0,0-.65-.12.85.85,0,0,0-.68.24,1,1,0,0,0-.19.47H29.9a2,2,0,0,1,.38-1.11,2.21,2.21,0,0,1,1.83-.68,3.27,3.27,0,0,1,1.5.33,1.28,1.28,0,0,1,.66,1.26v2.35q0,.24,0,.59a.75.75,0,0,0,.08.36.47.47,0,0,0,.2.16v.2H33.1a1.47,1.47,0,0,1-.08-.29q0-.14,0-.31a2.78,2.78,0,0,1-.64.51,1.94,1.94,0,0,1-1,.25,1.7,1.7,0,0,1-1.16-.4,1.41,1.41,0,0,1-.46-1.13,1.46,1.46,0,0,1,.73-1.37,3.29,3.29,0,0,1,1.19-.33Zm.82.63a1.54,1.54,0,0,1-.26.13,2.31,2.31,0,0,1-.36.09l-.31.06a2,2,0,0,0-.62.18.61.61,0,0,0-.32.57.59.59,0,0,0,.19.5.73.73,0,0,0,.47.15,1.4,1.4,0,0,0,.81-.25,1.08,1.08,0,0,0,.38-.93Zm5.19-2.76h.12V13L38,13h-.16a1.11,1.11,0,0,0-1.09.53,2,2,0,0,0-.16.91v2.45H35.26V11.71h1.28v.89a2.83,2.83,0,0,1,.54-.7,1.47,1.47,0,0,1,1-.32Z"/><polygon class="cls-4" points="26.35 11.8 25.12 11.8 26.89 16.83 27.87 16.83 33.37 2.23 31.22 2.23 27.36 15.09 26.35 11.8"/><path class="cls-4" d="M36.06,3.95a.85.85,0,1,1-.85-.83A.83.83,0,0,1,36.06,3.95Zm-1.49,0a.64.64,0,0,0,.64.66A.63.63,0,0,0,35.84,4a.64.64,0,1,0-1.27,0Zm.51.43h-.19V3.55a1.67,1.67,0,0,1,.32,0,.52.52,0,0,1,.29.06.23.23,0,0,1,.08.18A.21.21,0,0,1,35.4,4h0a.24.24,0,0,1,.15.2.64.64,0,0,0,.06.21h-.21a.71.71,0,0,1-.07-.2c0-.09-.07-.13-.17-.13h-.09Zm0-.47h.09c.11,0,.19,0,.19-.12s-.06-.13-.18-.13h-.11Z"/><path class="cls-4" d="M8.4,9.9l.92,4L9.52,15l.2-1.08.78-4H12l.82,4L13.06,15l.21-1.06.92-4h1.48l-2,6.94H12.34l-.84-4.06-.24-1.34L11,12.78l-.84,4.06H8.83l-2-6.94ZM19,11.81a2.09,2.09,0,0,1,.89.76,2.52,2.52,0,0,1,.41,1.06,6.55,6.55,0,0,1,0,1H16.55a1.23,1.23,0,0,0,.54,1.08,1.36,1.36,0,0,0,.74.19,1,1,0,0,0,1-.59h1.37a1.68,1.68,0,0,1-.5.93,2.49,2.49,0,0,1-1.93.75A2.8,2.8,0,0,1,16,16.38a2.49,2.49,0,0,1-.78-2.05,2.77,2.77,0,0,1,.71-2,2.47,2.47,0,0,1,1.83-.71A2.93,2.93,0,0,1,19,11.81Zm-2,1.16a1.39,1.39,0,0,0-.36.79H18.9a1.12,1.12,0,0,0-.36-.81,1.18,1.18,0,0,0-.8-.28A1.07,1.07,0,0,0,16.94,13Zm4.94,2.23a.89.89,0,0,0,.18.51A1.25,1.25,0,0,0,23,16a1.42,1.42,0,0,0,.63-.12.39.39,0,0,0,0-.7,7.69,7.69,0,0,0-1.4-.4A2.91,2.91,0,0,1,21,14.22a1.17,1.17,0,0,1-.36-.92,1.6,1.6,0,0,1,.56-1.22,2.25,2.25,0,0,1,1.57-.51,2.9,2.9,0,0,1,1.57.38,1.64,1.64,0,0,1,.7,1.33H23.73a.79.79,0,0,0-.15-.41.92.92,0,0,0-.75-.27,1.09,1.09,0,0,0-.63.14A.39.39,0,0,0,22,13a.35.35,0,0,0,.2.33,8.6,8.6,0,0,0,1.4.37,2.57,2.57,0,0,1,1.2.57,1.29,1.29,0,0,1,.4,1,1.55,1.55,0,0,1-.57,1.24,2.67,2.67,0,0,1-1.76.48,2.65,2.65,0,0,1-1.79-.51,1.66,1.66,0,0,1-.58-1.3Zm10.23-1.48a2.1,2.1,0,0,0,.54-.12.4.4,0,0,0,.29-.38.45.45,0,0,0-.22-.44,1.42,1.42,0,0,0-.65-.12.85.85,0,0,0-.68.24,1,1,0,0,0-.19.47H29.9a2,2,0,0,1,.38-1.11,2.21,2.21,0,0,1,1.83-.68,3.27,3.27,0,0,1,1.5.33,1.28,1.28,0,0,1,.66,1.26v2.35q0,.24,0,.59a.75.75,0,0,0,.08.36.47.47,0,0,0,.2.16v.2H33.1a1.47,1.47,0,0,1-.08-.29q0-.14,0-.31a2.78,2.78,0,0,1-.64.51,1.94,1.94,0,0,1-1,.25,1.7,1.7,0,0,1-1.16-.4,1.41,1.41,0,0,1-.46-1.13,1.46,1.46,0,0,1,.73-1.37,3.29,3.29,0,0,1,1.19-.33Zm.82.63a1.54,1.54,0,0,1-.26.13,2.31,2.31,0,0,1-.36.09l-.31.06a2,2,0,0,0-.62.18.61.61,0,0,0-.32.57.59.59,0,0,0,.19.5.73.73,0,0,0,.47.15,1.4,1.4,0,0,0,.81-.25,1.08,1.08,0,0,0,.38-.93Zm5.19-2.76h.12V13L38,13h-.16a1.11,1.11,0,0,0-1.09.53,2,2,0,0,0-.16.91v2.45H35.26V11.71h1.28v.89a2.83,2.83,0,0,1,.54-.7,1.47,1.47,0,0,1,1-.32Z"/></svg>