<svg id="Layer_1" data-name="Layer 1" xmlns="http://www.w3.org/2000/svg" viewBox="0 0 31.18 33.45"><defs><style>.cls-1{fill:#00467f;}.cls-2{fill:#fff;}.cls-3{fill:none;stroke:#00467f;stroke-miterlimit:10;}</style></defs><title>white-paper_icon</title><g id="surface1"><path class="cls-1" d="M6,1.52A4.8,4.8,0,0,0,1.16,6.31V27.87A4.8,4.8,0,0,0,6,32.66H20.32a4.8,4.8,0,0,0,4.79-4.79V11.1c0-1.27-1.16-2.48-3.25-4.52-.29-.29-.6-.61-.9-.9s-.61-.57-.9-.86c-2-2.1-3.25-3.3-4.53-3.3Zm0,2.4h8.72c.87.22.86,1.26.86,2.32V9.91a1.19,1.19,0,0,0,1.2,1.19h3.59c1.2,0,2.4,0,2.4,1.2V27.87a2.4,2.4,0,0,1-2.4,2.4H6a2.4,2.4,0,0,1-2.39-2.4V6.31A2.39,2.39,0,0,1,6,3.92Zm1,9.58a1.2,1.2,0,1,0,.22,2.39h12a1.2,1.2,0,0,0,1.05-.59,1.24,1.24,0,0,0,0-1.21,1.2,1.2,0,0,0-1.05-.59H6.93Zm0,4.79A1.21,1.21,0,0,0,5.84,19.6a1.19,1.19,0,0,0,1.31,1.08h9.58a1.2,1.2,0,1,0,0-2.39H6.93Zm0,4.79a1.21,1.21,0,0,0,.22,2.4h12a1.2,1.2,0,0,0,1.05-.6,1.24,1.24,0,0,0,0-1.21,1.22,1.22,0,0,0-1.05-.59H6.93Z" transform="translate(-1.16 -1.52)"/></g><rect class="cls-2" x="11.65" y="21.33" width="19.03" height="11.63" rx="2" ry="2"/><rect class="cls-3" x="11.65" y="21.33" width="19.03" height="11.63" rx="2" ry="2"/><path class="cls-1" d="M15.09,25.85a6.43,6.43,0,0,1,.83-.11c.31,0,.61,0,.91,0a6,6,0,0,1,.94.07,2.33,2.33,0,0,1,.85.31,1.73,1.73,0,0,1,.62.64,2.08,2.08,0,0,1,.24,1.06,2.19,2.19,0,0,1-.21,1,2,2,0,0,1-.55.67,2.36,2.36,0,0,1-.78.38A3.82,3.82,0,0,1,17,30h-.35l-.22,0h-.14v2.17H15.09Zm1.84.91h-.34l-.26,0v2.05h.1l.16,0h.27a2.59,2.59,0,0,0,.48,0,1.25,1.25,0,0,0,.43-.17.91.91,0,0,0,.3-.34,1.27,1.27,0,0,0,.11-.56,1,1,0,0,0-.11-.49.77.77,0,0,0-.28-.31,1.1,1.1,0,0,0-.4-.17A2.32,2.32,0,0,0,16.93,26.76Z" transform="translate(-1.16 -1.52)"/><path class="cls-1" d="M20.24,25.79l.43-.05.49,0h.92a3.87,3.87,0,0,1,1.43.23,2.57,2.57,0,0,1,1,.66,2.53,2.53,0,0,1,.54,1,4.89,4.89,0,0,1,0,2.52,2.91,2.91,0,0,1-.54,1.05,2.75,2.75,0,0,1-1,.74,3.76,3.76,0,0,1-1.52.27h-.38l-.5,0-.49,0-.35,0Zm1.93,1h-.4l-.3,0v4.22h.63A1.75,1.75,0,0,0,23,30.9a1.38,1.38,0,0,0,.55-.49,1.81,1.81,0,0,0,.28-.7,3.83,3.83,0,0,0,.08-.83,3.78,3.78,0,0,0-.07-.74,1.87,1.87,0,0,0-.26-.67A1.56,1.56,0,0,0,23,27,1.75,1.75,0,0,0,22.17,26.79Z" transform="translate(-1.16 -1.52)"/><path class="cls-1" d="M26.06,25.79H29.8v1.09H27.3v1.56h2.3v1.1H27.3v2.55H26.06Z" transform="translate(-1.16 -1.52)"/></svg>