<svg id="Layer_1" data-name="Layer 1" xmlns="http://www.w3.org/2000/svg" viewBox="0 0 220 42"><defs><style>.cls-1{fill:#c94726;}</style></defs><title>WesDaX_logo</title><path class="cls-1" d="M37.06,40.27h-4.9L23.66,9.94l-8,30.33h-5L.8,1.16h5l7.81,31.7h.11L22,1.16h3.93l8.9,31.7H35l7.24-31.7h4.28Z"/><path class="cls-1" d="M72.75,32.34a12.64,12.64,0,0,1-12.32,8.5c-8.78,0-13.28-7-13.28-15.05s4.73-15.22,13.4-15.22c9,0,12.88,7.52,12.65,15.56h-21a13.89,13.89,0,0,0,1.19,6.56,8.35,8.35,0,0,0,7.41,4.39,8,8,0,0,0,7.76-5.59ZM68.3,22.82C68.36,18,65.68,14,60.55,14c-4.85,0-8,4.27-8.16,8.83Z"/><path class="cls-1" d="M82.84,31.72c.62,3.93,5.24,5.41,8.72,5.41,3.08,0,7-1.08,7-4.79,0-3.07-3.14-3.93-5.64-4.39l-4.74-.85c-4.44-.86-8.49-2.91-8.49-8,0-6,5.53-8.49,10.83-8.49s10,1.94,11.46,7.29l-4.1.86c-1.15-3.19-4.11-4.56-7.42-4.56-2.62,0-6.15,1-6.15,4.22s2.62,3.82,5.19,4.22l4.21.74a15.94,15.94,0,0,1,6,2,7.76,7.76,0,0,1,3.47,6.56c0,6.55-6.38,9-12,9S80,38.5,78.5,32.57Z"/><path class="cls-1" d="M110.83,1.16H123.2c5.58,0,9.74,1.14,13.45,5.53a20.94,20.94,0,0,1,4.73,13.91,23,23,0,0,1-4,13.45c-3.13,4.39-7.18,6.22-12.54,6.22h-14Zm12.08,35c4.5,0,8.1-1,10.66-5a20.07,20.07,0,0,0,2.85-10.55,18,18,0,0,0-3.59-11.34c-2.68-3.37-5.81-4-9.92-4h-7.18V36.11Z"/><path class="cls-1" d="M165.78,22.31V21.06c0-5.08-2.22-7-7.35-7-3.65,0-7.13,1.15-7.93,5.14l-4.16-.69c.8-6,7.18-7.92,12.48-7.92,3.14,0,6.73.34,8.9,2.85,2.39,2.56,2.39,6.21,2.39,9.52V34.17a21.33,21.33,0,0,0,.63,6.1h-4.45l-.51-5.42c-2.05,4.16-5.53,6-10.15,6-5.41,0-10.09-3-10.09-8.78a8.92,8.92,0,0,1,5.36-8c3.25-1.54,7.53-1.71,11.12-1.71Zm0,3.36h-3.71c-4.56,0-11.74.63-11.74,6.62,0,3.59,3.08,5.07,6.27,5.07,5.47,0,9.18-4.67,9.18-9.8Z"/><path class="cls-1" d="M190.81,19.06l12.48,21.21h-5.53L187.9,23.62,177.64,40.27h-4.56L185.62,20,174.44,1.16h5.48l8.6,14.48,8.73-14.48h4.5Z"/><path class="cls-1" d="M212.23,1.46a7,7,0,1,1-7,7A7,7,0,0,1,212.23,1.46Zm0,12.72a5.74,5.74,0,1,0-5.71-5.72A5.73,5.73,0,0,0,212.23,14.18Zm-1.35-2h-1.59V4.71h3.48c.44,0,2.84,0,2.84,2.23a2,2,0,0,1-1.38,2l1.38,3.24h-1.69l-1.22-3h-1.82Zm0-4.22h1.66c.54,0,1.42-.14,1.42-1,0-.44-.31-1-1.29-1h-1.79Z"/></svg>